<?xml version="1.0" encoding="utf-8"?>
<!-- Generator: Adobe Illustrator 24.3.0, SVG Export Plug-In . SVG Version: 6.00 Build 0)  -->
<svg version="1.1" id="Layer_1" xmlns="http://www.w3.org/2000/svg" xmlns:xlink="http://www.w3.org/1999/xlink" x="0px" y="0px"
	 viewBox="0 0 632 522" style="enable-background:new 0 0 632 522;" xml:space="preserve">
<style type="text/css">
	.st0{fill:none;stroke:#4F9CF9;stroke-width:3;stroke-dasharray:15,15;}
	.st1{fill:#FFFFFF;}
	.st2{clip-path:url(#SVGID_2_);}
	.st3{fill:#FF4340;}
	.st4{fill:#36C6FF;}
	.st5{fill:#0DC46E;}
	.st6{fill:#FDCB02;}
	.st7{clip-path:url(#SVGID_4_);}
	.st8{fill:#1976D2;}
	.st9{fill:#2196F3;}
	.st10{fill:#FAFAFA;}
	.st11{clip-path:url(#SVGID_6_);}
	.st12{fill:#59C36A;}
	.st13{fill:#FFDA2D;}
	.st14{fill:#FDBF00;}
	.st15{fill:#4086F4;}
	.st16{fill:#4175DF;}
	.st17{clip-path:url(#SVGID_8_);}
	.st18{fill:#0093EB;}
	.st19{clip-path:url(#SVGID_10_);}
	.st20{fill:#E3E7EA;}
	.st21{fill:#BABAC0;}
	.st22{fill:#FFF5F5;}
	.st23{clip-path:url(#SVGID_12_);}
	.st24{fill:#ECEFF1;}
	.st25{fill:#CFD8DC;}
	.st26{fill:#F44336;}
	.st27{fill:#5986EF;}
</style>
<circle class="st0" cx="309.8" cy="205" r="144.5"/>
<circle class="st0" cx="206.9" cy="350.5" r="144.5"/>
<circle class="st0" cx="425.1" cy="350.5" r="144.5"/>
<g>
	
		<image style="overflow:visible;opacity:0.25;" width="104" height="104" xlink:href="7FFEDD1F.png"  transform="matrix(1 0 0 1 402 163)">
	</image>
	<g>
		<circle class="st1" cx="454.2" cy="208.1" r="36.4"/>
	</g>
</g>
<g>
	<defs>
		<rect id="SVGID_1_" x="432.4" y="186.3" width="43.7" height="43.7"/>
	</defs>
	<clipPath id="SVGID_2_">
		<use xlink:href="#SVGID_1_"  style="overflow:visible;"/>
	</clipPath>
	<g class="st2">
		<path class="st3" d="M448.4,209.4c-2.5,0-4.6,2-4.6,4.6v11.4c0,2.5,2,4.6,4.6,4.6c2.5,0,4.6-2,4.6-4.6V214
			C452.9,211.5,450.9,209.4,448.4,209.4z"/>
		<path class="st3" d="M441.3,209.4h-4.4c-2.4,0-4.4,2-4.4,4.4s2,4.4,4.4,4.4c2.4,0,4.4-2,4.4-4.4V209.4z"/>
		<path class="st4" d="M432.4,202.3c0,2.5,2,4.6,4.6,4.6h11.4c2.5,0,4.6-2,4.6-4.6c0-2.5-2-4.6-4.6-4.6H437
			C434.4,197.7,432.4,199.8,432.4,202.3L432.4,202.3z"/>
		<path class="st4" d="M448.5,195.2h4.4v-4.4c0-2.4-2-4.4-4.4-4.4c-2.4,0-4.4,2-4.4,4.4C444.1,193.2,446.1,195.2,448.5,195.2z"/>
		<path class="st5" d="M460.1,206.9c2.5,0,4.6-2,4.6-4.6v-11.4c0-2.5-2-4.6-4.6-4.6c-2.5,0-4.6,2-4.6,4.6v11.4
			C455.5,204.8,457.6,206.9,460.1,206.9z"/>
		<path class="st5" d="M467.2,206.9h4.4c2.4,0,4.4-2,4.4-4.4c0-2.4-2-4.4-4.4-4.4c-2.4,0-4.4,2-4.4,4.4V206.9z"/>
		<path class="st6" d="M476,214c0-2.5-2-4.6-4.6-4.6h-11.4c-2.5,0-4.6,2-4.6,4.6c0,2.5,2,4.6,4.6,4.6h11.4
			C474,218.5,476,216.5,476,214z"/>
		<path class="st6" d="M459.9,221.1h-4.4v4.4c0,2.4,2,4.4,4.4,4.4c2.4,0,4.4-2,4.4-4.4C464.3,223.1,462.4,221.1,459.9,221.1z"/>
	</g>
</g>
<g>
	
		<image style="overflow:visible;opacity:0.25;" width="103" height="104" xlink:href="7FFEDD1D.png"  transform="matrix(1 0 0 1 10 294)">
	</image>
	<g>
		<circle class="st1" cx="61.4" cy="339.1" r="36.4"/>
	</g>
</g>
<g>
	<defs>
		<rect id="SVGID_3_" x="39.5" y="317.3" width="43.7" height="43.7"/>
	</defs>
	<clipPath id="SVGID_4_">
		<use xlink:href="#SVGID_3_"  style="overflow:visible;"/>
	</clipPath>
	<g class="st7">
		<path class="st8" d="M81.8,326.8H62.7c-0.8,0-1.4,0.6-1.4,1.4s0.6,1.4,1.4,1.4h15.1l-8.4,6.5l-6-3.8l-1.5,2.3l6.8,4.3
			c0.2,0.1,0.5,0.2,0.7,0.2c0.3,0,0.6-0.1,0.8-0.3l10.1-7.8v17.7H62.7c-0.8,0-1.4,0.6-1.4,1.4c0,0.8,0.6,1.4,1.4,1.4h19.1
			c0.8,0,1.4-0.6,1.4-1.4v-21.8C83.2,327.4,82.6,326.8,81.8,326.8z"/>
		<path class="st9" d="M63.6,318.9c-0.3-0.3-0.7-0.4-1.1-0.3l-21.8,4.1c-0.6,0.1-1.1,0.7-1.1,1.3v30c0,0.7,0.5,1.2,1.1,1.3l21.8,4.1
			c0.1,0,0.2,0,0.3,0c0.3,0,0.6-0.1,0.9-0.3c0.3-0.3,0.5-0.6,0.5-1.1V320C64.1,319.6,63.9,319.2,63.6,318.9z"/>
		<path class="st10" d="M51.8,348.6c-3.8,0-6.8-3.7-6.8-8.2c0-4.5,3.1-8.2,6.8-8.2c3.8,0,6.8,3.7,6.8,8.2
			C58.6,345,55.6,348.6,51.8,348.6z M51.8,335c-2.3,0-4.1,2.4-4.1,5.5s1.8,5.5,4.1,5.5c2.3,0,4.1-2.4,4.1-5.5S54.1,335,51.8,335z"/>
	</g>
</g>
<g>
	
		<image style="overflow:visible;opacity:0.25;" width="103" height="104" xlink:href="7FFEDD23.png"  transform="matrix(1 0 0 1 519 294)">
	</image>
	<g>
		<circle class="st1" cx="570.6" cy="339.1" r="36.4"/>
	</g>
</g>
<g>
	<defs>
		<rect id="SVGID_5_" x="548.8" y="317.3" width="43.7" height="43.7"/>
	</defs>
	<clipPath id="SVGID_6_">
		<use xlink:href="#SVGID_5_"  style="overflow:visible;"/>
	</clipPath>
	<g class="st11">
		<path class="st12" d="M570.6,331l-9.1,15.7h0l5.2,6.4l-11.8,4.9c-0.2-0.1-0.4-0.3-0.5-0.5l-5.5-10.2c-0.3-0.6-0.1-1,0-1.3
			l14.8-25.6c0.1-0.2,0.3-0.3,0.5-0.4h0l7.6,2.4L570.6,331z"/>
		<path class="st13" d="M592.5,346.8l-10.3,6.4l-2.4-6.4l-9.2-15.7l-6.3-11c0.2-0.1,0.4-0.2,0.6-0.2h11.5c0.3,0.1,0.8,0.1,1.1,0.6
			l14.8,25.6C592.4,346.3,592.5,346.5,592.5,346.8z"/>
		<path class="st14" d="M577.5,320.5c-0.3-0.6-0.8-0.6-1.1-0.6h-5.8V331l9.2,15.7l2.4,6.4l10.3-6.4c0-0.2-0.1-0.5-0.2-0.6
			L577.5,320.5z"/>
		<path class="st15" d="M592.5,346.8c0,0.2-0.1,0.5-0.1,0.6l-5.5,10.2c-0.2,0.3-0.7,0.7-1.1,0.7h-30.1c-0.2,0-0.4-0.1-0.6-0.2
			l6.5-11.3H592.5z"/>
		<path class="st16" d="M570.6,358.3h15.1c0.4,0,0.9-0.3,1.1-0.7l5.5-10.2c0.1-0.2,0.1-0.4,0.1-0.6h-21.9V358.3L570.6,358.3z"/>
	</g>
</g>
<g>
	
		<image style="overflow:visible;opacity:0.25;" width="104" height="104" xlink:href="7FFEDD25.png"  transform="matrix(1 0 0 1 112 163)">
	</image>
	<g>
		<circle class="st1" cx="164.3" cy="208.1" r="36.4"/>
	</g>
</g>
<g>
	<defs>
		<rect id="SVGID_7_" x="142.4" y="186.3" width="43.7" height="43.7"/>
	</defs>
	<clipPath id="SVGID_8_">
		<use xlink:href="#SVGID_7_"  style="overflow:visible;"/>
	</clipPath>
	<g class="st17">
		<path class="st18" d="M151,219v-3.5l5.9,3.4l7.3-6.9v15.6L151,219z"/>
		<path class="st18" d="M143.9,209.7l7.7-7l12.6,7.8l-7.3,6.9L143.9,209.7z"/>
		<path class="st18" d="M151.6,202.7l-9.2-7l13.3-7l9.4,6.2L151.6,202.7z"/>
		<path class="st18" d="M177.5,219l-13.3,8.6V212l7.6,6.5l5.7-3.6V219z"/>
		<path class="st18" d="M171.8,217l-7.6-6.5l12.7-8.1l7.6,6.5L171.8,217z"/>
		<path class="st18" d="M177,202.4l-11.9-7.5l9.4-6.2l11.7,7L177,202.4z"/>
	</g>
</g>
<g>
	
		<image style="overflow:visible;opacity:0.25;" width="104" height="104" xlink:href="7FFEDD27.png"  transform="matrix(1 0 0 1 264 397)">
	</image>
	<g>
		<circle class="st1" cx="316" cy="442" r="36.4"/>
	</g>
</g>
<g>
	<defs>
		<rect id="SVGID_9_" x="294.2" y="420.1" width="43.7" height="43.7"/>
	</defs>
	<clipPath id="SVGID_10_">
		<use xlink:href="#SVGID_9_"  style="overflow:visible;"/>
	</clipPath>
	<g class="st19">
		<path class="st20" d="M333.9,433.1h-35.8c-0.7,0-1.3-0.6-1.3-1.3V424c0-2.1,1.7-3.8,3.8-3.8h30.7c2.1,0,3.8,1.7,3.8,3.8v7.8
			C335.2,432.5,334.6,433.1,333.9,433.1z"/>
		<path class="st21" d="M331.4,420.1H316v13h17.9c0.7,0,1.3-0.6,1.3-1.3V424C335.2,421.9,333.5,420.1,331.4,420.1z"/>
		<path class="st15" d="M296.8,447.2C296.8,447.2,296.8,447.2,296.8,447.2l-2.5-12.1c-0.2-1.2,0.1-2.3,0.8-3.1
			c0.7-0.9,1.8-1.4,2.9-1.4H334c1.1,0,2.2,0.5,2.9,1.4c0.7,0.8,1,2,0.8,3.1l-2.5,12.2l2.5,12.1c0.2,1.2-0.1,2.3-0.8,3.1
			c-0.7,0.9-1.8,1.4-2.9,1.4H298c-1.1,0-2.2-0.5-2.9-1.4c-0.7-0.8-1-2-0.8-3.1C294.3,459.3,296.8,447.4,296.8,447.2z"/>
		<path class="st16" d="M296.8,447.2C296.8,447.2,296.8,447.2,296.8,447.2l38.4,0l2.5-12.2c0.2-1.1-0.1-2.3-0.8-3.1
			c-0.7-0.9-1.8-1.4-2.9-1.4H298c-1.1,0-2.2,0.5-2.9,1.4c-0.7,0.8-1,2-0.8,3.1L296.8,447.2z"/>
		<path class="st22" d="M303.2,427.8c0.7,0,1.3-0.6,1.3-1.3s-0.6-1.3-1.3-1.3s-1.3,0.6-1.3,1.3S302.5,427.8,303.2,427.8z"/>
		<path class="st20" d="M328.8,427.8c0.7,0,1.3-0.6,1.3-1.3s-0.6-1.3-1.3-1.3s-1.3,0.6-1.3,1.3S328.1,427.8,328.8,427.8z"/>
		<path class="st22" d="M310.9,456.1c-2.2,0-4.1-1.4-4.8-3.4c-0.2-0.7,0.1-1.4,0.8-1.6c0.7-0.2,1.4,0.1,1.6,0.8
			c0.4,1,1.3,1.7,2.4,1.7c1.4,0,2.6-1.1,2.6-2.6s-1.1-2.6-2.6-2.6h-1.6c-0.7,0-1.3-0.6-1.3-1.3c0-0.7,0.6-1.3,1.3-1.3h1.6
			c1.4,0,2.6-1.1,2.6-2.6s-1.1-2.6-2.6-2.6c-1.1,0-2.1,0.7-2.4,1.7c-0.2,0.7-1,1-1.6,0.8c-0.7-0.2-1-1-0.8-1.6
			c0.7-2,2.7-3.4,4.8-3.4c2.8,0,5.1,2.3,5.1,5.1c0,1.5-0.7,2.9-1.7,3.8c1.1,0.9,1.7,2.3,1.7,3.8C316,453.8,313.7,456.1,310.9,456.1z
			"/>
		<path class="st20" d="M306.8,443.3c0.7,0.2,1.4-0.1,1.6-0.8c0.4-1,1.3-1.7,2.4-1.7c1.4,0,2.6,1.1,2.6,2.6s-1.1,2.6-2.6,2.6h-1.6
			c-0.7,0-1.3,0.6-1.3,1.3h6.2c1.1-0.9,1.7-2.3,1.7-3.8c0-2.8-2.3-5.1-5.1-5.1c-2.2,0-4.1,1.4-4.8,3.4
			C305.8,442.3,306.2,443,306.8,443.3z"/>
		<path class="st22" d="M323.7,456.1c-0.7,0-1.3-0.6-1.3-1.3v-13l-1.8,1.2c-0.6,0.4-1.4,0.2-1.8-0.4c-0.4-0.6-0.2-1.4,0.4-1.8
			l3.8-2.6c0.4-0.3,0.9-0.3,1.3-0.1c0.4,0.2,0.7,0.7,0.7,1.1v15.3C325,455.6,324.4,456.1,323.7,456.1z"/>
		<path class="st20" d="M320.5,443.1l1.8-1.2v5.3h2.6v-7.7c0-0.5-0.3-0.9-0.7-1.1c-0.4-0.2-0.9-0.2-1.3,0.1l-3.8,2.6
			c-0.6,0.4-0.7,1.2-0.4,1.8C319.2,443.4,320,443.5,320.5,443.1z"/>
	</g>
</g>
<g>
	
		<image style="overflow:visible;opacity:0.25;" width="104" height="103" xlink:href="7FFEDD24.png"  transform="matrix(1 0 0 1 261 17)">
	</image>
	<g>
		<circle class="st1" cx="312.9" cy="61.6" r="36.4"/>
	</g>
</g>
<g>
	<defs>
		<rect id="SVGID_11_" x="291.1" y="39.8" width="43.7" height="43.7"/>
	</defs>
	<clipPath id="SVGID_12_">
		<use xlink:href="#SVGID_11_"  style="overflow:visible;"/>
	</clipPath>
	<g class="st23">
		<path class="st24" d="M329.3,45.2h-32.7V78h32.7V45.2z"/>
		<path class="st25" d="M312.9,65L329.2,78V52.4L312.9,65z"/>
		<path class="st26" d="M330.6,45.2h-1.4l-16.4,12.9l-16.4-12.9h-1.4c-2.3,0-4.1,1.8-4.1,4.1v24.6c0,2.3,1.8,4.1,4.1,4.1h1.4V52.4
			L312.9,65l16.4-12.6V78h1.4c2.3,0,4.1-1.8,4.1-4.1V49.3C334.7,47.1,332.9,45.2,330.6,45.2z"/>
	</g>
</g>
<g>
	
		<image style="overflow:visible;opacity:0.25;" width="135" height="135" xlink:href="7FFEDD2C.png"  transform="matrix(1 0 0 1 247 243)">
	</image>
	<g>
		<circle class="st1" cx="315" cy="303.7" r="52"/>
	</g>
</g>
<path class="st27" d="M290,291.4v9.1c0,2.8,3.5,4.2,5.6,2.3l10.1-9.1c2.2-2,0.8-5.5-2.3-5.5h-10.1C291.5,288.2,290,289.6,290,291.4z
	"/>
<path class="st27" d="M337.7,288.2h-10.1c-3,0-4.5,3.5-2.3,5.5l10.1,9.1c2.1,1.9,5.6,0.5,5.6-2.3v-9.1
	C341,289.6,339.5,288.2,337.7,288.2z"/>
<path class="st27" d="M317.8,310.4l17.7,16c2.1,1.9,5.6,0.5,5.6-2.3v-9.2c0-0.9-0.4-1.7-1.1-2.3l-22.2-20.1c-1.3-1.2-3.3-1.2-4.6,0
	l-22.2,20.1c-0.7,0.6-1.1,1.4-1.1,2.3v9.2c0,2.8,3.5,4.2,5.6,2.3l17.7-16C314.5,309.2,316.5,309.2,317.8,310.4z"/>
</svg>
