<?xml version="1.0" encoding="utf-8"?>
<!-- Generator: Adobe Illustrator 24.3.0, SVG Export Plug-In . SVG Version: 6.00 Build 0)  -->
<svg version="1.1" id="Layer_1" xmlns="http://www.w3.org/2000/svg" xmlns:xlink="http://www.w3.org/1999/xlink" x="0px" y="0px"
	 viewBox="0 0 881 483.2" style="enable-background:new 0 0 881 483.2;" xml:space="preserve">
<style type="text/css">
	.st0{fill:#FFFFFF;}
	.st1{fill:#BCC3CE;}
	.st2{fill:#86A7FF;}
	.st3{fill:#CCD7F2;}
	.st4{opacity:0.2;fill:#1F3C88;enable-background:new    ;}
	.st5{fill:#85A7FF;}
	.st6{fill:#3A6BEA;}
	.st7{fill:#BDD4FF;}
	.st8{fill:#3A6BEB;}
	.st9{fill:#102048;}
	.st10{fill:#E28B6D;}
	.st11{fill:#F9B384;}
	.st12{fill:#FAC344;}
	.st13{fill:#E39B31;}
	.st14{fill:#153A7C;}
</style>
<g>
	<path class="st0" d="M84.8,475.1h745.3c0,0,93.8-234.2-349.9-214.1c0,0-202.4,20.5-221.4,9.1C241.5,259.8,4.6,287.4,84.8,475.1z"/>
	<g>
		<g>
			<g>
				<path class="st1" d="M770.8,474.7l-0.7-1.2c13.7-7.9,26.3-19.8,37.3-35.4c10.5-14.8,19.2-32.5,25.2-51.2
					c12-37.3,16.2-77,20.2-115.5c-32,9.8-62.1,35.4-82.8,70.6c-20.9,35.5-31.8,80.2-30,122.7l-1.4,0.1
					c-1.8-42.7,9.2-87.7,30.2-123.5c21-35.8,51.8-61.8,84.5-71.5l1-0.3l-0.1,1c-4.1,38.9-8.3,79-20.4,116.8
					c-6.1,18.9-14.8,36.7-25.4,51.6C797.3,454.6,784.6,466.6,770.8,474.7L770.8,474.7z"/>
				<path class="st1" d="M743.3,466.9l-1.4-0.1c1.2-14.3,5.7-28.7,13.7-44c7.7-14.7,17.6-28.2,25.4-38.3c1.9-2.5,3.8-5,5.7-7.4
					c16.5-21.1,33.5-43,41.4-69.6l1.3,0.4c-8,26.9-25.1,48.8-41.7,70c-1.9,2.4-3.8,4.9-5.7,7.4c-7.7,10-17.6,23.4-25.2,38.1
					C748.9,438.5,744.5,452.7,743.3,466.9L743.3,466.9z"/>
				<path class="st1" d="M779.3,396.6c-1.9,0-3.8-0.1-5.6-0.4l0.2-1.4c8.1,1.1,16.7-0.3,24.9-4.1c8.1-3.8,15.4-9.7,21-17.2l1.1,0.8
					c-5.7,7.6-13.2,13.7-21.5,17.6C792.8,395,785.9,396.6,779.3,396.6L779.3,396.6z"/>
				<path class="st1" d="M792.7,369.8c-4.5-15.7-1.4-34.5,7.8-48l1.1,0.8c-9,13.2-12,31.5-7.6,46.8L792.7,369.8L792.7,369.8z"/>
			</g>
			<g>
				<path class="st1" d="M817.3,474.8l-0.5-1.3c15.4-5.8,29.3-17.7,39.1-33.5c8.3-13.4,14-29.8,16.8-48.6c-17.1,0.8-34.2,7.7-47,19
					l-0.9-1c13.3-11.7,31-18.8,48.7-19.4l0.8,0l-0.1,0.8c-2.8,19.4-8.5,36.2-17.1,50C847.1,456.8,833,468.9,817.3,474.8L817.3,474.8
					z"/>
				<path class="st1" d="M775.9,471.2l-0.6-1.2c30.8-14.5,59.2-35.3,82.3-60.2l1,0.9C835.4,435.8,806.8,456.7,775.9,471.2z"/>
			</g>
			<g>
				<path class="st1" d="M657.1,475.7c-11.9-4.5-22.8-12.8-31.4-24.2c-7.9-10.4-13.9-23.1-17.2-36.7c-6.5-26.8-3.4-55.4,0-80.1
					l0.2-1.1l0.9,0.6c21.7,15.2,44.2,31,60.5,52.7c18.2,24.2,24.6,52.6,17.2,76l-1.3-0.4c7.2-23,0.8-51-17-74.8
					C653,366.5,631,350.9,609.7,336c-3.3,24.3-6.2,52.3,0.2,78.5c3.2,13.4,9.1,25.9,16.9,36.2c8.5,11.1,19.1,19.3,30.8,23.7
					L657.1,475.7L657.1,475.7z"/>
				
					<rect x="648.3" y="353.5" transform="matrix(0.8966 -0.4429 0.4429 0.8966 -115.686 330.136)" class="st1" width="1.4" height="118.5"/>
				<path class="st1" d="M650.7,420.5c-6.9,0-13.9-1.8-20.2-5.3c-6.6-3.7-12-8.9-15.8-15.1l1.2-0.7c3.6,6,8.8,11.1,15.2,14.6
					c6.4,3.5,13.5,5.3,20.5,5.2l0,1.4C651.3,420.4,651,420.5,650.7,420.5z"/>
			</g>
		</g>
		<g>
			<g>
				<path class="st1" d="M140.4,473.7c-15.5-3.2-30-10.9-43.1-22.9C85.6,440,75.5,426,68.2,410.4c-14.2-30.2-18.5-63.7-22.7-96.1
					l-0.1-1.1l1.1,0.4c40.3,15.1,68.5,32.5,88.7,54.7c25.8,28.4,36.7,65.6,28.5,97.2l-1.3-0.3c8.1-31.1-2.7-67.9-28.2-95.9
					c-19.9-21.8-47.6-39-87.2-53.9c4.1,31.9,8.5,64.9,22.4,94.6c7.2,15.5,17.2,29.3,28.8,40c12.9,11.9,27.2,19.5,42.4,22.6
					L140.4,473.7L140.4,473.7z"/>
				<path class="st1" d="M154.5,465.8c-11.1-21.7-24.4-42.5-39.4-61.8c-15.1-19.3-31.9-37.3-50.2-53.3l0.9-1
					c18.4,16.1,35.3,34.1,50.4,53.5s28.4,40.2,39.5,62L154.5,465.8L154.5,465.8z"/>
				<path class="st1" d="M106.6,396.4c-13-4.5-25.9-9.9-38.3-15.9l0.6-1.2c12.3,6,25.2,11.3,38.1,15.9L106.6,396.4L106.6,396.4z"/>
				
					<rect x="114.6" y="403.2" transform="matrix(0.1002 -0.995 0.995 0.1002 -285.0116 492.5429)" class="st1" width="30.4" height="1.4"/>
			</g>
			<g>
				<path class="st1" d="M85.2,473.3c-8,0-16.2-2.4-23.9-6.9c-7.6-4.5-14.6-11-20-18.7c-4.4-6.2-9.1-17.2-14.1-32.9
					c-3.7-11.6-6.1-21.6-6.2-21.7l-0.3-1l1,0.2c1.4,0.3,34.8,7.2,46.8,17.9l-0.9,1c-4.8-4.3-14.3-8.7-27.4-12.8
					c-7.9-2.4-15-4.1-17.6-4.6c1.6,6.4,10.5,40,19.8,53.1c5.4,7.6,12.2,13.9,19.6,18.3c8.1,4.8,16.8,7.1,25.1,6.7l0.1,1.4
					C86.6,473.3,85.9,473.3,85.2,473.3L85.2,473.3z"/>
				<path class="st1" d="M80.8,456.3c-13.4-18.7-29-35.9-46.2-51.1l0.9-1c17.3,15.3,32.9,32.6,46.4,51.4L80.8,456.3L80.8,456.3z"/>
			</g>
			<g>
				<path class="st1" d="M252.6,475.3l-0.9-1c17.3-14.9,29.7-35.5,34.9-57.8c5.1-22.1,3-45.8-5.9-66.7c-11.6,2-22.8,7.9-32.6,16.9
					c-9.1,8.4-16.6,19.3-21.8,31.5c-9.7,23-11.6,48.7-12.8,75.3l-1.4-0.1c1.2-26.7,3.1-52.6,12.9-75.8c5.2-12.4,12.9-23.4,22.1-31.9
					c10.1-9.3,21.7-15.3,33.8-17.3l0.5-0.1l0.2,0.5c9.2,21.3,11.4,45.5,6.1,68.1S270.1,460.1,252.6,475.3L252.6,475.3z"/>
				<path class="st1" d="M231.3,470.5L230,470c9.6-29.7,23-58,39.9-84.3l1.1,0.7C254.2,412.6,240.8,440.9,231.3,470.5L231.3,470.5z"
					/>
				<path class="st1" d="M251.4,419.5l-0.8-1.1c8.6-5.9,18.5-10,28.8-11.8l0.2,1.3C269.6,409.7,259.8,413.7,251.4,419.5L251.4,419.5
					z"/>
			</g>
		</g>
		<path class="st1" d="M567.4,432.6c-3.2,0-5.8-2.6-5.8-5.8s2.6-5.8,5.8-5.8s5.8,2.6,5.8,5.8S570.6,432.6,567.4,432.6z M567.4,422.4
			c-2.4,0-4.4,2-4.4,4.4s2,4.4,4.4,4.4s4.4-2,4.4-4.4S569.8,422.4,567.4,422.4z"/>
		<path class="st1" d="M795.4,266.5c-3.2,0-5.8-2.6-5.8-5.8s2.6-5.8,5.8-5.8s5.8,2.6,5.8,5.8S798.6,266.5,795.4,266.5z M795.4,256.3
			c-2.4,0-4.4,2-4.4,4.4s2,4.4,4.4,4.4s4.4-2,4.4-4.4S797.8,256.3,795.4,256.3z"/>
		<circle class="st1" cx="871.6" cy="352.9" r="5.1"/>
		<circle class="st1" cx="54" cy="257.7" r="5.1"/>
		<path class="st1" d="M10.1,352.3c-3.2,0-5.8-2.6-5.8-5.8s2.6-5.8,5.8-5.8s5.8,2.6,5.8,5.8S13.3,352.3,10.1,352.3z M10.1,342.1
			c-2.4,0-4.4,2-4.4,4.4s2,4.4,4.4,4.4s4.4-2,4.4-4.4S12.5,342.1,10.1,342.1z"/>
		<path class="st1" d="M324.8,419.3c-3.2,0-5.8-2.6-5.8-5.8s2.6-5.8,5.8-5.8s5.8,2.6,5.8,5.8S328,419.3,324.8,419.3z M324.8,409.1
			c-2.4,0-4.4,2-4.4,4.4s2,4.4,4.4,4.4s4.4-2,4.4-4.4S327.2,409.1,324.8,409.1z"/>
	</g>
	<g>
		<g>
			<path class="st0" d="M111.7,107.5c0-11-15.2-20-34-20s-34,8.9-34,20s15.2,20,34,20c4.1,0,8-0.4,11.7-1.2
				c2.6,3.1,6.9,5.8,14.4,7.4c0,0-2.7-5-4.4-10.7C106.9,119.2,111.7,113.7,111.7,107.5z"/>
			<path class="st2" d="M105.7,135.1l-2.2-0.5c-6.6-1.4-11.5-3.8-14.6-7.2c-3.6,0.7-7.4,1.1-11.3,1.1c-9.3,0-18-2.1-24.6-6
				c-6.8-4-10.5-9.3-10.5-15s3.7-11,10.5-15c6.6-3.9,15.3-6,24.6-6s18,2.1,24.6,6c6.8,4,10.5,9.3,10.5,15c0,6.2-4.4,11.9-12.2,15.9
				c1.6,5.2,4,9.7,4.1,9.7L105.7,135.1L105.7,135.1z M89.7,125.1l0.4,0.5c2.4,2.9,6.4,5.1,11.7,6.5c-1-2-2.4-5.3-3.5-8.9l-0.2-0.8
				l0.8-0.4c7.5-3.6,11.8-8.9,11.8-14.5c0-10.4-14.8-18.9-33-18.9s-33,8.5-33,18.9s14.8,18.9,33,18.9c3.9,0,7.8-0.4,11.5-1.2
				L89.7,125.1L89.7,125.1z"/>
		</g>
		<g>
			<rect x="58" y="102.5" class="st2" width="38.8" height="1.4"/>
			<rect x="58" y="110" class="st2" width="28.6" height="1.4"/>
		</g>
	</g>
	<g>
		<g>
			<path class="st0" d="M759.4,84.4c0-11,15.2-20,34-20s34,8.9,34,20s-15.2,20-34,20c-4.1,0-8-0.4-11.7-1.2c-2.5,3.1-7,5.8-14.4,7.4
				c0,0,2.7-5,4.4-10.7C764.2,96.1,759.4,90.6,759.4,84.4L759.4,84.4z"/>
			<path class="st2" d="M765.4,112l1.1-1.9c0,0,2.4-4.5,4.1-9.7c-7.7-4-12.2-9.8-12.2-15.9c0-5.7,3.7-11,10.5-15
				c6.6-3.9,15.3-6,24.6-6s18,2.1,24.6,6c6.8,4,10.5,9.3,10.5,15s-3.7,11-10.5,15c-6.6,3.9-15.3,6-24.6,6c-3.9,0-7.7-0.4-11.3-1.1
				c-3.1,3.4-8,5.9-14.5,7.2L765.4,112L765.4,112z M793.4,65.4c-18.2,0-33,8.5-33,18.9c0,5.6,4.3,10.8,11.8,14.5l0.8,0.4l-0.2,0.8
				c-1.1,3.6-2.5,6.9-3.5,8.9c5.3-1.4,9.3-3.6,11.7-6.5l0.4-0.5l0.6,0.1c3.7,0.8,7.5,1.2,11.5,1.2c18.2,0,33-8.5,33-18.9
				S811.6,65.4,793.4,65.4L793.4,65.4z"/>
		</g>
		<g>
			<rect x="774.3" y="79.4" class="st2" width="38.8" height="1.4"/>
			<rect x="774.3" y="86.9" class="st2" width="28.6" height="1.4"/>
		</g>
	</g>
	<g>
		<g>
			<g>
				<rect x="378.6" y="340.7" class="st3" width="118.4" height="133.4"/>
				<path class="st2" d="M498,475.1H377.5V339.7H498V475.1L498,475.1z M379.6,473.1h116.4V341.7H379.6L379.6,473.1L379.6,473.1z"/>
			</g>
			<rect x="378.6" y="340.7" class="st4" width="118.4" height="56.8"/>
			<circle class="st0" cx="437.8" cy="384.5" r="31.5"/>
		</g>
		<g>
			<g>
				<path class="st3" d="M194.5,8.6H681c6.5,0,11.7,5.2,11.7,11.7v345c0,6.5-5.2,11.7-11.7,11.7H194.5c-6.5,0-11.7-5.2-11.7-11.7
					v-345C182.8,13.9,188.1,8.6,194.5,8.6z"/>
				<path class="st2" d="M681.4,378.1H194.2c-6.8,0-12.4-5.5-12.4-12.4V20c0-6.8,5.6-12.4,12.4-12.4h487.2c6.8,0,12.4,5.6,12.4,12.4
					v345.8C693.7,372.6,688.2,378.1,681.4,378.1z M194.2,9.6c-5.7,0-10.3,4.6-10.3,10.3v345.8c0,5.7,4.6,10.3,10.3,10.3h487.2
					c5.7,0,10.3-4.6,10.3-10.3V20c0-5.7-4.6-10.3-10.3-10.3C681.4,9.6,194.2,9.6,194.2,9.6z"/>
			</g>
			<g>
				<rect x="192.1" y="21.6" class="st0" width="491.4" height="302.6"/>
				<path class="st2" d="M684.5,325.2H191.1V20.6h493.4V325.2L684.5,325.2z M193.1,323.2h489.3V22.6H193.1V323.2L193.1,323.2z"/>
			</g>
		</g>
		<g>
			<g>
				<rect x="377.8" y="48.1" class="st3" width="111.1" height="13"/>
				<rect x="289.3" y="73.8" class="st3" width="288.2" height="4.9"/>
			</g>
			<g>
				<rect x="521.8" y="219.2" class="st2" width="111.2" height="4.9"/>
				<rect x="521.8" y="231.3" class="st2" width="95.7" height="4.9"/>
				<rect x="521.8" y="243.3" class="st2" width="60.4" height="4.9"/>
			</g>
			<g>
				<rect x="521.8" y="265.8" class="st3" width="97.8" height="4.9"/>
				<rect x="521.8" y="277.9" class="st3" width="84.2" height="4.9"/>
			</g>
			<g>
				<rect x="234.2" y="207.3" class="st3" width="47.2" height="74"/>
				<rect x="293.4" y="207.1" class="st5" width="53" height="24.4"/>
				<rect x="293.4" y="243.5" class="st3" width="53" height="37.8"/>
			</g>
			<g>
				<path class="st2" d="M482.5,281.9h-98.2c-4.2,0-7.6-3.4-7.6-7.6v-49.3c0-4.2,3.4-7.6,7.6-7.6h98.2c4.2,0,7.6,3.4,7.6,7.6v49.3
					C490.1,278.5,486.7,281.9,482.5,281.9z M384.3,218.5c-3.5,0-6.4,2.9-6.4,6.4v49.3c0,3.5,2.9,6.4,6.4,6.4h98.2
					c3.5,0,6.4-2.9,6.4-6.4v-49.3c0-3.5-2.9-6.4-6.4-6.4L384.3,218.5L384.3,218.5z"/>
				<polygon class="st6" points="388.5,268.2 387.5,267.7 394.2,254.2 402.5,262.9 412.3,241.6 425.6,254 440.2,239.5 454.4,248.2 
					472.7,229.1 473.5,229.9 454.6,249.7 440.3,241 425.6,255.7 412.7,243.6 402.8,265 394.5,256.3 				"/>
				<g>
					<rect x="438.5" y="265.5" class="st2" width="11.3" height="5.9"/>
					<rect x="457.2" y="267.8" class="st6" width="19.6" height="1.2"/>
				</g>
			</g>
			<g>
				<path class="st7" d="M477.7,138c-4-14.8-15.2-26.7-29.7-31.6l-14.6,43.5L477.7,138L477.7,138z"/>
				<path class="st5" d="M433.4,149.9L413.1,191c6.1,3,13,4.7,20.3,4.7c25.3,0,45.9-20.5,45.9-45.9c0-4.1-0.5-8.1-1.6-11.9
					L433.4,149.9L433.4,149.9z"/>
				<path class="st8" d="M448,106.4c-4.6-1.5-9.5-2.4-14.6-2.4c-25.3,0-45.9,20.5-45.9,45.9c0,18,10.4,33.6,25.6,41.1l20.3-41.1
					L448,106.4L448,106.4z"/>
			</g>
			<g>
				<rect x="258" y="182.1" class="st3" width="64.6" height="4.9"/>
				<g>
					<path class="st2" d="M347,171.5H233.6v-65.6H347V171.5z M234.8,170.3h111v-63.2h-111V170.3z"/>
					<g>
						<path class="st3" d="M338.7,120.2c-3.8-0.8-7.5,1.7-9.9,4.7c-1.1,1.4-2.1,3-3,4.6c-1,1.8-2,3.5-3.2,5.1c-2.3,3.1-6,5.6-9.8,5
							c-6.1-0.9-9.5-9.4-15.7-9.3c-2.9,0.1-5.4,2.1-7.4,4.2s-3.8,4.6-6.4,5.9c-3.6,1.9-8,1.3-11.8-0.3c-3.7-1.6-7-4.1-10.6-6.1
							c-5.9-3.3-12.7-5.1-19.5-5.2v32.1h97.6v-40.6C339,120.3,338.9,120.2,338.7,120.2L338.7,120.2z"/>
						<path class="st2" d="M271.6,140.2c3.7,1.6,8.2,2.2,11.8,0.3c2.6-1.4,4.4-3.8,6.4-5.9c2-2.1,4.5-4.1,7.4-4.2
							c6.2-0.1,9.6,8.3,15.7,9.3c3.8,0.6,7.4-2,9.8-5c1.2-1.6,2.2-3.4,3.2-5.1c-3.8,0.2-7.6,0.4-10.8-1.4c-3.3-1.7-5.4-5.1-8.6-6.9
							c-5.8-3.2-13-0.2-18.8,3.1c-3.5,1.9-7.4,4-11.2,3c-4.4-1.1-6.9-5.5-10.5-8.1c-6.9-5.1-17.4-2.6-23.3,3.6c0,0,0,0,0,0
							c-0.7,0.8-1.1,1.7-1.1,2.7v3.4c6.8,0.2,13.6,1.9,19.5,5.2C264.6,136.1,267.9,138.6,271.6,140.2L271.6,140.2z"/>
					</g>
				</g>
			</g>
			<g>
				<path class="st2" d="M633.5,197.7H519.9v-91.9h113.6V197.7z M521.3,196.4h110.9v-89.2H521.3V196.4z"/>
				<g>
					<rect x="538.7" y="144.1" class="st2" width="11.9" height="40"/>
					<rect x="538.7" y="123.9" class="st3" width="11.9" height="20.2"/>
					<rect x="560.1" y="123.9" class="st3" width="11.9" height="30"/>
					<rect x="560.1" y="153.9" class="st2" width="11.9" height="30.2"/>
					<rect x="581.5" y="137.1" class="st2" width="11.9" height="47"/>
					<rect x="581.5" y="123.9" class="st3" width="11.9" height="13.2"/>
					<rect x="602.8" y="154.6" class="st2" width="11.9" height="29.4"/>
					<rect x="602.8" y="123.9" class="st3" width="11.9" height="30.7"/>
				</g>
			</g>
		</g>
	</g>
	<g>
		<g>
			<g>
				<polygon class="st9" points="203.9,474.1 181.7,450.9 181.7,433.9 154.7,434.7 156.9,474.1 				"/>
				<polygon class="st10" points="181.9,369.7 151.3,373.8 152.5,395.2 181.8,394.5 				"/>
				<polygon class="st11" points="181.8,394.5 152.5,395.2 154.7,434.7 181.7,433.9 				"/>
				
					<rect x="169.5" y="452.3" transform="matrix(0.9048 -0.4258 0.4258 0.9048 -176.418 118.0619)" class="st0" width="12.8" height="2.7"/>
			</g>
			<g>
				<polygon class="st10" points="246.5,362.7 217.1,361.6 213.2,384.1 241.4,388.3 				"/>
				<path class="st9" d="M253.1,451.2L235,420.5l2.4-11.7c-8-1.8-20.4-4.7-27.3-6.2l-6.1,35.6L253.1,451.2L253.1,451.2z"/>
				<path class="st11" d="M241.4,388.3l-28.2-4.1l-3.2,18.5c6.9,1.5,19.3,4.4,27.3,6.2L241.4,388.3z"/>
				
					<rect x="223.2" y="421.1" transform="matrix(0.9477 -0.3191 0.3191 0.9477 -122.8248 95.2551)" class="st0" width="12.1" height="2.7"/>
			</g>
			<path class="st12" d="M266.3,366.1c0,0-12.2,15.4-34.9,10.4c-22.7-5-18.6,8.2-31.3,10.9c-12.7,2.7-48.1-19.5-59.9,1.4
				c0,0-7-79-3.8-129c0.9-13.5,2.5-24.9,5.2-32l54.3-0.8l11.9-0.2c0,0,0,0.3,0.1,0.8c0.2,1.1,0.6,3.3,1.3,6.4
				C213.6,254.6,229.2,315.7,266.3,366.1L266.3,366.1z"/>
			<path class="st13" d="M209.2,234c-12.1,8-37.4,21.8-72.8,25.8c0.9-13.5,2.5-24.9,5.2-32l54.3-0.8l12.1,0.6
				C208.1,228.7,208.5,230.9,209.2,234L209.2,234z"/>
		</g>
		<g>
			<g>
				
					<rect x="102.8" y="239.7" transform="matrix(0.2827 -0.9592 0.9592 0.2827 -169.2066 314.9648)" class="st0" width="46.3" height="61.9"/>
				<path class="st2" d="M149.6,302.4l-60.7-17.9l13.5-45.7l60.7,17.9L149.6,302.4z M90.6,283.6l58.1,17.1l12.7-43.1l-58.1-17.1
					L90.6,283.6z"/>
			</g>
			<g>
				
					<rect x="142.4" y="266.7" transform="matrix(0.2827 -0.9592 0.9592 0.2827 -149.364 334.9769)" class="st2" width="13.8" height="1.4"/>
				
					<rect x="121.8" y="273.6" transform="matrix(0.2827 -0.9592 0.9592 0.2827 -163.802 329.466)" class="st2" width="33.2" height="1.4"/>
				
					<rect x="113.6" y="271.2" transform="matrix(0.2827 -0.9592 0.9592 0.2827 -167.3607 319.9247)" class="st2" width="33.2" height="1.4"/>
				
					<rect x="105.5" y="268.8" transform="matrix(0.2827 -0.9592 0.9592 0.2827 -170.8932 310.3537)" class="st2" width="33.2" height="1.4"/>
				
					<rect x="102.3" y="262.6" transform="matrix(0.2827 -0.9592 0.9592 0.2827 -170.0398 299.183)" class="st2" width="25.4" height="1.4"/>
			</g>
		</g>
		<path class="st11" d="M242.1,146.5c0,0,1.7-16.2,3.2-15.9s1.3,4.2,1.3,4.2s3.5-9,5.2-9s0,3.7,0,3.7s1.8-3.7,3.2-3.4
			c1.4,0.3,0.2,3.4,0.2,3.4s1.4-3,2.8-2.5s0.5,3,0.5,3s0.8-2,2-0.6c1.3,1.3-5.3,20.2-5.3,20.2l-9.3,2.6L242.1,146.5L242.1,146.5z"/>
		<path class="st8" d="M255.3,149.7c0,0-8.1,33.4-28.6,43.1c-4.8,2.3-10.3,3.3-16.4,2.3l-3.7-6.5l-24-42.7l8.4-2.9
			c0,0,18.8,7,29,22.7c0,0,9.5-0.9,22.2-19.9L255.3,149.7L255.3,149.7z"/>
		<path class="st9" d="M226.7,192.8c-4.8,2.3-10.3,3.3-16.4,2.3l-3.7-6.5l0.9-15.9C207.5,172.6,221.4,180.5,226.7,192.8L226.7,192.8
			z"/>
		<path class="st11" d="M142.2,257.2c0,0-1.8,15.7-3.4,15.4c-1.6-0.3-1.4-4.2-1.4-4.2s-3.8,9-5.6,9s0.1-3.7,0.1-3.7s-2,3.7-3.4,3.4
			c-1.5-0.3-0.2-3.4-0.2-3.4s-1.5,3-3,2.5s-0.5-3-0.5-3s-0.8,2-2.2,0.7c-1.4-1.3,5.8-20.3,5.8-20.3l9.9-2.7L142.2,257.2L142.2,257.2
			z"/>
		<path class="st8" d="M174.8,143.2c-40.3,4.9-52.1,60.7-47.5,113.1l15,0.9c0,0,2.5-51.3,23.1-75.8l17.2-35.6L174.8,143.2
			L174.8,143.2z"/>
		<path class="st8" d="M182.6,145.8l27.9,18.8c0,0,7.7,36.1,7.3,68.1c0,0-54,20-80.8-0.9l21.1-68.5L182.6,145.8L182.6,145.8z"/>
		<g>
			<path class="st9" d="M198.6,113.2c2.6-9-6.5-19.6-23.8-10.6c0,0-17.2,2.9-14.2,32.9l18.1,0.7L198.6,113.2L198.6,113.2z"/>
			<path class="st9" d="M178.4,102c2.4-9.5-8-11.1-9.7-5.2c-0.2,0.8-5.3-2-6.7,2.5c-1.6,5.2,4,8.7,10.4,7.4L178.4,102L178.4,102z"/>
			<polygon class="st11" points="191,125 191,142.9 183.1,153.9 174.8,143.2 175.2,124.6 			"/>
			<path class="st9" d="M191,131.1v11.5c-5.6-2.4-8-9.8-8-9.8L191,131.1z"/>
			<path class="st11" d="M198.6,113.2c0,0,5.6,29.4-15.6,19.6l-7-8l4.3-16.2l11.1-2.7L198.6,113.2L198.6,113.2z"/>
			<path class="st9" d="M198.6,113.2c0,0-4.4-6.9-10-3.6c-5.6,3.3-5.3,15.1-11.1,12.1c-5.8-2.9-2.4-12-2.4-12l8.5-6.5l9.5,1.1
				L198.6,113.2L198.6,113.2z"/>
			<path class="st11" d="M179.5,120.9c1.3,2.2,0.7,4.9-1.2,6c-1.9,1.1-4.5,0.2-5.8-2c-1.3-2.2-0.7-4.9,1.2-6
				C175.7,117.8,178.3,118.7,179.5,120.9z"/>
		</g>
		<circle class="st9" cx="183.3" cy="163.5" r="2.7"/>
		<path class="st9" d="M144.5,236.4l-1.3-0.3c0-0.1,2-10.2,5.3-21.5c4.5-15.2,9.2-25.3,13.9-29.9l0.9,1
			C152.4,196.3,144.5,236,144.5,236.4L144.5,236.4z"/>
		<path class="st9" d="M139.4,204.2c-2.5-1.9-8.4-1.7-8.4-1.7l-0.1-1.4c0.3,0,6.4-0.2,9.3,1.9L139.4,204.2L139.4,204.2z"/>
	</g>
	<g>
		<g>
			<polygon class="st9" points="729.9,432.6 729.5,458.4 723.6,474.1 755.6,474.1 753.7,431.9 			"/>
			<g>
				<polygon class="st9" points="682.9,435.3 682.9,456.7 657.7,474.1 708.4,474.1 705.3,432.9 				"/>
				
					<rect x="685.3" y="454.9" transform="matrix(0.6057 -0.7957 0.7957 0.6057 -94.9748 727.5906)" class="st0" width="2.7" height="9.5"/>
			</g>
			<path class="st8" d="M725.4,225l-0.1,0.5l-4.5,17.8l-9.8,38.8c-1.4,6.2-2.4,12.9-3.2,19.9c-4.8,44.2,1.4,100.7,4.6,125
				c0.8,6.4-4.1,12.1-10.6,12.1h-17.9c-4.1,0-7.9-2.4-9.7-6.1c-22.8-47.9-19.1-119.3-14.5-136.8c7.2-27.7,12.2-68.9,12.2-68.9
				l15.2-0.6L725.4,225L725.4,225z"/>
			<path class="st8" d="M759.7,426.6c-0.2,6.1-5.2,11.1-11.3,11.1H733c-5.7,0-10.5-4.2-11.2-9.8c-2.9-22.3-10.1-78.6-14.1-125.8
				c-2.1-24.8-3.4-47.1-2.7-60.8c0.2-5.2,0.8-9.1,1.6-11.5l18.7-4.3l19-4.3c0,0,4.7,5,9,31.8C757.8,280.9,761.9,332.4,759.7,426.6
				L759.7,426.6z"/>
			<path class="st9" d="M705.8,339.8c-0.8-17.4-0.3-32.3,1.6-45.4c0.6-4.2,2.9-8.1,6.3-10.8l12.8-10.1l0.8,1.1l-12.8,10.1
				c-3.2,2.5-5.2,6-5.8,9.9c-1.9,13-2.5,27.8-1.6,45.2L705.8,339.8L705.8,339.8z"/>
			<path class="st9" d="M667.5,345.5l-0.2-1.4c8.5-1.1,15.9-1.2,22.4-0.5l-0.2,1.4C683.2,344.3,675.9,344.4,667.5,345.5L667.5,345.5
				z"/>
			<path class="st9" d="M728.8,342.3l-0.2-1.4c8.5-1.1,15.9-1.2,22.4-0.5l-0.2,1.4C744.4,341.1,737.2,341.2,728.8,342.3L728.8,342.3
				z"/>
			<path class="st9" d="M691.2,423c-11.6,0-20.3-2.1-20.4-2.1l0.3-1.3c0.2,0,20,4.8,40-0.3l0.3,1.3C704.4,422.4,697.4,423,691.2,423
				L691.2,423z"/>
			<path class="st9" d="M739.1,423c-1.8,0-3.6,0-5.2-0.1c-7.5-0.4-13.3-1.5-13.3-1.5l0.3-1.3c0.2,0,22.6,4.3,37.5-1.2l0.5,1.3
				C752.7,422.4,745.4,423,739.1,423L739.1,423z"/>
			<path class="st14" d="M753.3,253c-8.7-4.6-20.6-7.6-32.5-9.6c-5.3-0.9-10.7-1.6-15.7-2.1c-15.9-1.6-28.7-1.6-28.7-1.6l10.8-13
				l38.3-1.6l-0.1,0.5l19-4.3C744.2,221.2,748.9,226.2,753.3,253L753.3,253z"/>
		</g>
		<g>
			<rect x="686.1" y="122.6" class="st10" width="15.8" height="26.3"/>
			<path class="st9" d="M693.5,133.5c0,0-1.6,5.7-7.4,9.6v-11.5L693.5,133.5z"/>
			<path class="st10" d="M678,109.2l-1.1,11.1c0,0-5.2,6.9-1.9,6.9c3.5,0,2.9,1.4,2.9,1.4s-1.9,14.4,15.6,5l3.7-21.6L678,109.2
				L678,109.2z"/>
			<path class="st9" d="M678,109.2c0,0,4.8-0.6,6,4.4c1.2,5.1,2.9,8.2,7.1,4.6l4.6-7.6l-8-3.3L678,109.2L678,109.2z"/>
			<path class="st9" d="M678,109.2c0-3.6,4.3-12.2,17.7-9.9c12.8,2.2,14.9,20.2,8.2,28.4c0,0-3.4,5.3-8-4.4l-7.8-10.5l-1.7-3.3
				L678,109.2L678,109.2z"/>
			<path class="st10" d="M696.7,122.6c-1.3,2.2-3.8,3.1-5.8,2c-1.9-1.1-2.4-3.8-1.2-6s3.8-3.1,5.8-2
				C697.5,117.7,698,120.4,696.7,122.6z"/>
		</g>
		<g>
			<g>
				<g>
					<path class="st13" d="M726.5,143.1c30.2,9.8,54,50.6,26.1,51.3c-27.9,0.7-44.9-25.2-44.9-25.2L726.5,143.1L726.5,143.1z"/>
				</g>
				<path class="st12" d="M593,174.3c0,0-14.9-6.5-15.4-5.1c-0.5,1.4,3,3.2,3,3.2s-9.6-1.4-10.4,0.1c-0.8,1.4,3.2,1.8,3.2,1.8
					s-4.1-0.2-4.5,1.1c-0.4,1.3,2.8,1.9,2.8,1.9s-3.3-0.2-3.5,1.2c-0.2,1.5,2.4,1.9,2.4,1.9s-2.1-0.3-1.6,1.4
					c0.5,1.8,20.2,5.3,20.2,5.3l6.9-6.8L593,174.3L593,174.3z"/>
				<path class="st12" d="M742,234.2l-67.4,7.4c-5.7,0.6-10.6-3.9-10.4-9.6l0.8-27.8l0.4-12.8V191c0,0-0.5,0.6-1.5,1.5c0,0,0,0,0,0
					c-0.6,0.6-1.5,1.3-2.5,2.1c-8.9,6.8-32.8,18.4-72.2-7.4l3.7-13l42.5,1.7c0,0,19.1-15.4,36-26c11.1-6.9,23.9-10.7,36.9-10.4
					c5.9,0.1,12.2,1.1,18.1,3.5c14.4,5.9,21.5,58.9,23.8,80.7C750.9,229,747.2,233.6,742,234.2L742,234.2z"/>
				<path class="st12" d="M630.9,188.5c-1.2-8.4,4-12.9,4.3-13l0.9,1.1c0,0-1.2,1-2.3,3c-1.4,2.6-1.9,5.6-1.5,8.8L630.9,188.5
					L630.9,188.5z"/>
				<path class="st12" d="M671.5,186.2c0,0-0.4,11-6.4,17.9l0.4-12.8C667.7,189.5,670.3,187.3,671.5,186.2L671.5,186.2z"/>
				<path class="st12" d="M651.6,200.8l-0.3-1.3c9.8-2,23.1-18.5,23.2-18.6l1.1,0.9c0,0-3.4,4.3-8.1,8.7
					C661.3,196.5,655.9,200,651.6,200.8L651.6,200.8z"/>
			</g>
		</g>
	</g>
	<rect x="17.6" y="473" class="st9" width="850.6" height="2"/>
</g>
</svg>
