<?xml version="1.0" encoding="utf-8"?>
<!-- Generator: Adobe Illustrator 24.3.0, SVG Export Plug-In . SVG Version: 6.00 Build 0)  -->
<svg version="1.1" id="layer" xmlns="http://www.w3.org/2000/svg" xmlns:xlink="http://www.w3.org/1999/xlink" x="0px" y="0px"
	 viewBox="0 0 471.6 103.9" style="enable-background:new 0 0 471.6 103.9;" xml:space="preserve">
<style type="text/css">
	.st0{fill:#F25022;}
	.st1{fill:#80BA01;}
	.st2{fill:#777777;}
	.st3{fill:#02A4EF;}
	.st4{fill:#FFB902;}
</style>
<g>
	<path class="st0" d="M1.7,1.9h47.6c0,15.9,0,31.7,0,47.6c-15.9,0-31.7,0-47.6,0V1.9L1.7,1.9z"/>
	<path class="st1" d="M54.1,1.9h47.6c0,15.9,0,31.7,0,47.6c-15.9,0-31.7,0-47.6,0C54.1,33.6,54.1,17.8,54.1,1.9L54.1,1.9z"/>
	<path class="st2" d="M459.7,47.2c0,4.8,0,9.6,0,14.4c0.1,2.7-0.1,5.3,0.2,8c0.2,1.6,0.8,3.3,2.2,4.1c2.5,1.4,5.6,0.8,7.8-0.7v8.4
		c-2.9,1.3-6.2,1.7-9.4,1.4c-3-0.2-6.1-1.3-8.1-3.7c-2.3-2.7-2.9-6.4-2.9-9.8c0-7.4,0-14.7,0-22.1c-5,0-10,0-15.1,0
		c0,11.6,0,23.1,0,34.7h-10.3c0-11.6,0-23.1,0-34.7c-2.4,0-4.8,0-7.2,0c0-2.7,0-5.5,0-8.2c2.4-0.1,4.8,0,7.1,0
		c0.2-3.7-0.4-7.4,0.7-11c0.9-3.2,3-6.1,5.8-7.9c4.4-2.9,10.1-3.1,15-1.8c0,2.9,0,5.9,0,8.8c-2.3-1-5.1-1.7-7.6-0.7
		c-2,0.8-3.1,2.8-3.4,4.8c-0.4,2.6-0.1,5.1-0.2,7.7c5,0,10,0,15.1,0c0-3.3,0-6.5,0-9.8c3.4-1,6.8-2.1,10.2-3.1c0,4.3,0,8.6,0,12.9
		c3.4,0,6.8,0,10.2,0v8.4C466.5,47.1,463.1,47.2,459.7,47.2z"/>
	<path class="st2" d="M210.4,20.6c2.1-0.3,4.3,0.4,5.7,2c1.6,1.8,1.9,4.6,0.7,6.7c-1.3,2.3-4.3,3.4-6.8,2.9c-2.7-0.5-4.9-3-4.8-5.7
		C205.1,23.5,207.5,21,210.4,20.6L210.4,20.6z"/>
	<path class="st2" d="M131.5,21.9c5,0,10,0,15,0c4.7,11.8,9.3,23.6,14,35.5c1.2,3,2.3,5.9,3.6,8.9c6-14.8,12.1-29.5,18-44.3
		c4.8-0.1,9.6,0,14.4,0c0,20,0,40,0,60c-3.5,0-6.9,0-10.4,0c0-14.8,0-29.5,0-44.3c0-0.7,0-1.3-0.1-2c-0.2,0.3-0.4,0.6-0.5,1
		c-5.9,15.1-12,30.2-17.9,45.3c-2.5,0.1-4.9,0-7.4,0c-6.1-15.1-12.2-30.2-18.3-45.4c-0.2-0.3-0.3-0.6-0.5-0.9
		c-0.1,6.5,0,12.9-0.1,19.4c0,9,0,17.9,0,26.9c-3.3,0-6.5,0-9.8,0C131.5,61.9,131.5,41.9,131.5,21.9L131.5,21.9z"/>
	<path class="st2" d="M238.7,38.9c5-1.4,10.3-1.4,15.3,0c1,0.3,2,0.7,2.9,1.2c-0.1,3.3,0,6.6,0,9.8c-3.3-2.5-7.5-4.1-11.7-3.6
		c-3.3,0.3-6.5,2-8.5,4.7c-2.6,3.4-3.2,7.8-2.7,11.9c0.3,3.2,1.7,6.4,4.2,8.5c2.6,2.3,6.2,3.1,9.6,2.9c3.4-0.4,6.5-1.8,9.2-3.8
		c0,3.1,0,6.2,0,9.3c-4.2,2.5-9.2,3.1-14.1,2.9c-4.9-0.3-9.8-2.1-13.4-5.6c-3.9-3.7-6-9.1-6.2-14.4c-0.3-5.5,0.9-11.3,4.1-16
		C229.9,43,234.1,40.2,238.7,38.9L238.7,38.9z"/>
	<path class="st2" d="M332.1,48.9c-1.8-4-5-7.3-9-9.1c-4.6-2.1-9.8-2.4-14.7-1.7c-5.2,0.7-10.2,3.1-13.5,7.2
		c-3,3.7-4.5,8.4-4.7,13.1c-0.4,5.5,0.5,11.4,3.8,16.1c2.8,4,7.2,6.7,11.9,7.8c4,0.8,8.1,0.8,12,0c4.6-1,8.9-3.5,11.8-7.3
		c2.8-3.6,4.2-8,4.5-12.5C334.5,57.9,334,53.2,332.1,48.9z M322.2,68.7c-1,2.2-2.8,4.1-5.1,5c-2.7,1-5.6,1.1-8.4,0.4
		s-5.2-2.8-6.4-5.3c-1.7-3.3-1.9-7.1-1.6-10.8c0.3-3.3,1.5-6.7,4-9c1.8-1.7,4.3-2.5,6.8-2.7c3.1-0.2,6.4,0.7,8.6,2.9
		c2.4,2.3,3.3,5.7,3.6,9C323.8,61.7,323.6,65.4,322.2,68.7z"/>
	<path class="st2" d="M351.1,38.2c4.8-0.8,9.7-0.2,14.2,1.5c0,3.2,0,6.3,0,9.5c-3.1-2.2-7-3.3-10.8-3.2c-1.9,0.1-4,0.9-4.9,2.7
		c-0.7,1.8-0.2,4.2,1.5,5.3c2.9,2,6.4,2.8,9.4,4.5c2.4,1.3,4.7,3.1,5.9,5.6c2.3,4.7,1.3,11-2.7,14.5c-3.8,3.6-9.3,4.5-14.3,4.3
		c-3.6-0.2-7.2-0.9-10.5-2.4c0-3.3,0-6.6,0-9.9c2.8,2,6,3.4,9.3,4c2.4,0.4,4.9,0.4,7.1-0.7c2.1-1,2.5-4,1.2-5.8
		c-1.2-1.4-2.9-2.2-4.5-2.9c-3-1.4-6.2-2.5-8.9-4.5c-1.9-1.5-3.3-3.5-3.8-5.8c-0.8-3.4-0.6-7.3,1.4-10.3
		C343.1,41,347,38.9,351.1,38.2L351.1,38.2z"/>
	<path class="st2" d="M414.5,50.2c-1.6-4.3-4.8-8-8.8-10c-4.7-2.4-10.1-2.7-15.3-2.1c-4.1,0.5-8.2,2.1-11.4,4.9
		c-3.9,3.3-6.1,8.2-6.8,13.2c-0.6,5-0.4,10.3,1.6,14.9s5.8,8.3,10.5,10.1c4.6,1.8,9.7,2,14.5,1.2c4.9-0.8,9.6-3.4,12.6-7.4
		c3.3-4.1,4.7-9.5,4.7-14.6C416.2,57,415.7,53.4,414.5,50.2z M405.2,64.8c-0.4,2.3-1.2,4.5-2.7,6.3s-3.7,2.9-6,3.2
		c-2.5,0.4-5.1,0.2-7.4-0.8c-2.5-1.1-4.4-3.2-5.4-5.7c-1.2-2.9-1.5-6.2-1.2-9.4c0.2-3.1,1.1-6.2,3.1-8.6c1.8-2.2,4.7-3.4,7.5-3.6
		c2.9-0.2,6,0.5,8.2,2.4c2.1,1.7,3.2,4.3,3.7,6.8C405.7,58.6,405.7,61.7,405.2,64.8z"/>
	<path class="st2" d="M279.9,39.6c2.8-1.7,6.4-1.8,9.5-0.8c0,3.4,0,6.9,0,10.3c-2-1.3-4.6-1.9-7-1.6c-2.9,0.3-5.2,2.6-6.4,5.1
		c-1.3,2.7-1.5,5.8-1.5,8.8c0,6.9,0,13.7,0,20.6c-3.4,0-6.8,0-10.1,0c0-14.3,0-28.7,0-43c3.4,0,6.8,0,10.2,0c0,2.5,0,4.9,0,7.4
		C275.7,43.6,277.3,41,279.9,39.6L279.9,39.6z"/>
	<path class="st2" d="M206.1,38.9c3.4,0,6.8,0,10.2,0c0,14.3,0,28.6,0,43c-3.4,0-6.8,0-10.2,0C206.1,67.6,206.1,53.2,206.1,38.9
		L206.1,38.9z"/>
	<path class="st3" d="M1.7,54.3c15.9,0,31.7,0,47.6,0c0,15.9,0,31.7,0,47.6H1.7V54.3L1.7,54.3z"/>
	<path class="st4" d="M54.1,54.3c15.9,0,31.7,0,47.6,0c0,15.9,0,31.7,0,47.6H54.1C54.1,86,54.1,70.2,54.1,54.3L54.1,54.3z"/>
</g>
</svg>
