<?xml version="1.0" encoding="utf-8"?>
<!-- Generator: Adobe Illustrator 24.3.0, SVG Export Plug-In . SVG Version: 6.00 Build 0)  -->
<svg version="1.1" id="Layer_1" xmlns="http://www.w3.org/2000/svg" xmlns:xlink="http://www.w3.org/1999/xlink" x="0px" y="0px"
	 viewBox="0 0 405.5 103.8" style="enable-background:new 0 0 405.5 103.8;" xml:space="preserve">
<style type="text/css">
	.st0{fill:#212629;}
	.st1{fill:#3CBFEF;}
	.st2{fill:#2FB77E;}
	.st3{fill:#FCB017;}
	.st4{fill:#E0225B;}
</style>
<g>
	<path class="st0" d="M128.1,81l4.9-11.5c5.4,4,12.3,6,19.3,6c5.1,0,8.4-2,8.4-5c-0.1-8.4-30.8-1.9-31.1-23
		c-0.1-10.7,9.5-19,22.9-19c8,0,16.1,2,21.8,6.5l-4.6,11.7c-5.2-3.4-11.7-5.7-17.9-5.7c-4.2,0-7,2-7,4.6c0.1,8.3,31.1,3.8,31.4,23.9
		c0,11-9.3,18.6-22.6,18.6C143.9,88.2,134.9,85.9,128.1,81 M322.8,65.4c-2.5,4.5-7.2,7.2-12.3,7.2c-7.8,0-14.2-6.4-14.2-14.2
		c0-7.8,6.4-14.2,14.2-14.2c5.1,0,9.9,2.7,12.3,7.2l13.6-7.6c-5.1-9.1-14.8-15.3-25.9-15.3c-16.4,0-29.8,13.3-29.8,29.8
		s13.3,29.8,29.8,29.8c11.1,0,20.8-6.2,25.9-15.3L322.8,65.4z M185.1,87h17V3.8h-17V87z M345,3.8V87h17V62.1L382.2,87h21.7
		l-25.6-29.6L402,29.7h-20.8l-19.2,23v-49L345,3.8L345,3.8z M254.5,29.8v6.8c-2.8-4.7-9.7-7.9-16.9-7.9c-14.9,0-26.7,13.2-26.7,29.8
		s11.7,29.9,26.7,29.9c7.2,0,14.1-3.3,16.9-7.9v6.8h17V30L254.5,29.8L254.5,29.8z M254.5,65.5c-2.4,4.1-7.6,7.1-13.3,7.1
		c-7.8,0-14.2-6.4-14.2-14.2s6.4-14.2,14.2-14.2c5.7,0,10.9,3.2,13.3,7.4V65.5z"/>
	<path class="st1" d="M38.3,2c-5.5,0-10,4.5-10,10s4.5,10,10,10l0,0h10V12C48.2,6.5,43.8,2,38.3,2 M38.3,28.6H11.8
		c-5.5,0-10,4.5-10,10s4.5,10,10,10h26.6c5.5,0,10-4.5,10-10C48.2,33.1,43.8,28.6,38.3,28.6"/>
	<path class="st2" d="M101.5,38.6c0-5.5-4.5-10-10-10s-10,4.5-10,10v10h10C97,48.6,101.5,44.1,101.5,38.6 M74.9,38.6V11.9
		c0-5.5-4.5-10-10-10s-10,4.5-10,10v26.7c0,5.5,4.5,10,10,10S74.9,44.1,74.9,38.6"/>
	<path class="st3" d="M64.9,101.9c5.5,0,10-4.5,10-10s-4.5-10-10-10h-10v10C54.9,97.4,59.4,101.9,64.9,101.9 M64.9,75.2h26.6
		c5.5,0,10-4.5,10-10s-4.5-10-10-10H64.9c-5.5,0-10,4.5-10,10S59.4,75.2,64.9,75.2L64.9,75.2"/>
	<path class="st4" d="M1.7,65.2c0,5.5,4.5,10,10,10l0,0c5.5,0,10-4.5,10-10v-10h-10C6.2,55.3,1.7,59.7,1.7,65.2 M28.3,65.2v26.7
		c0,5.5,4.5,10,10,10c5.5,0,10-4.5,10-10V65.2c0-5.5-4.5-10-10-10l0,0C32.8,55.3,28.3,59.7,28.3,65.2"/>
</g>
</svg>
