<?xml version="1.0" encoding="utf-8"?>
<!-- Generator: Adobe Illustrator 24.3.0, SVG Export Plug-In . SVG Version: 6.00 Build 0)  -->
<svg version="1.1" id="layer" xmlns="http://www.w3.org/2000/svg" xmlns:xlink="http://www.w3.org/1999/xlink" x="0px" y="0px"
	 viewBox="0 0 305.4 102.1" style="enable-background:new 0 0 305.4 102.1;" xml:space="preserve">
<style type="text/css">
	.st0{fill:#EA4335;}
	.st1{fill:#FBBC05;}
	.st2{fill:#4285F4;}
	.st3{fill:#34A853;}
</style>
<g>
	<path class="st0" d="M130.9,53.6c0,14.4-11.3,25-25.1,25s-25-10.6-25-25c0-14.5,11.3-25,25.1-25S130.9,39.1,130.9,53.6z
		 M119.9,53.6c0-9-6.5-15.1-14.1-15.1s-14.1,6.2-14.1,15.1s6.5,15.1,14.1,15.1C113.4,68.8,119.9,62.5,119.9,53.6z"/>
	<path class="st1" d="M185,53.6c0,14.4-11.3,25-25.1,25c-13.8,0-25.1-10.6-25.1-25c0-14.5,11.3-25,25.1-25
		C173.7,28.6,185,39.1,185,53.6z M174,53.6c0-9-6.5-15.1-14.1-15.1s-14.1,6.2-14.1,15.1s6.5,15.1,14.1,15.1S174,62.5,174,53.6z"/>
	<path class="st2" d="M236.8,30.1V75c0,18.5-10.9,26-23.7,26c-12.1,0-19.4-8.1-22.1-14.7l9.6-4c1.7,4.1,5.9,8.9,12.6,8.9
		c8.2,0,13.3-5.1,13.3-14.6V73h-0.4c-2.5,3-7.2,5.7-13.2,5.7c-12.5,0-23.9-10.9-23.9-24.9c0-14.1,11.4-25.1,23.9-25.1
		c6,0,10.7,2.6,13.2,5.6h0.4v-4.1L236.8,30.1L236.8,30.1z M227.2,53.7c0-8.8-5.9-15.2-13.3-15.2c-7.6,0-13.9,6.4-13.9,15.2
		c0,8.7,6.3,15.1,13.9,15.1C221.3,68.8,227.2,62.4,227.2,53.7z"/>
	<path class="st3" d="M254,3.9v73.2h-10.7V3.9L254,3.9L254,3.9z"/>
	<path class="st0" d="M295.7,61.8l8.5,5.7c-2.7,4.1-9.4,11.1-20.8,11.1c-14.2,0-24.8-11-24.8-25c0-14.9,10.7-25,23.6-25
		c13,0,19.3,10.3,21.4,15.9l1.1,2.8l-33.4,13.8c2.6,5,6.5,7.6,12.1,7.6C289,68.8,292.9,66,295.7,61.8L295.7,61.8z M269.5,52.9
		l22.3-9.3c-1.2-3.1-4.9-5.3-9.3-5.3C277,38.3,269.2,43.2,269.5,52.9z"/>
	<path class="st2" d="M40.3,47.1V36.5H76c0.3,1.8,0.5,4,0.5,6.4c0,8-2.2,17.8-9.2,24.8c-6.8,7.1-15.5,10.9-27.1,10.9
		c-21.4,0-39.4-17.4-39.4-38.8S18.8,1,40.2,1C52,1,60.5,5.6,66.8,11.7l-7.5,7.5c-4.5-4.3-10.7-7.6-19.1-7.6
		c-15.6,0-27.8,12.6-27.8,28.2S24.6,68,40.2,68c10.1,0,15.9-4.1,19.6-7.8c3-3,5-7.3,5.7-13.1L40.3,47.1z"/>
</g>
</svg>
