<?xml version="1.0" encoding="utf-8"?>
<!-- Generator: Adobe Illustrator 24.3.0, SVG Export Plug-In . SVG Version: 6.00 Build 0)  -->
<svg version="1.1" id="Layer_1" xmlns="http://www.w3.org/2000/svg" xmlns:xlink="http://www.w3.org/1999/xlink" x="0px" y="0px"
	 viewBox="0 0 441 449" style="enable-background:new 0 0 441 449;" xml:space="preserve">
<style type="text/css">
	.st0{fill:#EAEAEA;}
</style>
<g>
	<path class="st0" d="M156,436.9c-5.2,0-11.4-1.3-19.6-4.3c-21.9-8-44.3-32.3-68.2-57.8c-13.1-14.1-26.6-28.5-40.2-40.4
		C8.3,313-25.3,298.1-57.8,283.9c-23.7-10.4-46.1-20.4-63.6-32.6l0,0c-13.1-9.5-19.1-18.8-18.8-28c1-18.4,27-34.7,57.1-53.5l2.9-1.8
		c22.4-14.1,50.4-32.8,91.1-60.9l3.4-2.3c36.5-24.3,81.7-54.5,140.4-72.7c117.6-42.4,220.5-9.6,253,26c34,41.6,30.9,85.8-11.2,168.9
		C353,313.4,255.1,380.4,215.2,405.1c-16.3,8.1-26.6,15.5-34.1,20.8C171.6,432.6,165.4,436.9,156,436.9z M-118.4,248.7
		c17,12,39.2,21.8,62.7,32.2c32.8,14.6,66.9,29.5,87.2,51.4c13.6,11.9,27.2,26.5,40.3,40.5c23.4,25.2,45.6,48.9,66.4,56.6
		c20.7,7.3,25.5,3.9,39.8-6.2c7.6-5.4,18-12.7,34.6-21c39.4-24.5,136.5-91,180.2-176.9c41.4-81.9,44.6-125.3,11.7-165.7
		C372.8,25,272.4-6.8,156.9,34.8C98.8,52.9,53.8,82.8,17.6,107l-3.3,2.3c-40.8,28-68.8,47-91.4,60.9L-80,172
		c-29.4,18.4-54.7,34.2-55.5,50.8C-136,231.7-130.3,239.9-118.4,248.7z"/>
	<path class="st0" d="M149.2,412.7c-7.2,0-14.7-1.8-25.3-4.9h-0.3c-20-7.7-36-26.4-52.7-46c-11.5-13.4-23.4-27.4-37.6-39.4
		c-20.1-19.6-45.5-34.8-70.1-49.7c-16.5-10-32.1-19.3-45.6-29.6l-0.3-0.3c-27.6-28.8-7.9-41.4,28-64.6c3.9-2.5,8-5.2,12.3-8
		c8.4-4.8,17.4-10,27-15.8c42.4-25.2,100.6-59.7,182.6-87.7c100.2-29.4,177.8-8.1,210.1,26c32.4,35.6,19.8,78.4-16.6,149.9
		c-39.9,72.4-112.9,119.1-151.9,144.2l-4.3,2.8C175.7,406.1,163.1,412.7,149.2,412.7z M125.6,404.6c28.5,8.5,33.5,6.5,76.3-17.9
		l4.2-2.8C245,359,317.2,312.5,356.8,241c35.9-70.3,48.3-112.4,17.1-146.5c-31.3-32.9-106.7-53.5-204.6-24.8
		C87.9,97.6,30,132-12.3,157c-9.6,5.6-18.6,11-26.9,15.7c-4.2,2.8-8.2,5.4-12.3,7.9c-36,23.2-52.5,33.7-27.5,59.8
		c13.3,10.1,28.8,19.4,45.1,29.3c24.7,14.8,50.3,30.3,70.6,50.2c14.4,12.3,26.4,26.2,38,39.8C91.3,379.2,106.8,397.3,125.6,404.6z"
		/>
	<path class="st0" d="M143.4,392.6c-9.1,0-17.6-2.5-28.3-6.8c-17.7-8.1-31.9-25.1-47-43c-8.9-10.6-18.2-21.5-28.8-31.7
		c-15-15.8-32.4-29.4-49.3-42.4c-13.9-10.8-27.1-20.9-37.4-31.3l-0.1-0.1c-21-27.1,0.8-39.7,40-62.7l0.5-0.3l7.3-3.8
		c41.4-21.7,98.3-51.3,176.1-72.9c91.9-22.4,150.4,0.5,172.7,26.9c23.7,28.1,17.9,66-20,130.5c-27.7,45-72.9,85.4-134.3,120.1
		C171,387.4,156.4,392.6,143.4,392.6z M-43.8,235.2c10.1,10.1,23.2,20.3,36.9,30.9c17,13.2,34.7,26.9,49.8,42.8
		c10.6,10,20,21.3,29,31.9c14.7,17.5,28.6,34.2,45.5,41.8c24.1,9.9,36.2,9.6,74.8-10.5c60.8-34.5,105.4-74.4,132.8-118.9
		c37.3-63.4,43.2-100.1,20.4-127.2c-23.1-27.4-83.8-45.9-167.4-25.5c-77.4,21.5-133.8,51.1-175.2,72.6l-7.6,3.9
		C-44.5,200.4-62.7,210.9-43.8,235.2z"/>
	<path class="st0" d="M140.1,374.2c-10.1,0-19.9-2.8-30.5-8h-0.1c-16.2-8.5-29.3-24.5-43.1-41.4c-6.3-7.9-12.9-16-20.1-23.6
		c-9.6-11.3-20.3-21.7-30.4-31.8c-12.5-12.3-24.6-23.9-32.4-35.4c-13.7-23.8,6.3-36.5,40.8-54.2c35.5-16.7,90.3-40.8,157.6-55
		c64.1-10,112.3-2,135.5,22.9c25.1,26.7,18.9,69.2-17.1,116.6c-37.6,55.6-97.3,88.3-114.7,96.9C166.9,369.9,153,374.2,140.1,374.2z
		 M111.8,363.3c20,9.9,35.9,11.7,71-5.1c17-8.5,75.9-40.8,113-95.7c35.1-46,41.4-87.2,17.4-112.9c-22.2-23.6-68.5-31.3-130.9-21.4
		C116,142.3,61.6,166,26.6,182.9c-35.5,18.4-50.9,29.3-39.2,49.9c7.6,10.9,19.4,22.4,31.9,34.7c10.3,10,21.2,20.7,30.7,31.9
		c7.2,7.7,13.8,15.8,20.3,23.7C83.7,339.6,96.5,355.2,111.8,363.3z"/>
	<path class="st0" d="M137.9,357.5c-10.9,0-20.9-2.9-31.3-8.6l-0.3-0.3c-39.8-30.8-86.8-101.5-95.8-115.3l-0.1-0.4
		c-7.1-19.8,8.9-31.4,40.7-46c29.9-12.8,77.2-29.9,132.5-37.8c50.9-6.1,89.2,2.2,107.6,23.4c20.4,23.4,14.2,59.3-17,98.2
		c-27.6,37.4-68.2,64.4-96.9,77.2C162,354.2,149.5,357.5,137.9,357.5z M109.4,346.1c19.9,10.9,37.6,10.5,65.4-1.4
		c28.3-12.4,68.2-39,95.3-75.9c29.9-37.1,36.4-72.5,17.2-94.5c-17.4-20-54-27.9-103-21.8c-54.7,7.9-101.5,24.7-131,37.4
		c-30.4,13.9-44.7,24.2-38.6,41.9C40.6,271.7,79,322.4,109.4,346.1z"/>
	<path class="st0" d="M136.3,341.9c-11.7,0-21.7-3-29.4-8.7c-30.5-22.7-62.3-70.4-71.7-99.3c-1.5-6.6,0.8-13.2,6.5-19.3
		c17.9-19,70.7-35.6,141.5-44.1c39.9-3,69.7,5.3,83.9,23.2c16.1,20.3,10.3,49.8-15.8,80.8c-34.1,39.3-74.9,64.5-109,67.3
		C140.3,341.9,138.3,341.9,136.3,341.9z M198.7,173.4c-4.8,0-9.9,0.3-15,0.6c-69.4,8.4-121.3,24.3-138.4,42.7
		c-5.1,5.4-7,11-5.7,16.7c9.2,28.1,40.4,75.3,70.4,97.6c7.9,5.8,18.9,8.5,31.7,7.5c32.8-2.7,72.5-27.2,105.8-65.8
		c24.8-29.5,30.7-58.3,15.8-77.2C251.8,180.9,229.3,173.4,198.7,173.4z"/>
	<path class="st0" d="M137.3,327.2c-10.8,0-20.4-2.7-27.7-7.9C82.9,301,58.5,262.1,57,236.1l0,0c-0.1-23.9,51.8-43.6,123.4-46.8
		c30.4-0.6,53.1,7.2,63.7,22c12.3,17,7.2,40.5-13.8,64.6c-25.8,29.3-58.3,48.3-86.8,50.8C141.5,327.1,139.3,327.2,137.3,327.2z
		 M61.6,236c1.4,25.2,25.2,63,50.9,80.8c7.9,5.6,18.4,7.9,30.4,6.7c27.2-2.5,58.4-21,83.6-49.4c20-23.1,25-45.2,13.6-61.1
		c-9.9-13.6-30.9-20.9-59.6-20.3C112.7,195.8,61.5,214.4,61.6,236z"/>
	<path class="st0" d="M138.1,313.3c-9.5,0-17.9-2.2-24.7-6.6c-23.8-15.2-40.9-45.9-37.1-67.3c4.1-20.4,47.5-35,98.8-33.3
		c22.6,1,39.2,8.1,46.8,20c8.7,13.7,4.8,31.7-11,49.7c-18.8,20.9-43.3,34.8-66,37.3C142.6,313.1,140.3,313.3,138.1,313.3z
		 M166.9,209.5c-45.6,0-82.7,12.9-86.2,30.5c-3.4,19.9,13.1,49.8,35.5,64.1c7.5,4.7,17,6.6,28,5.4c21.3-2.3,44.9-15.7,62.8-35.7
		c14.8-16.7,18.9-33.6,10.8-46.1c-7-10.6-22.2-17.1-43-18.1C172.1,209.5,169.6,209.5,166.9,209.5z"/>
	<path class="st0" d="M140.2,300c-7.6,0-14.6-1.6-20.3-4.9c-20-11.4-31.3-34.5-25.1-51.2c6.3-16.7,39.2-26.6,74.6-22.8
		c15.7,1.8,27.2,7.9,32.4,16.9c5.8,10.3,3,23.4-8,35.7c-12.7,14.3-29.6,23.6-46.5,25.7C144.9,299.8,142.5,300,140.2,300z
		 M99.2,244.8c-5.6,15.2,5.1,36.9,23.4,47.5c6.5,3.7,14.7,5.1,23.8,3.8c15.5-2,31.8-11,43.6-24.3c10-11.4,12.8-23.3,7.6-32.4
		c-4.6-7.9-14.8-13.2-29-14.8C136,221,104.7,230,99.2,244.8z"/>
	<path class="st0" d="M142,287.2c-5.3,0-10.3-1.1-14.8-3.3c-14.8-7.5-21.9-23.2-15.6-35c6.3-11.9,29-18.2,50.4-14.3
		c10,1.8,17.1,6.3,20.4,12.7c3.5,7,1.8,15.3-4.9,23.2C168.2,281.1,154.5,287.2,142,287.2z M129.4,281c12.8,6.3,32.6,0.9,44.1-12.4
		c5.8-6.8,7.6-14.1,4.6-19.9c-2.7-5.3-8.9-9-17.2-10.5c-19.4-3.5-39.7,1.8-45.2,12.2C110.2,260.6,116.4,274.4,129.4,281z"/>
	<path class="st0" d="M143.3,274.5c-2.9,0-5.6-0.5-8.1-1.5c-8.7-3.7-12.3-12.2-7.9-18.9c4.3-6.6,16.3-9.9,26.6-7.1
		c4.9,1.3,8.6,3.9,10.1,7.5c1.6,3.7,0.9,7.9-2.3,11.8C157.3,271.5,150.1,274.5,143.3,274.5z M146,249.5c-6.3,0-12.3,2.3-14.8,6.1
		c-3.3,5.1-0.8,11.4,6,14.2c6.6,2.8,16,0.3,20.8-5.6c2.4-2.9,3-6,1.8-8.7c-1.1-2.4-3.7-4.3-7.3-5.3
		C150.2,249.8,148.1,249.5,146,249.5z"/>
</g>
</svg>
