<?xml version="1.0" encoding="utf-8"?>
<!-- Generator: Adobe Illustrator 24.3.0, SVG Export Plug-In . SVG Version: 6.00 Build 0)  -->
<svg version="1.1" id="Layer_1" xmlns="http://www.w3.org/2000/svg" xmlns:xlink="http://www.w3.org/1999/xlink" x="0px" y="0px"
	 viewBox="0 0 346 34" style="enable-background:new 0 0 346 34;" xml:space="preserve">
<style type="text/css">
	.st0{fill:#4F9CF9;}
	.st1{fill:#FFE492;}
</style>
<path class="st0" d="M322.5,16.5c-0.5,0-0.9,0-1.4,0.1c-0.3,0-0.4,0-0.6-0.1c-0.1,0-0.1,0-0.2,0c-0.5,0-0.9,0.1-1.4,0.1
	c-0.1,0.1-0.2,0.1-0.4,0.2c-0.2,0-0.5,0-0.7,0c-0.3,0-0.6,0-0.9,0.1c-0.2,0-0.3,0-0.3,0.1c0,0,0.1,0,0.2,0c0.2,0,0.4,0.1,0.6,0.1
	c0.2,0,0.4,0,0.7,0c0.5,0.1,0.5,0.1,0.9,0.1c0.3,0,0.6,0,0.9-0.1c0.1,0,0.1,0,0.2,0c0.2,0,0.3,0.1,0.6,0.1c0.2,0,0.5,0,0.7,0
	c0.2,0,0.4,0.1,0.6,0.1c0.2,0,0.3,0.1,0.2,0.1c-0.1,0-0.2,0.1-0.4,0.1c-0.2,0-0.3,0-0.5,0c-0.1,0-0.2,0-0.2,0c-0.3,0-0.3,0-0.8-0.1
	c-0.2,0-0.5,0-0.7,0c-0.1,0-0.3-0.1-0.4-0.1c-0.1,0-0.1,0-0.2,0c-0.2,0-0.5,0-0.7,0c-0.2,0-0.3,0.1-0.2,0.1c0,0,0.1,0,0.2,0
	c0.2,0,0.3,0,0.5,0c0.1,0,0.3,0,0.4,0.1c0.2,0.1,0.5,0,0.7,0c0.2,0,0.4,0.1,0.6,0.1c0.1,0,0.2,0,0.2,0c0.2,0,0.5,0,0.7,0
	c0.2,0,0.4,0.1,0.6,0.1c0.3,0.1,0.7,0.1,1.1,0.1c0.2,0,0.5,0,0.6,0c0.2,0.1,0.4,0.1,0.7,0c0.2,0,0.4,0,0.7,0
	c0.5,0.1,0.5,0.1,1.1,0.1c0.2,0,0.3,0,0.4,0c0.1,0,0.3,0.1,0.4,0.1c0.2,0,0.5,0,0.7,0c0.3,0,0.5,0,0.5,0.1c0,0.1,0.1,0.1,0.2,0.1
	c0.1,0,0.3,0,0.4,0c0.2,0,0.3,0,0.4-0.1c0,0,0.1,0,0.1-0.1c0,0,0.1,0,0.1,0c0.1,0,0.2,0,0.2,0c0.2,0.2,0.2,0.2,0.5,0.2
	c0.3,0.1,0.5,0.1,0.8,0.2c0.2,0.1,0.4,0,0.7,0c0.2,0,0.3,0,0.3,0.1c0,0-0.1,0.1-0.1,0.1c-0.5,0-0.9,0.1-1.4,0.1c-0.1,0-0.1,0-0.2,0
	c-0.1,0-0.3-0.1-0.4-0.1c-0.1,0-0.3,0-0.5,0c-0.2,0-0.3,0-0.5,0c-0.1,0-0.3-0.1-0.4-0.1c-0.1,0-0.1,0-0.2,0c-0.3,0-0.6,0-0.9-0.1
	c-0.1,0-0.1,0-0.2,0c-0.5,0-1.1,0.1-1.6,0.1c-0.2,0-0.4,0-0.5-0.1c0-0.1-0.1-0.1-0.1-0.2c0-0.1-0.3-0.1-0.5-0.1
	c-0.3,0-0.6,0-0.9,0.1c-0.2,0-0.5,0-0.6,0c-0.2-0.1-0.4,0-0.7,0c-0.2,0-0.2,0.1-0.2,0.2c0,0.1-0.1,0.1-0.4,0.2c-0.4,0-0.8,0-1.2,0.1
	c-0.1,0-0.1,0-0.2,0c-0.1,0-0.3-0.1-0.4-0.1c-0.1,0-0.3,0-0.5,0c-0.2,0-0.3,0-0.5,0c-0.1,0-0.3-0.1-0.4-0.1c-0.1,0-0.1,0-0.2,0
	c-0.3,0-0.6,0-0.9,0.1c-0.3,0-0.3,0-0.9-0.1c-0.2,0-0.5,0-0.7,0c-0.2,0-0.5,0-0.6,0c-0.1,0-0.3-0.1-0.4-0.1c-0.4,0-0.8,0-1.2,0.1
	c-0.1,0-0.2,0-0.2,0c-0.3-0.1-0.5-0.1-0.9-0.1c-0.3,0-0.6,0-0.9,0.1c-0.2,0-0.2,0.1-0.2,0.1c0,0,0.1,0,0.2,0c0.2,0,0.3,0,0.5,0
	c0.3,0,0.5,0.1,0.8,0.1c0.2,0,0.5,0,0.7,0c0.1,0,0.1,0,0.2,0c0.2,0,0.4,0.1,0.6,0.1c0.2,0,0.5,0,0.7,0c0.4,0,0.4,0,0.9,0.1
	c0.2,0,0.5,0,0.7,0c0.2,0,0.3,0,0.5,0c0.2,0,0.4,0.1,0.6,0.1c0.2,0,0.5,0,0.7,0c0.1,0,0.3,0,0.4,0.1c0.1,0,0.3,0.1,0.4,0
	c0.2,0,0.5,0,0.7,0c0.1,0,0.1,0,0.2,0c0.1,0,0.3,0.1,0.4,0.1c0.2,0,0.5,0,0.7,0c0.2,0,0.3,0,0.4,0c0.2,0,0.3,0.1,0.6,0.1
	c0.1,0,0.3,0,0.5,0c0.2,0,0.3,0,0.4,0c0.2,0.1,0.6,0.1,0.9,0c0.3,0,0.6,0,0.9,0.1c0.3,0.1,0.3,0.1,0.5,0.2c0.1,0,0.2,0.1,0.4,0.1
	c0.2,0,0.5,0,0.6,0c0.2,0.1,0.4,0.1,0.7,0c0.3,0,0.6,0,0.9,0c0.1,0,0.3,0.1,0.4,0c0.5,0,0.9-0.1,1.4-0.1c0.3,0,0.4,0,0.6,0.1
	c0.3,0.1,0.5,0.1,0.6,0.2c0,0,0.1,0,0.1,0.1c0.1,0,0.3,0.1,0.4,0.1c0.2,0,0.4,0.1,0.6,0.1c0.2,0,0.5,0,0.7,0c0.2,0,0.4,0,0.7,0
	c0.2,0.1,0.5,0.1,0.8,0.2c0.2,0,0.4,0,0.7,0c0.1,0,0.3,0.1,0.4,0.1c0.1,0,0.1,0,0.2,0c0.2,0,0.3,0,0.5,0c0.2,0,0.3,0,0.4,0
	c0.1,0,0.3,0.1,0.4,0.1c0.2,0,0.4-0.1,0.7,0c0.1,0,0.3,0.1,0.4,0.1c0.1,0,0.3,0,0.5,0c0.1,0,0.1,0,0.2,0c0,0,0,0,0,0.1
	c0,0-0.1,0-0.2,0c-0.5,0-0.9,0.1-1.4,0.1c-0.3,0-0.3,0-0.8-0.1c-0.1,0-0.3,0-0.4,0c-0.2,0-0.4,0-0.7,0c-0.3-0.1-0.7-0.1-1.1-0.1
	c-0.2,0-0.3,0-0.4,0c-0.3-0.1-0.5-0.1-0.8-0.2c-0.2-0.1-0.3-0.1-0.3,0c0,0,0,0,0,0.1c0,0.1,0.1,0.2,0.1,0.2c0,0,0,0,0,0.1
	c-0.1,0.1-0.2,0.1-0.3,0c-0.2-0.1-0.4-0.1-0.6-0.1c-0.2,0-0.5,0-0.7,0c-0.3,0-0.6,0-0.9-0.1c-0.1,0-0.1,0-0.2,0
	c-0.7,0-1.4,0.1-2.1,0.1c-0.2,0-0.3,0-0.4-0.1c-0.1,0-0.3-0.1-0.4-0.1c-0.6,0-1.2,0.1-1.9,0.1c-0.3,0-0.5,0-0.6-0.1
	c-0.1,0-0.3-0.1-0.4,0c-0.2,0-0.3,0-0.4,0.1c-0.1,0,0,0.1,0.2,0.1c0.2,0,0.4,0.1,0.6,0.1c0.2,0,0.3,0,0.5,0c0.1,0,0.1,0,0.2,0
	c0.2,0,0.4,0.1,0.6,0.1c0.2,0,0.5,0,0.7,0c0.3,0,0.3,0,0.8,0.1c0.1,0,0.3,0,0.4,0c0.1,0,0.3,0,0.4,0.1c0,0,0,0-0.1,0.2
	c0,0.1,0.1,0,0.1,0c0-0.1-0.1-0.1-0.2-0.1c-0.1,0-0.2,0.1-0.2,0.1c0,0,0.1,0,0.3,0c0.4-0.1,0.7-0.1,1-0.1c0.2,0,0.3,0,0.4,0
	c0.2,0,0.3,0.1,0.6,0.1c0.3,0,0.6,0,0.9-0.1c0.3,0,0.4,0,0.6,0.1c0.2,0,0.5,0,0.7,0c0.2,0,0.4,0.1,0.6,0.1c0.3,0,0.6,0,0.8,0.1
	c0.2,0,0.5,0,0.7,0c0.2,0,0.5,0,0.6,0c0.2,0.1,0.4,0,0.7,0c0.5,0,0.5,0,0.9,0c0.2,0.1,0.4,0,0.7,0c0.2,0,0.4,0.1,0.6,0.1
	c0.1,0,0.2,0,0.2,0c0.2,0,0.5,0,0.7,0c0.2,0,0.3,0,0.5,0c0.1,0,0.3,0.1,0.4,0.1c0.1,0,0.3,0.1,0.4,0.1c0.2,0,0.4,0.1,0.6,0.1
	c0.2,0,0.5,0,0.7,0c0.3,0,0.3,0,0.8,0.1c0.3,0,0.6,0,0.9,0c0.2,0,0.3,0,0.4,0.1c0,0,0,0,0,0.1c-0.8,0-1.6,0.1-2.3,0.1
	c-0.3,0-0.5,0-0.6-0.1c-0.3-0.1-0.6,0-0.9-0.1c-0.2-0.1-0.4-0.1-0.6-0.1c-0.2,0-0.3,0-0.5,0c-0.4,0-0.8,0-1.1-0.1
	c-0.1,0-0.3-0.1-0.4-0.1c-0.1,0-0.3-0.1-0.4,0c-0.7,0-1.4,0.1-2.1,0.1c-0.1,0-0.1,0-0.2,0c-0.1,0-0.1,0.1,0.1,0.1c0.1,0,0.1,0,0.2,0
	c0.1,0,0.3,0.1,0.4,0.1c0.1,0,0.3,0,0.5,0c0.2,0,0.3,0,0.5,0c0.1,0,0.3,0.1,0.4,0.1c0.1,0,0.1,0,0.2,0c0.3,0,0.6,0,0.9,0
	c0.2,0,0.4,0.1,0.6,0.1c0.1,0,0.3,0,0.5,0c0.1,0,0.2,0,0.2,0c0,0,0,0-0.1,0.1c-0.2,0.1-0.4,0.1-0.6,0.1c-0.2,0-0.5,0-0.6,0
	c-0.1,0-0.3-0.1-0.4-0.1c-0.4,0-0.8,0-1.2,0.1c-0.1,0-0.1,0-0.2,0c-0.5-0.1-0.5-0.1-0.9-0.1c-0.5,0-0.5,0-0.9,0c-0.1,0-0.1,0-0.2,0
	c-0.5,0-1.1,0.1-1.6,0.1c-0.2,0-0.3,0-0.4,0c-0.1,0-0.3-0.1-0.4-0.1c-0.1,0-0.3,0-0.5,0c-0.2,0-0.3,0-0.5,0c-0.1,0-0.3-0.1-0.4-0.1
	c-0.1,0-0.3,0-0.4,0c-0.5,0-0.5,0-1.1-0.1c-0.1,0-0.1,0-0.2,0c-0.4,0-0.8,0-1.2,0.1c-0.2,0-0.3,0-0.4-0.1c0,0,0,0-0.1-0.1
	c0,0,0,0,0,0c0.1,0,0.2,0,0.2,0c0.1,0,0.2-0.1,0.2-0.1c0,0-0.1,0-0.2,0c-0.1,0-0.2,0-0.2,0.1c-0.3,0.1-0.6,0.1-0.9,0.1
	c-0.2,0-0.3,0-0.4,0c-0.2,0-0.4-0.1-0.6-0.1c-0.3,0-0.6,0-0.9,0.1c-0.4,0-0.5-0.1-0.8-0.1c-0.3,0-0.6,0-0.9,0.1
	c-0.3,0-0.3,0-0.8-0.1c-0.2,0-0.5,0-0.7,0c-0.1,0-0.3-0.1-0.4-0.1c-0.1,0-0.1,0-0.2,0c-0.4,0-0.8,0-1.2,0.1c-0.4,0-0.8,0-1.1-0.1
	c-0.4,0-0.8,0-1.2,0.1c-0.3,0-0.4,0-0.6-0.1c-0.1,0-0.1,0-0.2,0c-0.1,0-0.2,0-0.2,0c-0.3,0-0.6,0-0.9,0.1c-0.4,0-0.5-0.1-0.8-0.1
	c-0.2,0.1-0.3,0.2-0.7,0.2c-0.3,0-0.6,0-0.9,0.1c-0.2,0-0.3,0-0.5,0c-0.2,0-0.4,0.1-0.3,0.2c0,0.1,0.1,0.1,0.1,0.2
	c0.1,0.1-0.1,0.2-0.3,0.2c-0.5,0-1.1,0.1-1.6,0.1c-0.1,0-0.3,0-0.4-0.1c-0.1,0-0.3-0.1-0.4,0c-0.5,0-1.1,0.1-1.6,0.1
	c-0.1,0-0.1,0-0.2,0c-0.1,0-0.3-0.1-0.4-0.1c-0.3,0-0.6,0-0.9,0c-0.5,0-0.5,0-0.9,0c-0.1,0-0.1,0-0.2,0c-0.2,0-0.5,0-0.7,0
	c-0.7,0-0.7,0-0.9,0c-0.2,0-0.4-0.1-0.6-0.1c-0.3,0-0.6,0-0.9,0.1c-0.2,0-0.5,0-0.7,0c-0.1,0-0.1,0-0.2,0c-0.2,0-0.4-0.1-0.6-0.1
	c-0.1,0-0.3,0-0.5,0c-0.4,0-0.4,0-1.1-0.1c-0.1,0-0.1,0-0.2,0c-0.5,0-1.1,0.1-1.6,0.1c-0.1,0-0.1,0-0.2,0c-0.8-0.1-0.8-0.1-1.5,0
	c-0.3,0-0.3,0-0.6-0.1c-0.1,0-0.3,0-0.4,0c-0.6,0-1.2,0.1-1.9,0.1c-0.3,0-0.4,0-0.6-0.1c-0.1,0-0.1,0-0.2,0c-0.6,0-1.2,0.1-1.9,0.1
	c-0.1,0-0.1,0-0.2,0c-0.1,0-0.3-0.1-0.4-0.1c-0.1,0-0.3,0-0.5,0c-0.4,0-0.4,0-0.9-0.1c-0.1,0-0.1,0-0.2,0c-0.6,0-1.3,0.1-1.9,0.1
	c-0.4,0-0.6,0-0.9-0.1c-0.1,0-0.1,0-0.2,0c-0.7,0-1.4,0.1-2.1,0.1c-0.1,0-0.3,0-0.4-0.1c-0.2-0.1-0.4-0.1-0.7,0c-0.5,0-0.5,0-0.9,0
	c-0.1,0-0.1,0-0.2,0c-0.1,0-0.2,0-0.2,0c-0.3,0-0.6,0-0.9,0.1c-0.3,0-0.6,0-0.9,0.1c-0.4,0-0.6-0.1-0.8-0.1c-0.4,0-0.8,0-1.2,0.1
	c-0.3,0-0.4,0-0.6-0.1c-0.1,0-0.1,0-0.2,0c-0.7,0-1.4,0.1-2.1,0.1c-0.2,0-0.3,0-0.4,0c-0.3-0.1-0.3-0.1-0.9,0c-0.2,0-0.5,0-0.7,0
	c-0.2-0.1-0.4-0.1-0.6,0c-0.3,0-0.6,0-0.9,0.1c-0.3,0-0.6,0-0.9,0.1c-0.2,0-0.4-0.1-0.6-0.1c-0.1,0-0.1,0-0.2,0
	c-0.3,0-0.6,0-0.9,0.1c-0.4,0-0.6,0-0.8-0.1c-0.1,0-0.2,0-0.2,0c-0.5,0-1.1,0.1-1.6,0.1c-0.2,0-0.4-0.1-0.6-0.1
	c-0.3,0-0.6,0-0.9,0.1c-0.2,0-0.5,0-0.7,0c-0.3,0-0.4,0-0.6-0.1c-0.1,0-0.1,0-0.2,0c-0.4,0-0.8,0-1.2,0.1c-0.4,0-0.5-0.1-0.8-0.1
	c-0.3,0-0.6,0-0.9,0.1c-0.3,0-0.6,0-0.9-0.1c-0.1,0-0.1,0-0.2,0c-0.4,0-0.8,0-1.2,0.1c-0.1,0-0.1,0-0.2,0c-0.8-0.1-0.8-0.1-1.1-0.1
	c-0.2,0-0.5,0-0.7,0c-0.1,0-0.1,0-0.2,0c-0.5-0.1-0.5-0.1-0.9-0.1c-0.3,0-0.6,0-0.9,0.1c-0.2,0-0.4-0.1-0.6-0.1
	c-0.4,0-0.8,0-1.2,0.1c-0.2,0-0.3,0-0.4,0c-0.2,0-0.3-0.1-0.6-0.1c-0.3,0-0.6,0-0.9,0.1c-0.4,0-0.5-0.1-0.8-0.1
	c-0.3,0-0.6,0-0.9,0.1c-0.3,0-0.6,0-0.9-0.1c-0.1,0-0.1,0-0.2,0c-0.9,0.1-1.7,0.1-2.6,0.2c-0.5,0-0.5,0-1.5,0c-0.1,0-0.1,0-0.2,0
	c-0.3,0-0.6,0-0.9,0.1c-0.4,0-0.6,0-0.8-0.1c-0.1,0-0.1,0-0.2,0c-0.2,0-0.5,0-0.7,0c-0.3,0-0.6,0-0.9,0.1c-0.2,0-0.4-0.1-0.6-0.1
	c-0.4,0-0.8,0-1.2,0.1c-0.3,0-0.4,0-0.6-0.1c-0.1,0-0.1,0-0.2,0c-0.7,0-1.4,0.1-2.1,0.1c-0.3,0-0.4,0-0.6-0.1c-0.1,0-0.1,0-0.2,0
	c-0.5,0-0.9,0.1-1.4,0.1c-0.3,0-0.3,0-0.8-0.1c-0.1,0-0.1,0-0.2,0c-1.5,0.1-3,0.2-4.4,0.3c-0.2,0-0.3,0-0.4-0.1
	c-0.1,0-0.3-0.1-0.4-0.1c-0.6,0-1.2,0.1-1.9,0.1c-0.3,0-0.5,0-0.6-0.1c-0.1,0-0.3-0.1-0.4,0c-0.3,0-0.6,0-0.9,0.1
	c-0.3,0-0.6,0-0.9,0.1c-0.3,0-0.6,0-0.9,0.1c-0.4,0-0.6-0.1-0.8-0.1c-0.5,0-0.9,0.1-1.4,0.1c-0.6,0-1.2,0.1-1.9,0.1
	c-0.1,0-0.1,0-0.2,0c-0.2,0-0.3-0.1-0.6-0.1c-1.4,0.1-2.8,0.2-4.2,0.3c-0.3,0-0.4,0-0.6-0.1c-0.1,0-0.1,0-0.2,0
	c-0.8,0-1.6,0.1-2.3,0.1c-0.3,0-0.3,0-0.9-0.1c-0.1,0-0.1,0-0.2,0c-1,0.1-2,0.1-3,0.2c-0.2,0-0.3,0-0.4-0.1c-0.1,0-0.3-0.1-0.4-0.1
	c-0.9,0.1-1.9,0.1-2.8,0.2c-0.2,0-0.5,0-0.6,0c-0.1,0-0.3-0.1-0.4,0c-1.4,0.1-2.8,0.2-4.2,0.3c-0.3,0-0.5,0-0.6-0.1
	c-0.1,0-0.3,0-0.4,0c-0.2,0-0.3,0-0.4,0.1c-0.1,0.1-0.2,0.1-0.5,0.1c-0.3,0-0.6,0-0.9,0.1c-0.3,0-0.4,0-0.6-0.1c-0.1,0-0.3,0-0.4,0
	c-0.2,0-0.3,0-0.3,0.1c-0.2,0.1-0.2,0.1-0.5,0c-0.1,0-0.3-0.1-0.4-0.1c-0.6,0-1.2,0.1-1.9,0.1c-0.4,0-0.4,0-0.6,0
	c-0.1,0-0.3-0.1-0.4,0c-1.7,0.1-3.4,0.2-5.1,0.3c-0.3,0-0.4,0-0.6-0.1c-0.1,0-0.1,0-0.2,0c-0.1,0-0.2,0-0.2,0
	c-1.2,0.1-2.5,0.2-3.7,0.2c-0.3,0-0.4,0-0.6-0.1c-0.1,0-0.1,0-0.2,0c-0.1,0-0.2,0-0.2,0c-1.2,0.1-2.5,0.2-3.7,0.2
	c-0.3,0-0.4,0-0.6-0.1c-0.1,0-0.1,0-0.2,0c-0.4,0-0.8,0-1.2,0.1c-0.9,0.1-1.9,0.1-2.8,0.2c-0.4,0-0.5-0.1-0.8-0.1
	c-0.4,0-0.8,0-1.2,0.1c-0.3,0-0.6,0-0.9,0.1c-0.3,0-0.3,0-1.1-0.1c-0.1,0-0.1,0-0.2,0c-1.1,0.1-2.2,0.1-3.3,0.2c-0.2,0-0.5,0-0.6,0
	c-0.1,0-0.3-0.1-0.4,0c-1.6,0.1-3.3,0.2-4.9,0.3c-0.1,0-0.1,0-0.2,0c-0.1,0-0.3-0.1-0.4-0.1c-0.1,0-0.2,0.1-0.3,0.1
	c-0.1,0.1-0.2,0.1-0.4,0.1c-0.2,0-0.3,0-0.4,0c-0.2,0-0.4-0.1-0.6-0.1c-1.7,0.1-3.4,0.2-5.1,0.3c-0.3,0-0.4,0-0.6-0.1
	c-0.1,0-0.1,0-0.2,0c-0.7,0-1.4,0.1-2.1,0.1c-1.9,0.1-3.9,0.2-5.8,0.4c-0.4,0-0.6,0-0.9-0.1c-0.1,0-0.1,0-0.2,0
	c-2.7,0.2-5.5,0.3-8.2,0.5c-0.1,0-0.3,0-0.4-0.1c-0.1,0-0.3-0.1-0.4-0.1c-1.2,0.1-2.5,0.2-3.7,0.2c-0.3,0-0.3,0-0.6,0
	c-0.1,0-0.1,0-0.2,0c-0.1,0-0.2,0-0.3,0.1c-0.1,0.1-0.2,0.1-0.4,0.1c-0.2,0-0.3,0-0.4,0c-0.2,0-0.3-0.1-0.6-0.1
	c-3.6,0.2-7.2,0.4-10.7,0.7c-0.3,0-0.4,0-0.6-0.1c-0.1,0-0.1,0-0.2,0c-0.1,0-0.2,0-0.2,0c-5.8,0.4-11.7,0.7-17.5,1.1
	c-0.3,0-0.3,0-0.7,0.2c0,0-0.1,0-0.2,0c-1.8,0.1-3.6,0.2-5.4,0.3c-0.8,0-1.6,0.1-2.3,0.1c-0.3,0-0.3,0-0.9,0.2c-0.1,0-0.1,0-0.2,0
	c-3.1,0.2-6.2,0.4-9.3,0.6c-0.2,0-0.4,0-0.6,0.1c-0.1,0.1-0.2,0.1-0.3,0.1c-2.2,0.1-4.4,0.3-6.5,0.4c-0.3,0-0.4,0.1-0.5,0.1
	c0,0-0.1,0-0.1,0.1c-0.1,0-0.1,0-0.2,0c-1.9,0.1-3.7,0.2-5.6,0.3c-0.3,0-0.4,0.1-0.5,0.1c0,0-0.1,0-0.1,0.1c-0.1,0-0.2,0-0.2,0
	c-1.6,0.1-3.1,0.2-4.7,0.3c-0.3,0-0.4,0.1-0.5,0.1c-0.1,0-0.1,0-0.1,0.1c-0.1,0-0.2,0-0.2,0c-1.2,0.1-2.5,0.2-3.7,0.2
	c-0.3,0-0.3,0.1-0.5,0.2c-0.1,0-0.1,0-0.2,0c-0.8,0.1-1.6,0.1-2.3,0.1c-0.3,0-0.3,0-0.7,0.2c-0.1,0-0.1,0-0.2,0
	c-1.2,0.1-2.3,0.1-3.5,0.2c-0.2,0-0.3,0-0.3,0.1c-0.1,0.1-0.2,0.1-0.3,0.1c-0.9,0.1-1.9,0.1-2.8,0.2c-0.3,0-0.4,0.1-0.5,0.1
	c-0.1,0.1-0.2,0.1-0.3,0.1c-0.9,0.1-1.9,0.1-2.8,0.2c-0.3,0-0.4,0.1-0.5,0.1c-0.1,0.1-0.2,0.1-0.4,0.1c-1.7,0.1-3.4,0.2-5.1,0.3
	c-0.3,0-0.4,0-0.6-0.1c-0.3-0.1-0.5-0.1-0.5-0.2c0,0-0.1,0-0.1-0.1c-0.4-0.1-0.4-0.1-0.5-0.2c0-0.1-0.1-0.2-0.1-0.2
	C23.6,32,23.4,32,23,32c-0.2,0-0.3,0-0.5,0c-0.2,0-0.4,0-0.5-0.1c0-0.1-0.1-0.1-0.1-0.2c0.2,0,0.2,0,0.6-0.2
	c0.2-0.1,0.2-0.1-0.2-0.2c-0.1,0-0.3-0.1-0.4-0.1c-0.1,0-0.1,0-0.2,0c-0.4,0-0.8,0-1.2,0.1c-0.6,0-0.6,0-1.3-0.1c-0.1,0-0.1,0-0.1,0
	c0-0.1,0.2-0.1,0.3-0.1c0.2,0,0.5,0,0.7,0c0.2,0,0.3,0,0.5,0c0.1-0.1,0.3-0.1,0.4-0.2c0.2-0.1,0.2-0.1-0.1-0.2
	c-0.2,0-0.4-0.1-0.6-0.1c-0.2,0-0.5,0-0.7,0c-0.3,0-0.4,0-0.5-0.1c-0.1-0.1,0-0.2,0.2-0.2c0.2,0,0.4,0,0.6-0.1
	c0.1-0.1,0.3-0.1,0.6-0.1c0.2,0,0.3,0,0.5,0c0.2,0,0.3-0.1,0.3-0.2c0-0.1-0.1-0.1-0.3-0.1c-0.8,0-0.8,0-1.2-0.1c0,0-0.1,0-0.1-0.1
	c0,0,0.1-0.1,0.1-0.1c0.5,0,1.1-0.1,1.6-0.1c0.2,0,0.3,0,0.4-0.1c0.1-0.1,0-0.2-0.1-0.2c-0.1,0-0.1,0-0.2,0c-0.6,0-1.2,0.1-1.9,0.1
	c-0.1,0-0.2,0-0.2,0c0,0,0-0.1,0.2-0.1c0.2,0,0.4,0,0.6-0.1c0.2-0.1,0.4-0.2,0.7-0.3c0,0,0.1-0.1,0.1-0.1c-0.1,0-0.3-0.1-0.4-0.1
	c-0.2-0.1-0.2-0.1-0.2-0.2c0-0.1,0.2-0.1,0.3-0.1c0.1,0,0.2,0,0.2,0c0.2,0,0.2-0.1,0.1-0.1c0,0-0.1,0-0.2,0c-1,0.1-2,0.1-3,0.2
	c-0.3,0-0.4,0-0.6-0.1c-0.1,0-0.3,0-0.4,0c-0.2,0-0.3,0-0.4,0c-0.1,0,0.1-0.1,0.4-0.1c0.1,0,0.2,0,0.2,0c0.5-0.2,0.5-0.2,0.9-0.2
	c0.4,0,0.4,0,0.6-0.1c0.1,0,0.2-0.1,0.3-0.1c0,0,0.1,0,0.1-0.1c-0.1,0-0.3-0.1-0.4,0c-0.4,0-0.8,0-1,0.2c-0.1,0.1-0.2,0.1-0.4,0.1
	c-1.7,0.1-3.4,0.2-5.1,0.3c-0.3,0-0.4,0.1-0.5,0.1c-0.1,0.1-0.2,0.1-0.4,0.1c-0.2,0-0.3,0-0.4,0c-0.1,0,0-0.1,0.1-0.1
	c0.2-0.1,0.2-0.1,0.1-0.2c-0.1,0-0.2-0.1-0.4-0.1c-0.2,0-0.5,0-0.7,0c-0.1,0-0.3-0.1-0.4-0.1c-0.3-0.1-0.5-0.1-0.8-0.1
	c-0.2,0-0.4-0.1-0.6-0.1c-0.3-0.1-0.4-0.1-0.1-0.2c0.2-0.1,0-0.2,0.2-0.3c0.1-0.1,0.3-0.2,0.5-0.3c0,0,0.1,0,0.1-0.1
	c-0.1,0-0.2-0.1-0.3-0.1c-0.2,0-0.3-0.1-0.3-0.2c0,0,0,0,0,0c0,0,0.1,0,0.2,0c0.1,0,0.2-0.1,0.2-0.1c0,0-0.1,0-0.2,0
	c-0.1,0-0.2,0-0.2,0.1c-0.5,0.1-1.1,0.1-1.6,0.1c-0.1,0-0.1,0-0.2,0c-0.2-0.1-0.2,0-0.9-0.1c-0.1,0-0.2,0-0.2,0
	c-0.1-0.1-0.1-0.2-0.2-0.3c0.1-0.1,0.2-0.1,0.4-0.2c0.2-0.1,0.6-0.2,0.8-0.4c0-0.1-0.1-0.1,0.1-0.2c0.6-0.1,0.6-0.1,0.7-0.2
	C7.5,25,8,24.8,8.4,24.5c0.1-0.1,0.1-0.1-0.1-0.1c-0.1,0-0.1,0-0.2,0c-0.2,0-0.5,0-0.7,0c-0.2,0-0.4-0.1-0.6-0.1
	c-0.2,0-0.4-0.1-0.6-0.1c-0.2,0-0.4,0.1-0.7,0c-0.2-0.1-0.4-0.1-0.6-0.1c0.1-0.1,0.4-0.2,0.6-0.3c0.2-0.1,0.2-0.1,0.7-0.2
	c0.2,0,0.3-0.2,0.1-0.3c-0.3-0.1-0.5-0.1-0.8-0.2c-0.2,0-0.4,0-0.7,0c-0.2-0.1-0.4-0.1-0.6-0.1c-0.5,0-0.9,0.1-1.4,0.1
	c-0.2,0-0.3,0-0.4,0c0,0,0.1-0.1,0.2-0.1c0.2,0,0.4,0,0.6-0.1c0.1-0.1,0.3-0.1,0.6-0.1c0.1,0,0.1,0,0.2,0c0.2-0.1,0.3-0.2,0.7-0.2
	c0.1,0,0.2-0.1,0.2-0.1c0,0-0.1,0-0.2,0c-0.4,0-0.8,0-1.2,0.1c-0.2,0-0.3,0-0.4,0c-0.1,0,0-0.1,0.1-0.1c0.1,0,0.2-0.1,0.2-0.1
	c0-0.1-0.2-0.2-0.6-0.1c-0.3,0-0.4,0-0.5-0.1c0,0-0.1-0.1,0-0.1c0.2-0.1,0.3-0.2,0.7-0.3c0.2,0,0.3,0,0.4-0.1c0.1,0,0.2-0.1,0.3-0.1
	c0.1,0,0.2-0.1,0.1-0.1c-0.1-0.1-0.2-0.1-0.4,0c-0.2,0-0.3,0-0.5,0c-0.3,0-0.5,0-0.5-0.1C2.2,21,2.1,20.9,2,20.7c0,0,0,0,0-0.1
	c0.1-0.1,0.3-0.1,0.4-0.2c0.2-0.1,0.4-0.1,0.6-0.1c0.3,0,0.3,0,0.7-0.2c0.2-0.1,0.4,0,0.6-0.1c0.1,0,0.1,0,0.1-0.1c0,0-0.1,0-0.2,0
	c-0.1,0-0.1,0-0.2,0c-0.9,0.1-1.7,0.1-2.6,0.2c-0.1,0-0.3,0-0.4-0.1c-0.1,0,0-0.1-0.1-0.1c0.1-0.1,0.3-0.1,0.4-0.2
	c0.1-0.1,0.2-0.1,0.4-0.1c0.2,0,0.5,0,0.7,0c0.5-0.2,0.9-0.5,1.5-0.7c0.2-0.1,0.1-0.2,0.2-0.3c0-0.1,0.4-0.1,0.6-0.1
	c0.2,0,0.2-0.1,0.2-0.1c0,0-0.1,0-0.2,0c-0.2,0-0.3,0-0.5,0c-0.2,0-0.3,0-0.5,0c-0.1,0-0.2,0.1-0.3,0.1c-0.1,0-0.2,0.1-0.4,0.1
	c-0.2,0-0.5,0-0.7,0c-0.3-0.1-0.5-0.1-0.8-0.2c0,0-0.1,0-0.1-0.1c0-0.1-0.1-0.1-0.2-0.1c-0.1,0-0.2-0.1-0.4-0.1
	c0.1,0,0.2-0.1,0.3-0.1c0.2-0.1,0.4-0.2,0.7-0.2c0.1-0.1,0.2-0.1,0.4-0.2c0.2,0,0.5,0,0.6-0.1c0.1,0,0.2-0.1,0.3-0.1
	c0.2,0,0.5,0,0.6-0.1c0.1,0,0.2-0.1,0.3-0.1c0.2,0,0.3,0,0.4,0c0.1,0,0.1,0,0.1-0.1c0,0-0.1,0-0.2,0c-0.1,0-0.1,0-0.2,0
	c-0.2,0-0.5,0-0.7,0c-0.1,0-0.1,0-0.2,0c-0.2,0-0.2-0.1,0-0.1c0.2-0.1,0.3-0.1,0.4-0.2c0.2,0,0.3,0,0.4,0c0.2,0,0.3-0.1,0.4-0.2
	c0.2,0,0.3,0,0.5,0c0.1,0,0.1,0,0.1-0.1c0.1,0,0.2-0.1,0.3-0.1c0.2,0,0.5,0,0.6-0.1c0.1,0,0.2-0.1,0.3-0.1c0.4,0,0.5-0.1,0.7-0.2
	c0.1-0.1,0.4,0,0.6-0.1c0.1,0,0.2-0.1,0.3-0.1c0,0,0.1,0,0.2,0c0.4,0,0.8,0,1.2-0.1c0.1,0,0.1,0,0.2,0c0.1,0,0.2-0.1,0.3-0.1
	c0.1,0,0.3,0,0.4,0c0.5,0,0.5,0,0.7-0.2c0.2-0.1,0.6,0,0.8-0.2c0.1-0.1,0.2-0.1,0.5-0.1c0.4,0,0.8,0,1.2-0.1c0.3,0,0.3,0,0.7-0.2
	c0.2-0.1,0.4-0.1,0.6-0.1c0.2,0,0.5,0,0.6-0.1c0.1-0.1,0.3-0.1,0.6-0.1c0.2,0,0.5,0,0.6-0.1c0.4-0.2,0.4-0.2,0.7-0.2
	c0.5,0,0.9-0.1,1.4-0.1c0.3,0,0.6,0,0.9-0.1c0.2,0,0.3-0.1,0.4-0.2c0.4,0,0.8-0.1,1.2-0.1c0.5,0,1.1-0.1,1.6-0.1
	c0.2-0.1,0.3-0.2,0.7-0.2c0.2,0,0.5,0,0.7,0c0.4,0,0.8-0.1,1.2-0.1c0.3,0,0.3-0.1,0.5-0.1c0.1,0,0.1,0,0.2-0.1
	c0.6,0,1.2-0.1,1.8-0.1c0.1,0,0.1,0,0.1-0.1c0,0-0.1,0-0.1,0c-0.1,0-0.1,0-0.2,0c-1.9,0.1-3.9,0.2-5.8,0.4c-0.3,0-0.3,0-0.9,0.2
	c-0.1,0-0.1,0-0.2,0c-0.3,0-0.6,0-0.9,0.1c-0.2,0-0.5,0-0.6,0c-0.1,0-0.3-0.1-0.4,0c-0.2,0-0.3,0-0.4,0.1c-0.1,0.1-0.2,0.1-0.5,0.2
	c-1.3,0.1-2.7,0.2-4,0.2c-0.2,0-0.3-0.1-0.2-0.1c0,0,0.1-0.1,0.1-0.1c0.5,0,1.1-0.1,1.6-0.1c0.1,0,0.2,0,0.2,0
	c0.2-0.1,0.3-0.2,0.7-0.2c0.2,0,0.5,0,0.7-0.1c0.1,0,0.1,0,0.1-0.1c0,0-0.1,0-0.1,0c-0.2,0-0.4,0-0.7,0c-0.1,0-0.2,0-0.2,0
	c0,0,0.1,0,0.1-0.1c0.1,0,0.1,0,0.2,0c0.6,0,1.2-0.1,1.9-0.1c0.3,0,0.4-0.1,0.5-0.1c0.1-0.1,0.2-0.1,0.3-0.1
	c1.1-0.1,2.2-0.1,3.3-0.2c0.3,0,0.4-0.1,0.5-0.1c0.1-0.1,0.2-0.1,0.4-0.1c1.6-0.1,3.1-0.2,4.7-0.3c0.3,0,0.4-0.1,0.5-0.1
	c0.1,0,0.1,0,0.1-0.1c0.1,0,0.2,0,0.2,0c1.2-0.1,2.5-0.2,3.7-0.2c0.3,0,0.3-0.1,0.5-0.1c0.1,0,0.1,0,0.2-0.1
	c0.9-0.1,1.9-0.1,2.8-0.2c0.6,0,1.2-0.1,1.9-0.1c0.3,0,0.3,0,0.7-0.2c0,0,0.1,0,0.2,0c1.8-0.1,3.6-0.2,5.4-0.3c0.2,0,0.3,0,0.3-0.1
	c0.1-0.1,0.2-0.1,0.3-0.1c1.4-0.1,2.8-0.2,4.2-0.3c0.3,0,0.4-0.1,0.5-0.1c0.1-0.1,0.2-0.1,0.3-0.1c1.4-0.1,2.8-0.2,4.2-0.3
	c0.3,0,0.4-0.1,0.5-0.1c0,0,0.1-0.1,0.1-0.1c0.7,0,1.4-0.1,2.1-0.1c0.3,0,0.4-0.1,0.5-0.1c0.1,0,0.2-0.1,0.4-0.1
	c0.4,0,0.8,0,1.2-0.1c0.1,0,0.1,0,0.1-0.1c0,0-0.1-0.1-0.3-0.1c-1.9,0.1-3.7,0.2-5.6,0.3c-0.3,0-0.3,0-0.7,0.2c0,0-0.1,0-0.2,0
	c-1.8,0.1-3.6,0.2-5.4,0.3c-0.2,0-0.3,0-0.3,0.1c-0.1,0.1-0.2,0.1-0.3,0.1c-1.7,0.1-3.4,0.2-5.1,0.3c-0.3,0-0.4,0.1-0.5,0.1
	c-0.1,0.1-0.2,0.1-0.3,0.1c-1.6,0.1-3.3,0.2-4.9,0.3c-0.2,0-0.3,0-0.3-0.1c0,0,0.1-0.1,0.1-0.1c0.9-0.1,1.7-0.1,2.6-0.2
	c0.3,0,0.4-0.1,0.5-0.1c0,0,0.1,0,0.1-0.1c0.1,0,0.2,0,0.2,0c2-0.1,4-0.3,6.1-0.4c0.3,0,0.3-0.1,0.5-0.1c0.1,0,0.1,0,0.2-0.1
	c0.6,0,1.2-0.1,1.9-0.1c1.1-0.1,2.2-0.1,3.3-0.2c0.3,0,0.3,0,0.7-0.2c0,0,0.1,0,0.2,0c2.9-0.2,5.8-0.4,8.6-0.5c0.2,0,0.3,0,0.3-0.1
	c0.1-0.1,0.2-0.1,0.3-0.1c3.9-0.2,7.8-0.5,11.7-0.7c0.3,0,0.4,0,0.5-0.1c0.1-0.1,0.2-0.1,0.3-0.1c4.3-0.3,8.6-0.5,12.9-0.8
	c2.9-0.2,5.8-0.4,8.6-0.5c0.3,0,0.4-0.1,0.5-0.1c0,0,0.1-0.1,0.1-0.1c0.6,0,1.2-0.1,1.9-0.1c0.2,0,0.4,0.1,0.6,0.1
	c0.1-0.1,0.3-0.1,0.4-0.2c0.9-0.1,1.9-0.1,2.8-0.2c0.1,0,0.1,0,0.2,0c0.4,0.1,0.7,0.1,1,0c0.1,0,0.2-0.1,0.3-0.1
	c0.5,0,0.9-0.1,1.4-0.1c0.2,0,0.5,0,0.6,0c0.1,0,0.3,0.1,0.4,0c0.9-0.1,1.7-0.1,2.6-0.2c0.1,0,0.1,0,0.2,0c0.1,0,0.2-0.1,0.3-0.1
	c0.1,0,0.3,0,0.4,0.1c0.1,0,0.3,0,0.4,0c3.4-0.2,6.9-0.4,10.3-0.6c0.3,0,0.4,0,0.6,0.1c0.1,0,0.1,0,0.2,0c0.1,0,0.2,0,0.2,0
	c2.6-0.2,5.1-0.3,7.7-0.5c0.3,0,0.3,0,0.9,0.1c0.1,0,0.1,0,0.2,0c1.2-0.1,2.3-0.1,3.5-0.2c0.2,0,0.3,0,0.4,0c0.3,0.1,0.3,0.1,0.5,0
	c0.1,0,0.2-0.1,0.3-0.1c0.2,0,0.3,0,0.4,0c0.2,0,0.3,0.1,0.6,0.1c1.2-0.1,2.5-0.2,3.7-0.2c0.3,0,0.4,0,0.6,0.1c0.1,0,0.1,0,0.2,0
	c0.1,0,0.2,0,0.2,0c1.6-0.1,3.1-0.2,4.7-0.3c0.3,0,0.4,0,0.6,0.1c0.1,0,0.1,0,0.2,0c0.9-0.1,1.9-0.1,2.8-0.2c0.3,0,0.3,0,0.9,0.1
	c0.1,0,0.1,0,0.2,0c1.1-0.1,2.2-0.1,3.3-0.2c0.3,0,0.3,0,1.3,0.1c0.1,0,0.1,0,0.2,0c1.2-0.1,2.5-0.2,3.7-0.2c0.2,0,0.5,0,0.6,0
	c0.1,0,0.3,0.1,0.4,0c1.4-0.1,2.8-0.2,4.2-0.3c0.3,0,0.4,0,0.6,0.1c0.1,0,0.1,0,0.2,0c0.1,0,0.2,0,0.2,0c1.4-0.1,2.8-0.2,4.2-0.3
	c0.3,0,0.4,0,0.6,0.1c0.1,0,0.1,0,0.2,0c0.5,0,1.1-0.1,1.6-0.1c0.3,0,0.4,0,0.6,0.1c0.1,0,0.1,0,0.2,0c1.2-0.1,2.3-0.1,3.5-0.2
	c0.2,0,0.3,0,0.4,0c0.2,0.1,0.4,0.1,0.6,0.1c0.5,0,1.1-0.1,1.6-0.1c0.3,0,0.3,0,1.3,0.1c0.1,0,0.1,0,0.2,0c0.9-0.1,1.9-0.1,2.8-0.2
	c0.2,0,0.5,0,0.6,0c0.1,0,0.3,0.1,0.4,0c0.9-0.1,1.7-0.1,2.6-0.2c0.3,0,0.6-0.1,0.9-0.1c0.2,0,0.4,0.1,0.6,0.1c0.1,0,0.2,0,0.2,0
	c1.1-0.1,2.2-0.1,3.3-0.2c0.3,0,0.4,0,0.6,0.1c0.1,0,0.1,0,0.2,0c0.4,0,0.8,0,1.2-0.1c0.5,0,0.9-0.1,1.4-0.1c0.4,0,0.5,0.1,0.8,0.1
	c0.2,0,0.5,0,0.7,0c0.5,0,0.9-0.1,1.4-0.1c0.2,0,0.3,0,0.3-0.1c0,0-0.1,0-0.1,0c-0.6-0.2-0.6-0.2-1.3-0.1c-0.4,0-0.8,0-1.2,0.1
	c-0.1,0-0.1,0-0.2,0c-0.2,0-0.2-0.1,0-0.1c0.2-0.1,0.3-0.1,0.4-0.2c0.2,0,0.4,0.1,0.6,0.1c0.2,0,0.3,0,0.5,0c0.8,0,1.6-0.1,2.3-0.1
	c0.1,0,0.1,0,0.2,0c0.2,0,0.4,0.1,0.6,0.1c0.7-0.1,1.4-0.1,2.1-0.1c0.3,0,0.3,0,0.9,0.1c0.1,0,0.1,0,0.2,0c0.7,0,1.4-0.1,2.1-0.1
	c0.2,0,0.3,0,0.4,0.1c0,0,0,0,0.2,0.3c0.6,0.2,1,0.2,1.3,0.2c0.2,0,0.3,0,0.4,0c0.1,0,0.1,0,0.1-0.1c0,0-0.1,0-0.2,0
	c-0.5,0-0.9,0-1.4,0.1c-0.2,0-0.4,0-0.4-0.1c0,0,0-0.1,0-0.1c0,0,0-0.1,0-0.1c-0.2,0-0.3,0-0.4,0.1c-0.1,0-0.2,0.1-0.3,0.1
	c-0.1,0-0.3,0-0.5,0c-0.2,0-0.3,0-0.5,0c-0.1,0-0.3-0.1-0.4-0.1c-0.1,0-0.1,0-0.2,0c-0.5,0-1.1,0.1-1.6,0.1c-0.3,0-0.4,0-0.6-0.1
	c-0.1,0-0.3,0-0.3,0.1c-0.1,0.2,0.2,0.2,0.7,0.2c0.4,0,0.8,0,1.1,0.1c0,0,0.1,0,0.2,0c0.4,0,0.8,0,1.2-0.1c0.1,0,0.1,0,0.2,0
	c1,0.1,1,0.1,1.3,0.1c0.2,0,0.3,0,0.3-0.3c0.3-0.3,0.8-0.3,1.2-0.3c0.3,0,0.4,0,0.6,0.1c0.1,0,0.1,0,0.2,0c1-0.1,2-0.1,3-0.2
	c0.2,0,0.3,0,0.4,0c0.2,0,0.4,0.1,0.6,0.1c0.5,0,1.1-0.1,1.6-0.1c0.3,0,0.3,0,0.8,0.1c0.1,0,0.1,0,0.2,0c0.5,0,1.1-0.1,1.6-0.1
	c0.2,0,0.3,0,0.4,0.1c0.1,0,0.3,0.1,0.4,0.1c0.5,0,1.1-0.1,1.6-0.1c0.1,0,0.1,0,0.2,0c0.6,0.1,0.6,0.1,0.8,0.1c0.4,0,0.8,0,1.2-0.1
	c0.4,0,0.6,0.1,0.8,0.1c0.7,0,1.4-0.1,2.1-0.1c0.3,0,0.4,0,0.6,0.1c0.1,0,0.1,0,0.2,0c0.2,0,0.5,0,0.7,0c0.2,0,0.5,0,0.7,0
	c0.3,0,0.4,0.1,0.8,0.1c0.2,0,0.5,0,0.7,0c0.2,0,0.5,0,0.7,0c0.2,0,0.3,0,0.5,0c0.3,0,0.4,0,0.6,0.1c0.1,0,0.1,0,0.2,0
	c0.5,0,0.9,0,1.4-0.1c0.4,0,0.6,0,0.9,0.1c0.1,0,0.1,0,0.2,0c0.5,0,1.1-0.1,1.6-0.1c0.1,0,0.3,0,0.4,0.1c0.1,0,0.3,0.1,0.4,0.1
	c0.5,0,1.1-0.1,1.6-0.1c0.1,0,0.1,0,0.2,0c0.5,0.1,0.5,0.1,0.8,0.1c0.1,0,0.2,0,0.2,0c0.4,0,0.8,0,1.2-0.1c0.4,0,0.8,0,1.1,0.1
	c0.4,0,0.8,0,1.2-0.1c0.3,0,0.4,0,0.6,0.1c0.1,0,0.1,0,0.2,0c0.5,0,1.1-0.1,1.6-0.1c0.3,0,0.4,0,0.6,0.1c0.1,0,0.1,0,0.2,0
	c0.3,0,0.6,0,0.9-0.1c0.4,0,0.4,0,0.9,0.1c0.2,0,0.5,0,0.7,0c0.2,0,0.5,0,0.7,0c0.1,0,0.3,0.1,0.4,0.1c0.3,0,0.6,0,0.9-0.1
	c0.2,0,0.5,0,0.6,0c0.1,0,0.3,0.1,0.4,0c0.7,0,1.4-0.1,2.1-0.1c0.1,0,0.1,0,0.2,0c0.1,0,0.3,0.1,0.4,0.1c0.3,0,0.6,0,0.9,0
	c0.3,0,0.6,0,0.9,0c0.1,0,0.1,0,0.2,0c0.2,0,0.5,0,0.7,0c0.2,0,0.5,0,0.7,0c0.3,0,0.4,0.1,0.8,0.1c0.2,0,0.5,0,0.7,0
	c0.2,0,0.5,0,0.7,0c0.1,0,0.2,0,0.2,0c0.1,0,0.1,0,0.2,0c0.2,0,0.4,0.1,0.6,0.1c0.2,0,0.5,0,0.7,0c0.3,0,0.3,0,0.8,0.1
	c0.2,0,0.5,0,0.7,0c0.1,0,0.3,0.1,0.4,0.1c0.1,0,0.1,0,0.2,0c0.3,0,0.6,0,0.9-0.1c0.2,0,0.5,0,0.6,0c0.1,0,0.3,0.1,0.4,0
	c0.8,0,1.6-0.1,2.3-0.1c0.3,0,0.5,0,0.6,0.1c0.3,0.1,0.6,0,0.9,0.1c0.2,0,0.3,0.1,0.6,0.1c0.5,0,1.1-0.1,1.6-0.1
	c0.2,0,0.4,0.1,0.6,0.1c0.3,0,0.6,0,0.9-0.1c0.2,0,0.5,0,0.7,0c0.1,0,0.2,0,0.2,0c0.1,0,0.1,0,0.2,0c0.3,0.1,0.3,0.1,0.9,0
	c0.2,0,0.5,0,0.7,0c0.2,0.1,0.4,0.1,0.6,0c0.5,0,0.9-0.1,1.4-0.1c0.1,0,0.3,0,0.4,0.1c0.2,0.1,0.4,0.1,0.6,0c0.3,0,0.6,0,0.9,0
	c0.1,0,0.1,0,0.2,0c0.4,0,0.8,0,1.2-0.1c0.4,0,0.6,0.1,0.8,0.1c0.4,0,0.8,0,1.2-0.1c0.1,0,0.2,0,0.2,0c0.3,0,0.4,0.1,0.8,0.1
	c0.2,0,0.5,0,0.7,0c0.1,0,0.1,0,0.2,0c0,0,0,0,0,0.1c-0.1,0-0.2,0.1-0.3,0.1c0,0,0.1,0,0.1,0c0.1,0,0.3,0,0.4,0c0.1,0,0.3,0,0.4,0.1
	c0,0,0,0-0.1,0.2c0,0.1,0.1,0,0.1,0c0-0.1-0.1-0.1-0.2-0.1c-0.1,0-0.2,0.1-0.2,0.1c0,0,0.1,0,0.3,0c0.4-0.1,0.7-0.1,1-0.1
	c0.1,0,0.2,0,0.2,0c0.2,0,0.4,0.1,0.6,0.1c0.2,0,0.4,0,0.7,0c0.3,0.1,0.3,0.1,0.6,0.1c0.2,0,0.3,0,0.5,0c0.2,0,0.3,0,0.4,0
	c0.3,0.1,0.3,0.1,0.5,0c0.1-0.1,0.2-0.1,0.3-0.1c0.5,0.1,0.5,0.1,0.9,0.1c0.3,0,0.6,0,0.9,0.1c0.2,0.1,0.2,0,0.3,0
	c0.3-0.2,0.5-0.2,1.1-0.1c0.3,0.1,0.6,0,0.9,0c0.3,0,0.4,0,0.5,0.1c0,0.1,0.1,0.1,0.2,0.1c0.1,0,0.1,0,0.2,0c0.4,0,0.8,0,1.2-0.1
	c0.2,0,0.3-0.1,0.3-0.2c0-0.1,0-0.1,0.3-0.2c0.2,0,0.3,0,0.4,0c0.2,0,0.1,0.1,0,0.1c-0.3,0.1-0.3,0.2,0.1,0.3c0.1,0,0.3,0.1,0.3,0.1
	c0,0,0,0.1,0,0.1c0.2,0.1,0.6,0.2,0.9,0.2c0.3,0,0.6,0,0.9,0.1c0.2,0,0.5,0,0.7,0c0.2,0,0.5,0,0.6,0c0.1,0,0.3,0.1,0.4,0
	c0.3,0,0.6,0,0.9-0.1c0.3,0,0.5,0,0.6,0.1c0.2,0.1,0.4,0,0.7,0c0.3,0,0.5,0.1,0.8,0.1c0.2,0,0.5,0,0.7,0c0.1,0,0.1,0,0.2,0
	c0.3,0.1,0.5,0.1,0.9,0c0.2,0,0.4,0,0.7,0c0.4,0.1,0.8,0.2,1.2,0.3c0.1,0.1,0,0.2,0.3,0.2c0.1,0,0.3,0.1,0.4,0.1
	c0.1,0,0.3,0.1,0.4,0c0.3,0,0.6,0,0.9-0.1c0.3,0,0.5,0,0.6,0.1c0.1,0,0.3,0.1,0.4,0c0.2,0,0.3,0,0.4,0c0.2,0.1,0.2,0,0.9,0.1
	c0.1,0,0.1,0,0.2,0c0,0,0,0-0.1,0.1c0,0-0.1,0-0.2,0c-0.7,0-1.4,0.1-2.1,0.1c-0.1,0-0.1,0-0.2,0c-0.1,0-0.1,0-0.1,0.1
	c0,0,0.1,0,0.2,0c0.2,0,0.5,0,0.7,0c0.1,0,0.3,0.1,0.4,0.1c0.1,0,0.1,0,0.2,0c0.2,0,0.5,0,0.7,0c0.1,0,0.1,0,0.2,0
	c0.5,0.1,0.5,0.1,0.9,0.1c0.2,0,0.3,0,0.5,0c0.1,0,0.3,0,0.4,0.1c0.3,0.1,0.5,0.1,0.5,0.2c0,0,0.2,0.1,0.3,0.1c0.2,0,0.3,0,0.5,0
	c0.4,0,0.4,0,0.9,0.1c0.1,0,0.3,0,0.4,0c0.1,0,0.1,0,0.2,0c0.2,0,0.2,0.1,0.1,0.1c-0.2,0.1-0.2,0.1,0.4,0.2c0.2,0,0.4,0.1,0.6,0.1
	c0.3,0.1,0.3,0.1,0.1,0.2c0,0-0.1,0-0.1,0.1c-0.1,0.1-0.2,0.1-0.5,0.1c-0.3,0-0.6,0-0.9,0.1c-0.3,0-0.4,0.1-0.3,0.2
	c0,0.1,0.1,0.1,0.6,0.1c0.2,0,0.3,0,0.4,0.1c-0.1,0-0.2,0.1-0.3,0.1c-0.4,0-0.8,0-1.2,0.1c-0.3,0-0.6,0-0.9,0.1
	c-0.2,0-0.3,0.1-0.3,0.2c0,0.1,0.1,0.1,0.1,0.2c0.1,0.1,0.2,0.1,0.5,0.1c0.1,0,0.2,0,0.2,0c0.3,0,0.5,0.1,0.8,0.1
	c0.3,0,0.6,0,0.9-0.1c0.3,0,0.4,0,0.6,0.1c0.1,0,0.1,0,0.2,0c0.4,0,0.8,0,1.2-0.1c0.2,0,0.3,0,0.4,0c0.3,0.1,0.4,0.1,0.9,0
	c0.4,0,0.4,0,0.9,0.1c0.1,0,0.3,0,0.4,0c0.2,0,0.5,0,0.7,0c0.1,0,0.2,0,0.2,0c0,0,0,0-0.1,0.1c-0.4,0.1-0.9,0.1-1.4,0.1
	c-0.1,0-0.3,0-0.4-0.1c-0.1,0-0.3-0.1-0.4,0c-0.3,0-0.6,0-0.9,0.1c-0.3,0-0.5,0-0.6-0.1c-0.1,0-0.1,0-0.2,0c-0.7,0-1.4,0.1-2.1,0.1
	c-0.3,0-0.4,0-0.6-0.1c-0.1,0-0.1,0-0.2,0c-0.2,0-0.5,0-0.7,0c-0.9,0.1-1.7,0.1-2.6,0.2c-0.1,0-0.1,0-0.2,0c-0.1,0-0.3-0.1-0.4-0.1
	c-0.2,0-0.5,0-0.7,0c-0.2,0-0.3,0-0.3,0.1c0,0,0.1,0.1,0.3,0.1c0.2,0,0.3,0,0.5,0c0.7,0.1,0.7,0.1,1.1,0.1c0.4,0,0.3,0,0.6,0
	c0.1,0,0.3,0.1,0.4,0c0.4,0,0.8,0,1.2-0.1c0.1,0,0.1,0,0.2,0c0.5,0.1,0.5,0.1,0.9,0.1c0.5,0,0.5,0,0.9,0.1c0.2,0.1,0.4,0,0.7,0
	c0.3,0.1,0.5,0.1,0.8,0.2c0.3,0.1,0.6,0.1,0.9,0c0.2,0,0.5,0,0.7,0c0.2,0.1,0.4,0.1,0.6,0c0.2,0,0.4,0,0.7,0c0.1,0,0.2,0,0.2,0
	c0,0-0.1,0.1-0.1,0.1c-0.4,0.1-0.9,0.1-1.4,0.1c-0.1,0-0.1,0-0.2,0c-0.1,0-0.3-0.1-0.4-0.1c-0.2,0-0.5,0-0.7,0c-0.2,0-0.3,0-0.4,0
	c-0.1,0-0.3-0.1-0.4-0.1c-0.1,0-0.3,0-0.5,0c-0.2,0-0.3,0-0.5,0c-0.1,0-0.2,0.1-0.3,0.1C314,9,313.9,9,313.7,9c-0.2,0-0.3,0-0.4,0
	c-0.1,0-0.1,0-0.2,0c-0.1,0-0.1,0-0.2,0c-0.7,0-1.4,0.1-2.1,0.1c-0.3,0-0.3,0-1.1-0.1c-0.1,0-0.1,0-0.2,0c-0.4,0-0.8,0-1.2,0.1
	c-0.4,0-0.4,0-1.1-0.1c-0.1,0-0.3,0-0.4,0c-0.3,0-0.5-0.1-0.8-0.1c-0.3,0-0.6,0-0.9,0.1c-0.3,0-0.4,0-0.6-0.1c-0.1,0-0.1,0-0.2,0
	c-0.7,0-1.4,0.1-2.3,0.1c-0.2,0-0.1,0,0,0c0.2,0,0.3,0,0.2-0.1c-0.1,0-0.2-0.1-0.3-0.1c-0.1,0-0.1,0,0.1,0.1
	c0.2,0.1,0.2,0.1,0.3,0.1c0.1,0,0.3,0.1,0.4,0.1c0.2,0,0.5,0,0.7,0c0.1,0,0.1,0,0.2,0c0.5,0.1,0.5,0.1,1.1,0.1c0.2,0,0.3,0,0.4,0
	c0.2,0,0.3,0.1,0.6,0.1c0.4,0,0.8-0.1,1.2-0.1c0.1,0,0.1,0,0.2,0c0.2,0,0.3,0.1,0.6,0.1c0.2,0,0.5,0,0.7,0c0.1,0,0.2,0,0.2,0
	c0.1,0,0,0.1-0.2,0.1c-0.1,0-0.2,0-0.2,0c-0.3,0-0.6,0-0.9,0.1c-0.2,0-0.3,0-0.3,0.1c0,0,0.2,0.1,0.3,0.1c0.2,0,0.5,0,0.7,0
	c0.4,0,0.8,0,1.1,0.1c0.2,0.1,0.2,0,0.5,0.2c0.1,0.1,0.2,0.1,0.4,0c0.4,0,0.6,0,0.5,0.1c0,0.1-0.2,0.1-0.3,0.1c-0.3,0-0.6,0-0.9,0.1
	c-0.1,0-0.2,0-0.2,0c-0.1,0-0.1,0-0.2,0c-0.1,0-0.3-0.1-0.4-0.1c-0.1,0-0.3,0-0.5,0c-0.2,0-0.3,0-0.5,0c-0.1,0-0.3-0.1-0.4-0.1
	c-0.1,0-0.1,0-0.2,0c-0.3,0-0.6,0-0.9,0.1c-0.4,0-0.4,0-0.9-0.1c-0.1,0-0.3,0-0.4,0c-0.4,0-0.4,0-1.1-0.1c-0.1,0-0.1,0-0.2,0
	c-0.7,0-1.4,0.1-2.1,0.1c-0.6,0-0.6,0-0.9,0.2c-0.2,0.1-0.2,0.1,0,0.2c0.2,0,0.4,0.1,0.6,0.1c0.2,0,0.4-0.1,0.7,0
	c0.1,0,0.3,0.1,0.4,0.1c0.2,0,0.4,0,0.7,0c0.1,0,0.3,0.1,0.4,0.1c0.2,0,0.5,0,0.7,0c0.1,0,0.2,0,0.2,0c0.1,0,0.1,0,0.2,0
	c0.2,0.1,0.4,0.1,0.6,0c0.4,0,0.8,0,1.1,0.1c0,0,0.1,0,0.2,0c0.2,0,0.3,0,0.4,0c0.1,0,0.1,0,0.1,0c0,0-0.1,0.1-0.1,0.1
	C306,11,305.5,11,305,11c-0.1,0-0.1,0-0.2,0c-0.1,0-0.3-0.1-0.4-0.1c-0.1,0-0.3,0-0.5,0c-0.2,0-0.3,0-0.5,0c-0.1,0-0.3,0-0.4-0.1
	c-0.1,0-0.3,0-0.4,0c-0.2,0-0.5,0-0.7,0c-0.1,0-0.3-0.1-0.4-0.1c-0.1,0-0.1,0-0.2,0c-0.3,0-0.6,0-0.9,0.1c-0.3,0-0.3,0-0.8-0.1
	c-0.1,0-0.1,0-0.2,0c-0.4,0-0.8,0-1.2,0.1c-0.2,0-0.3,0-0.4-0.1c-0.1,0-0.3-0.1-0.4-0.1c-0.6,0-1.2,0.1-1.9,0.1c-0.2,0-0.5,0-0.6,0
	c-0.2-0.1-0.4,0-0.7,0c-0.5,0-0.5,0-0.9,0c-0.1,0-0.1,0-0.2,0c-0.5,0-1.1,0.1-1.6,0.1c-0.3,0-0.4,0-0.6-0.1c-0.1,0-0.1,0-0.2,0
	c-0.4,0-0.8,0-1.2,0.1c-0.4,0-0.5-0.1-0.8-0.1c-0.4,0-0.8,0-1.2,0.1c-0.3,0-0.6,0-0.9,0.1c-0.3,0-0.6,0-0.9,0.1c-0.2,0-0.3,0-0.4,0
	c-0.2,0-0.4-0.1-0.6-0.1c-0.3-0.1-0.3-0.1-0.6,0c-0.1,0-0.2,0-0.2,0c-0.6,0-0.6,0-1.3-0.1c0,0-0.1,0-0.1,0c-0.1,0-0.2,0.1-0.3,0.1
	c-0.1,0-0.3,0-0.4-0.1c-0.2-0.1-0.6,0-0.9-0.1c-0.1,0-0.3-0.1-0.4-0.1c-0.1,0-0.3,0-0.5,0c-0.4,0-0.4,0-0.7,0.2
	c-0.2,0.1-0.4,0.1-0.6,0.1c-0.2,0-0.5,0-0.7,0c-0.2-0.1-0.4-0.1-0.6,0c-0.3,0-0.6,0-0.9,0.1c-0.1,0-0.1,0-0.2,0
	c-0.7-0.1-0.7-0.1-1.1-0.1c-0.2,0-0.3,0-0.5,0c-0.3,0-0.5,0-0.6-0.1c-0.1,0-0.1,0-0.2,0c-0.3,0-0.6,0-0.9,0c-0.2,0-0.5,0-0.7,0
	c-0.4,0-0.6-0.1-0.8-0.1c-0.4,0-0.8,0-1.2,0.1c-0.2,0-0.3,0-0.4,0c-0.2,0-0.3-0.1-0.6-0.1c-0.4,0-0.8,0-1.2,0.1
	c-0.3,0-0.5-0.1-0.8-0.1c-0.2,0-0.5,0-0.7,0c-0.3,0-0.6,0-0.9,0.1c-0.3,0-0.3,0-0.9-0.1c-0.3-0.1-0.6,0-0.9,0
	c-0.2,0-0.3,0.1-0.3,0.2c0.1,0.1-0.1,0.2-0.3,0.2c-0.5,0-1.1,0.1-1.6,0.1c-0.1,0-0.1,0-0.2,0c-0.6-0.1-0.6-0.1-0.8-0.1
	c-0.4,0-0.8,0-1.2,0.1c-0.3,0-0.5,0-0.6-0.1c-0.1,0-0.3,0-0.4,0c-1.9,0.1-3.7,0.2-5.6,0.4c-0.3,0-0.4,0-0.6-0.1c-0.1,0-0.1,0-0.2,0
	c-0.2,0-0.3,0-0.5,0c-0.7,0-1.4,0.1-2.1,0.1c-0.3,0-0.4,0.1-0.5,0.1c-0.1,0-0.2,0.1-0.4,0.1c-0.2,0-0.3,0-0.4,0
	c-0.2-0.1-0.4-0.1-0.6-0.1c-0.3,0-0.6,0-0.9,0.1c-0.2,0-0.3,0-0.3,0.1c0,0,0.1,0,0.2,0c0.2,0,0.4,0.1,0.6,0.1c0.2,0,0.5,0,0.7,0
	c0.1,0,0.2,0,0.2,0c0.1,0,0.2,0,0.2,0c0.2,0.1,0.5,0.1,0.9,0.1c0.3,0,0.5,0.1,0.8,0.1c0.2,0,0.5,0,0.7,0c0.1,0,0.1,0,0.2,0
	c0.2,0,0.3,0.1,0.6,0.1c0.3,0,0.6,0,0.9-0.1c0.2,0,0.3,0,0.4,0c0.2,0,0.4,0.1,0.6,0.1c0.2,0,0.5,0,0.7,0c0.3,0,0.3,0,0.8,0.1
	c0.1,0,0.1,0,0.2,0c0.4,0,0.8,0,1.2-0.1c0.2,0,0.3,0,0.4,0.1c0,0,0,0,0,0.1c-0.8,0-1.6,0.1-2.3,0.1c-0.3,0-0.4,0-0.6-0.1
	c-0.1,0-0.1,0-0.2,0c-0.5,0-1.1,0.1-1.6,0.1c-0.2,0-0.3,0-0.4,0c-0.3-0.1-0.7,0-1.1,0c-0.3,0-0.4,0.1-0.3,0.2
	c0.1,0.1,0.2,0.2,0.7,0.1c0.2,0,0.3,0,0.5,0c0.2,0,0.3,0,0.4,0.1c0.1,0,0.3,0.1,0.4,0.1c0.3,0,0.6,0,0.9-0.1c0.2,0,0.5,0,0.6,0
	c0.2,0.1,0.4,0,0.7,0c0.5,0,0.5,0,0.9,0c0.1,0,0.1,0,0.2,0c0.5,0,1.1-0.1,1.6-0.1c0.3,0,0.4,0,0.6,0.1c0.1,0,0.1,0,0.2,0
	c0.4,0,0.8,0,1.2-0.1c0.2,0,0.3,0,0.4,0c0.4,0.1,0.4,0.1,0.9,0.1c0.2,0,0.3,0,0.5,0c0.1,0,0.3,0.1,0.4,0.1c0.1,0,0.1,0,0.2,0
	c0.3,0,0.6,0,0.9-0.1c0.3,0,0.3,0,0.8,0.1c0.2,0,0.5,0,0.7,0c0.2,0,0.5,0,0.6,0c0.2,0.1,0.4,0.1,0.6,0c0.2,0,0.4,0,0.7,0
	c0.5,0.1,0.5,0.1,0.8,0.1c0.5,0,0.9-0.1,1.4-0.1c0.1,0,0.1,0,0.2,0c0.1,0,0.3,0.1,0.4,0.1c0.1,0,0.3,0,0.5,0c0.5,0,0.5,0,0.9,0.1
	c0.3,0.1,0.6,0,0.9,0.1c0.1,0.1,0.4,0.1,0.6,0.1c0.2,0,0.5,0,0.7,0c0.4,0,0.4,0,0.9,0.1c0.1,0,0.1,0,0.2,0c0.3,0,0.6,0,0.9-0.1
	c0.4,0,0.6,0,0.9,0.1c0.2,0,0.5,0,0.7,0c0.2,0,0.5,0,0.6,0c0.2,0.1,0.4,0.1,0.7,0c0.2,0,0.4,0,0.7,0c0.5,0.1,0.5,0.1,0.8,0.1
	c0.3,0,0.6,0,0.9-0.1c0.1,0,0.1,0,0.2,0c0.1,0,0.3,0.1,0.4,0.1c0.1,0,0.3,0,0.5,0c0.2,0,0.3,0,0.5,0c0.1,0,0.3,0,0.4,0.1
	c0.1,0,0.3,0,0.4,0c0.2,0,0.5,0,0.7,0c0.1,0,0.3,0.1,0.4,0.1c0.1,0,0.3,0,0.4,0c0.6,0,0.6,0,1.1,0.1c0.2,0,0.5,0,0.7,0
	c0.2,0,0.5,0,0.6,0c0.2,0.1,0.4,0.1,0.6,0c0.2,0,0.3,0,0.5,0c0.1,0,0.2,0,0.2,0c0.3,0.1,0.5,0.1,0.8,0.1c0.3,0,0.5,0.1,0.8,0.1
	c0.3,0,0.6,0,0.9-0.1c0.3,0,0.5,0,0.6,0.1c0.3,0.1,0.6,0,0.9,0.1c0.1,0.1,0.3,0.1,0.6,0.1c0.3,0,0.4,0,0.5,0.1
	c0.1,0.1,0.1,0.1,0,0.1c-0.1,0-0.2,0-0.4,0c-0.2-0.1-0.4-0.1-0.6,0c-0.2,0-0.4-0.1-0.6-0.1c-0.2,0-0.4,0-0.7,0
	c-0.5-0.1-0.5-0.1-0.8-0.1c-0.2,0-0.5,0-0.7,0c-0.3,0-0.4,0-0.6-0.1c-0.1,0-0.1,0-0.2,0c-0.5,0-1.1,0.1-1.6,0.1
	c-0.3,0-0.4,0-0.6-0.1c-0.1,0-0.1,0-0.2,0c-0.5,0-0.9,0.1-1.4,0.1c-0.1,0-0.2,0.1-0.3,0.1c-0.1,0-0.2,0.1-0.4,0.1
	c-0.3,0-0.6,0.1-0.9,0c-0.3-0.1-0.3-0.1-0.6-0.1c-0.4,0-0.8,0-1.1,0.1c-0.1,0-0.1,0-0.1,0.1c0,0,0.1,0,0.2,0c0.2,0,0.4,0,0.7,0
	c0.1,0,0.3,0.1,0.4,0.1c0.1,0,0.1,0,0.2,0c0.1,0,0.2,0,0.2,0c0.1,0,0.1,0,0.2,0c0.3,0.1,0.5,0.1,0.8,0.2c0.2,0.1,0.4,0,0.7,0
	c0.9,0.1,0.9,0.1,1.5,0.1c0.2,0,0.3,0,0.5,0c0.1,0,0.1,0,0.2,0c0.2,0,0.4,0.1,0.6,0.1c0.2,0,0.5,0,0.7,0c0.3,0,0.3,0,0.8,0.1
	c0.1,0,0.3,0,0.4,0c0.1,0,0.3,0,0.4,0.1c0,0,0,0,0,0.1c-0.5,0-0.9,0-1.4,0.1c-0.3,0-0.4,0-0.6-0.1c-0.1,0-0.1,0-0.2,0
	c-0.5,0-0.9,0.1-1.4,0.1c-0.1,0-0.1,0-0.1,0.1c0,0,0.1,0.1,0.3,0.1c0.2,0,0.4,0,0.7,0c0.2,0.1,0.4,0.1,0.6,0c0.1,0,0.3,0,0.5,0
	c0.4,0,0.8,0,1.1,0.1c0.2,0,0.5,0,0.7,0c0.2,0,0.3,0,0.4,0c0.3,0.1,0.5,0.1,0.8,0.1c0.4,0,0.7,0.1,1,0.2c0.1,0,0.3,0.1,0.4,0
	c0.1,0,0.2,0,0.2,0c0.2,0,0.3,0,0.5,0c0.1,0,0.3,0.1,0.4,0.1c0.1,0,0.1,0,0.2,0c0.2,0,0.5,0,0.7,0c0.2,0,0.5,0,0.7,0
	c0.2,0,0.4,0.1,0.6,0.1c0.3,0,0.6,0,0.9-0.1c0.3,0,0.3,0,0.8,0.1c0.2,0,0.5,0,0.7,0c0.4,0,0.6,0,0.8,0.1c0.1,0,0.1,0,0.2,0
	c0.2,0,0.5,0,0.6,0c0.1,0,0.3,0.1,0.4,0c0.5,0,1.1-0.1,1.6-0.1c0.1,0,0.1,0,0.2,0c0.5,0.1,0.5,0.1,0.8,0.1c0.3,0,0.6,0,0.9,0
	c0.1,0,0.1,0,0.2,0c0.4,0,0.8,0,1.2-0.1c0.2,0,0.3,0,0.4,0c0.2,0,0.3,0.1,0.6,0.1c0.8-0.1,0.8-0.1,1.8,0c0.1,0,0.2,0,0.2,0
	c0.2,0,0.3,0,0.4,0c0.3,0.1,0.3,0.1,0.6,0.1c0.2,0,0.5,0,0.7,0c0.3,0,0.6,0,0.8,0.1c0.2,0,0.4,0,0.7,0c0.2,0,0.5,0,0.6,0
	c0.1,0,0.3,0.1,0.4,0.1c0.5,0,1.1-0.1,1.6-0.1c0.1,0,0.1,0,0.2,0c0.5,0.1,0.5,0.1,1.1,0.1c0.2,0,0.3,0,0.4,0c0.1,0,0.3,0.1,0.4,0.1
	c0.2,0,0.5,0,0.7,0c0.2,0,0.3,0,0.4,0c0.2,0,0.3,0.1,0.6,0.1c0.1,0,0.3,0,0.5,0c0.2,0,0.3,0,0.4,0c0.2,0,0.4,0.1,0.6,0.1
	c0.3,0,0.6,0,0.9-0.1c0.2,0,0.3,0,0.4,0c0.2,0,0.4,0.1,0.6,0.1c0.5,0,0.5,0,1.1,0.1c0.1,0,0.3,0,0.4,0c0.1,0,0.3,0,0.4,0.1
	C322.5,16.5,322.5,16.5,322.5,16.5z M279.4,3c-0.2,0-0.3,0-0.5-0.1c0,0,0-0.1,0-0.1c-0.1,0-0.2-0.1-0.3-0.1c-0.3,0-0.6,0.1-0.6,0.1
	c0,0,0.1,0.1,0.2,0.1c0.1,0,0.1,0,0.2,0c0.2,0,0.3,0.1,0.6,0.1c-0.1-0.1,0,0,0,0c0,0.1,0.1,0.1,0.2,0.1c0,0,0.1,0,0.2,0
	C279.5,3.1,279.5,3.1,279.4,3C279.3,3,279.4,3,279.4,3c0,0,0.2,0,0.2,0c0.1,0,0.2-0.1,0.2-0.1c0,0-0.1,0-0.2,0
	C279.5,2.9,279.4,2.9,279.4,3z M318.9,20.5c-0.3,0-0.7,0-1.1,0.1c-0.1,0-0.1,0-0.1,0.1c0,0,0.1,0,0.1,0c0.1,0,0.3,0,0.4,0
	c0.2,0,0.4,0.1,0.6,0.1c0.1,0,0.1,0,0.2,0c0.4,0,0.8,0,1.1-0.1c0.1,0,0.1,0,0.2,0c0.2,0,0.2-0.1,0-0.1c-0.2,0-0.4-0.1-0.6-0.1
	C319.5,20.5,319.2,20.5,318.9,20.5z M292.1,21.9c-0.2,0-0.5,0-0.7,0c-0.1,0-0.2,0-0.2,0c-0.1,0-0.3,0-0.3,0.1c0.1,0,0.2,0.1,0.4,0.1
	c0.2,0,0.5,0,0.7,0c0.3,0,0.4,0.1,0.6,0.1c0.1,0,0.1,0,0.2,0c0.4,0,0.6-0.1,0.5-0.2c-0.1-0.1-0.2-0.1-0.5-0.1
	C292.5,21.9,292.3,21.9,292.1,21.9z M320.3,18.2c0.1,0,0.1,0,0.1-0.1c0.1-0.1,0-0.1-0.1-0.2c-0.2-0.1-0.4,0-0.6,0
	c-0.1,0-0.1,0-0.1,0.1c0,0,0,0,0,0.1C319.8,18.1,320.1,18.2,320.3,18.2z M279,14.1c-0.2,0-0.5,0-0.7,0c-0.1,0-0.1,0-0.1,0.1
	c-0.1,0,0,0.1,0.2,0.1c0.2,0,0.5,0,0.7,0c0.3,0,0.5-0.1,0.4-0.1C279.3,14,279.1,14,279,14.1z M29.6,12.9c0.2,0,0.3,0,0.5,0
	c0.1,0,0.2,0,0.3-0.1c-0.1,0-0.3-0.1-0.4-0.1c-0.2,0-0.5,0-0.7,0c-0.1,0-0.3,0-0.3,0.1C29,12.9,29.3,12.9,29.6,12.9z M258.7,10.7
	c0.1,0,0.1,0,0.2,0c0.2,0,0.3,0,0.4,0c0.1,0,0.1,0,0.1-0.1c0,0,0,0,0-0.1C259.3,10.5,258.8,10.6,258.7,10.7
	C258.7,10.7,258.7,10.7,258.7,10.7z M243.2,2.4C243.2,2.5,243.2,2.5,243.2,2.4c0.1,0.1,0.2,0.2,0.3,0.2c0.1,0,0.2-0.1,0.2-0.1
	c0,0,0,0,0-0.1c0,0-0.1-0.1-0.3-0.1C243.3,2.3,243.2,2.4,243.2,2.4z M331.5,21.8c0,0-0.1,0-0.1,0.1c0.1,0,0.2,0.1,0.3,0
	c0.1,0,0.1,0,0.1-0.1C331.7,21.8,331.6,21.8,331.5,21.8z M328.6,22c0.1,0,0.1,0,0.2,0c0.1,0,0.2,0,0.3-0.1c-0.1,0-0.1,0-0.2,0
	C328.8,22,328.7,22,328.6,22z M330.4,21.7c0,0,0,0.1,0.2,0.1c0,0,0.1,0,0.1-0.1c0,0,0-0.1-0.2-0.1C330.5,21.7,330.5,21.7,330.4,21.7
	z M320.3,20.2c0,0,0,0.1,0.2,0.1c0,0,0.1,0,0.1-0.1c0,0,0-0.1-0.2-0.1C320.4,20.1,320.4,20.2,320.3,20.2z M306,9.4
	c0,0-0.1,0-0.1,0.1c0.1,0,0.2,0.1,0.3,0c0.1,0,0.1,0,0.1-0.1C306.2,9.4,306.1,9.4,306,9.4z M292.6,3.8c0.1,0,0.2,0,0.3-0.1
	c-0.1,0-0.1,0-0.2,0c-0.1,0-0.2,0-0.3,0.1C292.4,3.7,292.5,3.8,292.6,3.8z M285.6,3.5c0,0-0.1,0-0.1,0.1c0.1,0,0.2,0.1,0.3,0
	c0.1,0,0.1,0,0.1-0.1C285.8,3.5,285.7,3.4,285.6,3.5z M238.6,2.5c0,0-0.1,0-0.1,0.1c0.1,0,0.2,0.1,0.3,0c0.1,0,0.1,0,0.1-0.1
	C238.8,2.5,238.7,2.4,238.6,2.5z M5.6,17c-0.1,0-0.1,0-0.2,0C5.3,17,5.2,17,5.3,17c0,0,0.1,0,0.2,0C5.6,17,5.7,17,5.6,17z"/>
<path class="st1" d="M32.4,9.7c-0.5,0-1.1,0.1-1.6,0.1c-0.3,0-0.4,0.1-0.5,0.1c-0.1,0-0.2,0.1-0.4,0.1c-1.5,0.1-2.9,0.2-4.4,0.3
	c-0.2,0-0.3,0-0.2-0.1c0,0,0.1-0.1,0.1-0.1c1-0.1,2-0.1,3-0.2c0.3,0,0.4-0.1,0.5-0.1c0,0,0.1,0,0.1-0.1c0.1,0,0.2,0,0.2,0
	c1.6-0.1,3.2-0.2,4.9-0.3c0.2,0,0.3,0,0.2,0.1c0,0-0.1,0.1-0.1,0.1C33.6,9.7,33,9.7,32.4,9.7z"/>
<path class="st1" d="M331.9,18.2c-0.2,0-0.6,0-0.8,0c-0.1,0-0.3-0.1-0.4,0c-0.2,0-0.5,0-0.7,0c-0.1,0-0.1,0-0.2,0
	c-0.1,0-0.3-0.1-0.4-0.1c-0.1,0-0.3,0-0.5,0c-0.2,0-0.3,0-0.2-0.1c0,0,0.1-0.1,0.1-0.1c0.9-0.1,0.9-0.1,1.1,0c0.2,0,0.4,0.1,0.6,0.1
	c0.2,0,0.5,0,0.7,0c0.3,0,0.3,0,0.8,0.1c0.1,0,0.3,0,0.4,0c0.1,0,0.3,0,0.4,0.1c-0.1,0.1-0.2,0.1-0.3,0.1
	C332.4,18.1,332.2,18.2,331.9,18.2z"/>
<path class="st1" d="M323.1,17.7c0.6,0,1.2-0.1,1.8-0.1c0.2,0,0.4,0,0.6,0c0.2,0.1,0.4,0,0.6,0c0.1,0,0.3,0,0.4,0.1c0,0,0,0,0,0.1
	c-0.5,0-1,0.1-1.6,0.1c-0.1,0-0.1,0-0.2,0c-0.1,0-0.2-0.1-0.4-0.1c-0.3,0-0.6,0-0.9,0C323.4,17.8,323.3,17.8,323.1,17.7
	C323.1,17.8,323.1,17.7,323.1,17.7z"/>
<path class="st1" d="M106.4,3.7c0.6,0,1.2-0.1,1.9-0.1c0.2,0,0.3,0,0.2,0.1c0,0-0.1,0.1-0.1,0.1c-1.2,0.1-2.5,0.2-3.7,0.2
	c-0.2,0-0.3,0-0.2-0.1c0,0,0.1-0.1,0.1-0.1C105.2,3.8,105.8,3.7,106.4,3.7z"/>
<path class="st1" d="M10.6,13.1c-0.3,0-0.6,0.1-0.9,0c-0.1,0-0.1,0-0.1,0c0,0,0.1-0.1,0.1-0.1c0.3,0,0.6-0.1,0.7-0.2
	c0.1-0.1,0.2-0.1,0.3-0.1c0.2,0,0.3,0,0.4,0c0.2,0,0.3,0.1,0.6,0.1c0,0,0.1,0.1,0,0.1c0,0-0.1,0-0.1,0.1c-0.1,0-0.1,0-0.2,0
	C11.3,13,11,13,10.6,13.1z"/>
<path class="st1" d="M257.9,12.4c0.2,0,0.5,0,0.7,0c0.2,0,0.3,0,0.4,0c0.2,0.1,0.3,0.1,0.9,0.1c0.1,0,0.1,0,0.2,0c0,0,0,0,0,0.1
	c0,0-0.1,0-0.2,0c-0.4,0-0.7,0.1-1.1,0c-0.2-0.1-0.4-0.1-0.6,0c-0.1,0-0.3,0-0.5,0c-0.2,0-0.3,0-0.4-0.1c-0.1-0.1-0.1-0.1,0.2-0.1
	C257.5,12.4,257.7,12.4,257.9,12.4z"/>
<path class="st1" d="M344.2,23.7c0.3,0,0.6,0,0.9-0.1c0.1,0,0.1,0,0.2,0c0.2,0,0.2,0.1,0.2,0.2c0,0.1-0.5,0.1-0.7,0.1
	c-0.2-0.1-0.5-0.1-0.8-0.1c-0.1,0-0.3,0-0.4-0.1c-0.1-0.1-0.1-0.1,0.2-0.1C343.9,23.8,344,23.8,344.2,23.7z"/>
<path class="st1" d="M192.9,1.3c0.3,0,0.6,0,0.9-0.1c0.2,0,0.3,0,0.2,0.1c0,0-0.1,0.1-0.1,0.1c-0.6,0-1.2,0.1-1.8,0.1
	c-0.2,0-0.3-0.1-0.2-0.1c0,0,0.1-0.1,0.1-0.1C192.3,1.3,192.6,1.3,192.9,1.3z"/>
<path class="st1" d="M338.2,18.3c0.3,0,0.6,0,0.9-0.1c0.2,0,0.3,0,0.3,0.1c0,0-0.1,0.1-0.1,0.1c-0.4,0.1-0.9,0.1-1.3,0.1
	c-0.1,0-0.3,0-0.4-0.1c-0.1-0.1-0.1-0.1,0.2-0.1C337.9,18.4,338,18.3,338.2,18.3z"/>
<path class="st1" d="M265.7,12.6c0.1,0,0.3,0,0.4,0c0.2,0,0.3,0.1,0.3,0.1c0.1,0.1,0.1,0.1,0,0.1c-0.1,0.1-0.1,0.1-0.3,0
	c-0.3-0.1-0.3-0.1-0.8-0.1c-0.1,0-0.1,0-0.2,0c-0.1,0,0-0.1,0.1-0.1C265.4,12.6,265.6,12.6,265.7,12.6z"/>
<path class="st1" d="M327,17.8c0.2,0,0.4,0,0.7,0c0.2,0,0.3,0,0.3,0.1c0,0-0.1,0.1-0.1,0.1c-0.3,0-0.6,0.1-0.9,0.1
	c-0.1,0-0.3,0-0.4-0.1c-0.1-0.1-0.1-0.1,0.2-0.1C326.9,17.8,327,17.8,327,17.8z"/>
<path class="st1" d="M291.8,15.8c-0.3,0-0.6,0-0.6,0c0-0.1,0.2-0.1,0.3-0.1c0.2,0,0.5,0,0.7,0c0.1,0,0.3,0,0.4,0.1
	c-0.1,0.1-0.2,0.1-0.3,0.1C292.2,15.8,292,15.8,291.8,15.8z"/>
<path class="st1" d="M289.7,15.6c0.2,0,0.4,0,0.7,0c0.2,0,0.3,0,0.3,0.1c0,0-0.1,0.1-0.1,0.1c-0.3,0-0.6,0.1-0.9,0.1
	c-0.1,0-0.3,0-0.4-0.1c-0.1-0.1-0.1-0.1,0.2-0.1C289.5,15.6,289.6,15.6,289.7,15.6z"/>
<path class="st1" d="M263,12.6c0.2,0,0.4,0,0.7,0c0.2,0,0.3,0,0.3,0.1c0,0-0.1,0-0.1,0.1c-0.3,0-0.6,0.1-0.9,0.1
	c-0.1,0-0.3,0-0.4-0.1c-0.1-0.1-0.1-0.1,0.2-0.1C262.9,12.6,262.9,12.6,263,12.6z"/>
<path class="st1" d="M261.8,12.5c0.2,0,0.3,0,0.4,0c0.1,0,0.3,0,0.4,0.1c0.1,0.1,0.1,0.1-0.2,0.1c-0.3,0-0.6,0-0.9,0.1
	c-0.2,0-0.3,0-0.3-0.1c0,0,0.1-0.1,0.1-0.1C261.5,12.5,261.7,12.5,261.8,12.5z"/>
<path class="st1" d="M287.5,2.7c-0.2,0-0.3,0-0.5,0c-0.2,0-0.3-0.1-0.2-0.1c0,0,0.1-0.1,0.1-0.1c0.3,0,0.6,0,0.9-0.1
	c0.2,0,0.3,0.1,0.2,0.1c0,0-0.1,0.1-0.1,0.1C287.8,2.6,287.7,2.7,287.5,2.7z"/>
<path class="st1" d="M103,3.9c0.1,0,0.3,0,0.4,0.1C103.4,4,103.3,4,103.1,4c-0.1,0-0.1,0-0.2,0c-0.1,0-0.3,0-0.4-0.1
	c0.1-0.1,0.2-0.1,0.3-0.1C102.9,3.9,102.9,3.9,103,3.9z"/>
<path class="st1" d="M336.6,18.3c0,0,0.3-0.1,0.5-0.1c0.1,0,0.3,0,0.4,0.1c0.1,0.1,0.1,0.1-0.2,0.1c-0.1,0-0.3,0-0.4,0
	C336.7,18.4,336.6,18.4,336.6,18.3z"/>
<path class="st1" d="M267.1,12.8C267.1,12.8,267.1,12.8,267.1,12.8c0.1-0.1,0.6-0.2,0.8-0.1c0,0,0,0,0,0.1c0,0-0.1,0.1-0.1,0.1
	c-0.1,0-0.3,0-0.4,0C267.2,12.8,267.2,12.8,267.1,12.8z"/>
<path class="st1" d="M12.3,12.8c-0.6,0-0.6,0-0.5,0c0.1-0.1,0.2-0.1,0.5-0.1c0.1,0,0.1,0,0.2,0c0.1,0,0.2,0,0.2,0c0,0,0,0.1-0.2,0.1
	C12.5,12.8,12.4,12.8,12.3,12.8z"/>
<path class="st1" d="M110.1,3.6c-0.2,0-0.3,0-0.4,0c-0.1-0.1,0.1-0.1,0.3-0.1c0.1,0,0.2,0,0.2,0c0.1,0,0.1,0,0.2,0
	c0.1,0,0,0.1-0.1,0.1C110.2,3.6,110.1,3.6,110.1,3.6z"/>
<path class="st1" d="M335.6,18.2c0,0,0.1,0,0.1-0.1c0.2,0,0.2,0.1,0.2,0.1c0,0-0.1,0-0.1,0.1C335.6,18.3,335.5,18.2,335.6,18.2z"/>
<path class="st1" d="M20.1,31.7c0,0,0.1-0.1,0.1-0.1c0.1,0,0.2,0,0.3,0.1c0.1,0.1,0.1,0.1-0.2,0.1C20.2,31.8,20.1,31.8,20.1,31.7z"
	/>
<path class="st1" d="M269,11.2c0.1,0,0.1,0,0.2,0c-0.1,0.1-0.2,0.1-0.3,0.1c-0.1,0-0.1,0-0.2,0C268.8,11.3,268.9,11.2,269,11.2z"/>
<path class="st1" d="M267.4,11.2c0.1,0,0.2,0,0.3,0c0,0-0.1,0-0.1,0.1c-0.1,0-0.2,0-0.3,0C267.3,11.2,267.3,11.2,267.4,11.2z"/>
<path class="st1" d="M266.1,11.2c0.1,0,0.1,0,0.2,0c-0.1,0.1-0.2,0.1-0.3,0.1c-0.1,0-0.1,0-0.2,0C265.9,11.3,266,11.2,266.1,11.2z"
	/>
<path class="st1" d="M265.2,11.2c0.1,0,0,0.1-0.1,0.1c-0.1,0-0.1,0-0.2,0c-0.1,0,0-0.1,0.1-0.1C265,11.1,265.1,11.1,265.2,11.2z"/>
</svg>
