<?xml version="1.0" encoding="utf-8"?>
<!-- Generator: Adobe Illustrator 24.3.0, SVG Export Plug-In . SVG Version: 6.00 Build 0)  -->
<svg version="1.1" id="Layer_1" xmlns="http://www.w3.org/2000/svg" xmlns:xlink="http://www.w3.org/1999/xlink" x="0px" y="0px"
	 viewBox="0 0 759 401" style="enable-background:new 0 0 759 401;" xml:space="preserve">
<style type="text/css">
	.st0{fill:none;stroke:#A7CEFC;stroke-width:3;stroke-dasharray:15,15;}
	.st1{fill:#FFFFFF;stroke:#A7CEFC;stroke-width:3;stroke-dasharray:15,15;}
	.st2{fill:#FFFFFF;}
	.st3{fill:#FFE492;}
	.st4{clip-path:url(#SVGID_2_);}
	.st5{fill:#4F9CF9;}
	.st6{clip-path:url(#SVGID_4_);}
	.st7{clip-path:url(#SVGID_6_);}
	.st8{fill:#A7CEFC;}
	.st9{clip-path:url(#SVGID_8_);}
	.st10{fill:#5986EF;}
</style>
<path class="st0" d="M679.4,317c0-165.6-134.3-299.9-299.9-299.9S79.6,151.3,79.6,317"/>
<line class="st0" x1="78" y1="315.5" x2="679.4" y2="315.5"/>
<line class="st0" x1="200.3" y1="75.5" x2="326.3" y2="251.1"/>
<line class="st0" x1="581" y1="94.5" x2="456.3" y2="252.1"/>
<path class="st1" d="M332.6,250.2h116.5c4.7,0,8.5,3.8,8.5,8.5v116.5c0,4.7-3.8,8.5-8.5,8.5H332.6c-4.7,0-8.5-3.8-8.5-8.5V258.7
	C324.1,254,327.9,250.2,332.6,250.2z"/>
<g>
	
		<image style="overflow:visible;opacity:0.25;" width="112" height="112" xlink:href="78115597.png"  transform="matrix(1 0 0 1 335 268)">
	</image>
	<g>
		<path class="st2" d="M360.2,276.3h61.3c5.5,0,10,4.5,10,10v61.3c0,5.5-4.5,10-10,10h-61.3c-5.5,0-10-4.5-10-10v-61.3
			C350.2,280.8,354.7,276.3,360.2,276.3z"/>
	</g>
</g>
<g>
	
		<image style="overflow:visible;opacity:0.25;" width="112" height="112" xlink:href="78115595.png"  transform="matrix(1 0 0 1 24 268)">
	</image>
	<g>
		<path class="st2" d="M49,276.3h61.3c5.5,0,10,4.5,10,10v61.3c0,5.5-4.5,10-10,10H49c-5.5,0-10-4.5-10-10v-61.3
			C39,280.8,43.5,276.3,49,276.3z"/>
	</g>
</g>
<path class="st3" d="M77.8,320.1c-0.4,0-0.8-0.1-1.1-0.4c-0.6-0.6-0.6-1.6,0-2.2l9.9-9.9c0.6-0.6,1.6-0.6,2.2,0
	c0.6,0.6,0.6,1.6,0,2.2l-9.9,9.9C78.6,319.9,78.2,320.1,77.8,320.1z"/>
<path class="st3" d="M77.8,320.1c-0.4,0-0.8-0.1-1.1-0.4l-5-5c-0.6-0.6-0.6-1.6,0-2.2c0.6-0.6,1.6-0.6,2.2,0l5,5
	c0.6,0.6,0.6,1.6,0,2.2C78.6,319.9,78.2,320.1,77.8,320.1z"/>
<path class="st3" d="M79.6,336c-0.2,0-0.3,0-0.5-0.1c-9.7-3.2-16.3-12.3-16.3-22.5c0-0.8,0.7-1.5,1.5-1.5c0.8,0,1.5,0.7,1.5,1.5
	c0,8.9,5.7,16.8,14.2,19.6c0.8,0.3,1.2,1.1,1,1.9C80.9,335.5,80.3,336,79.6,336z"/>
<path class="st3" d="M64.4,314.9c-0.8,0-1.5-0.7-1.5-1.5v-10.8c0-0.8,0.7-1.5,1.5-1.5c0.8,0,1.5,0.7,1.5,1.5v10.8
	C65.9,314.2,65.2,314.9,64.4,314.9z"/>
<path class="st3" d="M64.4,304.1c-0.7,0-1.4-0.6-1.5-1.3c-0.1-0.8,0.5-1.6,1.3-1.7c5.1-0.7,10.1-2.3,14.8-4.6c0.8-0.4,1.7-0.1,2,0.7
	c0.4,0.8,0.1,1.7-0.7,2c-4.9,2.5-10.2,4.1-15.7,4.9C64.5,304.1,64.5,304.1,64.4,304.1z"/>
<path class="st3" d="M79.6,336c-0.6,0-1.2-0.4-1.4-1c-0.3-0.8,0.2-1.7,1-1.9c8.5-2.8,14.2-10.7,14.2-19.6c0-0.8,0.7-1.5,1.5-1.5
	c0.8,0,1.5,0.7,1.5,1.5c0,10.3-6.5,19.3-16.3,22.5C80,335.9,79.8,336,79.6,336z"/>
<path class="st3" d="M94.9,314.9c-0.8,0-1.5-0.7-1.5-1.5v-10.8c0-0.8,0.7-1.5,1.5-1.5c0.8,0,1.5,0.7,1.5,1.5v10.8
	C96.4,314.2,95.7,314.9,94.9,314.9z"/>
<path class="st3" d="M94.9,304.1c-0.1,0-0.1,0-0.2,0c-5.5-0.8-10.8-2.4-15.7-4.9c-0.8-0.4-1.1-1.3-0.7-2c0.4-0.8,1.3-1.1,2-0.7
	c4.7,2.3,9.6,3.9,14.8,4.6c0.8,0.1,1.4,0.9,1.3,1.7C96.3,303.5,95.6,304.1,94.9,304.1z"/>
<g>
	
		<image style="overflow:visible;opacity:0.25;" width="112" height="112" xlink:href="7811559B.png"  transform="matrix(1 0 0 1 623 268)">
	</image>
	<g>
		<path class="st2" d="M648.7,276.3H710c5.5,0,10,4.5,10,10v61.3c0,5.5-4.5,10-10,10h-61.3c-5.5,0-10-4.5-10-10v-61.3
			C638.7,280.8,643.2,276.3,648.7,276.3z"/>
	</g>
</g>
<g>
	<defs>
		<rect id="SVGID_1_" x="655" y="292.6" width="48.8" height="48.8"/>
	</defs>
	<clipPath id="SVGID_2_">
		<use xlink:href="#SVGID_1_"  style="overflow:visible;"/>
	</clipPath>
	<g class="st4">
		<path class="st5" d="M693.1,310.5h-3.4v-7.8c0-5.6-4.6-10.1-10.3-10.1c-5.7,0-10.3,4.5-10.3,10.1v7.8h-3.4c-3.2,0-5.7,2.6-5.7,5.7
			v19.4c0,3.2,2.6,5.7,5.7,5.7h27.4c3.2,0,5.7-2.6,5.7-5.7v-19.4C698.8,313,696.2,310.5,693.1,310.5z M672.9,302.6
			c0-3.5,2.9-6.3,6.5-6.3c3.6,0,6.5,2.8,6.5,6.3v7.8h-13V302.6z M695,335.6c0,1.1-0.9,1.9-1.9,1.9h-27.4c-1,0-1.9-0.9-1.9-1.9v-19.4
			c0-1.1,0.9-1.9,1.9-1.9h27.4c1,0,1.9,0.9,1.9,1.9V335.6z"/>
		<path class="st5" d="M679.4,319.8c-1.9,0-3.5,1.6-3.5,3.5c0,1.2,0.6,2.3,1.6,3v4.2c0,1.1,0.9,1.9,1.9,1.9c1.1,0,1.9-0.9,1.9-1.9
			v-4.2c1-0.6,1.6-1.7,1.6-3C682.9,321.4,681.3,319.8,679.4,319.8z"/>
	</g>
</g>
<g>
	
		<image style="overflow:visible;opacity:0.25;" width="113" height="113" xlink:href="7811559D.png"  transform="matrix(1 0 0 1 523 27)">
	</image>
	<g>
		<path class="st2" d="M548.8,35.8H610c5.5,0,10,4.5,10,10V107c0,5.5-4.5,10-10,10h-61.3c-5.5,0-10-4.5-10-10V45.8
			C538.8,40.3,543.3,35.8,548.8,35.8z"/>
	</g>
</g>
<g>
	<defs>
		<rect id="SVGID_3_" x="555" y="52" width="48.8" height="48.8"/>
	</defs>
	<clipPath id="SVGID_4_">
		<use xlink:href="#SVGID_3_"  style="overflow:visible;"/>
	</clipPath>
	<g class="st6">
		<path class="st3" d="M571.7,52c-9.8,0-16.7,3.4-16.7,6.5c0,3.1,6.8,6.5,16.7,6.5c9.8,0,16.7-3.4,16.7-6.5
			C588.4,55.4,581.5,52,571.7,52z"/>
		<path class="st3" d="M555,88.3v6.1c0,3.1,6.8,6.5,16.7,6.5c4.4,0,8.6-0.7,11.7-2c2-0.8,3.6-1.8,4.4-2.9c-1.5-1.2-3.2-2.8-4.7-5.1
			c-3.3,1.1-7.2,1.6-11.4,1.6c-5.3,0-10.2-0.9-13.8-2.5C556.8,89.4,555.8,88.8,555,88.3L555,88.3z"/>
		<path class="st3" d="M555,76.4v6c0,3.1,6.8,6.5,16.7,6.5c3.5,0,6.8-0.4,9.6-1.2c-1-2.3-1.7-4.9-2-7.7c-2.4,0.5-5,0.7-7.7,0.7
			c-5.3,0-10.2-0.9-13.9-2.6C556.8,77.4,555.8,76.9,555,76.4z"/>
		<path class="st3" d="M555,64.4v6c0,3.1,6.8,6.5,16.7,6.5c2.6,0,5.2-0.2,7.5-0.7c0-0.6,0.2-2,1.5-2.4c2.1-0.6,3.7-2,3.8-3.9
			c0.1-0.8,1.1-1.9,1.8-1.9h2.1v-3.5c-0.8,0.6-1.7,1.1-2.8,1.6c-3.7,1.7-8.6,2.6-13.9,2.6c-5.3,0-10.2-0.9-13.9-2.6
			C556.8,65.5,555.8,65,555,64.4L555,64.4z"/>
		<path class="st3" d="M598.7,71.5h-10.7c-0.6,2.5-2.5,4.5-5.1,5.4c0.2,12,7.1,16.6,10.1,18c0.2,0.1,0.4,0.1,0.6,0
			c3.1-1.7,10-6.8,10.3-18C601.2,76,599.3,74,598.7,71.5z M592.7,87.1c-0.7,0.8-2,0.7-2.7-0.1l-3.4-4l2.7-2.3l2.1,2.5l6-6.1l2.6,2.5
			L592.7,87.1z"/>
	</g>
</g>
<g>
	
		<image style="overflow:visible;opacity:0.25;" width="112" height="113" xlink:href="7811559F.png"  transform="matrix(1 0 0 1 143 27)">
	</image>
	<g>
		<path class="st2" d="M168.5,35.8h61.3c5.5,0,10,4.5,10,10V107c0,5.5-4.5,10-10,10h-61.3c-5.5,0-10-4.5-10-10V45.8
			C158.5,40.3,162.9,35.8,168.5,35.8z"/>
	</g>
</g>
<g>
	<defs>
		<rect id="SVGID_5_" x="173.1" y="52" width="48.8" height="48.8"/>
	</defs>
	<clipPath id="SVGID_6_">
		<use xlink:href="#SVGID_5_"  style="overflow:visible;"/>
	</clipPath>
	<g class="st7">
		<path class="st5" d="M217.2,56.6c-6.1-6.1-16.1-6.1-22.2,0c-4.2,4.2-5.6,10.4-3.8,15.9l-17.7,17.7c-0.3,0.3-0.4,0.6-0.4,1v8.1
			c0,0.8,0.6,1.4,1.4,1.4h8.1c0.4,0,0.7-0.2,1-0.4l2-2c0.3-0.3,0.5-0.7,0.4-1.2l-0.3-2.2l3-0.3c0.7-0.1,1.2-0.6,1.3-1.3l0.3-3
			l2.2,0.3c0.4,0,0.8-0.1,1.1-0.4c0.3-0.3,0.5-0.7,0.5-1.1v-2.7h2.6c0.4,0,0.7-0.1,1-0.4l3.5-3.5c5.6,1.8,11.8,0.4,16-3.8
			C223.4,72.7,223.4,62.8,217.2,56.6z M215.2,76.8c-3.6,3.6-9,4.7-13.8,2.9c-0.5-0.2-1.1-0.1-1.5,0.3l-3.8,3.7h-3.5
			c-0.8,0-1.4,0.6-1.4,1.4v2.5l-2-0.2c-0.4,0-0.8,0.1-1.1,0.3c-0.3,0.2-0.5,0.6-0.5,1l-0.3,3.3l-3.3,0.3c-0.4,0-0.7,0.2-1,0.5
			c-0.2,0.3-0.4,0.7-0.3,1.1l0.3,2.9l-1.1,1.1h-6.1v-6.1L193.9,74c0.4-0.4,0.5-1,0.3-1.5c-1.9-4.8-0.7-10.2,2.9-13.8
			c5-5,13.2-5,18.2,0C220.2,63.7,220.2,71.8,215.2,76.8z"/>
		<path class="st5" d="M213.2,60.7c-1.7-1.7-4.4-1.7-6.1,0c-1.7,1.7-1.7,4.4,0,6.1c1.7,1.7,4.4,1.7,6.1,0
			C214.9,65.1,214.9,62.3,213.2,60.7z M211.2,64.7c-0.6,0.6-1.5,0.6-2,0c-0.6-0.6-0.6-1.5,0-2c0.6-0.6,1.5-0.6,2,0
			C211.7,63.2,211.7,64.2,211.2,64.7z"/>
	</g>
</g>
<circle class="st8" cx="381.9" cy="17.1" r="13"/>
<circle class="st8" cx="283.6" cy="194.2" r="13"/>
<circle class="st8" cx="562.3" cy="317" r="13"/>
<g>
	<defs>
		<rect id="SVGID_7_" x="364" y="297.1" width="51" height="39"/>
	</defs>
	<clipPath id="SVGID_8_">
		<use xlink:href="#SVGID_7_"  style="overflow:visible;"/>
	</clipPath>
	<g class="st9">
		<path class="st10" d="M364,300.3v9.1c0,2.8,3.5,4.2,5.6,2.3l10.1-9.1c2.2-2,0.8-5.5-2.3-5.5h-10.1
			C365.5,297.1,364,298.5,364,300.3z"/>
		<path class="st10" d="M411.7,297.1h-10.1c-3,0-4.5,3.5-2.3,5.5l10.1,9.1c2.1,1.9,5.6,0.5,5.6-2.3v-9.1
			C415,298.5,413.5,297.1,411.7,297.1z"/>
		<path class="st10" d="M391.8,319.3l17.7,16c2.1,1.9,5.6,0.5,5.6-2.3v-9.2c0-0.9-0.4-1.7-1.1-2.3l-22.2-20.1
			c-1.3-1.2-3.3-1.2-4.6,0l-22.2,20.1c-0.7,0.6-1.1,1.4-1.1,2.3v9.2c0,2.8,3.5,4.2,5.6,2.3l17.7-16
			C388.5,318.1,390.5,318.1,391.8,319.3z"/>
	</g>
</g>
</svg>
