<?xml version="1.0" encoding="utf-8"?>
<!-- Generator: Adobe Illustrator 24.3.0, SVG Export Plug-In . SVG Version: 6.00 Build 0)  -->
<svg version="1.1" id="Layer_1" xmlns="http://www.w3.org/2000/svg" xmlns:xlink="http://www.w3.org/1999/xlink" x="0px" y="0px"
	 viewBox="0 0 1920 943.3" style="enable-background:new 0 0 1920 943.3;" xml:space="preserve">
<style type="text/css">
	.st0{opacity:0.3;}
	.st1{fill:#629ACC;}
</style>
<g class="st0">
	<path class="st1" d="M721,821.6c-7.3,0-14.4-0.6-21.2-1.7c-14.3-2.4-27.5-7.3-39.3-14.6c-12.6-7.8-23.7-18.5-32.9-31.8
		c-18.5-26.6-27.8-58.5-36.8-89.3c-1.8-6.1-3.6-12.3-5.4-18.4c-12.6-41.4-28.6-77.7-48.9-110.9c-40.5-66.2-97.4-122.8-164.6-163.5
		c-77.7-47.1-161.3-70.5-235.4-66c-43.5,2.6-101,27.8-126.7,70.7c-15.2,25.5-16.5,53.8-3.6,81.8L5.9,478
		c-6.8-14.7-9.7-29.4-8.8-43.8c0.9-13.2,5-26,12.3-38.3c11.6-19.4,30.8-36.7,55.5-49.8c22.8-12.2,48.2-19.6,71.5-21
		c38.7-2.4,79.9,2.9,122.5,15.5c38.5,11.5,76.6,28.5,113,50.6c67.3,40.7,124.2,97.3,164.7,163.6c20.3,33.2,36.3,69.5,48.9,110.9
		c1.9,6.1,3.7,12.3,5.4,18.4c9,30.8,18.2,62.7,36.7,89.3c17.9,25.7,42.1,41.3,72,46.3c41.4,6.9,91.7-7.6,134.5-38.8
		c61.7-45,104.5-110.5,145.9-173.8c7.3-11.1,14.8-22.6,22.2-33.7c19.3-28.8,45.4-66.1,76.4-99.3c31.7-34,64-58.9,98.6-76.3
		c21.2-10.6,43.6-17.8,66.7-21.3c21.3-3.2,43.9-3.4,67.1-0.6c39.8,4.9,82.6,18.6,131,41.9c95.3,46,190.4,101.8,282.8,166
		c87.8,60.9,174,129.9,256.1,205l-0.2,0.2c-170.1-155.6-351.4-280.4-538.8-370.9c-105.9-51.1-190-57.5-264.6-20
		c-75.9,38.1-128.9,106.9-174.9,175.5c-7.4,11.1-14.9,22.6-22.2,33.7C939,670.4,896.1,736,834.4,781c-19.9,14.6-42.4,25.9-64.9,32.8
		c-11.9,3.7-23.7,6-35.1,7.1C729.9,821.4,725.4,821.6,721,821.6z"/>
	<path class="st1" d="M728.1,805.8c-18.6,0-35.8-3.5-51.2-10.5c-17.2-7.8-32-19.8-44-35.9c-1.1-1.4-2.1-2.9-3.1-4.4
		c-18.3-26.5-28-58-37.4-88.4c-1.9-6.2-3.9-12.5-5.8-18.7c-11.8-36.8-26.1-69.2-43.5-99c-2.2-3.7-4.4-7.4-6.6-11
		c-41.1-65.7-98.5-121.5-166-161.4c-78.3-46.3-162.1-68.7-236-63.3C91.1,316.5,33.9,342,8.1,384.7c-15.5,25.5-17.2,53.8-5.1,81.9
		l-0.3,0.1c-6.4-14.7-9-29.5-7.8-43.9c1.1-13.2,5.4-26.1,12.8-38.3c11.7-19.4,30.9-36.6,55.3-49.9c22.6-12.2,47.8-19.9,71.1-21.6
		c38.7-2.9,79.9,1.9,122.6,14c38.6,11,76.9,27.6,113.6,49.3c67.5,39.9,125,95.8,166.1,161.5c2.2,3.6,4.5,7.3,6.6,11
		c17.5,29.9,31.7,62.3,43.6,99.1c2,6.2,3.9,12.5,5.8,18.7c9.4,30.4,19,61.9,37.4,88.3c1,1.5,2.1,2.9,3.1,4.4
		C658,792.3,692.2,805.8,728.1,805.8c0.3,0,0.5,0,0.7,0C728.5,805.8,728.3,805.8,728.1,805.8z M735.8,805.6
		c33.4-1.7,68-14.6,97.6-33.7c63.9-41.4,109.8-105.3,154.1-167.1c1.8-2.5,3.7-5.1,5.5-7.6c4-5.6,8.8-12.2,13.6-18.8
		c21.8-29.9,48.1-64.6,78.5-95.9c32.3-33.3,64.6-58,98.7-75.5c20.9-10.8,43.1-18.3,65.8-22.5c21-3.9,43.3-5,66.1-3.3
		c39.4,3,81.8,14.2,129.5,34.4c46.6,19.6,84.8,38.1,120.4,58.2c50.5,28.4,98.5,61.2,138.8,89.5c93.8,66,185.9,140.9,273.6,222.8
		l-0.2,0.2c-87.7-81.8-179.8-156.7-273.6-222.7c-40.3-28.3-88.4-61.1-138.8-89.5c-35.6-20.1-73.9-38.5-120.4-58.2
		c-104-44-187-46.7-261.2-8.6c-77,39.6-131.8,109.2-177.1,171.3c-4.9,6.7-9.6,13.3-13.6,18.8c-1.8,2.5-3.7,5.1-5.5,7.6
		c-44.4,61.8-90.3,125.8-154.2,167.2c-15.8,10.2-32.7,18.3-50.1,24.1C767.1,801.7,751.2,804.8,735.8,805.6z"/>
	<path class="st1" d="M735.9,790.3c-2.2,0-4.5,0-6.7-0.1c-18.6-0.8-35.8-5.1-51.1-12.7c-16.8-8.3-31.3-20.6-43.2-36.5
		c-1.1-1.4-2.1-2.9-3.1-4.4c-18.1-26.4-28.2-57.4-38-87.4c-2-6.3-4.1-12.7-6.3-19c-12.4-36.6-27-68.8-44.7-98.2
		c-2.2-3.6-4.4-7.3-6.7-10.9C494.6,456,436.7,400.9,369,361.8c-78.9-45.5-162.9-67-236.7-60.6c-41.5,3.7-98.6,27.8-125.7,72
		c-15.7,25.6-18,54-6.6,82.2l-0.3,0.1c-6-14.8-8.2-29.6-6.8-44c1.3-13.2,5.8-26.2,13.4-38.5c11.9-19.4,30.9-36.6,55.1-49.9
		c22.4-12.3,47.5-20.2,70.8-22.2c38.6-3.4,79.9,0.9,122.7,12.5c38.7,10.6,77.1,26.7,114.1,48.1c67.8,39.2,125.7,94.3,167.4,159.4
		c2.3,3.6,4.5,7.2,6.7,10.9c17.7,29.5,32.3,61.7,44.7,98.3c2.1,6.3,4.2,12.8,6.3,19c9.8,30,19.8,61,37.9,87.4c1,1.5,2.1,2.9,3.1,4.4
		c48.3,64.8,133.8,57.8,197.1,22.2c66.5-37.7,116-100.5,163.8-161.1l0.5-0.6c4.6-5.9,9.4-12,14.2-18
		c50.3-63.3,105.6-128.4,179.4-167.2c20.7-10.9,42.6-18.9,64.9-23.8c20.8-4.5,42.7-6.5,65.1-5.9c39.1,1.1,81,9.8,128,26.9
		c49.5,17.8,86.7,34.2,120.7,53.1c48.4,27,95.4,61.1,136.8,91.2c92.2,67.4,182.8,143.3,269.4,225.7l-0.2,0.2
		c-86.6-82.3-177.2-158.2-269.4-225.6c-41.4-30.1-88.3-64.2-136.7-91.2c-34-18.9-71.2-35.3-120.6-53.1c-102-36.9-183.9-36-257.8,2.8
		c-73.8,38.8-129,103.9-179.3,167.1c-4.8,6-9.6,12.1-14.2,18l-0.5,0.6c-23.8,30.2-48.5,61.5-75.1,89.4
		c-29.9,31.4-58.9,54.9-88.8,71.8C801.3,780.8,767.3,790.3,735.9,790.3z"/>
	<path class="st1" d="M1971.9,780.9c-85.5-82.9-174.7-159.7-265.2-228.5c-3.8-2.9-7.7-5.8-11.5-8.7c-39.2-29.7-79.8-60.3-123.1-84.2
		c-42.1-23.1-84.7-37.2-120.8-48c-99.8-29.9-180.6-25.4-254.4,14.2c-75.7,40.8-134.3,108.5-181.5,163c-2.8,3.3-5.6,6.5-8.5,9.8
		c-2.1,2.4-4.2,4.8-6.3,7.3c-26.8,31-51.2,58.8-78.2,84.1c-30.8,28.9-60.5,50.1-90.8,64.7c-28.4,13.7-58.7,21-86.9,21
		c-5.1,0-10.2-0.2-15.2-0.7c-18.2-1.8-35-6.8-50-14.9c-16.4-8.8-30.6-21.3-42.3-37.2c-1-1.4-2.1-2.9-3.1-4.4
		c-17.9-26.2-28.4-56.9-38.5-86.5c-2.2-6.4-4.4-13-6.7-19.4c-13-36.5-28-68.4-45.8-97.5c-2.2-3.6-4.5-7.2-6.8-10.8
		C493.9,439.7,435.6,385.3,367.5,347c-79.4-44.7-163.7-65.2-237.4-57.8c-50.3,5.1-101.8,35-125.2,72.6
		c-15.9,25.6-18.7,54.1-8.2,82.4l-0.3,0.1c-5.5-14.8-7.5-29.7-5.7-44.1c1.6-13.3,6.3-26.3,13.9-38.6c12-19.3,31-36.6,54.9-49.9
		c22.1-12.3,47.2-20.4,70.5-22.8c38.6-3.9,79.9-0.1,122.9,11c38.8,10.1,77.4,25.9,114.7,46.8c68.1,38.4,126.4,92.8,168.7,157.3
		c2.3,3.5,4.6,7.2,6.8,10.8c17.8,29.1,32.8,61,45.9,97.5c2.3,6.4,4.5,13,6.7,19.4c10.1,29.6,20.6,60.2,38.5,86.4
		c1,1.5,2,2.9,3.1,4.4c50.4,68.3,136,59.8,194,31.7c69.2-33.5,122.2-94.7,168.9-148.7c2.1-2.4,4.2-4.8,6.3-7.3
		c2.8-3.3,5.7-6.5,8.5-9.8c26.9-31.1,53.5-61.3,82.7-89.1c33.6-32,65.9-56.2,98.9-73.9c20.5-11,42-19.4,64-25
		c20.5-5.2,42.1-8.1,64.1-8.6c38.8-0.9,80.2,5.5,126.5,19.3c36.2,10.8,78.8,24.9,120.9,48c43.4,23.9,83.9,54.6,123.2,84.2
		c3.8,2.9,7.7,5.8,11.5,8.7c90.5,68.8,179.8,145.7,265.3,228.6L1971.9,780.9z"/>
	<path class="st1" d="M1968.9,778.2c-86-85-173.8-162.8-261.1-231.4c-5.2-4.1-10.6-8.3-15.7-12.4c-37-29.3-75.3-59.6-116.8-82.2
		c-41.5-22.5-84.5-34.3-121.1-42.9c-97.4-23.1-177.1-15-251,25.6c-70.4,38.9-125.6,97.3-179,153.8l-5.9,6.2
		c-4.6,4.9-9.4,10-14.1,14.9C950.8,666,897.4,718.6,830.6,745.6c-16.2,6.5-32.8,11.1-49.4,13.5c-17.8,2.6-35.2,2.6-51.5,0.1
		c-17.7-2.7-34.2-8.5-48.8-17c-16-9.3-29.9-22.1-41.5-37.9c-1-1.4-2.1-2.9-3.1-4.4c-17.7-26.1-28.6-56.2-39.1-85.4
		c-2.3-6.5-4.8-13.2-7.2-19.8c-13.6-36.4-29-68-47-96.7c-2.3-3.6-4.6-7.2-6.9-10.7c-42.9-63.9-101.6-117.6-170-155.2
		c-80-43.9-164.5-63.4-238-55.1C78.2,282.8,27,312.8,3.5,350.1c-16.2,25.7-19.6,54.3-9.8,82.7l-0.3,0.1c-5.1-14.9-6.7-29.8-4.7-44.3
		c1.8-13.3,6.7-26.4,14.5-38.7c12.1-19.2,31.1-36.5,54.8-49.8c21.9-12.4,46.8-20.7,70.1-23.4c38.6-4.4,79.9-1.1,123,9.6
		c38.9,9.7,77.7,25,115.2,45.6c68.4,37.6,127.2,91.3,170.1,155.3c2.3,3.5,4.7,7.1,6.9,10.7c18,28.7,33.4,60.3,47,96.7
		c2.4,6.5,4.9,13.3,7.2,19.8c10.5,29.2,21.4,59.3,39,85.4c1,1.5,2,2.9,3.1,4.4c49.2,67.4,130.9,65.5,190.9,41.2
		c66.7-26.9,120.2-79.6,173.5-135.7c4.7-5,9.5-10,14.1-14.9l5.9-6.2c26.2-27.7,53.3-56.4,82.7-83.1c33.3-30.2,64.8-53.4,96.4-70.8
		c20.3-11.2,41.5-20,63.1-26.2c20.3-5.9,41.5-9.7,63.1-11.2c38.7-2.8,79.6,1,125,11.8c36.6,8.6,79.6,20.4,121.1,43
		c41.6,22.6,79.8,52.9,116.9,82.2c5.2,4.1,10.5,8.3,15.7,12.4c87.3,68.6,175.1,146.5,261.1,231.5L1968.9,778.2z"/>
	<path class="st1" d="M1965.9,775.6c-85.2-85.9-171.7-164.8-256.9-234.3c-6.4-5.2-13-10.7-19.3-15.9c-35-29-71.2-58.9-111.1-80.4
		c-41.3-22.1-84.5-31.6-121.3-37.9c-94.7-16.5-173.3-4.7-247.6,37.1c-64.8,36.6-118,88.4-169.4,138.6c-5.4,5.3-11,10.7-16.5,16
		c-6.4,6.2-11.3,10.9-15.9,15.3c-24.5,23.4-53.6,50.2-84.1,72.6c-32.4,23.7-63.2,40.1-94.2,50.2c-16.3,5.3-32.9,8.6-49.2,9.9
		c-17.6,1.4-34.6,0.4-50.6-3c-17.3-3.7-33.4-10.1-47.7-19.2c-15.5-9.8-29.2-22.8-40.6-38.6c-1-1.4-2.1-2.9-3.1-4.4
		c-17.5-25.9-28.7-55.6-39.5-84.3c-2.5-6.7-5.1-13.5-7.7-20.2c-14.2-36.3-30-67.7-48.1-95.9c-2.3-3.5-4.7-7.1-7-10.6
		c-43.5-63.4-102.7-116.3-171.3-153.1c-80.5-43-165.3-61.6-238.7-52.4c-41.8,5.4-96.3,30.2-124,73.5c-16.5,25.8-20.4,54.5-11.4,83.1
		l-0.3,0.1c-4.7-15-5.9-29.9-3.7-44.5c2.1-13.4,7.2-26.5,15.1-38.9c12.3-19.2,31.1-36.4,54.6-49.8c21.7-12.4,46.4-20.9,69.7-23.9
		c38.5-4.9,79.9-2.1,123.1,8.1c39,9.2,78,24.2,115.7,44.3c68.6,36.8,127.9,89.8,171.4,153.2c2.4,3.5,4.8,7,7,10.6
		c18.2,28.2,33.9,59.6,48.1,95.9c2.6,6.7,5.2,13.6,7.8,20.2c10.8,28.7,22.1,58.4,39.5,84.3c1,1.5,2,3,3.1,4.4
		c40.9,56.6,111.1,75.6,187.8,50.8c69.5-22.5,126.1-73,178.2-122.7c4.6-4.4,9.5-9.1,15.9-15.3c5.5-5.3,11.1-10.7,16.5-16
		c25.3-24.7,51.5-50.2,79.4-74.1c31.6-27,61-48.1,90-64.5c20.1-11.3,41-20.5,62.1-27.5c20-6.5,40.9-11.2,62.1-13.9
		c38.6-4.9,79-3.5,123.5,4.3c36.8,6.3,80,15.7,121.4,37.9c40,21.5,76.2,51.5,111.2,80.5c6.3,5.3,12.9,10.7,19.3,15.9
		c85.3,69.6,171.7,148.4,256.9,234.4L1965.9,775.6z"/>
	<path class="st1" d="M1962.9,772.9c-84.5-86.9-169.5-166.7-252.7-237.2c-7.1-6-14.3-12.3-21.4-18.4c-33.5-29-68.1-59-107-79.7
		c-41.3-21.9-84.6-28.8-121.5-32.8c-90.4-9.9-170.2,5.9-244.2,48.5c-58.9,34-109.3,79.5-158.1,123.6c-9.9,8.9-20.1,18.1-30,26.8
		c-6.1,5.4-11.4,10.1-16.4,14.4c-23.2,20.1-54.1,45.8-87.1,66.9c-33.2,21.1-64.5,35.2-95.9,42.9c-34.2,8.4-68.3,8.5-98.7,0.2
		c-16.9-4.6-32.6-11.8-46.6-21.3c-15.1-10.3-28.5-23.5-39.7-39.2c-1-1.4-2-2.9-3-4.4c-17.2-25.7-28.8-54.9-40-83.2
		c-2.7-6.8-5.5-13.9-8.3-20.8c-14.8-36.2-31-67.3-49.3-95.1c-2.3-3.5-4.7-7-7.1-10.5c-44-62.8-103.7-115-172.6-151
		c-81.1-42.2-166.1-59.9-239.4-49.7c-49.6,7.1-99.2,36.8-123.3,73.9c-16.8,25.8-21.3,54.7-13.1,83.5l-0.3,0.1
		c-4.3-15.1-5.2-30.1-2.6-44.7c2.4-13.5,7.7-26.6,15.8-39.1c12.4-19.1,31.2-36.2,54.3-49.6c21.5-12.4,46.1-21.1,69.2-24.4
		c38.5-5.4,79.9-3.2,123.3,6.6c39.1,8.8,78.2,23.3,116.3,43.1c68.9,36,128.6,88.3,172.7,151.1c2.4,3.4,4.8,7,7.1,10.5
		c18.3,27.8,34.4,58.9,49.3,95.2c2.8,6.9,5.6,13.9,8.3,20.8c11.2,28.2,22.8,57.4,40,83.1c1,1.5,2,3,3,4.4
		c40.2,56.3,109.2,78.8,184.7,60.3c68.8-16.9,128.5-62.7,182.8-109.7c5-4.3,10.4-9,16.4-14.4c9.9-8.8,20.1-18,30-26.8
		c48.8-44,99.3-89.5,158.2-123.6c19.9-11.5,40.5-21.1,61.2-28.7c19.8-7.2,40.4-12.8,61.1-16.6c38.6-7,78.5-8,122-3.3
		c36.9,3.9,80.2,10.9,121.6,32.8c38.9,20.7,73.5,50.7,107,79.7c7,6.1,14.3,12.4,21.4,18.4c83.2,70.6,168.3,150.4,252.8,237.3
		L1962.9,772.9z"/>
	<path class="st1" d="M1959.9,770.3c-83.7-87.8-167.4-168.6-248.6-240.1c-7.5-6.6-15.1-13.5-22.6-20.3
		c-32.3-29.3-65.7-59.5-103.7-79.5c-41.5-21.7-84.8-26.2-121.7-27.7c-87-3.9-165.7,15.7-240.8,59.9
		c-52.6,31.1-99.6,70.5-144.9,108.6c-15.6,13.1-30.3,25.5-45.3,37.6c-6.1,4.9-11.7,9.3-17,13.5c-34.4,26.9-63,46.3-90,61.2
		c-33.9,18.6-65.8,30.3-97.5,35.6c-12.3,2.1-24.6,3.1-36.6,3.1c-21.3,0-42-3.2-61-9.6c-34.4-11.6-62.8-32.9-84.3-63.4
		c-1-1.4-2-2.9-3-4.4c-17-25.5-28.9-54.2-40.4-81.9c-2.9-7-5.9-14.3-9-21.4c-15.5-36.1-32-67-50.4-94.3c-2.4-3.5-4.8-7-7.2-10.4
		c-44.6-62.2-104.8-113.7-174-149c-81.6-41.4-166.9-58.1-240-46.9C72,248.6,23.9,277.7-0.7,315c-17.1,26-22.3,55-14.9,84l-0.3,0.1
		c-3.9-15.2-4.4-30.3-1.5-45c2.6-13.6,8.2-26.8,16.4-39.3c12.5-19,31.2-36.1,54.1-49.5c21.2-12.5,45.7-21.3,68.7-24.9
		c38.4-5.9,79.9-4.2,123.4,5.1c39.2,8.3,78.5,22.4,116.8,41.9c69.2,35.3,129.4,86.8,174.1,149.1c2.5,3.4,4.9,6.9,7.2,10.4
		c18.5,27.4,35,58.2,50.4,94.4c3,7.1,6.1,14.3,9,21.4c11.5,27.7,23.4,56.4,40.3,81.9c1,1.5,2,3,3,4.4c40.2,57,106.4,82.4,181.6,69.8
		c71.5-12,134.9-55.6,187.5-96.7c5.3-4.2,10.9-8.6,17-13.5c15-12.1,29.7-24.5,45.3-37.6c45.4-38.1,92.3-77.5,145-108.7
		c19.8-11.6,40.1-21.7,60.3-29.9c19.6-7.9,39.8-14.4,60.1-19.2c38.6-9.2,78.1-12.7,120.5-10.8c36.9,1.5,80.3,6,121.8,27.7
		c38.1,20,71.5,50.3,103.8,79.5c7.4,6.7,15.1,13.7,22.6,20.3c81.2,71.5,164.9,152.3,248.6,240.2L1959.9,770.3z"/>
	<path class="st1" d="M1956.9,767.6c-84.1-90-164.1-169.5-244.4-243c-7.7-7-15.2-14.2-23.2-21.8c-31.2-29.6-63.5-60.3-101-79.7
		c-42-21.7-87.2-23.5-121.9-22.6c-83,1.8-160.7,25.1-237.4,71.3c-46,27.9-88.5,61.3-129.6,93.7c-21.6,17-42,33.1-62.8,48.3
		c-6.2,4.5-11.9,8.7-17.5,12.6c-34.9,24.5-64.4,42.1-93,55.4c-34.7,16.1-67.2,25.4-99.2,28.3c-16.5,1.5-32.8,1.2-48.6-0.8
		c-16.7-2.2-32.8-6.3-47.8-12.4c-33.3-13.4-61-35.7-82.3-66.2c-1-1.4-2-2.9-3-4.4c-16.7-25.2-28.9-53.4-40.7-80.6
		c-3.1-7.3-6.4-14.8-9.7-22.1c-16.1-36-33-66.6-51.6-93.5c-2.4-3.5-4.9-6.9-7.3-10.3c-45.2-61.7-105.9-112.5-175.3-146.9
		c-64.1-31.7-130.2-48.2-190.8-48.2c-17.1,0-33.8,1.3-49.9,4C70.6,237,22.7,266.3-2,303.2c-17.5,26.1-23.3,55.3-16.7,84.6l-0.3,0.1
		c-3.4-15.3-3.6-30.5-0.4-45.3c2.9-13.7,8.7-27,17.1-39.6c12.6-18.8,31.3-35.9,53.8-49.3c21.3-12.6,44.9-21.4,68.2-25.4
		c38.4-6.4,79.9-5.2,123.5,3.6c39.3,7.9,78.8,21.6,117.3,40.6c69.5,34.5,130.1,85.3,175.4,147c2.5,3.4,5,6.9,7.3,10.3
		c18.6,26.9,35.5,57.5,51.6,93.6c3.3,7.3,6.5,14.8,9.7,22.1c11.8,27.2,24,55.3,40.6,80.5c1,1.5,2,3,3,4.4
		c39.9,57.1,104.9,86,178.5,79.3c74.4-6.8,141.8-48.3,192.1-83.7c5.6-4,11.3-8.1,17.5-12.6c20.8-15.2,41.2-31.3,62.8-48.3
		c41.1-32.4,83.6-65.8,129.7-93.7c39.5-23.8,78.3-41.1,118.5-53c38.8-11.5,77.7-17.5,119-18.3c23.5-0.6,42.8,0.4,60.4,3.2
		c22.9,3.5,43,9.9,61.6,19.5c37.5,19.4,69.8,50.1,101.1,79.8c8,7.6,15.5,14.7,23.2,21.8c80.3,73.5,160.3,153,244.4,243.1
		L1956.9,767.6z"/>
	<path class="st1" d="M1953.9,764.9c-83.4-91-162-171.5-240.2-246c-7.7-7.4-15.4-15-23.5-23c-30.3-30.1-61.6-61.2-98.6-80.2
		c-42.4-21.6-87.5-20.7-122.1-17.5c-78.3,6.9-154.9,34-234,82.7c-39,24.1-76.1,51.8-112,78.5c-28.4,21.1-55.2,41.1-82.7,59.3
		c-6.2,4.1-12.3,8.1-18.1,11.7c-34.9,22-66.3,38.2-96,49.7c-35.5,13.7-68.5,20.6-100.9,21c-16.5,0.2-32.8-1.2-48.4-4.4
		c-16.4-3.3-32.2-8.6-46.9-15.5c-32.1-15.2-59.2-38.4-80.3-69c-1-1.4-2-2.9-3-4.4c-16.4-24.9-28.8-52.5-40.9-79.1
		c-3.4-7.5-6.9-15.3-10.5-22.9c-16.8-36-34-66.3-52.7-92.7c-2.4-3.4-4.9-6.9-7.4-10.2c-45.8-61.1-106.9-111.2-176.6-144.8
		c-82.8-39.8-168.5-54.5-241.3-41.5c-48.6,8.9-96.1,38.2-121.1,74.7c-17.9,26.2-24.3,55.7-18.5,85.3l-0.3,0.1
		c-3-15.4-2.8-30.8,0.7-45.6c3.2-13.8,9.2-27.2,17.9-39.9c12.8-18.7,31.3-35.7,53.6-49c21.1-12.6,44.5-21.6,67.7-25.8
		c38.3-6.9,79.9-6.2,123.7,2.1c39.4,7.5,79.1,20.7,117.9,39.4c69.8,33.7,130.9,83.8,176.7,144.9c2.5,3.4,5,6.8,7.4,10.2
		c18.7,26.4,35.9,56.8,52.7,92.8c3.5,7.6,7.1,15.4,10.5,22.9c12,26.6,24.5,54.2,40.9,79.1c1,1.5,2,3,3,4.4
		c40.3,58.4,102.6,89.9,175.4,88.8c59.1-0.9,121.6-23.3,196.7-70.7c5.8-3.7,11.9-7.6,18.1-11.7c27.5-18.2,54.3-38.2,82.7-59.3
		c35.9-26.7,73-54.4,112-78.5c39.9-24.6,78-43.2,116.6-56.9c39.1-13.9,77.5-22.4,117.5-25.9c34.7-3.2,79.9-4,122.3,17.6
		c37.1,19,68.4,50.1,98.7,80.2c8.1,8,15.7,15.6,23.5,23c78.3,74.5,156.9,154.9,240.2,246L1953.9,764.9z"/>
	<path class="st1" d="M1950.9,762.3c-82.6-92-159.8-173.4-236.1-248.9c-7.7-7.7-15.4-15.6-23.5-24c-29.4-30.6-59.9-62.3-96.5-80.8
		c-42.8-21.5-87.9-18-122.4-12.5c-73.7,11.5-147,41.4-230.6,94.2c-31.4,19.9-62,41.7-91.7,62.8c-36,25.6-70,49.8-105.2,70.9
		c-6.3,3.8-12.6,7.4-18.7,10.8c-35.6,19.9-67.9,34.3-98.9,43.9c-17.4,5.4-34.5,9.3-51,11.6c-17.6,2.5-34.9,3.2-51.6,2.2
		c-33.8-2-65.5-11-94.2-26.7c-31-16.9-57.3-41.1-78.3-71.8c-1-1.5-2-2.9-2.9-4.4c-16-24.6-28.7-51.4-41-77.5
		c-3.7-7.9-7.6-16-11.4-23.9c-17.5-35.9-35.1-66-53.9-92c-2.5-3.4-5-6.8-7.5-10.1c-46.4-60.5-108-109.9-178-142.8
		c-83.3-39-169.3-52.7-242-38.7c-77.9,15.2-153.8,81-140.6,160.8l-0.3,0c-3.3-19.9-1.4-39.6,5.7-58.4c6.5-17.2,17.2-33.4,31.7-48.1
		c13.5-13.7,29.7-25.5,48.2-35.1c17.6-9.1,36.6-15.9,55.2-19.5c38.3-7.4,79.9-7.2,123.8,0.6c39.5,7,79.3,19.8,118.4,38.1
		c70,32.9,131.6,82.3,178.1,142.8c2.5,3.3,5.1,6.7,7.5,10.1c18.8,26,36.4,56.1,53.9,92c3.9,7.9,7.7,16.1,11.4,23.9
		c12.3,26,24.9,52.9,40.9,77.4c1,1.5,2,3,2.9,4.4c40.4,59.2,101.6,94.1,172.3,98.4c59.9,3.6,125.8-15.2,201.4-57.6
		c6-3.4,12.3-7,18.7-10.8c35.2-21.1,69.2-45.3,105.2-70.9c29.6-21.1,60.3-42.9,91.7-62.8c83.7-52.8,157-82.7,230.7-94.2
		c23.2-3.7,42.4-4.9,60.4-3.7c23.1,1.5,43.4,6.8,62.1,16.2c36.7,18.5,67.2,50.2,96.6,80.9c8.1,8.4,15.7,16.4,23.5,24
		c76.3,75.4,153.5,156.8,236.1,248.9L1950.9,762.3z"/>
	<path class="st1" d="M1947.9,759.6c-81.8-93-157.7-175.4-231.9-251.8c-7.7-7.9-15.3-16.2-23.3-25c-28.6-31.2-58.3-63.5-94.6-81.6
		c-43.7-21.7-90.9-14.6-122.6-7.4c-86,19.3-163.1,64.2-227.2,105.6c-23,14.9-46,30.8-68.2,46c-44.6,30.7-86.6,59.7-130.8,83.4
		c-6.5,3.5-13,6.8-19.2,9.9c-36.2,18-69.6,30.5-101.9,38.2c-36.7,8.7-71.7,10.9-104.3,6.5c-33.4-4.5-64.7-15.7-93.1-33.4
		c-29.7-18.5-55.4-43.6-76.3-74.6c-1-1.5-2-2.9-2.9-4.4c-15.6-24.1-28.5-50.3-40.9-75.6c-4.1-8.3-8.3-16.9-12.5-25.2
		c-18.4-36.4-35.9-65.3-55-91.2c-2.5-3.4-5.1-6.7-7.6-10c-47-59.9-109-108.6-179.3-140.7c-83.9-38.2-170-51-242.7-36
		C35.4,208.8-38.9,273.7-28,354.1l-0.3,0c-2.7-19.9-0.4-39.6,6.9-58.4c6.7-17.2,17.4-33.4,31.9-48.1C24,233.9,40.1,222,58.4,212.3
		c17.4-9.3,36.5-16.2,55.1-20.1c38.2-7.9,79.9-8.2,123.9-0.9c39.6,6.6,79.6,19,118.9,36.9C426.7,260.3,488.7,309,535.8,369
		c2.6,3.3,5.2,6.7,7.6,10c19.1,25.8,36.6,54.8,55,91.2c4.2,8.3,8.4,16.9,12.5,25.2c12.4,25.3,25.3,51.4,40.9,75.5
		c1,1.5,1.9,3,2.9,4.4c40.7,60.3,100.8,98.6,169.2,107.9c61.4,8.3,128.8-6.3,206-44.6c6.2-3.1,12.7-6.4,19.2-9.9
		c44.2-23.7,86.2-52.7,130.8-83.4c22.2-15.3,45.2-31.1,68.2-46.1c43.1-27.8,78.9-48.4,112.8-64.7c39.9-19.2,77.3-32.6,114.5-40.9
		c22.7-5.2,42.4-7.5,60.4-7.1c23.2,0.5,43.6,5.2,62.4,14.6c36.4,18.1,66,50.4,94.7,81.7c8,8.8,15.6,17,23.3,24.9
		c74.2,76.4,150.1,158.7,231.9,251.8L1947.9,759.6z"/>
	<path class="st1" d="M1945,757c-81-94-155.5-177.3-227.8-254.7c-7.6-8.1-15.1-16.7-23-25.7c-27.9-31.9-56.7-64.8-92.8-82.5
		c-44.2-21.6-91.2-11.7-122.8-2.3c-77.9,22.9-147.5,66.6-223.8,117c-13.8,9.1-27.7,18.6-41.2,27.7c-51.8,35.1-105.3,71.3-160.1,97.6
		c-6.7,3.2-13.3,6.2-19.8,9.1c-36.5,15.9-71.8,26.8-104.9,32.4c-37.5,6.4-73.1,6.1-106-0.7c-33-6.9-63.9-20.4-91.9-40.1
		c-28.4-20-53.4-46-74.3-77.4c-1-1.5-1.9-3-2.9-4.4c-15.1-23.5-28.1-48.8-40.6-73.3c-4.5-8.8-9.2-17.9-13.8-26.8
		c-19.1-36.3-37-65-56.1-90.4c-2.5-3.3-5.1-6.7-7.7-9.9C487.9,292.9,425.4,245,354.9,213.7c-84.4-37.4-170.8-49.2-243.3-33.3
		C35.8,197.2-39.9,259.8-31.2,342.8l-0.3,0c-2.1-19.9,0.6-39.6,8.1-58.3c6.9-17.2,17.7-33.4,32.1-48.2c26.5-27.2,64-47.7,102.7-56.3
		c38.2-8.4,79.9-9.2,124-2.3c39.7,6.1,79.9,18.1,119.5,35.6c70.6,31.3,133.1,79.3,180.7,138.7c2.6,3.3,5.2,6.6,7.7,9.9
		c19.2,25.3,37,54.1,56.2,90.4c4.7,8.9,9.3,18,13.8,26.8c12.5,24.5,25.4,49.8,40.6,73.3c1,1.5,1.9,3,2.9,4.4
		c41.9,62.9,99.3,103.5,166.1,117.4c61.8,12.9,132.7,2.3,210.7-31.6c6.5-2.8,13.1-5.9,19.8-9.1c54.7-26.2,108.3-62.5,160-97.6
		c13.5-9.1,27.4-18.5,41.2-27.7c33.4-22.1,72.3-47.4,110.9-68.6c40.3-22.1,77.3-38,113-48.5c22.5-6.7,42.2-10.1,60.4-10.6
		c22.9-0.6,44,3.8,62.6,12.9c16.2,7.9,32.4,19.8,49.8,36.3c15.3,14.5,29.4,30.7,43.1,46.4c7.9,9.1,15.4,17.6,23,25.7
		c72.2,77.3,146.7,160.6,227.8,254.7L1945,757z"/>
	<path class="st1" d="M1942,754.3c-80.2-95-153.3-179.3-223.6-257.6c-7.4-8.3-14.8-17.1-22.6-26.5c-27.2-32.5-55.2-66.2-91.1-83.5
		c-33.6-16.2-73.8-15.3-123,2.8c-68.8,25.1-130.4,67.1-195.6,111.5c-8.1,5.5-16.5,11.3-24.8,16.9c-3.3,2.2-6.5,4.4-9.8,6.7
		c-62.1,42.2-126.3,85.8-193.6,114.4c-6.8,2.9-13.6,5.6-20.3,8.2c-37.3,14.1-73.6,23-107.8,26.6c-38.4,4-74.6,1.3-107.6-8
		c-32.4-9.2-63-24.9-90.8-46.8c-27-21.2-51.3-48.2-72.3-80.2c-1-1.5-1.9-3-2.9-4.4c-14.6-22.8-27.4-47.1-39.9-70.6
		c-5-9.5-10.3-19.3-15.5-28.9c-19.9-36.3-38.1-64.8-57.3-89.6c-2.6-3.3-5.2-6.6-7.8-9.8c-48.2-58.8-111.1-106-182-136.6
		c-85-36.5-171.6-47.4-244-30.5C35.2,185.7-40.5,248.9-34.3,331.6l-0.3,0c-1.5-20,1.6-39.5,9.3-58.2c7.1-17.2,18-33.5,32.3-48.2
		c26.4-27.3,63.7-48.1,102.3-57.1c38.2-8.9,79.9-10.2,124.2-3.8c39.8,5.7,80.2,17.3,120,34.4c70.9,30.6,133.8,77.8,182.1,136.6
		c2.7,3.2,5.3,6.5,7.8,9.8c19.2,24.8,37.4,53.3,57.3,89.6c5.2,9.6,10.5,19.4,15.5,28.9c12.5,23.5,25.3,47.8,39.9,70.5
		c1,1.5,1.9,3,2.9,4.4c42.8,65,99.1,108.9,163,126.9c63,17.8,135.5,11.5,215.3-18.6c6.7-2.5,13.5-5.3,20.3-8.2
		c67.3-28.6,131.5-72.2,193.6-114.4c3.3-2.2,6.5-4.4,9.8-6.7c8.4-5.7,16.7-11.4,24.9-16.9c65.2-44.5,126.7-86.5,195.6-111.6
		c22.2-8.2,42-12.7,60.4-14c23-1.6,44.2,2.2,62.9,11.2c16.1,7.8,32.2,19.7,49.1,36.4c15,14.8,28.8,31.2,42.1,47.2
		c7.8,9.3,15.2,18.2,22.6,26.4c70.2,78.3,143.4,162.5,223.6,257.6L1942,754.3z"/>
	<path class="st1" d="M1939,751.7c-73.2-88.6-147-176.2-219.4-260.5c-7.4-8.5-14.7-17.7-22.4-27.4c-25.1-31.6-53.6-67.3-89.2-84.3
		c-33.9-16.2-74.2-13.6-123.2,7.8c-58.3,25.4-109.8,62.8-164.4,102.3c-17.1,12.4-34.8,25.2-52.6,37.6
		c-31.1,21.6-64.8,44.5-100.1,65.3c-37.8,22.3-72.3,39.2-105.5,51.6c-7,2.6-14,5.1-20.9,7.3c-38.1,12.3-75.4,19.3-110.8,20.8
		c-39.2,1.7-76-3.4-109.4-15.2c-61.6-22-115.4-67.9-160-136.6c-1-1.5-1.9-3-2.9-4.5c-13.8-21.8-26.5-44.8-38.7-67
		c-5.8-10.5-11.7-21.3-17.7-31.8c-20.6-36.3-39.2-64.5-58.4-88.8c-2.6-3.3-5.3-6.5-7.9-9.7C486.5,260.3,423.2,213.8,352.1,184
		c-85.5-35.7-172.4-45.6-244.7-27.8C32.6,174.7-41.1,237-37.4,320.3l-0.3,0c-0.9-20,2.7-39.5,10.5-58.2
		c7.3-17.3,18.2-33.5,32.4-48.3c13.4-13.9,29.3-26.1,47.2-36.2c17.4-9.8,35.8-17.1,54.8-21.8c38.1-9.4,79.9-11.2,124.3-5.3
		c39.9,5.3,80.4,16.4,120.5,33.2c71.1,29.8,134.6,76.3,183.4,134.6c2.7,3.2,5.4,6.5,8,9.8c19.3,24.3,37.8,52.5,58.5,88.8
		c6,10.5,11.9,21.4,17.7,31.8c12.2,22.2,24.9,45.2,38.7,67c0.9,1.5,1.9,3,2.9,4.5c44.5,68.6,98.3,114.5,159.9,136.5
		c63.4,22.3,139.4,20.4,219.9-5.6c6.9-2.2,13.9-4.7,20.9-7.3c74.3-27.7,142.3-72.9,205.6-116.9c17.8-12.4,35.5-25.2,52.6-37.5
		c54.6-39.6,106.2-76.9,164.5-102.3c49.1-21.5,89.5-24,123.5-7.8c15.9,7.6,31.8,19.5,48.4,36.5c14.7,14.9,28,31.7,40.9,47.9
		c7.7,9.7,15,18.9,22.4,27.4c72.4,84.3,146.2,171.9,219.4,260.5L1939,751.7z"/>
	<path class="st1" d="M1936,749c-72.1-89.1-144.5-177.7-215.2-263.4c-7.1-8.6-14.2-17.9-21.7-27.8c-24.5-32.3-52.3-68.9-87.8-85.6
		c-34.3-16.1-74.7-11.9-123.5,12.9c-51.1,26-98,62.6-143.3,98.1c-22.8,17.8-46.3,36.2-70.2,53.2c-37.8,26.9-69.7,47.4-100.2,64.5
		c-37.6,21.1-72.8,36.9-107.6,48.2c-7.2,2.3-14.4,4.5-21.5,6.4c-36.9,10-73.2,15.1-108,15.1c-1.9,0-3.8,0-5.8,0
		c-40.1-0.7-77.5-8.2-111-22.5c-16.2-6.9-32.1-15.7-47.1-26.1c-14.2-9.8-28.1-21.3-41.4-34.2c-23.9-23.3-46.3-51.3-68.4-85.8
		c-0.9-1.5-1.9-3-2.8-4.5c-12.8-20.3-24.9-41.6-36.6-62.1c-6.8-11.9-13.8-24.1-20.8-36.1c-21.7-36.8-40.1-63.9-59.6-88
		c-2.6-3.2-5.3-6.5-8-9.7C485.9,244,422,198.2,350.7,169.2c-86.1-34.9-173.2-43.8-245.3-25.1C32,163.2-41.7,226-40.5,309.1l-0.3,0
		c-0.6-38.7,14.8-75.5,44.4-106.4c13.4-14,29.2-26.2,46.9-36.4c17.3-9.9,35.7-17.4,54.7-22.4c38.1-9.9,79.9-12.2,124.4-6.8
		c40,4.8,80.7,15.5,121.1,31.9c71.4,29,135.3,74.8,184.7,132.5c2.7,3.2,5.4,6.4,8.1,9.7c19.5,24.1,37.9,51.3,59.6,88.1
		c7,11.9,14,24.2,20.8,36.1c11.7,20.6,23.8,41.8,36.6,62.1c0.9,1.5,1.9,3,2.8,4.5c46.9,73.2,98.2,121,156.8,146
		c81.1,34.5,166.9,23,224.6,7.4c7.1-1.9,14.3-4.1,21.4-6.4c80-25.9,153.1-73.8,207.8-112.7c24-17,47.5-35.4,70.2-53.2
		c45.4-35.5,92.3-72.2,143.4-98.1c21.8-11.1,41.6-17.9,60.3-20.9c23.2-3.6,44.5-0.9,63.4,7.9c15.9,7.5,31.6,19.5,47.9,36.8
		c14.4,15.2,27.4,32.3,40,48.9c7.5,9.9,14.6,19.2,21.7,27.8c70.7,85.7,143.1,174.3,215.2,263.4L1936,749z"/>
	<path class="st1" d="M1933,746.4l-211.1-266.3c-6.9-8.7-13.7-18.2-21-28.2c-23.9-33.1-51-70.5-86.5-86.9
		c-34.3-15.9-75.9-9.8-123.7,18c-46,26.7-87.9,62.3-128.4,96.7c-26.4,22.4-53.7,45.6-81.8,66c-84.4,61.3-158.1,97.6-232,114
		c-30.7,6.8-60.9,10.3-90.3,10.3c-8.9,0-17.7-0.3-26.4-0.9c-41.1-3-79-13-112.7-29.7c-31.3-15.5-59.8-37.5-87.4-67
		c-22-23.6-43.1-51.8-66.4-88.6c-12.3-19.4-24.2-39.6-35.7-59.2c-26-44.2-53-89.9-86.3-130.1c-51.1-61.7-118.3-110.1-194.1-139.9
		c-86.6-34.1-174-42-246-22.4c-69.7,19-145.4,79-146.8,165.8l-0.3,0c0.6-38.8,16.4-75.6,45.8-106.4c26.5-27.9,62.5-49.1,101.3-59.6
		c38-10.4,79.9-13.2,124.6-8.3c40.1,4.4,81,14.7,121.6,30.7c37.5,14.8,73.2,34.2,105.9,57.8c33,23.8,62.7,51.4,88.3,82.2
		c33.4,40.2,60.3,86,86.3,130.2c11.5,19.5,23.4,39.7,35.7,59.2c34,53.7,82.1,120,153.7,155.5c82,40.8,169.9,33.6,229.2,20.4
		c73.9-16.4,147.6-52.6,231.9-114c28.1-20.4,55.4-43.6,81.8-66c40.5-34.4,82.5-70,128.4-96.7c47.9-27.9,89.6-33.9,123.9-18
		c15.9,7.4,31.4,19.5,47.5,37.1c14.2,15.5,26.8,33,39.1,49.9c7.2,10,14.1,19.5,21,28.2l211.1,266.3L1933,746.4z"/>
	<path class="st1" d="M1931.3,725.9c-53.7-74.1-99.9-134.3-145.1-189.3c-22-26.7-44.4-53-66.7-78.2c-6.7-7.6-13.4-15.7-20.5-24.3
		c-17.8-21.5-36.1-43.8-57.3-60.4c-11.4-8.9-22.3-15.3-33.4-19.5c-34.2-13-74.2-4.4-119.1,25.6c-23.2,15.5-44.4,33.2-62,48.4
		c-18.7,16.1-37.1,33.9-54.9,51.1c-25.6,24.7-52.1,50.3-80.5,72.2c-17.3,13.4-34.9,25.4-52.2,35.6c-34.6,20.4-71.8,37.3-110.4,50
		c-23.9,7.8-47.9,13.7-71.3,17.5c-20.2,3.3-40.4,5.2-60.1,5.6c-29.5,0.7-58.3-1.9-85.4-7.7c-28.9-6.2-56.3-16.1-81.3-29.4
		c-22.3-11.9-43.4-26.8-64.5-45.6c-39.3-35.1-70.6-75.7-93.4-107.2c-11.2-15.5-22.2-31.4-32.8-46.7c-30.6-44.1-59.5-85.7-95.6-122.8
		c-29.5-30.1-63.1-56-100-77.1c-28.3-16.2-59.1-29.5-91.6-39.4c-7.7-2.4-15.6-4.6-23.4-6.5c-33.5-8.5-71.3-14-112.3-16.4
		c-41.3-2.5-77-0.3-109.2,6.6c-18.2,3.9-35.8,10-52.4,18.1c-58.5,28.8-96.1,77-100.5,129.1l-0.4,0c1.2-13.9,4.6-27.6,10.3-40.7
		c5.4-12.4,12.7-24.4,21.9-35.7c17.3-21.2,41-39.6,68.5-53.1c16.6-8.2,34.3-14.3,52.5-18.2c32.2-6.9,67.9-9.1,109.2-6.6
		c41,2.4,78.7,8,112.3,16.4c7.8,2,15.7,4.2,23.4,6.6c32.5,9.9,63.3,23.2,91.6,39.5c36.9,21.1,70.5,47.1,100,77.1
		c36.2,37.1,65,78.8,95.6,122.9c10.6,15.3,21.6,31.1,32.8,46.7c22.9,31.4,54.2,72,93.4,107.1c21,18.8,42.1,33.8,64.4,45.6
		c49,26,105.1,38.5,166.6,37.1c19.7-0.5,39.9-2.4,60.1-5.6c23.4-3.8,47.4-9.7,71.2-17.5c38.6-12.8,75.8-29.6,110.3-50
		c17.3-10.2,34.8-22.2,52.1-35.6c28.4-21.9,54.9-47.5,80.5-72.2c17.8-17.2,36.2-35,54.9-51.1c17.6-15.2,38.8-32.9,62-48.4
		c20-13.4,39.3-22.6,57.5-27.5c22.3-6,43.2-5.4,61.9,1.8c11.2,4.2,22.1,10.6,33.5,19.5c21.2,16.6,39.6,38.8,57.3,60.4
		c7.1,8.6,13.8,16.7,20.5,24.3c22.3,25.2,44.7,51.5,66.7,78.2c45.3,55,91.4,115.2,145.1,189.3L1931.3,725.9z"/>
	<path class="st1" d="M1929.6,705.4c-49.8-75.4-96.6-138.5-143-192.9c-22.6-26.6-46-52.1-69.6-75.9c-6.2-6.3-12.4-12.9-19-19.8
		c-19.6-20.8-39.8-42.3-62.4-57.2c-11.4-7.5-22.4-12.8-33.5-16.1c-42.6-12.5-85.8,11.2-114.6,33.3c-20.4,15.6-39,33.2-57.9,51.4
		c-16.5,15.9-32,33.1-48.5,51.2c-24.4,26.9-49.6,54.8-78.2,78.2c-17,13.9-34.6,26-52.6,35.8c-33.4,18.3-70,32.6-111.8,43.5
		c-23.4,6.1-47.4,10.5-71.3,13c-20.2,2.1-40.3,2.8-59.8,2.2c-29-0.9-57.4-5-84.4-12.1c-28.3-7.5-55.3-18.5-80.3-32.6
		c-21.9-12.4-43-27.7-64.5-46.9c-39.2-34.8-72.7-73.4-97.6-103.1c-9.2-11-18.3-22.1-27-32.8C618.9,382,586,341.7,546,307.8
		c-29.9-25.4-63.5-46.8-99.9-63.8c-27.5-12.8-56.6-22.4-89.1-29.4c-7.5-1.6-15.1-3-22.6-4.3c-33.1-5.4-68.4-7.5-111.1-9.6
		c-30.8-1.6-71.1-2.7-109.8,3.5c-18.3,2.9-36.1,7.8-52.7,14.7C2.2,243.4-37.5,286-45.5,333l-0.4-0.1c2.1-12.5,6.4-24.7,12.7-36.3
		c6-11.1,14-21.7,23.6-31.6c18.2-18.8,42.5-34.8,70.2-46.4c16.7-6.9,34.4-11.9,52.8-14.8c38.8-6.2,79.1-5.1,109.9-3.5
		c42.7,2.1,78.1,4.2,111.2,9.6c7.5,1.2,15.2,2.7,22.7,4.3c32.5,6.9,61.6,16.6,89.2,29.4c36.4,17,70,38.4,99.9,63.8
		c40.1,34,73,74.3,107.9,116.9c8.8,10.7,17.8,21.8,27,32.8c24.8,29.7,58.4,68.3,97.5,103.1c21.5,19.2,42.6,34.5,64.5,46.8
		c49.1,27.8,104.4,42.8,164.5,44.6c19.5,0.6,39.6-0.1,59.7-2.2c23.8-2.5,47.8-6.8,71.2-13c41.8-10.9,78.4-25.2,111.7-43.5
		c17.9-9.8,35.6-21.9,52.5-35.8c28.5-23.4,53.8-51.2,78.2-78.1c16.4-18.1,32-35.3,48.5-51.2c18.9-18.2,37.5-35.8,57.9-51.5
		c18.6-14.3,37-24.6,54.7-30.6c21.4-7.3,41.7-8.2,60.2-2.7c11.2,3.3,22.2,8.5,33.6,16.1c22.7,14.9,42.9,36.4,62.5,57.2
		c6.5,6.9,12.7,13.5,18.9,19.8c23.6,23.8,47,49.4,69.6,75.9c46.4,54.4,93.2,117.5,143,192.9L1929.6,705.4z"/>
	<path class="st1" d="M1927.9,684.9c-46.6-77.7-92.7-141.9-140.8-196.4c-23.3-26.4-47.7-51.2-72.5-73.6c-5.3-4.8-10.8-9.9-16-14.8
		c-21.8-20.3-44.4-41.4-69-54.6c-11.6-6.2-22.6-10.4-33.6-12.7c-42.5-8.7-83.3,17.4-110,40.9c-18.1,15.8-34.7,33.8-50.7,51.2l-3,3.3
		c-14.6,15.8-28.2,33-42.7,51.3c-23,29.1-46.8,59.3-75.3,84c-16.6,14.5-34.4,26.7-53,36.1c-32.3,16.5-68.3,28.2-113.3,37
		c-23.2,4.5-47.2,7.4-71.3,8.4c-20.1,0.8-40.1,0.4-59.4-1.3c-58.5-5.1-113.2-22.7-162.5-52.3c-21.3-12.8-42.4-28.6-64.6-48.1
		c-37.5-33.1-70.8-67.1-101.7-99c-4.1-4.3-8.2-8.5-12.3-12.8c-42.2-43.8-82.1-85.2-129-117.1c-30.6-20.8-64.2-37.8-99.8-50.4
		c-26.1-9.3-54.5-15.6-86.6-19.3c-7.2-0.8-14.6-1.5-21.9-2c-18.3-1.3-37.8-1.5-58.3-1.7c-16.5-0.2-33.6-0.4-51.7-1.1
		c-34.8-1.5-74.3-3.3-110.5,0.4c-18.7,1.9-36.5,5.7-53,11.4c-58.5,20.1-100.4,57-112,98.9l-0.5-0.1c3.1-11,8.2-21.8,15.2-32
		c6.7-9.7,15.2-19,25.2-27.6c19.2-16.4,44.1-30.1,71.9-39.6c16.5-5.7,34.4-9.5,53.1-11.4c36.3-3.7,75.8-1.9,110.6-0.4
		c18,0.7,35.1,0.9,51.6,1.1c20.6,0.2,40,0.4,58.4,1.7c7.3,0.5,14.7,1.2,21.9,2c32.2,3.7,60.5,10,86.7,19.3
		c35.6,12.7,69.2,29.7,99.9,50.5c46.9,31.9,86.8,73.3,129,117.2c4.1,4.2,8.2,8.5,12.3,12.8c30.9,32,64.2,66,101.7,99
		c22.1,19.6,43.2,35.3,64.5,48.1c49.3,29.6,103.9,47.2,162.3,52.2c19.3,1.7,39.3,2.1,59.3,1.3c24-1,48-3.9,71.2-8.4
		c44.9-8.8,80.8-20.5,113.1-36.9c18.5-9.4,36.3-21.6,52.9-36c28.5-24.7,52.3-54.9,75.3-84c14.5-18.3,28.1-35.6,42.7-51.4l3-3.3
		c16-17.4,32.6-35.4,50.8-51.2c26.8-23.5,67.8-49.8,110.4-41c11.1,2.3,22.1,6.4,33.8,12.7c24.7,13.2,47.2,34.3,69.1,54.6
		c5.3,4.9,10.7,10,16,14.8c24.8,22.5,49.2,47.2,72.5,73.6c48.2,54.5,94.2,118.8,140.9,196.5L1927.9,684.9z"/>
	<path class="st1" d="M1926.2,664.5c-42.8-78.8-89.5-146.1-138.7-199.9c-23.9-26.2-49.3-50.2-75.3-71.3c-3.8-3-7.6-6.2-11.3-9.3
		c-24.6-20.2-50.1-41.1-77.3-52.5c-11.7-5-22.7-8-33.7-9.3c-42.3-4.9-80.7,23.7-105.4,48.5c-15.4,15.3-29.2,32.4-42.6,48.9
		c-2.3,2.9-4.6,5.7-7,8.5c-12.8,15.6-24.7,33-37.3,51.5c-21.4,31.3-43.6,63.8-72,90c-16.7,15.4-34.1,27.3-53.4,36.4
		c-40.3,19-80.6,26.1-114.7,30.4c-23.1,3-47,4.3-71.2,3.8c-20-0.4-39.9-2-59.1-4.7c-56.8-8.1-110.7-28.3-160.4-59.9
		c-20.7-13.2-41.8-29.3-64.6-49.4c-23.1-20.2-44.5-39.7-65.3-58.5c-14.1-12.8-27.5-24.9-40.5-36.5c-49.2-43.8-94.3-82.4-147.7-110.1
		c-31.3-16.2-64.8-28.7-99.7-37.1c-25-6-51.7-8.9-84.1-9.2c-7-0.1-14.1,0-21.1,0.2c-10.7,0.3-21.8,1.1-33.5,1.8
		c-22.5,1.5-48,3.1-75.4,2.2c-10.5-0.4-21.1-0.9-31.4-1.4c-26.5-1.3-54-2.6-79.8-1.4c-19,0.9-36.9,3.5-53.3,8
		c-58.4,15.8-102.4,47.1-117.7,83.7L-48,368c4-9.6,9.9-18.9,17.6-27.6c7.4-8.4,16.5-16.3,26.9-23.6c20.2-14,45.6-25.3,73.6-32.9
		c16.5-4.4,34.4-7.1,53.5-8c25.9-1.2,53.3,0.1,79.8,1.4c10.3,0.5,21,1,31.4,1.4c27.4,0.9,52.9-0.7,75.3-2.2
		c11.7-0.8,22.8-1.5,33.5-1.8c7.1-0.2,14.2-0.3,21.2-0.2c32.4,0.3,59.2,3.2,84.2,9.2c34.9,8.4,68.5,20.9,99.8,37.1
		c24.1,12.5,48.5,28.4,74.7,48.5c23.4,18,46.2,37.7,73.2,61.7c13,11.6,26.4,23.7,40.5,36.5c20.8,18.8,42.3,38.3,65.3,58.5
		c22.8,20.1,43.9,36.2,64.6,49.3c49.6,31.6,103.5,51.7,160.2,59.8c19.1,2.7,39,4.3,59,4.7c24.2,0.4,48.1-0.9,71.1-3.8
		c34.1-4.4,74.3-11.4,114.5-30.4c19.2-9.1,36.7-20.9,53.3-36.3c28.3-26.2,50.5-58.6,71.9-89.9c12.6-18.5,24.6-35.9,37.3-51.5
		c2.3-2.8,4.6-5.7,7-8.5c13.4-16.5,27.3-33.6,42.7-48.9c16.1-16.2,32.6-28.6,49.1-36.9c19.5-9.9,38.6-13.8,56.8-11.7
		c11.1,1.3,22.2,4.3,33.9,9.3c27.2,11.5,52.7,32.4,77.4,52.6c3.7,3.1,7.6,6.2,11.3,9.3c26.1,21.1,51.5,45.1,75.4,71.4
		c26.1,28.6,51.7,61.2,76.1,96.8c21.5,31.5,42.6,66.2,62.7,103.3L1926.2,664.5z"/>
	<path class="st1" d="M1924.5,644c-39.6-81.1-85.6-149.6-136.6-203.5c-24.6-26.1-50.9-49.3-78.2-69c-1.3-0.9-2.6-1.9-3.9-2.8
		c-28.4-20.5-57.8-41.8-88.3-51.3c-11.8-3.7-22.9-5.6-33.8-5.9c-42.2-1-78.2,30-100.9,56.1c-13.4,15.3-25.3,32.1-36.8,48.3
		c-2.8,4-5.8,8.2-8.7,12.2c-11,15.4-21.3,32.9-32.2,51.4c-19.8,33.7-40.2,68.5-68.4,96.1c-16.3,16-33.9,28-53.8,36.7
		c-39.2,17.1-79,21.6-116.2,23.9c-22.9,1.4-46.9,1.2-71.2-0.7c-20-1.6-39.7-4.4-58.7-8.2c-54.8-11-108.1-33.7-158.2-67.5
		c-20.1-13.5-40.6-29.6-64.7-50.6c-45.7-39.8-79.5-67.9-109.9-90.9c-60.4-45.9-106.5-72.9-154.1-90.2
		c-31.9-11.6-65.4-19.6-99.6-23.8c-23.7-2.9-48.9-2.6-81.6,0.8c-6.7,0.7-13.6,1.6-20.4,2.5c-6.4,0.9-13,2-19.9,3.1
		c-25.6,4.1-54.6,8.7-87.8,7.8c-17.5-0.5-35.4-1.7-52.7-2.9c-19.7-1.4-40-2.8-59.2-3c-19.3-0.2-37.4,1.4-53.7,4.6
		c-58.2,11.6-104.4,37.3-123.5,68.6l-0.5-0.3c5-8.2,11.7-16,20.1-23.3c8.1-7,17.7-13.6,28.6-19.5c21.2-11.5,47.2-20.5,75.2-26.1
		c16.3-3.2,34.4-4.8,53.8-4.6c19.3,0.2,39.6,1.6,59.3,3c17.3,1.2,35.2,2.4,52.7,2.9c33.2,0.9,62.1-3.8,87.7-7.8
		c6.9-1.1,13.5-2.1,19.9-3.1c6.8-1,13.7-1.8,20.4-2.5c32.8-3.5,58-3.7,81.7-0.8c34.2,4.1,67.8,12.2,99.7,23.8
		c47.7,17.4,93.8,44.4,154.3,90.3c30.4,23.1,64.3,51.1,109.9,90.9c24,21,44.5,37.1,64.6,50.6c50.1,33.7,103.3,56.4,158,67.4
		c18.9,3.8,38.7,6.5,58.6,8.2c24.3,1.9,48.2,2.1,71.1,0.7c37.1-2.3,76.8-6.8,116-23.8c19.8-8.6,37.4-20.6,53.6-36.5
		c28.2-27.6,48.6-62.3,68.3-96c10.9-18.5,21.2-36,32.2-51.4c2.9-4,5.8-8.2,8.7-12.2c11.5-16.2,23.4-33,36.8-48.3
		c14.8-17.1,30.4-30.6,46.2-40.1c18.6-11.2,37.1-16.7,55.1-16.3c11,0.2,22.1,2.2,34,5.9c30.6,9.6,60,30.9,88.5,51.4
		c1.3,0.9,2.6,1.9,3.9,2.8c27.4,19.7,53.7,43,78.3,69.1c51,54,97,122.5,136.7,203.6L1924.5,644z"/>
	<path class="st1" d="M1180.8,635.8c-1.6,0-3.1,0-4.7,0c-22.8-0.1-46.7-1.9-71.1-5.3c-19.9-2.8-39.5-6.7-58.3-11.6
		c-26.8-7-53.8-16.9-80.1-29.7c-25.4-12.3-51-27.6-76-45.4C866,526.4,843,507,825.8,492c-40.3-35-78.7-64.2-114-86.8
		c-57.2-36.7-108.2-59.1-160.5-70.4c-31.5-6.8-65.4-10.4-98-10.4c-0.5,0-1,0-1.5,0c-28,0.1-54.6,5.3-79.1,10.9
		c-6.4,1.5-13,3.1-19.6,4.8c-3.6,0.9-7.3,1.9-11.1,2.9c-27.2,7.2-58.1,15.5-95.5,14.8c-22.8-0.4-46.1-2.8-68.7-5.1
		c-14.6-1.5-29.6-3-44-3.9c-19.7-1.3-37.9-0.9-54,1.2c-57.9,7.5-106.2,27.5-129.3,53.6L-50,403c11.8-13.4,29.6-25,52.8-34.4
		c22.2-9,48.8-15.7,76.9-19.4c16.1-2.1,34.3-2.5,54.1-1.2c14.4,0.9,29.4,2.5,44,3.9c22.5,2.3,45.8,4.6,68.6,5.1
		c37.4,0.7,68.2-7.5,95.3-14.8c3.9-1,7.5-2,11.2-2.9c6.6-1.7,13.3-3.3,19.7-4.8c24.6-5.6,51.2-10.8,79.3-10.9
		c33.1-0.1,67.5,3.5,99.6,10.5c27,5.9,53.1,14.5,80,26.3c25.8,11.4,52.3,25.9,80.8,44.2c35.4,22.7,73.8,51.9,114.1,86.9
		c17.2,15,40.1,34.4,64.6,51.8c50.8,36.1,103.3,61.3,155.9,75c18.8,4.9,38.4,8.8,58.2,11.6c24.4,3.4,48.3,5.2,71.1,5.3
		c35.6,0.1,77-1.1,117.4-17.3c20.4-8.2,38.1-20.3,54-36.8c28-29,46.5-66.2,64.4-102.2c9.2-18.5,17.9-36,27.4-51.2
		c3-4.9,6.1-9.8,9.1-14.7c10-16.3,20.3-33.2,32.3-48.8c13.6-18,28.2-32.5,43.4-43.3c17.6-12.5,35.6-19.5,53.4-20.8
		c11-0.8,22.2,0,34.1,2.5c32,6.6,63.7,25.8,96.1,46.6c28.2,18.1,56.3,41.2,81.2,66.8c27.7,28.3,53.7,61.6,77.3,98.8
		c21,33.2,40.3,69.6,57.3,108.5l-0.6,0.3c-36.4-83.4-81.7-153-134.4-207c-24.9-25.5-52.9-48.6-81.1-66.7
		c-32.3-20.8-63.9-39.9-95.8-46.5c-11.9-2.5-23-3.3-33.9-2.5c-32.7,2.4-67,25-96.4,63.8c-11.9,15.6-22.2,32.4-32.2,48.8
		c-3,4.8-6,9.8-9.1,14.7c-9.5,15.1-18.2,32.6-27.4,51.1c-8.8,17.7-17.9,35.9-28.3,53.5c-11.8,19.9-23.7,35.9-36.2,48.9
		c-16,16.6-33.7,28.7-54.3,36.9c-18.1,7.3-37.5,12.1-59.5,14.7C1215.7,635.4,1197,635.8,1180.8,635.8z"/>
	<path class="st1" d="M1226,637.2c-14.4,0-28.2-0.9-40.6-1.7c-22.7-1.6-46.7-4.9-71.1-9.8c-19.8-4.1-39.3-9.1-57.9-15.1
		c-51-16.2-101.4-43.3-154-82.7c-22.9-17.2-44.6-35.6-64.7-53.1c-39.8-34.3-79.6-62.2-118.1-82.8c-56.7-30.3-109.7-46.4-166.9-50.6
		c-32.6-2.4-66.9-1.4-99.4,2.9c-27.1,3.6-52.7,12.3-76.6,21c-6,2.2-12.3,4.5-18.9,7c-1.6,0.6-3.3,1.3-5,1.9
		c-27.5,10.6-58.6,22.7-98.6,22.7c-0.7,0-1.3,0-2,0c-27-0.3-54.6-4.1-81.3-7.9c-10.6-1.5-21.5-3-32-4.2c-20.5-2.4-38.3-3.1-54.3-2.2
		C26.2,386-23,400.1-50.5,421l-0.5-0.6c13.6-10.4,33.3-19.4,56.8-26.1c23.2-6.6,50.4-10.9,78.6-12.6c16.1-1,33.9-0.2,54.4,2.2
		c10.5,1.2,21.5,2.8,32,4.2c26.7,3.7,54.2,7.6,81.2,7.9c40.8,0.4,72.4-11.8,100.3-22.6c1.7-0.6,3.3-1.3,5-1.9
		c6.6-2.5,12.9-4.9,18.9-7c23.9-8.6,49.6-17.4,76.8-21c32.5-4.3,66.9-5.3,99.5-2.9c28.3,2.1,55.4,7.1,82.6,15.3
		c28.1,8.4,55.7,20,84.6,35.4c38.6,20.6,78.4,48.5,118.3,82.9c20.2,17.4,41.8,35.9,64.7,53.1c52.5,39.3,102.8,66.3,153.7,82.5
		c18.6,5.9,38.1,11,57.8,15c24.4,4.9,48.3,8.2,71,9.8c38.2,2.7,78.8,4.1,118.8-10.8c21-7.8,38.8-19.9,54.4-37
		c27.7-30.5,45-72,60.2-108.7c7.7-18.4,14.9-35.9,22.9-50.7c2.9-5.4,5.8-10.9,8.6-16.3c8.8-16.8,17.8-34.1,28.6-50.3
		c12.4-18.9,26.1-34.5,40.6-46.5c16.7-13.8,34.1-22.3,51.7-25.3c11-1.9,22.2-2.2,34.2-0.9c33.6,3.5,67.8,20.8,99.7,39
		c29.5,16.8,58.6,39.1,84.1,64.5c28.5,28.2,54.7,61.8,77.9,99.7c20.8,34,39.1,71.3,54.5,111.1l-0.7,0.3
		c-32.7-84.4-78.5-157.2-132.3-210.5c-25.5-25.4-54.6-47.6-84-64.4c-31.8-18.1-65.9-35.4-99.4-38.9c-12-1.2-23.1-0.9-34,0.9
		c-32.5,5.5-65.1,30.9-91.8,71.4c-10.7,16.1-19.8,33.5-28.5,50.2c-2.8,5.4-5.7,10.9-8.6,16.3c-8,14.8-15.2,32.2-22.9,50.6
		c-15.3,36.7-32.6,78.3-60.4,108.9c-15.7,17.2-33.6,29.4-54.7,37.2c-18.3,6.8-38.1,10.7-60.5,12
		C1237.9,637.1,1231.9,637.2,1226,637.2z"/>
	<path class="st1" d="M1254.4,640.3c-0.2,0-0.4,0-0.6,0c-20.3,0-40.3-2.5-59-5.1c-22.7-3.1-46.6-7.9-71.1-14.4
		c-19.7-5.3-39.1-11.5-57.6-18.5c-49-18.6-97.2-47.2-151.8-90.2c-19.7-15.5-39-32.2-57.7-48.3c-2.3-2-4.7-4-7-6
		c-40-34.3-81.2-60.8-122.2-78.7c-56.2-24.5-112.9-34.6-173.3-30.8c-33.1,2-67.5,7.6-99.3,16.2c-25.1,6.7-47.5,17.6-74.1,31
		c-5.4,2.7-11.2,5.7-18.1,9.3l-0.4,0.2c-13.5,7-28.7,14.9-45.8,21c-19.7,6.9-38.7,10.3-58.3,10.2c-30.5-0.1-61.6-5.7-91.7-11.2
		c-7.4-1.3-15-2.7-22.4-4c-21.1-3.6-39-5.4-54.6-5.6c-57.6-0.5-109,8-140.8,23.4l-0.4-0.8c15.6-7.5,36.7-13.7,60.9-17.7
		c24.3-4,52-6.1,80.3-5.8c15.7,0.1,33.6,2,54.8,5.6c7.4,1.3,15,2.6,22.4,4c30.1,5.5,61.1,11.1,91.5,11.2c0.1,0,0.3,0,0.4,0
		c43.5,0,76.7-17.2,103.3-31.1l0.4-0.2c7-3.6,12.7-6.6,18.1-9.3c26.7-13.5,49.1-24.3,74.3-31.1c31.9-8.6,66.3-14.2,99.4-16.2
		c29.6-1.8,57.4-0.4,85.2,4.3c30,5.1,58.9,13.8,88.4,26.7c41.1,17.9,82.3,44.4,122.4,78.8c2.3,2,4.7,4,7,6.1
		c18.7,16.1,38.1,32.8,57.7,48.3c54.5,43,102.7,71.6,151.6,90.1c18.4,7,37.8,13.2,57.5,18.5c24.4,6.5,48.3,11.3,71,14.4
		c40.6,5.5,80.3,9.3,120.1-4.2c21.6-7.4,39.5-19.5,54.8-37.2c27.5-32,42.5-76.2,55.8-115.3c6.2-18.3,12.1-35.6,18.7-50.1
		c2.5-5.6,5.1-11.4,7.6-17c7.7-17.5,15.7-35.5,25.5-52.6c11.3-19.8,24-36.5,37.8-49.7c15.8-15,32.6-25.1,50-29.8
		c10.8-2.9,21.8-4.3,33.6-4.3c0.2,0,0.5,0,0.8,0c36.7,0.2,74.5,16.9,103.4,31.4c30.7,15.5,60.8,37,87,62.2
		c29.2,28.1,55.6,62,78.5,100.7c20.5,34.8,38,73,51.8,113.7l-0.8,0.3c-20.6-60.4-59.9-146.6-130.1-214.1
		c-26.2-25.2-56.2-46.7-86.8-62.1c-28.8-14.5-66.4-31.1-103-31.3c-12-0.1-23.2,1.3-34.1,4.3c-32.2,8.7-63.2,36.8-87.3,79
		c-9.8,17-17.7,35-25.4,52.5c-2.5,5.6-5,11.4-7.6,17c-6.6,14.5-12.5,31.7-18.7,50c-13.3,39.1-28.3,83.5-55.9,115.6
		c-15.3,17.8-33.3,30.1-55.1,37.5C1296.9,637.2,1276.9,640.3,1254.4,640.3z"/>
	<path class="st1" d="M1276.9,644.2c-4.4,0-8.8-0.1-13.4-0.4c-20.1-1.2-39.5-4.9-59.4-8.9c-23-4.6-46.3-10.8-71.1-19
		c-19.6-6.5-38.9-13.9-57.2-22c-46.5-20.5-92.7-50.7-149.7-97.8c-14.2-11.7-28.3-24-42-35.9c-7.5-6.5-15.2-13.2-22.8-19.7
		c-40.5-34.6-83-59.7-126.3-74.6c-57.2-19.8-116-23.4-179.7-11.1c-33.7,6.5-68,16.7-99.2,29.5c-25.1,10.3-46.9,24.7-70.1,40
		l-1.6,1.1c-3.6,2.4-7.3,4.8-11,7.3c-2.1,1.4-4.3,2.8-6.4,4.3c-13.5,9-28.1,18.4-44.8,25.6c-19.4,8.4-38.6,12.5-58.7,12.6
		c-33.4,0.2-67.5-7.6-100.5-15.1c-4.7-1.1-9.6-2.2-14.3-3.2c-22.1-4.9-39.6-7.8-55-8.9c-56.6-4.3-110.1-1.3-146.6,8.3l-0.2-0.9
		c36.7-9.6,90.2-12.7,146.9-8.4c15.4,1.2,32.9,4,55.1,9c4.7,1.1,9.6,2.2,14.3,3.2c32.6,7.4,66.2,15.1,99.2,15.1c0.4,0,0.7,0,1.1,0
		c42.7-0.2,73-18.2,102.9-38.1c2.2-1.4,4.3-2.9,6.4-4.3c3.7-2.5,7.3-4.9,11-7.3l1.6-1.1c23.2-15.3,45-29.8,70.2-40.1
		c31.3-12.8,65.6-23,99.4-29.6c63.9-12.3,122.8-8.7,180.2,11.1c43.4,15,86,40.2,126.6,74.8c7.6,6.5,15.3,13.2,22.8,19.7
		c13.7,11.9,27.8,24.2,42,35.9c57,47.1,103.1,77.2,149.5,97.7c18.3,8.1,37.5,15.5,57.1,21.9c24.8,8.1,48,14.3,71,18.9
		c34.9,7,78.3,15.8,121.5,2.3c22.2-6.9,40.3-19.2,55.1-37.5c27.2-33.5,39.8-80.6,51-122.1c4.8-18.1,9.4-35.1,14.8-49.3
		c2.1-5.5,4.2-11.2,6.2-16.7c6.8-18.5,13.7-37.6,22.7-55.8c10.1-20.7,21.9-38.5,35-52.9c14.9-16.3,31.1-27.8,48.2-34.2
		c11-4.1,22.3-6.6,34.5-7.7c16.3-1.5,33.7,0.1,53.2,4.8c16.4,4,34.1,10.2,53.9,18.9c32,14.1,63.1,34.9,90,60
		c30,27.9,56.6,62.2,79.1,101.7c20.3,35.6,36.8,74.7,49.1,116.3l-0.9,0.3c-26-87.7-71.4-164.9-128-217.6
		c-26.8-25-57.8-45.7-89.7-59.8c-42.7-18.9-76.6-26.4-106.6-23.7c-12.1,1.1-23.3,3.6-34.2,7.7c-40.8,15.2-67.5,55.5-82.7,86.6
		c-8.9,18.1-15.9,37.3-22.7,55.7c-2,5.5-4.1,11.2-6.2,16.7c-5.3,14.1-9.9,31.1-14.7,49.2c-11.2,41.6-23.8,88.8-51.2,122.5
		c-15,18.4-33.2,30.8-55.6,37.8C1310.9,641.9,1294.7,644.2,1276.9,644.2z"/>
	<path class="st1" d="M1296.5,648.8c-29.8,0-58.5-7.7-83-14.2c-23.1-6.2-46.3-13.9-71-23.5c-19.5-7.7-38.6-16.2-56.8-25.4
		c-54.5-27.5-103.1-66.9-147.5-105.4c-9.1-7.9-18.2-16-27.1-23.8c-12.3-10.9-25-22.1-37.8-33c-41.1-34.9-85-58.7-130.4-70.6
		c-58.7-15.4-119.6-12.6-186.1,8.7c-34.2,11-68.5,25.8-99.1,42.8c-23.6,13.2-43.5,29.8-64.7,47.4c-1.5,1.2-3,2.5-4.5,3.7l-0.8,0.7
		c-5.1,4.3-10.4,8.7-15.8,13.1c-12.9,10.7-27.1,21.7-43.5,30.2c-19.1,9.8-38.3,14.7-58.8,14.9c-36,0.4-72.6-9.7-108.1-19.4
		c-2.5-0.7-5-1.4-7.4-2c-23.4-6.4-40.4-10.2-55.3-12.3c-55.2-7.9-110.8-10.3-152.5-6.8l-0.1-1c41.7-3.6,97.4-1.1,152.7,6.8
		c14.9,2.1,32,5.9,55.4,12.3c2.5,0.7,4.9,1.4,7.4,2c35.4,9.8,72,19.8,107.8,19.4c44.5-0.6,75.8-23.5,101.7-44.9
		c5.4-4.4,10.7-8.9,15.8-13.1l0.8-0.7c1.5-1.3,3-2.5,4.5-3.7c21.2-17.6,41.2-34.3,64.8-47.5c30.6-17.1,65-31.9,99.3-42.9
		c31.5-10.1,61.2-15.9,90.5-17.8c32.8-2.1,65.1,0.9,96.1,9.1c45.5,12,89.5,35.8,130.8,70.8c12.8,10.9,25.5,22.1,37.8,33
		c8.9,7.8,18,15.9,27.1,23.8c44.4,38.5,92.9,77.9,147.3,105.3c18.2,9.2,37.3,17.7,56.7,25.4c24.7,9.7,47.9,17.4,70.9,23.5
		c35.4,9.4,79.4,21.2,122.9,8.8c22.8-6.5,41-18.8,55.5-37.7c26.9-35.1,37-85.1,45.9-129.2c3.6-17.7,7-34.5,11.1-48.2
		c1.5-5.1,3.1-10.3,4.6-15.4c5.8-19.9,11.9-40.4,20.2-60.1c9-21.6,19.8-40.5,32.2-56.1c13.9-17.6,29.6-30.6,46.5-38.7
		c11-5.3,22.3-8.9,34.6-11.2c16.6-3,35-2.9,54.7,0.3c17.2,2.8,36.1,8.1,56.1,15.8c33.2,12.8,65.3,32.7,92.9,57.7
		c30.8,27.8,57.6,62.4,79.8,102.7c20,36.5,35.6,76.5,46.3,118.9l-1,0.2c-22.8-89.9-67.5-168.4-125.8-221.1
		c-27.5-24.9-59.5-44.8-92.6-57.5c-42.9-16.5-78.9-21.8-110.2-16.1c-12.2,2.2-23.5,5.9-34.3,11.1c-40.2,19.3-64.7,61.9-78.2,94.3
		c-8.2,19.7-14.3,40.2-20.1,60c-1.5,5.1-3,10.3-4.6,15.4c-4.2,13.7-7.5,30.4-11.1,48.1c-4.3,21.2-9.1,45.3-16.2,67.8
		c-8.1,25.8-17.9,46-29.9,61.8c-7,9.1-15,16.8-23.9,23c-9.5,6.6-20.3,11.7-32.1,15.1C1323.4,647.3,1309.8,648.8,1296.5,648.8z"/>
	<path class="st1" d="M1314.1,653.8c-9.9,0-20.2-1-31.1-2.9c-21.5-3.8-42.1-10.6-60.2-16.6c-22.9-7.6-46.8-17.1-71-28.1
		c-19.4-8.9-38.4-18.6-56.4-28.9c-51.9-29.4-96.5-68.6-145.4-113c-4.3-3.9-8.8-8-13-11.9c-16.8-15.3-34.2-31.2-51.8-46.2
		c-41.8-35.3-87-57.7-134.4-66.5c-59.8-11.1-124.6-1.5-192.5,28.5c-34.9,15.4-69.1,34.8-99,56.2c-22.5,16.1-41.1,35-60.7,55.1
		c-2,2-4,4.1-6,6.1c-5,5.1-10.4,10.6-15.9,16.1c-11.5,11.6-25.5,24.7-42.3,34.7c-18.8,11.2-38,16.9-58.9,17.3
		c-38.2,0.8-77.1-11.9-114.8-24.1l-1.4-0.5c-18.4-6-37.9-12-55.6-15.7c-53.9-11.2-110.1-19-158.3-21.9l0.1-1.1
		c48.2,2.9,104.4,10.7,158.4,21.9c17.7,3.7,37.3,9.7,55.7,15.7l1.4,0.5c37.5,12.2,76.4,24.8,114.4,24.1
		c43.9-0.9,74.3-25.4,100.5-51.7c5.5-5.5,10.9-11,15.9-16.1c2-2,4-4.1,6-6.1c19.7-20.1,38.2-39.1,60.8-55.2
		c30-21.4,64.3-40.8,99.2-56.3c31.9-14.1,63.2-23.8,93.2-28.8c34.3-5.8,67.9-5.7,99.9,0.3c47.6,8.8,93,31.3,134.9,66.7
		c17.7,15,35.1,30.9,51.9,46.2c4.3,3.9,8.7,7.9,13,11.9c48.8,44.4,93.5,83.5,145.2,112.9c18,10.3,37,20,56.4,28.8
		c24.2,11,48,20.5,70.9,28.1c35.8,11.9,80.4,26.7,124.3,15.4c23.4-6.1,41.7-18.5,55.9-37.9c26.7-36.7,34.4-92,40.6-136.4
		c2.4-17.3,4.7-33.7,7.8-47c1-4.2,1.9-8.5,2.9-12.7c4.9-21.7,10.1-44.2,17.7-65.9c11.8-33.8,34.3-79,74.2-102.5
		c11-6.5,22.4-11.2,34.7-14.6c32.3-8.8,70.8-6,114.4,8.5c34.4,11.5,67.6,30.6,95.8,55.4c31.6,27.7,58.6,62.6,80.4,103.7
		c10,18.9,18.8,39,26.2,59.9c7.1,19.9,12.9,40.7,17.4,61.6l-1,0.2c-19.6-92.1-63.5-171.9-123.7-224.6
		c-28.1-24.7-61.1-43.8-95.4-55.2c-43.4-14.4-81.6-17.3-113.8-8.5c-12.3,3.3-23.5,8-34.5,14.5c-39.6,23.3-61.9,68.3-73.7,101.9
		c-7.6,21.7-12.7,44.1-17.7,65.8c-0.9,4.2-1.9,8.5-2.9,12.7c-3.1,13.3-5.3,29.6-7.8,46.9c-3.1,22.4-6.7,47.7-12.7,71.6
		c-6.9,27.5-16.1,48.8-28.1,65.3c-6.8,9.4-14.8,17.3-23.7,23.5c-9.6,6.7-20.6,11.7-32.8,14.8
		C1337.1,652.4,1325.9,653.8,1314.1,653.8z"/>
	<path class="st1" d="M1330.4,659c-11.8,0-24.3-1.5-37.6-4.6c-21.6-5-42.3-13.2-60.6-20.5c-23.1-9.2-46.9-20.2-71-32.7
		c-19.3-10.1-38.1-21-56.1-32.3c-49.4-31.3-91.7-71.6-136.6-114.2c-2.2-2.1-4.4-4.2-6.7-6.3c-20.9-19.8-42.4-40.3-64.9-59.3
		c-42.5-35.8-89.1-56.8-138.5-62.4c-62-7.1-128.9,9.1-198.9,48.3c-35,19.6-70.1,44.2-98.9,69.5c-21.7,19-39.2,40.5-57.6,63.2
		c-2.2,2.7-4.4,5.4-6.6,8.1c-4.4,5.4-9.7,11.8-15.2,18.4c-10.2,12.2-24,27.6-41.1,39.3c-18.5,12.6-37.8,19-59.1,19.6
		c-17.5,0.4-36.8-2.3-59-8.3c-19.1-5.1-37.5-11.9-57.9-19.5c-18.6-7-38.3-14.3-55.9-19.1C56,531.9,0.8,519.4-55.8,509.1l0.2-1.1
		C1,518.3,56.3,530.8,108.6,545c17.7,4.8,37.4,12.1,56,19.1c34.2,12.8,76.8,28.6,116.5,27.7c45.4-1.3,74.6-28.9,99.3-58.5
		c5.5-6.5,10.7-13,15.1-18.4c2.2-2.7,4.4-5.4,6.6-8.1c18.5-22.7,36-44.2,57.8-63.3c28.8-25.3,64-50,99.1-69.6
		c70.2-39.2,137.3-55.5,199.6-48.4c23.9,2.7,47.3,9.1,69.7,18.9c24,10.5,47.4,25.2,69.4,43.8c22.5,19,44.1,39.5,64.9,59.3
		c2.2,2.1,4.4,4.2,6.7,6.3c44.8,42.6,87.1,82.9,136.4,114.1c17.9,11.4,36.8,22.2,56,32.3c24,12.5,47.8,23.5,70.9,32.6
		c36.2,14.4,81.2,32.3,125.7,21.9c24.1-5.6,42.5-18.1,56.2-38.2c26.4-38.3,31.1-96.8,34.9-143.8c1.3-16.8,2.6-32.7,4.7-45.5
		c0.4-2.6,0.9-5.3,1.3-8c4-24.2,8-49.2,15.2-73.6c10.2-35.1,30.5-82.7,69.6-110.1c10.9-7.6,22.3-13.5,34.8-18
		c17.4-6.3,36.8-9.2,57.7-8.7c19,0.4,39.3,3.6,60.4,9.6c35.7,10.1,69.8,28.5,98.7,53.1c32.3,27.5,59.6,62.8,81,104.7
		c9.8,19.2,18.3,39.8,25.3,61.1c6.6,20.4,11.9,41.6,15.6,62.9l-1.1,0.2c-16.1-93-60.4-176.1-121.5-228.1
		c-28.8-24.5-62.8-42.8-98.3-52.9c-43.8-12.4-84.4-12.7-117.3-0.9c-12.4,4.4-23.7,10.3-34.6,17.9c-38.9,27.2-59.1,74.6-69.2,109.5
		c-7.1,24.3-11.2,49.3-15.1,73.5c-0.4,2.7-0.9,5.3-1.3,8c-2.1,12.8-3.4,28.7-4.7,45.4c-3.8,47.1-8.5,105.8-35.1,144.4
		c-6.6,9.7-14.5,17.8-23.5,24c-9.7,6.8-20.9,11.7-33.4,14.6C1349.5,658,1340.2,659,1330.4,659z"/>
	<path class="st1" d="M1345.6,664.5c-13.5,0-27.7-2.2-43.1-6.5c-21.8-6.2-42.6-15.8-61.1-24.4c-23.3-10.8-47.1-23.3-70.9-37.2
		c-19.1-11.2-37.9-23.3-55.7-35.8c-43.9-30.7-81.5-68.4-121.2-108.3c-6.5-6.5-13.2-13.3-19.9-19.9c-23.4-23.3-43.4-42.5-64.9-60.5
		c-43.3-36.2-91.3-55.9-142.6-58.4c-64.5-3.1-133.6,19.8-205.3,68c-35.6,24-70.7,53.4-98.8,82.8c-21.2,22.2-37.7,46.3-55.2,71.8
		c-2.2,3.2-4.3,6.3-6.5,9.5c-3.9,5.7-9.1,13.1-14.4,20.6c-22.4,31.6-51.8,64.1-99.1,65.8c-1.5,0-3,0.1-4.4,0.1
		c-36.9,0-74.6-14.6-113.2-30.9l-2.4-1c-19.1-8.2-37.2-15.8-53.9-21.5c-63-21.1-123.9-38.9-169.9-52.1l0.3-1.2
		c46,13.2,106.9,31,169.9,52.1c16.8,5.6,34.8,13.3,54,21.5l2.4,1c40,16.9,79,32,117.1,30.8c46.8-1.6,75.8-33.9,98.1-65.3
		c5.3-7.5,10.5-14.9,14.4-20.6c2.2-3.2,4.4-6.3,6.5-9.5c17.5-25.6,34.1-49.7,55.3-71.9c28.1-29.5,63.3-58.9,99-83
		c33.1-22.3,66.3-39.4,98.5-50.9c37-13.2,73.2-19,107.5-17.3c51.6,2.5,99.8,22.2,143.3,58.6c21.5,18,41.5,37.3,65,60.6
		c6.7,6.6,13.4,13.4,19.9,19.9c39.7,39.8,77.2,77.5,121.1,108.2c17.8,12.5,36.5,24.5,55.6,35.7c23.8,13.9,47.6,26.4,70.8,37.2
		c36.5,16.9,81.9,37.9,127.1,28.4c24.7-5.2,43.2-17.7,56.6-38.4c26.1-40,27.7-101.8,28.9-151.5c0.4-16.2,0.8-31.5,2-43.8l0-0.3
		c2.8-27.6,5.7-56.2,12.3-84.3c5.7-24.6,13.7-46.7,23.7-65.7c11.3-21.4,25.2-39,41.3-52.1c10.8-8.8,22.2-15.8,35-21.4
		c34.3-15.2,76.4-17.5,121.7-6.8c18.2,4.3,36.2,10.9,53.4,19.5c17.3,8.7,33.5,19.2,48.2,31.4c33.1,27.4,60.6,63,81.6,105.7
		c18.9,38.4,32.1,82.2,38.2,126.7l-1.2,0.2c-13-95.2-56.5-179.6-119.3-231.6c-29.4-24.4-64.4-41.9-101.2-50.6
		c-45-10.7-86.8-8.4-120.9,6.7c-12.6,5.5-24,12.5-34.7,21.2c-30.2,24.6-52.5,65.1-64.6,117.2c-6.6,28.1-9.5,56.6-12.3,84.2l0,0.3
		c-1.2,12.3-1.6,27.6-2.1,43.7c-1.3,49.8-2.8,111.8-29.1,152.1c-6.4,10-14.3,18.2-23.3,24.6c-9.7,6.8-21.2,11.7-34,14.3
		C1361.7,663.7,1353.8,664.5,1345.6,664.5z"/>
	<path class="st1" d="M287.8,671.4c-16.5,0-34.5-3.2-54.8-9.8c-20.2-6.5-40.1-15.5-58.7-24.3c-3.4-1.6-6.7-3.2-10-4.8
		c-16.5-7.9-32-15.3-46.6-21.1c-58-23.1-113.3-43.8-166.8-63.9l-8.9-3.3l0.4-1.2l8.9,3.3c53.5,20.1,108.8,40.8,166.8,63.9
		c14.6,5.8,30.2,13.3,46.7,21.1c3.3,1.6,6.6,3.2,10,4.8c38.1,18,78.5,35.4,117.8,33.9c48.2-2,77.1-39.6,96.9-72.1
		c5.1-8.3,10-16.6,13.6-22.9c2-3.5,4.1-6.9,6.1-10.4c16.7-28.6,32.5-55.7,53.3-81.2c27.4-33.6,62.6-67.8,98.9-96.3
		c33.7-26.4,67.8-47.3,101.2-62c38.3-16.9,75.8-25.7,111.3-26.1c53.4-0.8,103.1,17.6,147.5,54.6c24.6,20.5,46.7,42.8,65.1,61.8
		c10,10.4,20,21,29.6,31.2c34.2,36.4,69.5,73.9,109.2,104.4c17.7,13.6,36.3,26.8,55.2,39.2c23.4,15.3,47.3,29.3,70.8,41.7
		c36.8,19.4,82.5,43.5,128.5,34.9c25.3-4.7,43.9-17.3,56.9-38.6c25.7-41.9,24-107,22.6-159.4c-0.4-15.5-0.8-30.1-0.3-41.9
		c1.1-26.6,2.7-57.4,8.2-87.6c4.7-25.6,11.7-48.8,20.9-68.9c10.4-22.7,23.7-41.8,39.6-56.6c10.5-9.8,22.3-18.2,35.1-24.8
		c18.2-9.5,38.6-15.5,60.6-17.7c20.7-2.1,42.4-1,64.7,3.3c18.8,3.7,37.3,9.7,55.1,17.9c17.9,8.3,34.5,18.6,49.5,30.6
		c17.3,13.9,33.1,30.3,47.2,48.7c13.3,17.5,25.1,37,35,58c18.6,39.2,30.9,84,35.4,129.3l-1.3,0.1c-9.8-97.4-52.5-183.1-117.2-235.1
		c-29.6-23.9-66.6-41-104-48.3c-46.3-9-89.4-4.1-124.5,14.3c-12.6,6.6-24.3,14.9-34.8,24.6c-29.9,28-50.2,70-60.1,124.8
		c-5.5,30.1-7.1,61-8.2,87.5c-0.5,11.7-0.1,26.3,0.3,41.8c0.7,25.8,1.5,55.1-1.1,83.4c-3,32.9-10.1,57.9-21.6,76.7
		c-6.3,10.3-14.1,18.7-23.2,25.1c-9.8,6.9-21.5,11.6-34.6,14.1c-6.6,1.2-13.3,1.8-19.9,1.8c-39.5,0-77.8-20.2-109.4-36.9
		c-23.6-12.4-47.4-26.5-70.9-41.8c-19-12.4-37.6-25.6-55.3-39.2c-39.7-30.5-75.1-68.1-109.3-104.5c-9.7-10.3-19.6-20.9-29.6-31.2
		c-18.3-19-40.4-41.2-65-61.7c-44.2-36.8-93.5-55.1-146.7-54.3c-83.4,0.9-161.2,48.3-211.7,87.8c-36.3,28.4-71.4,62.5-98.7,96.1
		c-20.7,25.4-36.5,52.4-53.2,81c-2,3.5-4,6.9-6.1,10.4c-3.7,6.3-8.6,14.6-13.7,22.9c-8.3,13.6-21.4,33.5-38.6,48.4
		c-8.4,7.2-17.3,12.9-26.5,16.9c-10.3,4.4-21.3,6.9-32.8,7.4C291.1,671.4,289.4,671.4,287.8,671.4z"/>
	<path class="st1" d="M293.1,710.7c-16.5,0-34.5-3.5-54.7-10.5c-20.9-7.3-41.6-17.6-59-26.7c-5.4-2.8-10.7-5.6-15.9-8.4
		c-14.5-7.7-28.1-14.9-41-20.9C76.2,622.9,30.2,602.1-14.3,582c-14.7-6.6-29.9-13.5-44.7-20.2l0.6-1.2c14.7,6.7,30,13.5,44.7,20.2
		C30.7,600.9,76.7,621.7,123,643c12.9,5.9,26.6,13.2,41.1,20.9c5.2,2.7,10.5,5.6,15.9,8.4c36.2,18.9,78.2,38.8,118.4,37
		c49.4-2.4,77.1-43.4,95.8-78.8c4.8-9.1,9.4-18.2,12.9-25.1c1.8-3.6,3.6-7.1,5.4-10.7c16-31.9,31.1-62,51.5-90.9
		c26.6-37.6,61.7-76.6,98.8-109.6c51.8-45.9,131.8-101.8,219-107.9c55.4-4,106.5,13,151.7,50.6c20.3,16.9,40.4,36.3,65.1,63.1
		c12.5,13.5,24.9,27.5,36.9,41.1c31.2,35.3,63.4,71.7,99.8,102.1c17.6,14.7,36.1,29.1,54.9,42.6c22.8,16.4,46.6,32,70.8,46.3
		c37.1,21.9,83.3,49.2,129.9,41.5c25.5-4.1,44.8-17.2,57.3-38.8c25.4-43.8,19.9-115.3,16-167.6c-1.1-14.7-2.2-28.5-2.4-39.7
		c-0.5-24.8-0.4-57.6,4-90.7c7.7-57.3,26.5-102.1,56-133.2c10.3-10.9,22.2-20.4,35.2-28.2c18.5-11.1,39.4-18.6,62.1-22.2
		c21.4-3.4,43.9-3.4,66.9,0.2c19.4,3,38.5,8.5,56.7,16.4c18.4,7.9,35.5,18,50.8,29.9c17.7,13.8,33.8,30.3,47.9,48.9
		c13.4,17.7,25.2,37.4,34.9,58.8c18.3,40.1,29.6,85.7,32.7,131.9l-1.3,0.1c-6.6-99.6-48.5-186.6-115-238.7
		c-30.2-23.6-68.1-39.9-106.9-46c-47.8-7.3-92.1,0.3-128.1,21.9c-12.9,7.7-24.7,17.2-34.9,28c-29.3,30.8-48,75.4-55.6,132.4
		c-4.4,33-4.5,65.7-4,90.5c0.2,11.1,1.3,25,2.4,39.6c2,27,4.4,57.6,3,87.5c-1.5,34.8-7.8,61.3-19.2,80.8
		c-6.1,10.6-13.8,19.2-23,25.6c-9.9,7-21.8,11.7-35.2,13.8c-20.9,3.5-43.5,0.4-68.9-9.5c-22.1-8.6-43.2-21.1-61.9-32.1
		c-24.2-14.4-48.1-30-70.8-46.4c-18.8-13.6-37.3-27.9-55-42.7c-36.4-30.5-68.7-67-99.9-102.3c-12-13.5-24.4-27.6-36.9-41.1
		c-24.7-26.7-44.7-46.1-65-62.9c-44.9-37.3-95.6-54.2-150.7-50.3c-86.8,6-166.5,61.8-218.2,107.6c-37.1,33-72.1,71.9-98.6,109.4
		c-20.4,28.8-35.5,58.9-51.4,90.8c-1.8,3.5-3.6,7.1-5.4,10.7c-3.5,6.9-8.1,16.1-12.9,25.2c-18.8,35.8-46.8,77.2-96.9,79.5
		C296.7,710.6,294.9,710.7,293.1,710.7z"/>
	<path class="st1" d="M298.5,749.9c-45.2,0-92.6-27.7-134.6-52.3c-12.9-7.6-25.1-14.7-36.7-20.7L-60,579.4l0.7-1.2l187.2,97.5
		c11.6,6,23.8,13.2,36.8,20.8c43.6,25.5,93.1,54.5,139.6,52c50.5-2.7,77-47.2,94.6-85.6c5.7-12.6,11.3-25.4,16.6-37.7
		c14.6-33.8,29.8-68.8,49.9-101.4c16-25.8,35.9-53,57.5-78.4c23.7-27.9,49.1-53.5,75.4-76.1c29-24.9,58.6-45.5,87.7-61.2
		c32.3-17.4,64.1-28.7,94.5-33.7c61-10,116.5,5.2,164.9,45.2c40.2,33.3,74.4,74.4,107.5,114.1c28.8,34.6,58.5,70.4,92.2,101
		c38.9,35.3,81.1,67.9,125.2,96.9c37.2,24.4,83.5,54.8,131.2,48c40.3-5.8,63.6-32.7,71.2-82.4c6.5-42.3,0.3-92.4-4.6-132.7
		c-1.7-13.7-3.3-26.7-4.1-37.2c-4.3-58-1.6-105.8,8.4-146.3c6.2-25.3,15.4-47.8,27.3-66.9c13.3-21.4,30.4-39.2,50.8-53
		c17.6-11.9,37.5-20.6,59.1-25.7c20.5-4.9,42.2-6.5,64.3-4.9c43.5,3.3,86,19.2,119.7,44.9c18,13.7,34.4,30.2,48.7,49.1
		c13.5,17.9,25.2,37.9,34.8,59.6c18,40.9,28.4,87.4,30,134.5l-1.4,0c-3.3-100.4-45.5-190.9-112.9-242.2
		c-71.5-54.4-173.1-60.4-241.4-14.2c-67.7,45.7-95.8,132.4-86,264.9c0.8,10.5,2.4,23.4,4.1,37.1c5,40.4,11.2,90.6,4.6,133.1
		c-3.6,23.1-10.7,41.7-21.2,55.2c-5.9,7.6-13.1,13.8-21.2,18.5c-8.7,4.9-18.8,8.3-30,9.9c-4.6,0.7-9.3,1-14,1
		c-17.3,0-35.7-4.4-55.9-13.2c-22.7-10-44.7-24.4-62.3-35.9c-44.2-29-86.4-61.7-125.4-97.1c-33.8-30.7-63.6-66.5-92.4-101.1
		c-33-39.7-67.2-80.8-107.3-114c-48.1-39.7-103.2-54.9-163.7-44.9c-122.5,20.1-248.7,143.1-314.2,248.8
		c-20.1,32.5-35.2,67.4-49.8,101.2c-5.4,12.4-10.9,25.2-16.6,37.8c-11.6,25.5-23.1,43.8-36.2,57.5c-8.1,8.6-17,15.3-26.2,20
		c-10.3,5.3-21.5,8.3-33.4,8.9C302.3,749.9,300.4,749.9,298.5,749.9z"/>
</g>
</svg>
