<?xml version="1.0" encoding="utf-8"?>
<!-- Generator: Adobe Illustrator 24.3.0, SVG Export Plug-In . SVG Version: 6.00 Build 0)  -->
<svg version="1.1" id="Layer_1" xmlns="http://www.w3.org/2000/svg" xmlns:xlink="http://www.w3.org/1999/xlink" x="0px" y="0px"
	 viewBox="0 0 2283.7 962.5" style="enable-background:new 0 0 2283.7 962.5;" xml:space="preserve">
<style type="text/css">
	.st0{opacity:0.3;}
	.st1{fill:#629ACC;}
</style>
<g class="st0">
	<path class="st1" d="M850.7,754.5c-9.5,0-18.7-0.4-27.5-1.3c-18.6-1.9-35.7-5.7-51-11.4c-16.4-6.1-30.8-14.5-42.8-24.8
		c-24.1-20.8-36.1-45.7-47.8-69.8c-2.3-4.7-4.7-9.6-7.1-14.4c-16.4-32.3-37.2-60.7-63.6-86.6c-52.6-51.7-126.5-95.9-213.9-127.7
		c-101-36.7-209.6-55-305.8-51.5C34.7,369.1-40,388.7-73.4,422.2c-19.8,19.9-21.4,42-4.6,63.9l-0.3,0.1c-8.8-11.5-12.6-23-11.4-34.2
		c1.1-10.3,6.5-20.3,16-29.9c15.1-15.2,40-28.6,72.1-38.9c29.6-9.5,62.6-15.3,92.8-16.4c50.3-1.8,103.9,2.2,159.1,12.1
		c50.1,9,99.5,22.2,146.9,39.5c87.4,31.8,161.4,76,214,127.7c26.4,25.9,47.2,54.3,63.6,86.6c2.4,4.7,4.8,9.6,7.1,14.4
		c11.6,24.1,23.7,48.9,47.7,69.7c23.3,20.1,54.8,32.2,93.6,36.2c53.8,5.4,119.1-5.9,174.7-30.3c80.1-35.1,135.7-86.3,189.5-135.8
		c9.4-8.7,19.2-17.6,28.8-26.3c25.1-22.5,59-51.6,99.3-77.6c41.2-26.5,83.1-46,128-59.6c27.5-8.3,56.7-13.9,86.7-16.6
		c27.7-2.5,57-2.7,87.2-0.5c51.7,3.8,107.3,14.5,170.2,32.8c123.8,35.9,247.4,79.5,367.5,129.6c114.1,47.6,226.1,101.5,332.7,160.1
		l-0.2,0.2c-221-121.5-456.6-219-700.1-289.7c-137.6-39.9-246.8-44.9-343.7-15.7c-98.6,29.8-167.5,83.5-227.2,137.1
		c-9.6,8.7-19.4,17.6-28.8,26.3c-53.8,49.5-109.4,100.7-189.6,135.8c-25.9,11.4-55.1,20.2-84.3,25.6c-15.4,2.9-30.8,4.7-45.6,5.5
		C862.3,754.3,856.4,754.5,850.7,754.5z"/>
	<path class="st1" d="M859.9,742.2c-24.2,0-46.5-2.8-66.5-8.2c-22.3-6.1-41.5-15.5-57.2-28c-1.4-1.1-2.8-2.3-4.1-3.4
		c-23.8-20.7-36.4-45.3-48.6-69c-2.5-4.8-5-9.8-7.6-14.6c-15.4-28.7-33.9-54-56.6-77.3c-2.8-2.9-5.7-5.8-8.6-8.6
		c-53.4-51.3-127.9-94.9-215.6-126C293.4,371,184.5,353.4,88.5,357.7c-56.1,2.5-130.5,22.5-164,55.7c-20.1,19.9-22.3,42.1-6.6,64
		l-0.3,0.1c-8.3-11.5-11.7-23-10.1-34.2c1.4-10.3,7.1-20.4,16.7-29.9c15.3-15.2,40.1-28.6,71.8-38.9c29.3-9.5,62.2-15.5,92.4-16.9
		c50.3-2.2,103.9,1.5,159.3,11c50.2,8.6,99.9,21.6,147.6,38.5C483,438.3,557.6,481.9,611,533.2c2.9,2.8,5.8,5.7,8.6,8.6
		c22.7,23.4,41.2,48.7,56.6,77.4c2.6,4.8,5.1,9.8,7.6,14.6c12.2,23.8,24.7,48.3,48.5,69c1.3,1.1,2.7,2.3,4.1,3.4
		c32.3,25.8,76.8,36.3,123.5,36.3c0.3,0,0.5,0,0.8,0C860.5,742.2,860.2,742.2,859.9,742.2z M869.9,742
		c43.5-1.3,88.3-11.4,126.8-26.3c83-32.3,142.6-82.2,200.3-130.5c2.4-2,4.7-4,7.1-6c5.2-4.4,11.4-9.5,17.7-14.7
		c28.3-23.3,62.6-50.5,102-74.9c42-26,83.9-45.3,128.2-59c27.2-8.4,56-14.3,85.5-17.6c27.3-3,56.2-3.9,85.9-2.5
		c51.2,2.3,106.2,11.1,168.3,26.9c60.5,15.3,110.2,29.8,156.5,45.5c65.5,22.2,128,47.8,180.4,69.9c121.9,51.5,241.5,110.1,355.5,174
		l-0.2,0.2c-114-63.9-233.5-122.4-355.4-174c-52.4-22.1-114.8-47.7-180.4-69.9c-46.2-15.7-96-30.1-156.4-45.4
		c-135.1-34.3-243-36.5-339.3-6.7c-100,30.9-171.2,85.3-230.1,133.8c-6.3,5.2-12.5,10.4-17.7,14.7c-2.4,2-4.7,4-7.1,6
		c-57.7,48.3-117.3,98.2-200.4,130.6c-20.6,8-42.5,14.3-65.1,18.9C910.7,739,889.9,741.4,869.9,742z"/>
	<path class="st1" d="M870.1,730.1c-2.9,0-5.8,0-8.7-0.1c-24.1-0.6-46.5-4-66.4-9.9c-21.8-6.5-40.6-16.1-56.1-28.5
		c-1.4-1.1-2.7-2.3-4.1-3.4c-23.6-20.6-36.7-44.8-49.3-68.3c-2.6-4.9-5.4-9.9-8.1-14.8c-16.1-28.6-35.1-53.7-58.1-76.7
		c-2.8-2.8-5.8-5.7-8.7-8.5c-54-50.9-129.2-93.9-217.2-124.5c-102.5-35.5-211.7-52.3-307.5-47.3c-54,2.9-128.1,21.7-163.3,56.2
		c-20.4,20-23.3,42.1-8.6,64.2l-0.3,0.1c-7.7-11.5-10.7-23.1-8.8-34.3c1.8-10.3,7.6-20.4,17.4-30c15.4-15.1,40.2-28.6,71.6-39
		c29.1-9.6,61.7-15.8,92-17.4c50.2-2.6,103.9,0.7,159.5,9.8c50.3,8.3,100.2,20.9,148.3,37.5c88.1,30.6,163.3,73.6,217.5,124.5
		c3,2.8,5.9,5.6,8.7,8.5c23,23,42,48.1,58.1,76.8c2.8,4.9,5.5,10,8.1,14.8c12.7,23.4,25.8,47.7,49.3,68.2c1.3,1.2,2.7,2.3,4,3.4
		c62.7,50.6,173.8,45.2,256.1,17.3c86.4-29.5,150.7-78.5,212.8-125.8l0.6-0.5c6-4.6,12.2-9.3,18.4-14
		c65.3-49.4,137.2-100.3,233-130.6c26.9-8.5,55.3-14.7,84.3-18.6c27-3.5,55.4-5.1,84.6-4.6c50.8,0.8,105.2,7.7,166.3,21
		c64.2,13.9,112.6,26.7,156.8,41.5c62.9,21.1,123.9,47.7,177.7,71.3c119.8,52.6,237.5,111.9,350.1,176.2l-0.3,0.2
		c-112.5-64.3-230.3-123.6-350-176.2c-53.8-23.5-114.7-50.2-177.7-71.2c-44.2-14.8-92.5-27.6-156.7-41.5
		c-132.5-28.8-238.9-28.1-334.9,2.2c-95.8,30.3-167.6,81.1-232.9,130.5c-6.2,4.7-12.4,9.4-18.4,14l-0.6,0.5
		c-31,23.6-63,48-97.5,69.8c-38.8,24.5-76.6,42.8-115.4,56.1C955,722.7,910.8,730.1,870.1,730.1z"/>
	<path class="st1" d="M2475.9,722.7c-111-64.7-227-124.8-344.6-178.5c-5-2.3-10-4.5-15-6.8c-50.9-23.2-103.6-47.1-160-65.8
		c-54.7-18.1-110-29.1-157-37.5c-129.7-23.4-234.7-19.8-330.5,11.1c-98.3,31.9-174.6,84.8-235.8,127.3c-3.7,2.6-7.3,5.1-11,7.7
		c-2.7,1.9-5.4,3.8-8.2,5.7c-34.9,24.2-66.6,45.9-101.6,65.7c-40,22.6-78.6,39.1-118,50.6c-36.9,10.7-76.3,16.4-112.9,16.4
		c-6.7,0-13.3-0.2-19.7-0.6c-23.6-1.4-45.4-5.3-64.9-11.6c-21.3-6.9-39.8-16.7-55-29.1c-1.4-1.1-2.7-2.3-4-3.4
		c-23.3-20.5-36.9-44.4-50.1-67.5c-2.8-5-5.8-10.1-8.7-15.1c-16.9-28.5-36.4-53.4-59.5-76.1c-2.9-2.8-5.9-5.7-8.9-8.4
		c-54.9-50.4-130.7-92.9-219.1-122.8c-103.1-35-212.6-51.1-308.3-45.3c-65.4,4-132.3,27.3-162.6,56.7c-20.7,20-24.4,42.3-10.6,64.4
		l-0.3,0.1c-7.2-11.6-9.7-23.2-7.4-34.4c2.1-10.4,8.2-20.5,18.1-30.1c15.6-15.1,40.3-28.5,71.4-39c28.8-9.6,61.3-16,91.5-17.8
		c50.2-3,103.9-0.1,159.6,8.6c50.4,7.9,100.6,20.2,149,36.6c88.5,30,164.3,72.5,219.2,122.9c3,2.8,6,5.6,8.9,8.4
		c23.2,22.7,42.7,47.6,59.6,76.2c3,5,5.9,10.2,8.7,15.1c13.2,23.1,26.8,47,50,67.5c1.3,1.2,2.7,2.3,4,3.4
		c65.5,53.3,176.7,46.7,252.1,24.8c89.9-26.1,158.7-74,219.5-116.2c2.7-1.9,5.4-3.8,8.1-5.7c3.7-2.6,7.3-5.1,11-7.7
		c35-24.3,69.5-47.8,107.4-69.6c43.6-25,85.7-43.9,128.5-57.8c26.6-8.6,54.6-15.2,83.1-19.5c26.7-4.1,54.7-6.3,83.3-6.7
		c50.5-0.7,104.2,4.3,164.4,15.1c47,8.4,102.4,19.5,157.1,37.5c56.3,18.7,109,42.6,160,65.8c5,2.3,10,4.5,15,6.8
		c117.6,53.7,233.6,113.8,344.6,178.5L2475.9,722.7z"/>
	<path class="st1" d="M2472,720.7c-111.7-66.4-225.8-127.2-339.2-180.8c-6.8-3.2-13.7-6.5-20.4-9.7c-48.1-22.9-97.8-46.5-151.8-64.2
		c-53.9-17.6-109.8-26.8-157.3-33.5c-126.5-18-230.1-11.7-326.1,20c-91.5,30.4-163.2,76-232.5,120.1l-7.6,4.8
		c-6,3.8-12.2,7.8-18.4,11.7c-69.4,43.9-138.9,85-225.6,106c-21,5.1-42.7,8.6-64.2,10.5c-23.2,2-45.7,2-66.9,0.1
		c-23.1-2.1-44.4-6.6-63.5-13.3c-20.7-7.3-38.9-17.2-53.9-29.6c-1.4-1.1-2.7-2.3-4-3.4c-23-20.4-37.1-43.9-50.8-66.7
		c-3-5.1-6.2-10.3-9.4-15.4c-17.7-28.4-37.6-53.1-61-75.5c-2.9-2.8-6-5.6-9-8.3c-55.7-49.9-132-91.8-220.8-121.2
		C285.8,338,176,322.7,80.4,329.2c-64.8,4.5-131.4,28-161.9,57.1c-21,20-25.4,42.4-12.7,64.6l-0.3,0.1c-6.7-11.6-8.7-23.3-6.1-34.6
		c2.4-10.4,8.7-20.6,18.9-30.2c15.8-15,40.4-28.5,71.1-38.9c28.5-9.7,60.8-16.1,91-18.2c50.1-3.4,103.9-0.9,159.8,7.5
		c50.6,7.6,100.9,19.5,149.7,35.6c88.8,29.4,165.2,71.3,220.9,121.3c3.1,2.7,6.1,5.5,9,8.3c23.4,22.4,43.4,47.1,61.1,75.5
		c3.2,5.1,6.3,10.4,9.4,15.4c13.6,22.8,27.7,46.3,50.7,66.7c1.3,1.1,2.6,2.3,4,3.4c63.9,52.6,170,51.1,248,32.2
		c86.7-21,156.1-62.1,225.5-106c6.1-3.9,12.3-7.8,18.4-11.7l7.6-4.8c34-21.7,69.2-44.1,107.4-64.9c43.3-23.6,84.2-41.7,125.2-55.3
		c26.4-8.7,53.9-15.6,81.9-20.5c26.3-4.6,53.9-7.5,82-8.8c50.2-2.2,103.4,0.8,162.4,9.2c47.5,6.7,103.4,16,157.4,33.6
		c54,17.7,103.8,41.3,151.8,64.2c6.7,3.2,13.7,6.5,20.4,9.7c113.4,53.6,227.5,114.4,339.2,180.8L2472,720.7z"/>
	<path class="st1" d="M2468.1,718.6c-110.7-67.1-223-128.7-333.8-183c-8.3-4.1-16.9-8.3-25.1-12.4c-45.5-22.6-92.5-46-144.4-62.8
		c-53.7-17.3-109.8-24.6-157.6-29.6c-123-12.9-225.2-3.7-321.6,28.9c-84.2,28.6-153.3,69.1-220.1,108.2c-7,4.1-14.3,8.4-21.4,12.5
		c-8.3,4.8-14.7,8.5-20.6,11.9c-31.8,18.2-69.6,39.2-109.3,56.7c-42.1,18.5-82.1,31.3-122.4,39.2c-21.2,4.1-42.7,6.7-64,7.7
		c-22.8,1.1-45,0.3-65.7-2.4c-22.5-2.9-43.4-7.9-62-15c-20.2-7.7-37.9-17.8-52.7-30.1c-1.3-1.1-2.7-2.3-4-3.4
		c-22.7-20.2-37.3-43.4-51.4-65.9c-3.3-5.2-6.7-10.6-10.1-15.8c-18.5-28.4-38.9-52.8-62.5-74.9c-3-2.8-6-5.6-9.1-8.3
		c-56.5-49.5-133.4-90.8-222.5-119.6C283.2,326.9,173,312.4,77.7,319.6C23.5,323.8-47.4,343.2-83.4,377
		c-21.4,20.1-26.5,42.6-14.8,64.9l-0.3,0.1c-6.1-11.7-7.7-23.4-4.8-34.7c2.7-10.5,9.3-20.7,19.6-30.4c15.9-15,40.4-28.4,70.9-38.9
		c28.2-9.7,60.3-16.3,90.5-18.7c50-3.8,103.9-1.7,160,6.3c50.7,7.2,101.3,18.9,150.3,34.6c89.2,28.8,166.2,70.1,222.7,119.6
		c3.1,2.7,6.2,5.5,9.1,8.3c23.6,22.1,44.1,46.6,62.6,74.9c3.4,5.2,6.8,10.6,10.1,15.8c14.1,22.4,28.7,45.6,51.3,65.8
		c1.3,1.2,2.6,2.3,4,3.4c53.1,44.2,144.4,59.1,244,39.6c90.2-17.6,163.8-57,231.5-95.8c5.9-3.4,12.3-7.1,20.6-11.9
		c7.1-4.1,14.4-8.4,21.4-12.5c32.9-19.3,66.9-39.2,103.2-57.9c41-21.1,79.3-37.6,117-50.4c26.1-8.8,53.3-16,80.7-21.4
		c26-5.1,53.2-8.8,80.7-10.9c50.1-3.8,102.6-2.7,160.5,3.3c47.8,4.9,104,12.3,157.7,29.6c51.9,16.8,99,40.2,144.4,62.8
		c8.2,4.1,16.8,8.4,25.1,12.4c110.8,54.3,223.1,115.9,333.8,183L2468.1,718.6z"/>
	<path class="st1" d="M2464.2,716.5c-109.8-67.8-220.2-130.2-328.4-185.3c-9.2-4.7-18.6-9.6-27.8-14.4
		c-43.5-22.7-88.5-46.1-139-62.2c-53.7-17.1-109.9-22.5-157.9-25.6c-117.4-7.7-221.2,4.6-317.2,37.9c-76.5,26.6-142,62.1-205.4,96.5
		c-12.8,6.9-26,14.1-38.9,21c-7.9,4.2-14.9,7.9-21.3,11.2c-30.2,15.7-70.3,35.8-113.1,52.2c-43.1,16.5-83.8,27.5-124.5,33.5
		c-44.4,6.6-88.8,6.6-128.2,0.1c-21.9-3.6-42.3-9.2-60.5-16.7c-19.7-8.1-37-18.4-51.6-30.6c-1.3-1.1-2.6-2.3-3.9-3.4
		c-22.4-20.1-37.4-42.9-51.9-64.9c-3.5-5.3-7.2-10.9-10.8-16.2c-19.3-28.3-40.2-52.6-64-74.3c-3-2.7-6.1-5.5-9.3-8.2
		c-57.2-49-134.8-89.8-224.3-118c-105.4-33-215.8-46.8-311-38.8C10.7,315.8-53.7,339-85.1,368c-21.8,20.2-27.7,42.7-17,65.2
		l-0.4,0.1c-5.6-11.8-6.7-23.5-3.4-34.9c3.1-10.5,10-20.8,20.5-30.5c16.1-14.9,40.5-28.3,70.6-38.8c27.9-9.7,59.8-16.5,89.9-19.1
		c50-4.2,103.9-2.5,160.1,5.1c50.8,6.9,101.6,18.2,151,33.7c89.5,28.1,167.1,69,224.4,118c3.1,2.7,6.3,5.4,9.3,8.2
		c23.8,21.7,44.7,46,64,74.3c3.7,5.4,7.3,10.9,10.8,16.2c14.5,22,29.6,44.8,51.9,64.9c1.3,1.2,2.6,2.3,3.9,3.4
		c52.2,43.9,141.9,61.5,240,47.1c89.4-13.2,167-49,237.5-85.7c6.5-3.4,13.5-7.1,21.3-11.2c12.9-6.8,26.1-14,38.9-21
		c63.4-34.4,129-69.9,205.5-96.5c25.9-9,52.6-16.5,79.6-22.4c25.7-5.7,52.4-10,79.4-12.9c50.1-5.4,101.9-6.3,158.5-2.6
		c47.9,3.1,104.2,8.5,158,25.6c50.5,16.1,95.5,39.6,139.1,62.2c9.1,4.8,18.6,9.7,27.8,14.4c108.1,55.1,218.6,117.5,328.4,185.3
		L2464.2,716.5z"/>
	<path class="st1" d="M2460.4,714.4c-108.8-68.6-217.4-131.7-323-187.5c-9.7-5.1-19.7-10.6-29.3-15.8
		c-41.9-22.9-85.3-46.5-134.8-62.1c-53.9-16.9-110.2-20.4-158.1-21.6c-113-3-215.3,12.3-312.8,46.8
		c-68.4,24.3-129.3,55.1-188.3,84.9c-20.3,10.2-39.4,19.9-58.9,29.3c-7.9,3.8-15.1,7.3-22.1,10.5c-44.7,21-81.9,36.2-117,47.8
		c-44.1,14.5-85.5,23.6-126.7,27.8c-16,1.6-31.9,2.4-47.5,2.4c-27.7,0-54.5-2.5-79.2-7.5c-44.7-9-81.5-25.7-109.5-49.5
		c-1.3-1.1-2.6-2.3-3.9-3.4c-22-19.9-37.5-42.3-52.4-64c-3.8-5.5-7.7-11.2-11.6-16.7c-20.1-28.2-41.5-52.3-65.5-73.7
		c-3.1-2.7-6.2-5.5-9.4-8.1c-58-48.6-136.2-88.8-226-116.3c-106.1-32.4-216.8-45.4-311.8-36.6c-64.8,6.1-127.3,28.8-159.3,58
		c-22.3,20.3-28.9,43-19.3,65.6l-0.4,0.1c-5-11.8-5.7-23.7-2-35.1c3.4-10.6,10.6-20.9,21.3-30.7c16.3-14.8,40.6-28.2,70.3-38.6
		c27.6-9.7,59.3-16.6,89.3-19.4c49.9-4.6,103.9-3.2,160.3,4c50.9,6.5,102,17.5,151.7,32.7c89.9,27.5,168.1,67.8,226.1,116.4
		c3.2,2.7,6.3,5.4,9.4,8.1c24,21.4,45.4,45.5,65.5,73.7c3.9,5.5,7.9,11.2,11.6,16.7c14.9,21.7,30.4,44.1,52.4,63.9
		c1.3,1.2,2.6,2.3,3.9,3.4c52.3,44.5,138.3,64.4,235.9,54.5c93-9.4,175.3-43.4,243.6-75.5c6.9-3.3,14.1-6.7,22.1-10.5
		c19.5-9.4,38.6-19.1,58.9-29.3c59-29.8,119.9-60.5,188.3-84.9c25.7-9.1,52.1-17,78.4-23.4c25.5-6.2,51.8-11.3,78.1-15
		c50.2-7.2,101.4-9.9,156.6-8.4c48,1.2,104.3,4.7,158.3,21.7c49.5,15.6,92.9,39.3,134.8,62.1c9.7,5.3,19.6,10.7,29.3,15.8
		c105.5,55.9,214.2,119,323,187.6L2460.4,714.4z"/>
	<path class="st1" d="M2456.5,712.4C2347.1,642,2243.3,580,2138.9,522.6c-10-5.5-19.8-11.1-30.1-17c-40.6-23.2-82.5-47.1-131.2-62.2
		c-54.6-16.9-113.3-18.3-158.4-17.7c-107.8,1.4-208.7,19.6-308.4,55.7c-59.8,21.8-115,47.9-168.4,73.2
		c-28.1,13.3-54.6,25.8-81.6,37.7c-8,3.5-15.5,6.8-22.8,9.9c-45.3,19.1-83.7,32.9-120.8,43.3c-45.1,12.6-87.3,19.8-128.9,22.1
		c-21.4,1.2-42.6,0.9-63.2-0.7c-21.7-1.7-42.6-5-62.1-9.7c-43.2-10.5-79.2-27.9-106.9-51.7c-1.3-1.1-2.6-2.3-3.9-3.4
		c-21.7-19.7-37.5-41.7-52.8-62.9c-4.1-5.7-8.3-11.5-12.6-17.2c-20.9-28.1-42.9-52-67-73c-3.1-2.7-6.3-5.4-9.5-8
		c-58.8-48.2-137.5-87.8-227.7-114.7c-83.3-24.7-169.1-37.6-247.9-37.6c-22.3,0-43.9,1-64.8,3.1c-64,6.5-126.1,29.4-158.3,58.2
		c-22.7,20.4-30.2,43.2-21.6,66.1h-0.4c-4.5-11.9-4.7-23.8-0.6-35.3c3.8-10.7,11.3-21.1,22.3-30.9c16.4-14.7,40.6-28,70-38.5
		c27.7-9.9,58.3-16.7,88.6-19.8c49.9-5,103.9-4,160.5,2.8c51.1,6.2,102.4,16.8,152.4,31.7c90.3,26.9,169.1,66.6,227.9,114.8
		c3.2,2.6,6.4,5.4,9.5,8.1c24.1,21,46.1,44.9,67,73.1c4.3,5.7,8.5,11.6,12.6,17.2c15.3,21.2,31.2,43.2,52.8,62.9
		c1.3,1.2,2.6,2.3,3.9,3.4c51.8,44.6,136.3,67.2,231.9,61.9c96.7-5.3,184.2-37.7,249.6-65.3c7.3-3.1,14.8-6.3,22.8-9.9
		c27-11.9,53.5-24.5,81.6-37.7c53.4-25.3,108.6-51.4,168.5-73.2c51.3-18.6,101.7-32.1,154-41.4c50.4-9,101-13.6,154.6-14.3
		c30.6-0.5,55.5,0.3,78.5,2.5c29.7,2.8,55.9,7.7,80.1,15.2c48.7,15.2,90.7,39.1,131.3,62.3c10.4,5.9,20.2,11.5,30.1,17
		c104.4,57.4,208.2,119.5,317.6,189.8L2456.5,712.4z"/>
	<path class="st1" d="M2452.6,710.3c-108.3-71.1-210.4-133.9-312.1-192.1c-10.1-5.8-20-11.7-30.5-18
		c-39.4-23.5-80.1-47.8-128.2-62.6c-55-16.8-113.7-16.2-158.7-13.7c-101.8,5.4-201.2,26.5-304,64.6c-50.6,18.9-98.9,40.4-145.5,61.3
		c-36.9,16.5-71.7,32.1-107.4,46.3c-8.1,3.2-16,6.3-23.5,9.2c-45.4,17.2-86.2,29.9-124.7,38.8c-46.1,10.7-89,16.1-131.1,16.4
		c-21.4,0.2-42.6-1-62.9-3.5c-21.3-2.6-41.8-6.7-60.9-12.1c-41.8-11.9-76.9-30-104.3-53.9c-1.3-1.1-2.6-2.3-3.9-3.5
		c-21.3-19.5-37.4-41-53.1-61.8c-4.4-5.9-9-12-13.6-17.9c-21.8-28.1-44.2-51.8-68.5-72.4c-3.1-2.7-6.4-5.4-9.7-8
		c-59.6-47.7-138.9-86.8-229.5-113.1C273,283.4,161.7,271.9,67,282.1C3.8,289-57.9,311.9-90.3,340.4c-23.2,20.5-31.6,43.5-24.1,66.6
		h-0.4c-3.9-12-3.6-24,0.9-35.6c4.2-10.8,12-21.2,23.2-31.1c16.6-14.6,40.7-27.9,69.6-38.3c27.4-9.9,57.8-16.8,87.9-20.1
		c49.8-5.4,103.9-4.8,160.7,1.7c51.2,5.8,102.7,16.2,153.1,30.7c90.6,26.3,170,65.4,229.6,113.2c3.3,2.6,6.5,5.3,9.7,8
		c24.3,20.7,46.7,44.4,68.5,72.5c4.6,5.9,9.2,12,13.6,17.9c15.7,20.8,31.8,42.3,53.1,61.8c1.3,1.2,2.6,2.3,3.8,3.4
		c52.4,45.6,133.3,70.2,227.9,69.4c76.7-0.7,158-18.2,255.6-55.2c7.5-2.9,15.4-5.9,23.5-9.2c35.7-14.2,70.5-29.8,107.4-46.3
		c46.6-20.9,94.9-42.5,145.5-61.3c51.8-19.2,101.4-33.7,151.5-44.4c50.8-10.8,100.7-17.5,152.7-20.2c45-2.5,103.8-3.1,158.9,13.7
		c48.1,14.8,88.9,39.1,128.2,62.7c10.5,6.3,20.4,12.2,30.5,18c101.7,58.2,203.8,121,312.1,192.1L2452.6,710.3z"/>
	<path class="st1" d="M2448.7,708.2c-107.3-71.9-207.6-135.4-306.7-194.3c-10-6-20-12.2-30.5-18.8c-38.2-23.9-77.8-48.7-125.4-63.1
		c-55.6-16.8-114.2-14-159-9.7c-95.8,9-190.9,32.3-299.6,73.5c-40.8,15.5-80.6,32.6-119.1,49c-46.8,20-90.9,38.9-136.7,55.3
		c-8.2,3-16.4,5.8-24.2,8.5c-46.2,15.6-88.2,26.8-128.6,34.3c-22.6,4.2-44.9,7.2-66.3,9.1c-22.8,1.9-45.4,2.5-67,1.7
		c-44-1.6-85.1-8.6-122.4-20.8c-40.2-13.2-74.4-32.1-101.7-56.1c-1.3-1.1-2.6-2.3-3.8-3.5c-20.8-19.2-37.3-40.2-53.2-60.5
		c-4.8-6.1-9.8-12.5-14.8-18.7c-22.7-28-45.6-51.5-70-71.8c-3.2-2.7-6.5-5.3-9.8-7.9c-60.3-47.3-140.3-85.8-231.2-111.5
		c-108.2-30.4-219.9-41.2-314.4-30.3c-101.2,11.9-199.8,63.3-182.7,125.6h-0.4c-4.3-15.6-1.8-30.9,7.5-45.6
		c8.4-13.4,22.3-26.1,41.2-37.5c17.6-10.7,38.6-19.9,62.6-27.4c22.8-7.1,47.6-12.4,71.7-15.2c49.8-5.8,103.9-5.6,160.8,0.5
		c51.3,5.5,103.1,15.5,153.8,29.8c91,25.7,171,64.3,231.3,111.6c3.3,2.6,6.6,5.3,9.8,7.9c24.4,20.3,47.3,43.8,70,71.8
		c5,6.2,10,12.5,14.8,18.7c15.9,20.3,32.4,41.3,53.2,60.5c1.3,1.2,2.5,2.3,3.8,3.5c52.4,46.2,131.9,73.5,223.8,76.8
		c77.8,2.8,163.4-11.9,261.6-45c7.8-2.6,16-5.5,24.2-8.5c45.7-16.5,89.9-35.3,136.7-55.3c38.5-16.5,78.3-33.5,119.1-49
		C1636,454.4,1731.2,431,1827,422c30.1-2.9,55.1-3.8,78.5-2.9c29.9,1.2,56.3,5.3,80.7,12.7c47.7,14.5,87.2,39.2,125.5,63.2
		c10.5,6.6,20.4,12.8,30.5,18.8c99.1,58.9,199.4,122.5,306.7,194.4L2448.7,708.2z"/>
	<path class="st1" d="M2444.8,706.1c-106.3-72.6-204.8-137-301.3-196.6c-10-6.2-19.8-12.6-30.3-19.5
		c-37.2-24.4-75.7-49.6-122.9-63.8c-56.8-16.9-118.1-11.4-159.3-5.8c-111.8,15.1-211.9,50.2-295.2,82.5c-29.9,11.7-59.8,24-88.6,36
		c-57.9,24-112.6,46.6-170,65.1c-8.5,2.7-16.8,5.3-25,7.8c-47.1,14-90.4,23.8-132.4,29.8c-47.6,6.8-93.2,8.5-135.5,5.1
		c-43.4-3.5-84.1-12.3-120.9-26.1c-38.6-14.4-72-34.1-99.1-58.3c-1.3-1.1-2.5-2.3-3.8-3.5c-20.3-18.8-37-39.2-53.1-59
		c-5.3-6.5-10.8-13.2-16.3-19.7c-23.9-28.4-46.6-51-71.5-71.2c-3.2-2.6-6.6-5.3-9.9-7.8c-61.1-46.8-141.7-84.8-232.9-109.9
		c-109-29.8-220.9-39.8-315.3-28.1c-101.6,12.7-198.2,63.4-184,126.2h-0.4c-3.5-15.6-0.5-30.9,9-45.6c8.7-13.4,22.6-26.1,41.4-37.6
		c17.5-10.7,38.5-20,62.3-27.6c22.7-7.2,47.4-12.7,71.6-15.7c49.7-6.1,103.9-6.4,161-0.7c51.4,5.1,103.4,14.8,154.5,28.8
		C468.2,316,548.8,354,610,400.8c3.4,2.6,6.7,5.2,9.9,7.8c24.9,20.2,47.6,42.8,71.5,71.2c5.5,6.5,11,13.2,16.3,19.7
		c16.1,19.7,32.8,40.2,53.1,59c1.2,1.2,2.5,2.3,3.8,3.5c52.8,47.1,130.9,77,219.8,84.3c79.7,6.5,167.3-4.9,267.7-34.9
		c8.1-2.4,16.5-5,25-7.8c57.4-18.5,112.1-41.2,170-65.1c28.9-11.9,58.7-24.3,88.6-36c56-21.7,102.5-37.8,146.5-50.5
		c51.8-15,100.5-25.5,148.8-32c29.5-4,55.1-5.8,78.5-5.6c30.1,0.4,56.6,4.1,81,11.4c47.3,14.2,85.8,39.4,123,63.8
		c10.4,6.8,20.3,13.3,30.3,19.5c96.5,59.7,195,124,301.3,196.6L2444.8,706.1z"/>
	<path class="st1" d="M2440.9,704.1c-105.3-73.4-202-138.5-295.9-198.9c-9.8-6.3-19.6-13-29.9-20.1c-36.2-24.9-73.7-50.6-120.6-64.5
		c-57.4-16.9-118.6-9.1-159.6-1.8c-101.3,17.9-191.6,52-290.8,91.4c-17.9,7.1-36,14.5-53.5,21.6c-67.3,27.4-136.9,55.7-208,76.2
		c-8.6,2.5-17.3,4.9-25.7,7.1c-47.4,12.4-93.3,20.9-136.3,25.3c-48.7,5-95,4.8-137.7-0.6c-42.8-5.4-83-15.9-119.5-31.3
		c-36.9-15.6-69.4-35.9-96.6-60.5c-1.3-1.1-2.5-2.3-3.8-3.5c-19.7-18.4-36.5-38.1-52.7-57.3c-5.9-6.9-11.9-14-18-20.9
		c-24.8-28.4-48-50.8-72.9-70.6c-3.3-2.6-6.7-5.2-10.1-7.8c-61.9-46.4-143-83.8-234.7-108.3c-109.7-29.2-221.9-38.4-316.2-26
		c-98.4,13.1-196.7,62-185.4,126.9h-0.4c-2.7-15.6,0.8-30.9,10.6-45.5c9-13.5,23-26.1,41.7-37.6c34.5-21.2,83.1-37.3,133.4-44
		c49.6-6.5,103.9-7.2,161.2-1.8c51.6,4.8,103.8,14.2,155.2,27.8C466.9,304,548.1,341.5,610,387.9c3.4,2.6,6.8,5.2,10.1,7.8
		c24.9,19.8,48.1,42.2,73,70.6c6.1,6.9,12.1,14,18,20.9c16.2,19.1,33,38.9,52.7,57.2c1.2,1.2,2.5,2.3,3.8,3.5
		c54.4,49.1,129,80.8,215.8,91.7c80.3,10.1,172.4,1.8,273.7-24.7c8.4-2.2,17-4.6,25.7-7.1c71.1-20.5,140.7-48.8,207.9-76.2
		c17.5-7.1,35.6-14.5,53.5-21.6c43.4-17.3,93.9-37,144-53.6c52.4-17.3,100.5-29.7,146.8-37.9c29.2-5.2,54.8-7.9,78.5-8.2
		c29.8-0.4,57.1,3,81.4,10.1c21,6.2,42.2,15.5,64.7,28.3c19.9,11.3,38.3,24,56.1,36.2c10.3,7.1,20,13.8,29.9,20.1
		c93.8,60.4,190.6,125.5,295.9,198.9L2440.9,704.1z"/>
	<path class="st1" d="M2437,702c-104.2-74.2-199.2-140-290.5-201.1c-9.7-6.5-19.2-13.4-29.4-20.7c-35.3-25.4-71.8-51.7-118.4-65.2
		c-43.6-12.7-95.9-11.9-159.8,2.2c-89.4,19.6-169.4,52.4-254.1,87.1c-10.5,4.3-21.4,8.8-32.3,13.2c-4.2,1.7-8.5,3.5-12.7,5.2
		c-80.7,33-164.1,67-251.6,89.4c-8.8,2.3-17.7,4.4-26.4,6.4c-48.5,11-95.6,18-140.1,20.8c-49.8,3.1-96.9,1-139.9-6.2
		c-42.2-7.1-81.9-19.5-118-36.6c-35-16.6-66.6-37.7-94-62.7c-1.2-1.1-2.5-2.3-3.7-3.5c-18.9-17.8-35.7-36.8-51.9-55.1
		c-6.6-7.4-13.3-15.1-20.1-22.6c-25.8-28.4-49.4-50.6-74.4-70c-3.3-2.6-6.7-5.2-10.2-7.7c-62.5-46-144.3-82.9-236.3-106.7
		c-110.4-28.5-223-37-317-23.9c-96.5,13.6-194.8,62.9-186.7,127.5h-0.4c-1.9-15.6,2.1-30.9,12.1-45.5c9.2-13.5,23.3-26.1,41.9-37.7
		c34.3-21.3,82.8-37.5,133-44.6c49.6-6.9,103.9-7.9,161.3-3c51.7,4.4,104.1,13.5,155.9,26.9c92.1,23.9,173.9,60.8,236.5,106.7
		c3.4,2.5,6.9,5.1,10.2,7.7c25,19.4,48.7,41.6,74.5,70c6.8,7.5,13.6,15.2,20.2,22.6c16.2,18.3,32.9,37.3,51.8,55.1
		c1.2,1.2,2.5,2.3,3.7,3.5c55.6,50.8,128.8,85.1,211.7,99.1c81.9,13.9,176,9,279.7-14.5c8.7-2,17.6-4.1,26.4-6.4
		c87.5-22.3,170.9-56.4,251.5-89.3c4.2-1.7,8.5-3.5,12.7-5.2c10.8-4.4,21.7-8.9,32.3-13.2c84.7-34.7,164.7-67.5,254.1-87.1
		c28.9-6.4,54.6-9.9,78.4-10.9c29.9-1.2,57.4,1.7,81.7,8.8c20.9,6.1,41.8,15.4,63.9,28.4c19.5,11.5,37.4,24.4,54.7,36.9
		c10.1,7.3,19.7,14.2,29.4,20.7c91.2,61.1,186.3,126.9,290.5,201.2L2437,702z"/>
	<path class="st1" d="M2433.2,699.9c-95.1-69.2-191-137.6-285.1-203.4c-9.6-6.7-19.1-13.8-29.1-21.4
		c-32.7-24.6-69.7-52.6-115.9-65.8c-44.1-12.6-96.5-10.6-160.1,6.1c-75.7,19.8-142.7,49-213.6,79.9c-22.2,9.7-45.2,19.7-68.3,29.3
		c-40.4,16.9-84.2,34.7-130,51c-49.1,17.4-94,30.6-137.1,40.3c-9.1,2-18.2,3.9-27.1,5.7c-49.5,9.6-97.9,15.1-143.9,16.2
		c-50.9,1.3-98.7-2.7-142.1-11.9c-80-17.2-150-53-207.9-106.7c-1.2-1.1-2.5-2.3-3.7-3.5c-18-17-34.4-35-50.3-52.3
		c-7.5-8.2-15.2-16.6-23-24.9c-26.8-28.3-50.9-50.4-75.9-69.4c-3.4-2.6-6.8-5.1-10.3-7.6c-63.4-45.5-145.8-81.8-238.1-105
		c-111.1-27.9-224-35.6-317.9-21.7c-97.1,14.4-192.9,63.1-188.1,128.2h-0.4c-1.2-15.6,3.4-30.9,13.7-45.4
		c9.5-13.5,23.7-26.2,42.2-37.7c17.4-10.9,38-20.4,61.3-28.2c22.6-7.6,46.6-13.4,71.2-17c49.5-7.3,103.9-8.7,161.5-4.2
		c51.8,4.1,104.5,12.8,156.6,25.9c92.2,23.3,174.6,59.6,238,105.1c3.5,2.5,7,5.1,10.3,7.6c25,19,49.2,41,76,69.4
		c7.8,8.2,15.5,16.7,23,24.9c15.9,17.4,32.3,35.3,50.3,52.3c1.2,1.2,2.5,2.3,3.7,3.5c57.9,53.6,127.8,89.4,207.7,106.6
		c82.4,17.4,181.2,15.9,285.8-4.4c8.9-1.7,18.1-3.6,27.1-5.7c96.6-21.6,184.9-56.9,267.1-91.3c23.2-9.7,46.1-19.7,68.3-29.3
		c70.9-30.9,137.9-60.1,213.7-79.9c63.8-16.8,116.2-18.8,160.4-6.1c20.7,5.9,41.3,15.3,62.9,28.5c19,11.7,36.4,24.8,53.2,37.4
		c10,7.6,19.5,14.7,29.1,21.4c94,65.8,189.9,134.3,285.1,203.4L2433.2,699.9z"/>
	<path class="st1" d="M2429.3,697.9c-93.7-69.5-187.8-138.8-279.7-205.7c-9.3-6.7-18.5-14-28.2-21.7c-31.9-25.2-68-53.8-114.1-66.9
		c-44.6-12.6-97.1-9.3-160.4,10.1c-66.3,20.3-127.3,48.9-186.2,76.6c-29.6,13.9-60.1,28.2-91.3,41.5c-49.2,21-90.5,37-130.2,50.4
		c-48.9,16.5-94.6,28.8-139.8,37.6c-9.3,1.8-18.7,3.5-27.9,5c-48,7.8-95.2,11.8-140.3,11.8c-2.5,0-5,0-7.5,0
		c-52.1-0.5-100.7-6.4-144.3-17.5c-21-5.4-41.6-12.3-61.2-20.4c-18.4-7.6-36.5-16.6-53.8-26.7c-31.1-18.2-60.1-40.1-88.8-67
		c-1.2-1.2-2.5-2.3-3.7-3.5c-16.6-15.9-32.4-32.5-47.6-48.5c-8.8-9.3-17.9-18.8-27-28.2c-28.2-28.7-52.1-49.9-77.4-68.7
		c-3.4-2.5-6.9-5.1-10.5-7.5c-64.2-45-147.1-80.8-239.9-103.4c-111.8-27.3-225-34.2-318.7-19.6c-95.3,14.9-191,63.9-189.4,128.8
		h-0.4c-0.7-30.2,19.2-59,57.6-83.1c17.4-10.9,37.9-20.5,61-28.4c22.5-7.7,46.4-13.6,71.1-17.5c49.5-7.7,103.9-9.5,161.7-5.3
		c51.9,3.8,104.9,12.1,157.3,24.9c92.8,22.6,175.8,58.4,240,103.5c3.5,2.5,7.1,5,10.5,7.5c25.4,18.8,49.3,40,77.4,68.8
		c9.2,9.3,18.2,18.9,27,28.2c15.2,16,31,32.6,47.6,48.5c1.2,1.2,2.4,2.3,3.7,3.5c60.9,57.2,127.6,94.5,203.7,114
		c105.4,26.9,216.9,18,291.8,5.8c9.2-1.5,18.6-3.2,27.9-5c104-20.2,198.9-57.6,269.9-88c31.1-13.3,61.7-27.6,91.2-41.5
		c59-27.7,119.9-56.4,186.3-76.6c28.3-8.7,54-14,78.4-16.3c30.1-2.8,57.8-0.7,82.3,6.2c20.7,5.8,41,15.2,62.3,28.7
		c18.7,11.9,35.6,25.3,52,38.2c9.7,7.7,18.9,15,28.2,21.7c91.9,66.9,186,136.1,279.7,205.7L2429.3,697.9z"/>
	<path class="st1" d="M2425.4,695.8l-274.2-207.9c-9-6.8-17.8-14.2-27.3-22c-31.1-25.8-66.3-55.1-112.3-67.9
		c-44.5-12.4-98.6-7.7-160.7,14c-59.7,20.9-114.1,48.7-166.8,75.5c-34.3,17.5-69.8,35.6-106.3,51.6c-109.6,47.9-205.4,76.2-301.5,89
		c-39.8,5.3-79.2,8-117.3,8c-11.6,0-23-0.2-34.3-0.7c-53.4-2.3-102.7-10.1-146.5-23.2c-40.6-12.1-77.8-29.3-113.5-52.3
		c-28.6-18.4-56-40.4-86.2-69.2c-16-15.2-31.4-31-46.4-46.2C698.3,410,663.3,374.3,620,342.9c-66.4-48.2-153.6-86-252.2-109.3
		c-112.5-26.6-226-32.8-319.6-17.5c-90.6,14.9-189,61.7-190.8,129.5h-0.4c0.8-30.3,21.4-59,59.5-83.1
		c34.4-21.8,81.2-38.3,131.6-46.6c49.4-8.1,103.9-10.3,161.8-6.5c52.1,3.4,105.2,11.5,158,24c48.8,11.5,95.1,26.7,137.6,45.1
		c42.9,18.6,81.5,40.2,114.7,64.2c43.3,31.4,78.3,67.1,112.2,101.7c14.9,15.3,30.4,31,46.4,46.2c44.1,42,106.7,93.7,199.6,121.5
		c106.6,31.8,220.8,26.2,297.8,15.9c96-12.8,191.8-41.1,301.3-89c36.4-15.9,71.9-34,106.3-51.5c52.7-26.9,107.1-54.7,166.9-75.6
		c62.2-21.8,116.4-26.5,161-14.1c20.6,5.7,40.8,15.2,61.7,29c18.4,12.1,34.9,25.8,50.8,39c9.4,7.8,18.3,15.2,27.3,22l274.2,207.9
		L2425.4,695.8z"/>
	<path class="st1" d="M2423.2,679.8c-69.8-57.9-129.8-104.9-188.6-147.9c-28.5-20.9-57.7-41.4-86.7-61.1c-8.8-5.9-17.4-12.3-26.6-19
		c-23.1-16.8-46.9-34.2-74.4-47.1c-14.8-6.9-29-11.9-43.4-15.2c-44.4-10.2-96.5-3.4-154.8,20c-30.2,12.1-57.7,25.9-80.6,37.8
		c-24.2,12.6-48.2,26.5-71.3,39.9c-33.2,19.3-67.6,39.3-104.6,56.4c-22.5,10.5-45.3,19.8-67.8,27.8c-45,16-93.2,29.1-143.4,39.1
		c-31,6.1-62.2,10.7-92.7,13.7c-26.2,2.6-52.5,4-78.2,4.4c-38.3,0.5-75.7-1.5-111-6c-37.6-4.8-73.1-12.5-105.7-22.9
		c-29-9.3-56.4-20.9-83.8-35.7c-51-27.4-91.7-59.1-121.4-83.7c-14.6-12.1-28.9-24.5-42.7-36.4c-39.7-34.4-77.2-67-124.2-95.9
		c-38.3-23.5-82-43.7-129.9-60.2c-36.8-12.7-76.8-23-119-30.8c-10-1.8-20.3-3.6-30.4-5.1c-43.6-6.6-92.7-11-145.8-12.8
		c-53.6-1.9-100-0.3-141.8,5.2c-23.6,3-46.5,7.8-68.1,14.2c-76,22.5-124.8,60.1-130.6,100.8h-0.5c1.5-10.8,6-21.5,13.4-31.8
		c7-9.7,16.5-19.1,28.4-27.8c22.5-16.6,53.3-30.9,89-41.5c21.6-6.4,44.5-11.1,68.2-14.2c41.8-5.4,88.3-7.1,141.9-5.2
		c53.2,1.9,102.3,6.2,145.9,12.8c10.1,1.5,20.4,3.3,30.4,5.1c42.2,7.8,82.2,18.1,119,30.8c47.9,16.5,91.6,36.8,130,60.2
		c47,29,84.5,61.5,124.2,96c13.8,12,28.1,24.3,42.7,36.4c29.7,24.6,70.4,56.2,121.3,83.7c27.3,14.7,54.7,26.4,83.7,35.6
		c63.7,20.3,136.5,30.1,216.4,29c25.6-0.4,51.9-1.8,78.1-4.4c30.4-3,61.6-7.6,92.6-13.7c50.2-10,98.4-23.1,143.3-39.1
		c22.5-8,45.2-17.3,67.7-27.8c36.9-17.1,71.3-37.1,104.5-56.4c23.1-13.4,47.1-27.3,71.3-39.9c22.9-11.9,50.4-25.7,80.6-37.8
		c26-10.4,51.1-17.7,74.7-21.5c29-4.7,56.1-4.2,80.5,1.4c14.5,3.3,28.7,8.3,43.5,15.2c27.5,12.9,51.4,30.3,74.5,47.2
		c9.2,6.7,17.9,13,26.6,19c29,19.7,58.1,40.2,86.7,61.1c58.8,43,118.7,90,188.6,147.9L2423.2,679.8z"/>
	<path class="st1" d="M2421,663.8c-64.8-58.9-125.5-108.1-185.8-150.6c-29.4-20.7-59.8-40.7-90.4-59.3c-8.1-4.9-16.1-10.1-24.6-15.5
		c-25.4-16.2-51.7-33-81.1-44.7c-14.9-5.9-29.1-10-43.5-12.5c-55.3-9.8-111.4,8.7-148.8,26c-26.5,12.2-50.7,25.9-75.2,40.2
		c-21.4,12.4-41.6,25.8-63,40c-31.7,21-64.5,42.8-101.6,61c-22,10.9-45,20.3-68.3,28c-43.4,14.3-90.9,25.4-145.3,34
		c-30.4,4.8-61.6,8.2-92.6,10.1c-26.2,1.6-52.3,2.2-77.7,1.7c-37.7-0.7-74.6-3.9-109.6-9.5c-36.8-5.9-71.9-14.4-104.3-25.4
		c-28.4-9.7-55.8-21.6-83.9-36.6c-50.9-27.2-94.5-57.3-126.8-80.5c-12-8.6-23.7-17.2-35.1-25.6c-45.3-33.3-88.1-64.8-140.1-91.3
		c-38.9-19.8-82.5-36.6-129.7-49.8c-35.7-10-73.6-17.5-115.7-22.9c-9.7-1.2-19.6-2.4-29.4-3.3c-43-4.2-88.9-5.8-144.4-7.5
		c-40-1.3-92.4-2.1-142.7,2.7c-23.8,2.2-46.9,6.1-68.5,11.5c-76.1,19-127.7,52.3-138,89l-0.5-0.1c2.7-9.7,8.3-19.3,16.5-28.4
		c7.8-8.7,18.1-17,30.6-24.7c23.7-14.7,55.2-27.2,91.2-36.2c21.6-5.4,44.7-9.3,68.6-11.5c50.4-4.8,102.8-4,142.8-2.7
		c55.5,1.7,101.4,3.3,144.4,7.5c9.8,1,19.7,2.1,29.4,3.3c42.2,5.4,80.1,12.9,115.8,22.9c47.2,13.2,90.9,30,129.9,49.8
		c52.1,26.5,94.9,58,140.2,91.3c11.4,8.4,23.1,17,35.1,25.6c32.3,23.2,75.9,53.3,126.7,80.5c28,15,55.4,26.9,83.8,36.6
		c63.8,21.7,135.6,33.4,213.7,34.9c25.3,0.5,51.5-0.1,77.6-1.7c31-1.9,62.1-5.3,92.5-10.1c54.3-8.5,101.8-19.7,145.2-34
		c23.3-7.7,46.2-17.1,68.2-28c37.1-18.2,69.8-40,101.5-61c21.4-14.2,41.6-27.6,63-40c24.5-14.2,48.7-28,75.2-40.2
		c24.2-11.2,48.1-19.2,71.1-23.9c27.8-5.7,54.1-6.4,78.3-2.1c14.5,2.6,28.8,6.7,43.7,12.6c29.5,11.6,55.8,28.5,81.2,44.7
		c8.5,5.4,16.5,10.5,24.6,15.5c30.6,18.6,61,38.5,90.4,59.3c60.3,42.5,121.1,91.8,185.8,150.7L2421,663.8z"/>
	<path class="st1" d="M2418.8,647.8c-60.6-60.7-120.4-110.8-183-153.4c-30.2-20.6-61.9-40-94.2-57.5c-6.9-3.7-14-7.7-20.8-11.6
		c-28.3-15.9-57.6-32.3-89.6-42.6c-15-4.9-29.3-8.1-43.7-9.9c-55.2-6.8-108.2,13.6-142.9,31.9c-23.5,12.4-45.1,26.4-65.9,40
		l-3.9,2.5c-18.9,12.3-36.6,25.8-55.4,40.1c-29.9,22.8-60.8,46.3-97.9,65.6c-21.6,11.3-44.7,20.8-68.8,28.2
		c-42,12.9-88.8,22-147.2,28.9c-30.2,3.5-61.3,5.7-92.6,6.6c-26.1,0.7-52.1,0.3-77.2-1c-76-4-147.1-17.7-211.1-40.8
		c-27.7-10-55.1-22.3-83.9-37.6c-48.7-25.8-92-52.4-132.1-77.4c-5.4-3.3-10.7-6.7-16-10c-54.9-34.2-106.7-66.6-167.6-91.4
		c-39.8-16.2-83.4-29.5-129.6-39.4c-34-7.3-70.7-12.2-112.5-15.1c-9.4-0.6-19-1.2-28.4-1.6c-23.8-1-49.1-1.2-75.8-1.3
		c-21.5-0.1-43.7-0.3-67.1-0.9c-45.3-1.2-96.5-2.6-143.6,0.3c-24.3,1.5-47.5,4.5-68.9,8.9c-76,15.7-130.4,44.5-145.5,77.2l-0.6-0.1
		c4-8.6,10.6-17,19.7-25c8.7-7.6,19.8-14.9,32.8-21.6c24.9-12.8,57.2-23.5,93.4-30.9c21.5-4.4,44.7-7.4,69-8.9
		c47.1-2.9,98.4-1.5,143.7-0.3c23.4,0.6,45.6,0.7,67.1,0.9c26.7,0.2,52,0.3,75.8,1.3c9.5,0.4,19,0.9,28.5,1.6
		c41.8,2.9,78.6,7.8,112.6,15.1c46.3,9.9,90,23.2,129.7,39.4c60.9,24.9,112.8,57.3,167.7,91.5c5.3,3.3,10.6,6.6,16,10
		c40.2,25,83.4,51.5,132.1,77.3c28.7,15.3,56.1,27.6,83.8,37.6c64,23.1,134.9,36.8,210.9,40.8c25.1,1.3,51,1.6,77.1,1
		c31.2-0.8,62.3-3,92.5-6.6c58.3-6.8,105-16,147-28.8c24.1-7.4,47.2-16.8,68.7-28.2c37-19.3,67.9-42.8,97.8-65.6
		c18.8-14.3,36.5-27.8,55.4-40.1l3.9-2.5c20.8-13.6,42.4-27.6,66-40c34.8-18.4,88-38.9,143.5-32c14.4,1.8,28.8,5,43.8,9.9
		c32.1,10.3,61.4,26.8,89.7,42.7c6.9,3.8,14,7.8,20.8,11.6c32.2,17.5,63.9,36.9,94.2,57.5c62.6,42.6,122.4,92.8,183.1,153.4
		L2418.8,647.8z"/>
	<path class="st1" d="M2416.6,631.8c-55.6-61.6-116.3-114.1-180.2-156.2c-31.1-20.5-64-39.2-97.9-55.7c-4.9-2.4-9.9-4.8-14.8-7.2
		c-32-15.8-65.1-32.1-100.4-41c-15.1-3.9-29.5-6.2-43.8-7.2c-55-3.8-104.9,18.5-137,37.9c-20,12-38,25.3-55.4,38.2
		c-3,2.2-6,4.5-9,6.7c-16.6,12.2-32,25.8-48.4,40.2c-27.9,24.5-56.7,49.8-93.6,70.3c-21.7,12-44.3,21.3-69.4,28.4
		c-52.4,14.9-104.7,20.3-149,23.8c-30,2.3-61.1,3.3-92.5,3c-26-0.3-51.8-1.5-76.7-3.7c-73.7-6.3-143.9-22.1-208.4-46.8
		c-26.8-10.3-54.3-22.9-84-38.6c-30-15.8-57.9-31-84.9-45.7c-18.3-10-35.7-19.4-52.6-28.5c-64-34.2-122.6-64.3-191.9-85.9
		c-40.6-12.7-84.2-22.4-129.5-29c-32.5-4.7-67.2-7-109.2-7.2c-9.1,0-18.3,0-27.5,0.2c-13.9,0.3-28.3,0.8-43.5,1.4
		c-29.2,1.2-62.3,2.5-98,1.7c-13.6-0.3-27.4-0.7-40.8-1.1c-34.5-1-70.1-2-103.7-1.1c-24.7,0.7-48,2.8-69.3,6.2
		c-75.9,12.3-133.1,36.8-153,65.4l-0.7-0.2c5.2-7.5,12.9-14.8,22.9-21.6c9.6-6.6,21.4-12.7,35-18.4c26.2-10.9,59.3-19.8,95.6-25.7
		c21.4-3.5,44.7-5.6,69.5-6.2c33.6-0.9,69.3,0.1,103.7,1.1c13.4,0.4,27.2,0.8,40.8,1.1c35.6,0.7,68.7-0.6,97.9-1.7
		c15.2-0.6,29.6-1.2,43.5-1.4c9.2-0.2,18.4-0.2,27.5-0.2c42.1,0.2,76.9,2.5,109.4,7.2c45.4,6.6,89,16.3,129.6,29
		c31.3,9.8,63,22.1,97,37.8c30.4,14,60,29.4,95,48.2c16.9,9.1,34.3,18.5,52.6,28.5c27,14.7,54.9,29.9,84.9,45.7
		c29.6,15.7,57.1,28.3,83.9,38.5c64.4,24.7,134.4,40.4,208.1,46.7c24.8,2.1,50.6,3.4,76.6,3.7c31.4,0.3,62.5-0.7,92.4-3
		c44.2-3.4,96.5-8.9,148.8-23.7c25-7.1,47.6-16.4,69.2-28.3c36.8-20.4,65.6-45.7,93.5-70.2c16.4-14.4,31.9-28,48.5-40.2
		c3-2.2,6-4.4,9-6.7c17.4-12.9,35.5-26.2,55.4-38.2c20.9-12.6,42.3-22.3,63.7-28.8c25.3-7.7,50.2-10.8,73.9-9.2
		c14.4,1,28.8,3.4,44,7.3c35.3,9,68.5,25.3,100.6,41.1c4.8,2.4,9.9,4.9,14.7,7.2c33.9,16.5,66.9,35.2,98,55.7
		c34,22.3,67.2,47.8,98.8,75.6c27.9,24.6,55.4,51.7,81.5,80.6L2416.6,631.8z"/>
	<path class="st1" d="M2414.3,615.8c-51.5-63.3-111.2-116.8-177.4-158.9c-31.9-20.4-66.1-38.5-101.6-53.9c-1.7-0.7-3.4-1.5-5.1-2.2
		c-36.9-16-75.1-32.6-114.7-40.1c-15.4-2.9-29.7-4.4-43.9-4.6c-54.8-0.7-101.5,23.4-131.1,43.8c-17.4,11.9-32.8,25-47.8,37.7
		c-3.7,3.1-7.5,6.4-11.3,9.5c-14.3,12-27.7,25.7-41.8,40.1c-25.7,26.3-52.2,53.5-88.9,75.1c-21.2,12.5-44.1,21.8-69.9,28.6
		c-50.9,13.4-102.6,16.9-150.9,18.7c-29.8,1.1-60.9,0.9-92.5-0.6c-25.9-1.3-51.6-3.4-76.2-6.4c-71.2-8.6-140.4-26.3-205.6-52.7
		c-26.1-10.6-52.8-23.1-84-39.5c-59.3-31.1-103.4-53-142.8-71c-78.5-35.8-138.3-56.9-200.2-70.5c-41.4-9.1-84.9-15.3-129.4-18.6
		c-30.8-2.2-63.5-2-106,0.7c-8.7,0.6-17.6,1.2-26.5,2c-8.4,0.7-16.9,1.5-25.9,2.4c-33.3,3.2-71,6.8-114.1,6.1
		c-22.7-0.4-46-1.3-68.4-2.3c-25.5-1.1-51.9-2.2-77-2.3c-25.1-0.1-48.6,1.1-69.7,3.6c-75.7,9-135.6,29.1-160.4,53.6l-0.7-0.3
		c6.4-6.4,15.2-12.5,26.1-18.2c10.5-5.5,23-10.6,37.1-15.3c27.5-9,61.3-16,97.8-20.4c21.2-2.5,44.7-3.7,69.9-3.6
		c25.1,0.2,51.5,1.3,77,2.3c22.5,0.9,45.7,1.9,68.4,2.3c43.1,0.7,80.7-2.9,114-6.1c9-0.9,17.5-1.7,25.9-2.4c8.9-0.7,17.8-1.4,26.5-2
		c42.6-2.7,75.3-2.9,106.2-0.7c44.5,3.2,88,9.5,129.5,18.6c62,13.6,121.9,34.7,200.4,70.5c39.5,18,83.5,39.9,142.8,71
		c31.2,16.4,57.9,28.9,83.9,39.5c65.1,26.3,134.2,44.1,205.3,52.6c24.6,3,50.2,5.1,76.1,6.4c31.6,1.5,62.6,1.7,92.4,0.6
		c48.2-1.8,99.8-5.3,150.7-18.6c25.8-6.8,48.5-16.1,69.7-28.5c36.6-21.5,63.1-48.7,88.8-75c14.1-14.5,27.5-28.1,41.8-40.1
		c3.8-3.1,7.6-6.4,11.3-9.5c14.9-12.7,30.4-25.8,47.8-37.7c19.3-13.3,39.5-23.9,60.1-31.3c24.1-8.7,48.2-13,71.6-12.7
		c14.3,0.2,28.7,1.7,44.2,4.6c39.8,7.5,78,24.1,115,40.2c1.7,0.7,3.4,1.5,5.1,2.2c35.5,15.4,69.8,33.6,101.7,54
		c66.3,42.1,126,95.7,177.6,159L2414.3,615.8z"/>
	<path class="st1" d="M1448.1,609.4c-2.1,0-4.1,0-6.1,0c-29.6-0.1-60.7-1.5-92.4-4.1c-25.9-2.2-51.3-5.3-75.8-9.1
		c-34.9-5.4-69.9-13.2-104.1-23.2c-33-9.6-66.2-21.5-98.8-35.4c-31.9-13.6-61.7-28.8-84.1-40.5c-52.4-27.3-102.2-50.1-148.1-67.8
		c-74.4-28.7-140.6-46.2-208.5-55c-41-5.3-84.9-8.2-127.3-8.2c-0.7,0-1.3,0-2,0c-36.4,0.1-70.9,4.1-102.8,8.5
		c-8.3,1.1-16.9,2.4-25.5,3.7c-4.7,0.7-9.5,1.5-14.5,2.3c-35.4,5.7-75.4,12.1-124.1,11.5c-29.6-0.3-59.9-2.2-89.2-4
		c-18.9-1.2-38.5-2.3-57.1-3.1c-25.6-1-49.2-0.7-70.1,0.9c-75.3,5.8-138,21.5-167.9,41.8l-0.7-0.4c15.3-10.4,38.4-19.5,68.6-26.9
		c28.8-7.1,63.4-12.3,99.9-15.1c21-1.6,44.6-1.9,70.3-0.9c18.7,0.7,38.2,1.9,57.1,3.1c29.3,1.8,59.5,3.6,89.1,3.9
		c48.6,0.5,88.6-5.9,123.9-11.5c5-0.8,9.8-1.6,14.5-2.3c8.6-1.3,17.2-2.6,25.5-3.7c31.9-4.4,66.5-8.4,103-8.5
		c43-0.1,87.8,2.7,129.4,8.2c35.1,4.6,69,11.3,103.9,20.6c33.6,8.9,67.9,20.2,105,34.5c45.9,17.7,95.8,40.6,148.2,67.9
		c22.4,11.7,52.1,26.9,84,40.5c66,28.2,134.2,47.9,202.5,58.5c24.4,3.8,49.8,6.9,75.7,9.1c31.7,2.7,62.7,4,92.3,4.1
		c46.3,0.1,100-0.8,152.5-13.5c26.5-6.4,49.5-15.8,70.2-28.7c36.3-22.7,60.4-51.7,83.7-79.8c12-14.5,23.3-28.1,35.6-39.9
		c4-3.8,7.9-7.7,11.8-11.5c13-12.8,26.4-25.9,41.9-38.1c17.7-14,36.7-25.4,56.4-33.8c22.9-9.7,46.2-15.2,69.4-16.2
		c14.3-0.6,28.8,0,44.3,1.9c41.6,5.2,82.7,20.2,124.8,36.4c36.7,14.2,73.2,32.2,105.5,52.2c36,22.1,69.7,48.1,100.4,77.1
		c27.3,25.9,52.3,54.4,74.4,84.7l-0.8,0.2c-47.3-65.1-106.1-119.5-174.6-161.7c-32.3-19.9-68.8-38-105.4-52.1
		c-42-16.2-83.1-31.2-124.5-36.3c-15.5-1.9-29.9-2.6-44.1-1.9c-42.5,1.9-87,19.5-125.2,49.8c-15.5,12.2-28.9,25.3-41.9,38.1
		c-3.8,3.8-7.8,7.7-11.8,11.5c-12.3,11.8-23.6,25.5-35.6,39.9c-11.4,13.8-23.2,28.1-36.8,41.8c-15.4,15.5-30.8,28-47.1,38.2
		c-20.8,13-43.8,22.4-70.5,28.8c-23.5,5.7-48.8,9.5-77.2,11.5C1493.4,609.1,1469.2,609.4,1448.1,609.4z"/>
	<path class="st1" d="M1506.8,610.5c-18.7,0-36.6-0.7-52.7-1.3c-29.5-1.2-60.6-3.8-92.4-7.7c-25.8-3.2-51.1-7.1-75.3-11.8
		c-66.3-12.7-131.7-33.8-200-64.6c-29.8-13.4-57.9-27.8-84.1-41.5C950.5,456.8,898.9,435,848.8,419
		c-73.6-23.6-142.6-36.2-216.9-39.6c-42.3-1.9-87-1.1-129.1,2.2c-35.3,2.8-68.5,9.6-99.5,16.4c-7.8,1.7-16,3.5-24.5,5.5
		c-2.1,0.5-4.3,1-6.5,1.5c-35.7,8.3-76.2,17.7-128.1,17.7c-0.9,0-1.7,0-2.6,0c-35.1-0.2-71-3.2-105.6-6.1c-13.7-1.2-28-2.3-41.6-3.3
		c-26.6-1.9-49.7-2.4-70.6-1.7c-75.8,2.7-139.7,13.7-175.4,30.1l-0.6-0.5c17.7-8.1,43.2-15.1,73.9-20.4c30.1-5.1,65.5-8.5,102.1-9.8
		c20.9-0.7,44-0.2,70.7,1.7c13.7,1,27.9,2.2,41.6,3.3c34.6,2.9,70.5,5.9,105.5,6.1c53,0.3,94.1-9.2,130.3-17.7
		c2.2-0.5,4.3-1,6.5-1.5c8.5-2,16.8-3.8,24.6-5.5c31.1-6.7,64.4-13.6,99.7-16.4c42.2-3.4,86.9-4.2,129.3-2.2
		c36.8,1.7,71.9,5.6,107.3,11.9c36.5,6.6,72.4,15.6,109.9,27.7c50.1,16.1,101.8,37.9,153.6,64.7c26.2,13.6,54.3,28,84.1,41.4
		c68.2,30.7,133.6,51.8,199.7,64.5c24.2,4.6,49.5,8.6,75.2,11.8c31.8,3.9,62.8,6.4,92.3,7.7c49.6,2.1,102.4,3.2,154.3-8.4
		c27.3-6.1,50.4-15.5,70.7-28.9c36-23.8,58.5-56.2,78.3-84.9c10-14.4,19.4-28,29.8-39.6c3.8-4.2,7.5-8.5,11.2-12.7
		c11.4-13.1,23.2-26.6,37.2-39.3c16.2-14.7,33.9-26.9,52.8-36.3c21.7-10.7,44.3-17.4,67.2-19.7c14.3-1.5,28.8-1.7,44.5-0.7
		c43.7,2.7,88.1,16.3,129.5,30.5c38.3,13.1,76.1,30.5,109.3,50.4c37,22,71,48.2,101.2,77.9c27,26.5,50.8,55.7,70.9,86.7l-0.9,0.2
		c-42.5-65.9-101.9-122.8-171.8-164.4c-33.2-19.8-70.9-37.2-109.1-50.3c-41.4-14.2-85.6-27.7-129.2-30.4c-15.5-1-30-0.7-44.2,0.7
		c-42.2,4.3-84.6,24.1-119.3,55.8c-13.9,12.6-25.7,26.1-37.1,39.2c-3.6,4.2-7.4,8.5-11.2,12.7c-10.4,11.6-19.8,25.2-29.7,39.6
		c-19.8,28.7-42.3,61.2-78.5,85c-20.3,13.4-43.6,22.9-71.1,29.1c-23.8,5.3-49.5,8.4-78.6,9.4
		C1522.4,610.4,1514.5,610.5,1506.8,610.5z"/>
	<path class="st1" d="M1543.7,612.9c-0.3,0-0.5,0-0.8,0c-26.4,0-52.3-2-76.6-4c-29.5-2.4-60.6-6.2-92.4-11.3
		c-25.6-4.1-50.8-9-74.8-14.5c-63.6-14.5-126.3-36.9-197.3-70.5c-25.6-12.1-50.7-25.1-75-37.7c-3-1.6-6.1-3.1-9.1-4.7
		c-52-26.8-105.4-47.5-158.8-61.5c-73-19.1-146.7-27-225.2-24.1c-43,1.6-87.6,6-129,12.6c-32.6,5.3-61.7,13.7-96.3,24.2
		c-7,2.1-14.5,4.4-23.6,7.3l-0.5,0.2c-17.5,5.5-37.3,11.7-59.5,16.4c-25.5,5.4-50.3,8-75.7,8c-39.6-0.1-80-4.5-119.1-8.8
		c-9.6-1.1-19.5-2.1-29-3.1c-27.4-2.8-50.6-4.2-71-4.3c-74.9-0.4-141.6,6.3-183,18.3l-0.5-0.6c20.3-5.9,47.7-10.7,79.1-13.8
		c31.5-3.2,67.6-4.7,104.3-4.5c20.4,0.1,43.7,1.5,71.1,4.3c9.6,1,19.5,2.1,29.1,3.1c39,4.3,79.4,8.7,118.9,8.8c0.2,0,0.4,0,0.5,0
		c56.5,0,99.6-13.5,134.2-24.3l0.5-0.2c9.1-2.8,16.6-5.1,23.6-7.3c34.7-10.5,63.8-19,96.5-24.3c41.4-6.7,86.1-11.1,129.2-12.7
		c38.4-1.4,74.6-0.3,110.8,3.3c38.9,4,76.5,10.8,114.9,20.8c53.4,14,106.9,34.7,159,61.6c3,1.6,6.1,3.1,9.1,4.7
		c24.3,12.6,49.5,25.6,75,37.7c70.9,33.5,133.4,55.9,197,70.4c24,5.5,49.1,10.3,74.7,14.4c31.8,5.1,62.8,8.8,92.2,11.2
		c52.7,4.3,104.3,7.3,156.1-3.3c28.1-5.8,51.4-15.3,71.1-29.1c35.7-25,55.2-59.5,72.5-90.1c8.1-14.3,15.7-27.8,24.3-39.1
		c3.3-4.4,6.6-8.9,9.8-13.2c10-13.6,20.4-27.8,33.1-41.1c14.6-15.4,31.2-28.5,49.1-38.8c20.5-11.7,42.3-19.6,64.9-23.2
		c14-2.3,28.3-3.4,43.6-3.4c0.3,0,0.7,0,1,0c47.7,0.2,96.8,13.2,134.3,24.5c39.9,12.1,79,28.9,113.1,48.6
		c38,21.9,72.3,48.4,102,78.7c26.7,27.2,49.3,57,67.3,88.8l-1,0.2c-26.8-47.2-77.8-114.5-169-167.2c-34-19.7-73-36.5-112.8-48.5
		c-37.3-11.3-86.3-24.3-133.8-24.4c-15.6-0.1-30.1,1-44.3,3.4c-41.8,6.8-82.1,28.7-113.4,61.7c-12.7,13.3-23,27.4-33.1,41
		c-3.2,4.4-6.5,8.9-9.8,13.2c-8.6,11.3-16.2,24.8-24.2,39.1c-17.2,30.6-36.8,65.2-72.7,90.3c-19.9,13.9-43.3,23.5-71.6,29.3
		C1598.9,610.5,1573,612.9,1543.7,612.9z"/>
	<path class="st1" d="M1573,616c-5.7,0-11.5-0.1-17.5-0.3c-26-1-51.4-3.8-77.1-7c-29.9-3.6-60.1-8.5-92.3-14.8
		c-25.5-5.1-50.5-10.8-74.3-17.2c-60.4-16-120.4-39.6-194.5-76.4c-18.4-9.1-36.8-18.7-54.6-28c-9.7-5-19.7-10.3-29.6-15.4
		c-52.6-27-107.8-46.6-164.1-58.3c-74.3-15.4-150.7-18.3-233.5-8.6c-43.7,5.1-88.3,13.1-128.9,23.1c-32.6,8-61,19.3-91,31.2
		l-2.1,0.8c-4.7,1.9-9.4,3.8-14.2,5.7c-2.8,1.1-5.6,2.2-8.4,3.3c-17.5,7-36.4,14.4-58.1,20c-25.2,6.6-50.1,9.8-76.2,9.9
		c-43.4,0.1-87.7-5.9-130.5-11.8c-6.1-0.8-12.4-1.7-18.6-2.5c-28.8-3.9-51.5-6.1-71.4-7c-73.6-3.4-143-1-190.5,6.5l-0.3-0.7
		c47.6-7.5,117.2-9.9,190.9-6.5c20,0.9,42.7,3.1,71.6,7c6.1,0.8,12.5,1.7,18.6,2.5c42.3,5.8,86,11.8,128.9,11.8c0.5,0,0.9,0,1.4,0
		c55.4-0.2,94.9-14.2,133.7-29.8c2.8-1.1,5.6-2.2,8.4-3.3c4.8-1.9,9.5-3.8,14.2-5.7l2.1-0.8c30.1-12,58.5-23.3,91.2-31.3
		c40.6-10,85.3-18,129.1-23.1c83-9.6,159.6-6.8,234.1,8.7c56.4,11.7,111.7,31.4,164.5,58.4c9.9,5.1,19.9,10.3,29.6,15.4
		c17.8,9.3,36.2,18.9,54.6,28c74,36.8,133.9,60.3,194.2,76.3c23.8,6.3,48.7,12.1,74.2,17.1c32.2,6.3,62.3,11.2,92.2,14.8
		c45.3,5.5,101.7,12.3,157.9,1.8c28.9-5.4,52.3-15,71.6-29.3c35.4-26.2,51.8-62.9,66.3-95.4c6.3-14.1,12.2-27.4,19.2-38.5
		c2.7-4.3,5.4-8.8,8-13.1c8.8-14.4,17.9-29.4,29.5-43.6c13.2-16.1,28.5-30,45.5-41.3c19.3-12.7,40.4-21.7,62.7-26.7
		c14.3-3.2,28.9-5.2,44.8-6.1c21.2-1.2,43.8,0.1,69.1,3.8c21.4,3.1,44.3,8,70,14.8c41.5,11,81.9,27.2,116.9,46.8
		c39,21.8,73.6,48.5,102.8,79.4c26.3,27.8,47.8,58.4,63.8,90.8l-1.1,0.2c-33.7-68.5-92.8-128.8-166.2-169.9
		c-34.8-19.6-75.1-35.7-116.5-46.7c-55.5-14.7-99.5-20.6-138.5-18.5c-15.8,0.9-30.3,2.8-44.5,6c-53,11.9-87.7,43.4-107.5,67.7
		c-11.6,14.2-20.7,29.1-29.5,43.5c-2.6,4.3-5.3,8.8-8,13.1c-6.9,11-12.8,24.3-19.1,38.4c-14.5,32.5-30.9,69.4-66.5,95.7
		c-19.5,14.4-43.1,24-72.2,29.5C1617.2,614.2,1596.2,616,1573,616z"/>
	<path class="st1" d="M1598.4,619.6c-38.8,0-76-6-107.9-11.1c-30-4.8-60.2-10.8-92.3-18.4c-25.3-6-50.2-12.7-73.8-19.9
		c-70.8-21.5-134-52.2-191.7-82.3c-11.8-6.1-23.7-12.5-35.2-18.6c-16-8.5-32.5-17.3-49-25.8c-53.4-27.3-110.4-45.8-169.4-55.1
		c-76.3-12-155.4-9.8-241.8,6.8c-44.5,8.6-89,20.1-128.7,33.5c-30.6,10.3-56.6,23.3-84,37c-1.9,1-3.9,2-5.9,2.9l-1.1,0.5
		c-6.7,3.3-13.6,6.8-20.6,10.3c-16.8,8.3-35.2,17-56.6,23.6c-24.8,7.7-49.8,11.5-76.4,11.7c-46.7,0.3-94.3-7.5-140.4-15.2
		c-3.2-0.5-6.4-1.1-9.6-1.6c-30.4-5-52.5-8-71.8-9.6c-71.7-6.1-143.9-8.1-198.1-5.3l-0.1-0.8c54.2-2.8,126.5-0.8,198.4,5.3
		c19.4,1.7,41.6,4.6,72,9.6c3.2,0.5,6.4,1.1,9.6,1.6c46,7.6,93.5,15.5,140,15.1c57.8-0.4,98.5-18.3,132.1-35.1
		c7-3.5,13.9-6.9,20.6-10.3l1.1-0.5c2-1,3.9-2,5.9-2.9c27.5-13.8,53.5-26.8,84.2-37.1c39.8-13.4,84.4-24.9,129-33.5
		c41-7.9,79.5-12.4,117.6-13.9c42.6-1.6,84.6,0.7,124.9,7.1c59.1,9.3,116.3,27.9,169.9,55.3c16.6,8.5,33.1,17.3,49.1,25.8
		c11.5,6.1,23.4,12.5,35.2,18.6c57.6,30.1,120.7,60.8,191.4,82.2c23.6,7.2,48.4,13.8,73.7,19.8c32.1,7.5,62.2,13.6,92.1,18.4
		c46,7.4,103.2,16.6,159.7,6.9c29.7-5.1,53.2-14.7,72.1-29.4c35-27.4,48.1-66.4,59.7-100.9c4.6-13.8,9-26.9,14.4-37.7
		c2-4,4-8.1,5.9-12c7.6-15.5,15.5-31.6,26.2-47c11.7-16.9,25.8-31.6,41.8-43.8c18.1-13.7,38.4-23.9,60.4-30.2c14.3-4.1,29-7,45-8.7
		c21.5-2.4,45.4-2.3,71,0.2c22.4,2.2,46.9,6.4,72.8,12.4c43.2,10,84.9,25.6,120.7,45.1c40,21.7,74.8,48.7,103.6,80.2
		c26,28.5,46.2,59.7,60.2,92.8l-1.2,0.2c-29.6-70.2-87.6-131.5-163.4-172.7c-35.7-19.4-77.3-35-120.3-44.9
		c-55.7-12.9-102.6-17-143.1-12.6c-15.9,1.7-30.5,4.6-44.6,8.7c-52.3,15.1-84.1,48.4-101.6,73.6c-10.7,15.4-18.6,31.4-26.2,46.9
		c-1.9,4-3.9,8.1-5.9,12.1c-5.4,10.7-9.8,23.8-14.4,37.6c-5.6,16.6-11.9,35.4-21,53c-10.5,20.2-23.2,36-38.9,48.2
		c-9.1,7.1-19.5,13.1-31,18c-12.4,5.2-26.4,9.1-41.8,11.8C1633.4,618.4,1615.8,619.6,1598.4,619.6z"/>
	<path class="st1" d="M1621.3,623.5c-12.8,0-26.2-0.7-40.4-2.2c-27.9-2.9-54.6-8.3-78.2-13c-29.7-5.9-60.8-13.3-92.2-21.9
		c-25.2-6.9-49.9-14.5-73.3-22.6c-67.4-23-125.4-53.6-188.9-88.3c-5.6-3.1-11.4-6.2-16.9-9.3c-21.8-12-44.4-24.4-67.4-36.1
		c-54.3-27.6-113.1-45.1-174.7-51.9c-77.7-8.7-161.8-1.2-250.1,22.2c-45.3,12-89.8,27.2-128.6,43.9c-29.3,12.5-53.3,27.3-78.8,43
		c-2.6,1.6-5.2,3.2-7.8,4.8c-6.5,4-13.5,8.3-20.7,12.6c-15,9-33.2,19.3-55,27.1c-24.4,8.8-49.4,13.2-76.6,13.5
		c-49.7,0.6-100.2-9.3-149.1-18.8l-1.9-0.4c-23.9-4.7-49.3-9.4-72.2-12.3c-70.1-8.7-143.1-14.8-205.6-17.1l0.1-0.8
		c62.6,2.3,135.7,8.4,205.8,17.1c23.1,2.9,48.4,7.6,72.4,12.3l1.9,0.4c48.8,9.5,99.2,19.4,148.7,18.8c57.1-0.7,96.5-19.8,130.6-40.4
		c7.1-4.3,14.1-8.6,20.7-12.6c2.6-1.6,5.2-3.2,7.8-4.8c25.5-15.7,49.7-30.5,79-43.1c38.9-16.7,83.5-31.9,128.9-43.9
		c41.4-11,82.2-18.6,121.1-22.5c44.5-4.5,88.2-4.4,129.8,0.2c61.8,6.9,120.8,24.4,175.3,52.1c23,11.7,45.6,24.1,67.4,36.1
		c5.5,3,11.3,6.2,16.9,9.3c63.4,34.6,121.4,65.2,188.7,88.2c23.4,8,48.1,15.6,73.2,22.5c31.4,8.6,62.4,16,92.1,21.9
		c46.5,9.3,104.4,20.9,161.5,12c30.4-4.7,54.2-14.4,72.6-29.6c34.6-28.7,44.7-71.8,52.7-106.5c3.1-13.5,6.1-26.3,10.1-36.7
		c1.3-3.3,2.5-6.6,3.8-9.9c6.4-17,13-34.5,23-51.5c15.4-26.4,44.5-61.7,96.3-80c14.3-5.1,29.1-8.8,45.1-11.4
		c42-6.9,92-4.7,148.6,6.6c44.8,8.9,87.8,23.9,124.5,43.3c41,21.6,76.1,48.9,104.4,81c13,14.7,24.4,30.5,34.1,46.8
		c9.2,15.6,16.8,31.8,22.6,48.1l-1.3,0.2c-25.4-71.9-82.5-134.2-160.7-175.4c-36.5-19.3-79.4-34.2-124-43.1
		c-56.3-11.3-106.1-13.5-147.8-6.6c-15.9,2.6-30.6,6.3-44.8,11.3c-51.4,18.2-80.4,53.3-95.7,79.6c-9.9,16.9-16.5,34.4-22.9,51.4
		c-1.2,3.3-2.5,6.6-3.8,9.9c-4,10.4-7,23.1-10.1,36.6c-4.1,17.5-8.6,37.3-16.5,55.9c-9,21.5-21,38.1-36.5,51
		c-8.8,7.3-19.2,13.5-30.8,18.4c-12.5,5.2-26.8,9.1-42.6,11.6C1651.1,622.4,1636.7,623.5,1621.3,623.5z"/>
	<path class="st1" d="M1642.4,627.6c-15.4,0-31.5-1.2-48.8-3.6c-28-3.9-55-10.3-78.8-16c-29.9-7.2-61-15.7-92.2-25.5
		c-25-7.9-49.5-16.4-72.8-25.2c-64.2-24.4-119.2-55.9-177.5-89.2c-2.9-1.6-5.8-3.3-8.7-5c-27.1-15.5-55.1-31.5-84.3-46.3
		c-55.3-27.9-115.8-44.3-180-48.8c-80.6-5.6-167.5,7.1-258.4,37.7c-45.5,15.3-91.1,34.6-128.5,54.3c-28.2,14.9-50.9,31.6-74.9,49.3
		c-2.8,2.1-5.7,4.2-8.6,6.3c-5.7,4.2-12.5,9.2-19.7,14.3c-13.2,9.5-31.2,21.6-53.4,30.7c-24,9.8-49.1,14.9-76.7,15.3
		c-22.7,0.3-47.8-1.8-76.6-6.4c-24.8-4-48.7-9.3-75.3-15.2c-24.2-5.5-49.8-11.2-72.7-14.9c-67.9-11.1-139.6-20.8-213.2-28.9l0.3-0.9
		c73.6,8.1,145.3,17.8,213.3,28.9c23,3.8,48.6,9.4,72.8,14.9c44.5,10,99.8,22.4,151.4,21.6c59-1,96.9-22.6,129-45.7
		c7.1-5.1,13.9-10.1,19.7-14.3c2.9-2.1,5.7-4.2,8.6-6.3c24-17.7,46.7-34.5,75-49.4c37.5-19.7,83.2-39,128.8-54.4
		c91.2-30.7,178.4-43.4,259.3-37.8c31,2.1,61.5,7.1,90.5,14.8c31.2,8.2,61.5,19.7,90.2,34.2c29.2,14.8,57.3,30.8,84.4,46.3
		c2.9,1.7,5.8,3.3,8.7,4.9c58.2,33.3,113.2,64.7,177.2,89.1c23.3,8.9,47.8,17.4,72.8,25.2c31.2,9.8,62.2,18.3,92.1,25.5
		c47,11.2,105.5,25.2,163.3,17.1c31.3-4.4,55.2-14.1,73-29.8c34.3-29.9,40.4-75.6,45.3-112.3c1.8-13.1,3.4-25.5,6.2-35.6
		c0.6-2.1,1.1-4.1,1.7-6.2c5.1-18.9,10.5-38.4,19.7-57.5c13.2-27.4,39.6-64.6,90.4-86c14.2-6,29-10.6,45.3-14.1
		c22.6-4.9,47.8-7.2,74.9-6.8c24.7,0.3,51.1,2.8,78.5,7.5c46.4,7.9,90.7,22.2,128.2,41.5c42,21.5,77.4,49,105.2,81.8
		c12.8,15,23.8,31.1,32.8,47.8c8.7,16,15.5,32.5,20.3,49.2l-1.4,0.1c-21-72.6-78.5-137.6-157.9-178.2
		c-37.4-19.2-81.5-33.4-127.7-41.3c-57-9.7-109.7-9.9-152.5-0.7c-16.2,3.5-30.8,8-44.9,13.9c-50.5,21.3-76.8,58.3-89.9,85.5
		c-9.2,19-14.5,38.5-19.7,57.4c-0.6,2.1-1.1,4.2-1.7,6.2c-2.8,10-4.4,22.4-6.2,35.5c-4.9,36.8-11.1,82.6-45.6,112.7
		c-8.6,7.5-18.9,13.9-30.5,18.8c-12.6,5.3-27.2,9.1-43.4,11.4C1667.3,626.8,1655.2,627.6,1642.4,627.6z"/>
	<path class="st1" d="M1662.3,631.9c-17.5,0-36-1.7-56-5.1c-28.3-4.8-55.4-12.4-79.3-19c-30.2-8.4-61.2-18.2-92.1-29.1
		c-24.8-8.8-49.2-18.2-72.4-27.9c-57.1-24-105.8-53.4-157.5-84.6c-8.4-5.1-17.2-10.4-25.8-15.5c-30.4-18.2-56.4-33.2-84.4-47.2
		c-56.2-28.3-118.6-43.6-185.2-45.6c-83.8-2.4-173.5,15.4-266.8,53.1c-46.3,18.7-91.9,41.7-128.4,64.7c-27.5,17.3-49,36.1-71.7,56.1
		c-2.8,2.5-5.6,4.9-8.5,7.4c-5.1,4.4-11.8,10.3-18.7,16.1c-29.2,24.7-67.3,50.1-128.7,51.4c-1.9,0-3.8,0.1-5.8,0.1
		c-48,0-97-11.4-147.1-24.1l-3.1-0.8c-24.8-6.4-48.3-12.4-70-16.8c-81.8-16.5-160.9-30.4-220.7-40.7l0.4-0.9
		c59.8,10.3,138.9,24.2,220.8,40.7c21.8,4.4,45.2,10.4,70.1,16.8l3.1,0.8c52,13.2,102.7,25,152.2,24c60.8-1.3,98.5-26.5,127.5-51
		c6.9-5.8,13.6-11.7,18.7-16.1c2.8-2.5,5.7-5,8.5-7.4c22.8-20,44.3-38.8,71.9-56.2c36.6-23,82.2-46,128.6-64.8
		c43.1-17.4,86.1-30.8,128-39.8C818,360.2,865,355.7,909.6,357c67,2,129.7,17.4,186.2,45.8c27.9,14.1,54,29.1,84.5,47.3
		c8.7,5.2,17.4,10.4,25.8,15.5c51.6,31.1,100.3,60.5,157.3,84.5c23.2,9.7,47.5,19.1,72.3,27.9c30.9,10.9,61.8,20.6,92,29
		c47.4,13.2,106.4,29.6,165.1,22.2c32.1-4,56.1-13.8,73.5-30c33.9-31.3,35.9-79.5,37.6-118.3c0.5-12.7,1-24.6,2.7-34.2v-0.2
		c3.6-21.6,7.4-43.9,16-65.9c7.4-19.2,17.8-36.4,30.8-51.3c14.7-16.7,32.7-30.4,53.7-40.7c14-6.9,28.9-12.4,45.4-16.7
		c44.6-11.9,99.3-13.7,158.1-5.3c23.7,3.4,47,8.5,69.4,15.2c22.5,6.8,43.6,15,62.6,24.5c43,21.4,78.7,49.2,106,82.5
		c24.6,30,41.7,64.2,49.6,99l-1.5,0.1c-16.9-74.4-73.4-140.3-155.1-180.9c-38.2-19-83.6-32.7-131.4-39.5
		c-58.5-8.4-112.8-6.5-157.1,5.2c-16.4,4.3-31.1,9.8-45.1,16.6c-39.2,19.2-68.2,50.9-84,91.5c-8.6,21.9-12.3,44.2-15.9,65.8v0.2
		c-1.6,9.6-2.1,21.5-2.7,34.2c-1.7,38.9-3.7,87.3-37.8,118.8c-8.4,7.8-18.6,14.2-30.3,19.2c-12.7,5.3-27.5,9.1-44.2,11.2
		C1683.1,631.3,1672.9,631.9,1662.3,631.9z"/>
	<path class="st1" d="M287.9,637.3c-21.5,0-44.8-2.5-71.2-7.6c-26.2-5.1-52.1-12.1-76.2-19c-4.4-1.2-8.7-2.5-13-3.7
		c-21.4-6.1-41.6-12-60.5-16.5c-75.4-18-147.2-34.2-216.7-49.9l-11.5-2.6l0.6-0.9l11.5,2.6c69.5,15.7,141.3,31.9,216.7,49.9
		c19,4.5,39.2,10.3,60.6,16.5c4.3,1.2,8.6,2.5,13,3.7c49.5,14,102,27.7,153,26.4c62.7-1.6,100.2-30.9,125.9-56.3
		c6.6-6.5,12.9-13,17.7-17.9c2.6-2.7,5.3-5.4,7.9-8.1c21.7-22.4,42.2-43.5,69.2-63.4c35.6-26.3,81.3-53,128.5-75.2
		c43.8-20.6,88.1-36.9,131.5-48.4c49.8-13.2,98.4-20.1,144.6-20.4c69.4-0.6,133.9,13.7,191.6,42.6c32,16,60.7,33.4,84.5,48.3
		c13,8.1,26,16.4,38.5,24.4c44.4,28.4,90.3,57.7,141.9,81.5c23,10.6,47.2,20.9,71.8,30.6c30.5,11.9,61.4,22.9,92,32.6
		c47.8,15.1,107.2,34,166.9,27.3c32.9-3.7,57.1-13.5,74-30.1c33.4-32.7,31.2-83.6,29.4-124.5c-0.5-12.1-1-23.5-0.4-32.7
		c1.4-20.7,3.4-44.8,10.6-68.4c6-20,15.2-38.1,27.1-53.8c13.5-17.7,30.8-32.6,51.5-44.2c13.7-7.7,29-14.2,45.6-19.4
		c23.6-7.4,50.1-12.1,78.8-13.9c26.8-1.7,55.1-0.8,84.1,2.6c24.4,2.9,48.5,7.6,71.6,14c23.2,6.5,44.8,14.5,64.3,23.9
		c22.4,10.8,43,23.6,61.3,38.1c17.3,13.7,32.6,28.9,45.5,45.3c24.2,30.6,40.1,65.6,46,101l-1.6,0.1c-12.7-76.1-68.2-143-152.3-183.6
		c-38.5-18.6-86.5-32-135.1-37.7c-60.2-7-116.1-3.2-161.8,11.2c-16.4,5.1-31.6,11.6-45.2,19.2c-38.9,21.9-65.2,54.6-78.1,97.5
		c-7.2,23.5-9.2,47.6-10.6,68.3c-0.6,9.2-0.1,20.6,0.4,32.7c0.9,20.2,1.9,43.1-1.5,65.2c-3.9,25.7-13.1,45.2-28.1,59.9
		c-8.2,8-18.3,14.6-30.1,19.6c-12.8,5.4-27.9,9.1-45,11c-8.6,1-17.2,1.4-25.8,1.4c-51.3,0-101.1-15.8-142.2-28.8
		c-30.6-9.7-61.6-20.7-92.1-32.6c-24.7-9.7-48.8-20-71.9-30.6c-51.6-23.8-97.6-53.2-142.1-81.6c-12.6-8-25.5-16.3-38.5-24.4
		c-23.8-14.8-52.5-32.2-84.4-48.2c-57.4-28.8-121.5-43-190.5-42.4c-108.4,0.7-209.4,37.7-275.1,68.6
		c-47.2,22.2-92.7,48.8-128.3,75.1c-26.9,19.8-47.4,40.9-69.1,63.3c-2.6,2.7-5.3,5.4-7.9,8.1c-4.8,4.9-11.1,11.4-17.7,17.9
		c-10.8,10.7-27.7,26.2-50.2,37.8c-10.9,5.6-22.5,10.1-34.5,13.2c-13.4,3.5-27.7,5.4-42.6,5.8C292.2,637.2,290,637.3,287.9,637.3z"
		/>
	<path class="st1" d="M294.8,667.9c-21.5,0-44.8-2.7-71-8.2c-27.2-5.7-54-13.8-76.7-20.9c-7-2.2-13.9-4.4-20.7-6.6
		c-18.8-6-36.6-11.7-53.3-16.3C13,599.3-46.8,583.1-104.6,567.4c-19.1-5.2-38.9-10.6-58-15.8l0.7-1c19.2,5.2,38.9,10.6,58,15.8
		c57.8,15.7,117.5,31.9,177.7,48.5c16.8,4.6,34.6,10.3,53.4,16.3c6.7,2.1,13.7,4.4,20.6,6.6c47,14.7,101.6,30.3,153.8,28.9
		c64.1-1.8,100.2-33.9,124.4-61.6c6.2-7.1,12.2-14.2,16.8-19.6c2.3-2.8,4.6-5.6,7-8.3c20.8-24.9,40.4-48.4,66.9-71
		c34.5-29.4,80.1-59.8,128.4-85.6c67.3-35.8,171.2-79.5,284.5-84.3c72-3.1,138.3,10.2,197.1,39.5c26.4,13.2,52.5,28.4,84.6,49.3
		c16.2,10.6,32.3,21.5,47.9,32.1c40.5,27.5,82.4,56,129.7,79.8c22.9,11.5,46.9,22.7,71.3,33.3c29.6,12.8,60.5,25,91.9,36.2
		c48.2,17.1,108.3,38.4,168.7,32.4c33.1-3.2,58.2-13.4,74.4-30.3c33-34.2,25.9-90.1,20.7-130.9c-1.4-11.5-2.8-22.3-3.1-31
		c-0.6-19.4-0.6-45,5.2-70.8c10-44.8,34.4-79.8,72.7-104c13.4-8.5,28.8-16,45.7-22.1c24.1-8.7,51.2-14.5,80.7-17.4
		c27.8-2.7,57-2.6,86.9,0.1c25.2,2.4,50,6.7,73.7,12.8c23.9,6.2,46.1,14,66,23.4c22.9,10.8,43.9,23.6,62.3,38.2
		c17.4,13.8,32.7,29.2,45.4,45.9c23.8,31.3,38.5,66.9,42.5,103l-1.7,0.1c-8.6-77.8-63-145.8-149.4-186.4
		c-39.2-18.4-88.5-31.2-138.8-35.9c-62.1-5.7-119.6,0.2-166.5,17.1c-16.8,6-32,13.4-45.3,21.9c-38,24.1-62.3,58.9-72.2,103.4
		c-5.8,25.8-5.8,51.3-5.2,70.6c0.3,8.7,1.6,19.5,3.1,30.9c2.7,21.1,5.7,45,4,68.4c-2,27.2-10.2,47.8-24.9,63.1
		c-7.9,8.2-18,15-29.8,20c-12.9,5.5-28.3,9.1-45.8,10.8c-27.2,2.7-56.4,0.3-89.5-7.4c-28.7-6.7-56.2-16.5-80.4-25.1
		c-31.4-11.2-62.4-23.4-92-36.2c-24.5-10.6-48.5-21.8-71.4-33.3c-47.3-23.8-89.3-52.3-129.9-79.9c-15.6-10.6-31.7-21.5-47.9-32.1
		c-32.1-20.9-58.1-36-84.4-49.2c-58.4-29.1-124.2-42.3-195.8-39.3c-112.8,4.7-216.4,48.3-283.4,84c-48.2,25.8-93.7,56.1-128.1,85.5
		c-26.5,22.5-46.1,46-66.8,70.9c-2.3,2.8-4.6,5.5-7,8.3c-4.5,5.4-10.5,12.5-16.8,19.6c-24.4,27.9-60.8,60.3-125.9,62.1
		C299.5,667.9,297.1,667.9,294.8,667.9z"/>
	<path class="st1" d="M301.8,698.6c-58.7,0-120.3-21.7-174.9-40.9c-16.8-5.9-32.6-11.5-47.7-16.2L-164,565.4l0.8-1L80,640.5
		c15.1,4.7,31,10.3,47.8,16.2c56.7,19.9,121,42.5,181.4,40.6c65.6-2.1,100.1-36.8,122.9-66.9c7.4-9.8,14.6-19.8,21.6-29.5
		c19-26.4,38.7-53.7,64.9-79.2c20.8-20.2,46.6-41.4,74.7-61.2c30.8-21.8,63.7-41.8,98-59.4c37.7-19.4,76.1-35.5,114-47.8
		c41.9-13.6,83.3-22.4,122.8-26.4c79.2-7.8,151.3,4,214.2,35.3c52.3,26,96.7,58.1,139.7,89.1c37.4,27,76.1,55,119.8,78.9
		c50.6,27.6,105.3,53.1,162.7,75.7c48.4,19.1,108.5,42.8,170.5,37.5c52.4-4.5,82.7-25.6,92.6-64.4c8.4-33,0.4-72.2-6-103.6
		c-2.2-10.7-4.3-20.9-5.3-29.1c-5.6-45.3-2-82.7,11-114.3c8.1-19.7,20.1-37.3,35.5-52.3c17.3-16.7,39.5-30.6,66-41.4
		c22.9-9.3,48.7-16.1,76.8-20.1c26.7-3.8,54.8-5.1,83.5-3.8c56.5,2.6,111.7,15,155.6,35.1c23.4,10.7,44.7,23.6,63.2,38.3
		c17.6,13.9,32.8,29.6,45.2,46.6c23.4,31.9,36.9,68.3,38.9,105.1h-1.8c-4.3-78.4-59.1-149.1-146.7-189.1
		c-92.9-42.5-224.9-47.2-313.7-11.1c-88,35.7-124.5,103.4-111.7,206.9c1,8.2,3.1,18.3,5.3,29c6.5,31.5,14.5,70.8,6,103.9
		c-4.6,18.1-13.9,32.6-27.6,43.1c-7.7,5.9-17,10.8-27.6,14.4c-11.3,3.9-24.4,6.5-39,7.7c-6,0.5-12,0.8-18.2,0.8
		c-22.5,0-46.4-3.4-72.6-10.3c-29.6-7.8-58.1-19-81-28.1c-57.5-22.7-112.3-48.2-162.9-75.8c-43.9-23.9-82.6-51.9-120-79
		c-42.9-31-87.3-63.1-139.4-89c-62.5-31-134-42.8-212.7-35.1C769,343.9,605.1,439.9,520.1,522.4c-26.1,25.4-45.7,52.6-64.7,79
		c-7,9.7-14.2,19.7-21.6,29.5c-15.1,19.9-30,34.2-47,44.9c-10.6,6.7-22,11.9-34.1,15.7c-13.4,4.1-28,6.5-43.4,7
		C306.8,698.5,304.3,698.6,301.8,698.6z"/>
</g>
</svg>
