<?xml version="1.0" encoding="UTF-8"?>
<svg id="Layer_1" data-name="Layer 1" xmlns="http://www.w3.org/2000/svg" viewBox="0 0 885 485.22">
  <defs>
    <style>
      .cls-1 {
        fill: #fff;
      }

      .cls-2 {
        fill: #3a6bea;
      }

      .cls-3 {
        fill: #6363db;
      }

      .cls-4 {
        fill: #74c3f2;
      }

      .cls-5 {
        fill: #1f3c88;
        opacity: .2;
      }

      .cls-6 {
        fill: #dadada;
      }

      .cls-7 {
        fill: #cc5691;
      }

      .cls-8 {
        fill: #bdd4ff;
      }

      .cls-9 {
        fill: #86a7ff;
      }

      .cls-10 {
        fill: #e28b6d;
      }

      .cls-11 {
        fill: #379ddb;
      }

      .cls-12 {
        fill: #9090f4;
      }

      .cls-13 {
        fill: #102048;
      }

      .cls-14 {
        fill: #d3dfff;
      }

      .cls-15 {
        fill: #f9b384;
      }
    </style>
  </defs>
  <g>
    <g>
      <g>
        <path class="cls-6" d="m772.77,476.71l-.68-1.18c13.71-7.91,26.27-19.81,37.34-35.38,10.48-14.75,19.21-32.45,25.23-51.18,11.98-37.28,16.21-77.02,20.23-115.5-32.01,9.77-62.14,35.43-82.79,70.55-20.88,35.51-31.81,80.24-29.97,122.71l-1.36.06c-1.85-42.73,9.15-87.73,30.16-123.46,21.03-35.77,51.85-61.81,84.55-71.46l.97-.29-.11,1.01c-4.06,38.86-8.26,79.05-20.39,116.79-6.07,18.87-14.85,36.7-25.42,51.56-11.18,15.73-23.89,27.76-37.77,35.77Z"/>
        <path class="cls-6" d="m745.29,468.93l-1.36-.12c1.23-14.31,5.7-28.69,13.66-43.96,7.68-14.74,17.59-28.2,25.36-38.28,1.89-2.46,3.84-4.96,5.72-7.37,16.45-21.12,33.47-42.97,41.43-69.6l1.3.39c-8.04,26.88-25.13,48.82-41.66,70.04-1.88,2.42-3.83,4.91-5.72,7.37-7.74,10.04-17.6,23.44-25.23,38.08-7.88,15.11-12.3,29.32-13.51,43.45Z"/>
        <path class="cls-6" d="m781.28,398.64c-1.88,0-3.75-.12-5.6-.37l.18-1.35c8.14,1.09,16.73-.32,24.86-4.08,8.14-3.77,15.41-9.71,21.02-17.19l1.09.82c-5.74,7.65-13.19,13.74-21.54,17.61-6.52,3.02-13.34,4.57-20.01,4.57Z"/>
        <path class="cls-6" d="m794.68,371.82c-4.46-15.67-1.4-34.5,7.78-47.98l1.12.77c-8.97,13.16-11.95,31.55-7.6,46.84l-1.31.37Z"/>
      </g>
      <g>
        <path class="cls-6" d="m819.27,476.88l-.48-1.27c15.43-5.83,29.32-17.73,39.14-33.53,8.33-13.41,13.96-29.77,16.76-48.64-17.11.77-34.21,7.66-47.05,18.98l-.9-1.02c13.27-11.7,31.03-18.76,48.72-19.35l.81-.03-.12.8c-2.78,19.41-8.52,36.22-17.07,49.98-9.97,16.05-24.11,28.15-39.81,34.08Z"/>
        <path class="cls-6" d="m777.9,473.28l-.58-1.23c30.76-14.46,59.22-35.28,82.3-60.22l1,.92c-23.2,25.07-51.8,46-82.72,60.53Z"/>
      </g>
      <g>
        <path class="cls-6" d="m659.1,477.71c-11.93-4.48-22.79-12.83-31.42-24.17-7.94-10.43-13.87-23.11-17.15-36.66-6.48-26.82-3.41-55.43-.03-80.14l.15-1.11.91.64c21.73,15.22,44.19,30.97,60.48,52.68,18.15,24.18,24.59,52.61,17.24,76.05l-1.3-.41c7.22-23.02.85-50.99-17.03-74.82-15.94-21.24-37.91-36.78-59.26-51.74-3.3,24.33-6.17,52.33.15,78.53,3.23,13.37,9.08,25.88,16.91,36.16,8.48,11.13,19.13,19.33,30.82,23.72l-.48,1.27Z"/>
        <rect class="cls-6" x="650.32" y="355.56" width="1.36" height="118.48" transform="translate(-116.39 331.25) rotate(-26.29)"/>
        <path class="cls-6" d="m652.69,422.51c-6.94,0-13.92-1.84-20.25-5.34-6.61-3.66-12.05-8.87-15.75-15.09l1.17-.7c3.58,6.01,8.85,11.06,15.24,14.59,6.4,3.54,13.48,5.32,20.46,5.17l.03,1.36c-.3,0-.6.01-.9.01Z"/>
      </g>
    </g>
    <g>
      <g>
        <path class="cls-6" d="m142.39,475.77c-15.5-3.18-29.99-10.89-43.06-22.91-11.76-10.81-21.84-24.77-29.15-40.38-14.17-30.24-18.49-63.73-22.67-96.11l-.14-1.12,1.06.4c40.35,15.1,68.54,32.47,88.73,54.67,25.81,28.37,36.73,65.61,28.5,97.18l-1.32-.34c8.11-31.13-2.69-67.89-28.19-95.92-19.86-21.84-47.57-38.98-87.15-53.91,4.12,31.93,8.49,64.89,22.41,94.59,7.24,15.45,17.21,29.27,28.84,39.96,12.89,11.85,27.16,19.45,42.41,22.58l-.27,1.33Z"/>
        <path class="cls-6" d="m156.51,467.84c-11.09-21.67-24.35-42.46-39.39-61.79-15.05-19.32-31.95-37.27-50.24-53.34l.9-1.02c18.36,16.12,35.32,34.13,50.42,53.52,15.1,19.39,28.4,40.25,39.53,62l-1.21.62Z"/>
        <path class="cls-6" d="m108.58,398.5c-13.01-4.55-25.89-9.9-38.29-15.93l.59-1.22c12.35,6,25.18,11.34,38.14,15.87l-.45,1.28Z"/>
        <rect class="cls-6" x="116.62" y="405.2" width="30.39" height="1.36" transform="translate(-285.22 496.39) rotate(-84.25)"/>
      </g>
      <g>
        <path class="cls-6" d="m87.25,475.4c-7.98,0-16.19-2.37-23.88-6.92-7.63-4.51-14.56-10.98-20.04-18.71-4.37-6.17-9.11-17.25-14.09-32.92-3.7-11.65-6.15-21.62-6.17-21.72l-.26-1.04,1.05.22c1.42.29,34.8,7.23,46.75,17.94l-.91,1.01c-4.81-4.32-14.3-8.73-27.44-12.77-7.93-2.43-15-4.06-17.61-4.63,1.63,6.39,10.48,40,19.78,53.13,5.37,7.58,12.15,13.91,19.62,18.32,8.11,4.79,16.81,7.1,25.15,6.68l.07,1.36c-.67.03-1.35.05-2.02.05Z"/>
        <path class="cls-6" d="m82.79,458.32c-13.43-18.68-28.97-35.89-46.19-51.14l.9-1.02c17.29,15.32,32.9,32.61,46.39,51.37l-1.11.79Z"/>
      </g>
      <g>
        <path class="cls-6" d="m254.6,477.32l-.89-1.03c17.35-14.94,29.74-35.46,34.89-57.77,5.11-22.14,3.03-45.81-5.85-66.72-11.59,2.04-22.84,7.87-32.56,16.86-9.09,8.42-16.62,19.3-21.77,31.47-9.73,22.99-11.58,48.74-12.76,75.31l-1.36-.06c1.18-26.7,3.05-52.59,12.86-75.78,5.22-12.35,12.87-23.39,22.1-31.94,10.06-9.31,21.74-15.3,33.78-17.3l.53-.09.21.49c9.17,21.3,11.35,45.47,6.14,68.06-5.21,22.59-17.76,43.37-35.33,58.49Z"/>
        <path class="cls-6" d="m233.33,472.51l-1.3-.42c9.57-29.69,22.98-58.04,39.88-84.27l1.14.74c-16.83,26.12-30.2,54.37-39.73,83.95Z"/>
        <path class="cls-6" d="m253.39,421.6l-.78-1.12c8.57-5.94,18.54-10,28.83-11.75l.23,1.34c-10.09,1.71-19.87,5.7-28.28,11.52Z"/>
      </g>
    </g>
    <path class="cls-6" d="m569.41,434.62c-3.19,0-5.78-2.59-5.78-5.78s2.59-5.78,5.78-5.78,5.78,2.59,5.78,5.78-2.59,5.78-5.78,5.78Zm0-10.21c-2.44,0-4.42,1.98-4.42,4.42s1.98,4.42,4.42,4.42,4.42-1.98,4.42-4.42-1.98-4.42-4.42-4.42Z"/>
    <path class="cls-6" d="m797.38,268.58c-3.19,0-5.78-2.59-5.78-5.78s2.59-5.78,5.78-5.78,5.78,2.59,5.78,5.78-2.59,5.78-5.78,5.78Zm0-10.21c-2.44,0-4.42,1.98-4.42,4.42s1.98,4.42,4.42,4.42,4.42-1.98,4.42-4.42-1.98-4.42-4.42-4.42Z"/>
    <circle class="cls-6" cx="873.59" cy="355" r="5.1"/>
    <circle class="cls-6" cx="55.98" cy="259.73" r="5.1"/>
    <path class="cls-6" d="m12.09,354.32c-3.19,0-5.78-2.59-5.78-5.78s2.59-5.78,5.78-5.78,5.78,2.59,5.78,5.78-2.59,5.78-5.78,5.78Zm0-10.21c-2.44,0-4.42,1.98-4.42,4.42s1.98,4.42,4.42,4.42,4.42-1.98,4.42-4.42-1.98-4.42-4.42-4.42Z"/>
    <path class="cls-6" d="m326.82,421.35c-3.19,0-5.78-2.59-5.78-5.78s2.59-5.78,5.78-5.78,5.78,2.59,5.78,5.78-2.59,5.78-5.78,5.78Zm0-10.21c-2.44,0-4.42,1.98-4.42,4.42s1.98,4.42,4.42,4.42,4.42-1.98,4.42-4.42-1.98-4.42-4.42-4.42Z"/>
  </g>
  <g>
    <g>
      <path class="cls-1" d="m113.71,109.57c0-11.02-15.23-19.96-34.02-19.96s-34.02,8.94-34.02,19.96,15.23,19.96,34.02,19.96c4.1,0,8.04-.43,11.68-1.21,2.55,3.06,6.95,5.8,14.38,7.38,0,0-2.73-5.01-4.4-10.74,7.55-3.66,12.36-9.2,12.36-15.39Z"/>
      <path class="cls-9" d="m107.7,137.16l-2.17-.46c-6.58-1.4-11.47-3.84-14.55-7.25-3.63.73-7.43,1.11-11.3,1.11-9.27,0-17.99-2.13-24.58-5.99-6.75-3.96-10.47-9.29-10.47-15s3.72-11.03,10.47-15c6.58-3.86,15.31-5.99,24.58-5.99s17.99,2.13,24.58,5.99c6.75,3.96,10.47,9.29,10.47,15,0,6.17-4.42,11.94-12.16,15.92,1.63,5.21,4.04,9.67,4.07,9.72l1.06,1.95Zm-15.95-9.96l.39.48c2.43,2.93,6.36,5.12,11.7,6.53-.96-2.01-2.42-5.32-3.48-8.95l-.24-.83.78-.38c7.49-3.63,11.79-8.91,11.79-14.47,0-10.44-14.81-18.94-33-18.94s-33,8.5-33,18.94,14.81,18.94,33,18.94c3.94,0,7.8-.4,11.46-1.18l.6-.13Z"/>
    </g>
    <g>
      <rect class="cls-9" x="60.06" y="104.58" width="38.79" height="1.36"/>
      <rect class="cls-9" x="60.06" y="112.06" width="28.58" height="1.36"/>
    </g>
  </g>
  <g>
    <g>
      <path class="cls-1" d="m761.42,86.43c0-11.02,15.23-19.96,34.02-19.96s34.02,8.94,34.02,19.96-15.23,19.96-34.02,19.96c-4.1,0-8.04-.43-11.68-1.21-2.55,3.06-6.95,5.8-14.38,7.38,0,0,2.73-5.01,4.4-10.74-7.55-3.66-12.36-9.2-12.36-15.39Z"/>
      <path class="cls-9" d="m767.43,114.02l1.06-1.95s2.44-4.51,4.07-9.72c-7.74-3.98-12.16-9.75-12.16-15.92,0-5.71,3.72-11.03,10.47-15,6.58-3.86,15.31-5.99,24.58-5.99s17.99,2.13,24.58,5.99c6.75,3.96,10.47,9.29,10.47,15s-3.72,11.03-10.47,15c-6.58,3.86-15.31,5.99-24.58,5.99-3.87,0-7.67-.37-11.3-1.11-3.08,3.42-7.97,5.86-14.55,7.25l-2.17.46Zm28.02-46.53c-18.2,0-33,8.5-33,18.94,0,5.57,4.3,10.84,11.79,14.47l.78.38-.24.83c-1.06,3.63-2.51,6.95-3.48,8.95,5.33-1.41,9.26-3.6,11.7-6.53l.4-.48.6.13c3.67.79,7.52,1.18,11.46,1.18,18.2,0,33-8.5,33-18.94s-14.81-18.94-33-18.94Z"/>
    </g>
    <g>
      <rect class="cls-9" x="776.28" y="81.44" width="38.79" height="1.36"/>
      <rect class="cls-9" x="776.28" y="88.93" width="28.58" height="1.36"/>
    </g>
  </g>
  <g>
    <g>
      <g>
        <rect class="cls-14" x="380.58" y="342.75" width="118.41" height="133.38"/>
        <path class="cls-9" d="m500.01,477.15h-120.45v-135.42h120.45v135.42Zm-118.41-2.04h116.36v-131.34h-116.36v131.34Z"/>
      </g>
      <rect class="cls-5" x="380.58" y="342.75" width="118.41" height="56.84"/>
      <circle class="cls-1" cx="439.79" cy="386.53" r="31.53" transform="translate(-144.51 424.19) rotate(-45)"/>
    </g>
    <g>
      <g>
        <rect class="cls-14" x="184.84" y="10.67" width="509.9" height="368.46" rx="11.72" ry="11.72"/>
        <path class="cls-9" d="m683.39,380.15H196.18c-6.82,0-12.36-5.55-12.36-12.36V22.01c0-6.82,5.55-12.36,12.36-12.36h487.21c6.82,0,12.36,5.55,12.36,12.36v345.78c0,6.82-5.55,12.36-12.36,12.36ZM196.18,11.69c-5.69,0-10.32,4.63-10.32,10.32v345.78c0,5.69,4.63,10.32,10.32,10.32h487.21c5.69,0,10.32-4.63,10.32-10.32V22.01c0-5.69-4.63-10.32-10.32-10.32H196.18Z"/>
      </g>
      <g>
        <rect class="cls-1" x="194.1" y="23.66" width="491.38" height="302.59"/>
        <path class="cls-9" d="m686.5,327.27H193.08V22.64h493.42v304.63Zm-491.38-2.04h489.34V24.68H195.12v300.54Z"/>
      </g>
    </g>
    <g>
      <g>
        <rect class="cls-14" x="379.86" y="50.14" width="111.14" height="12.99"/>
        <rect class="cls-14" x="291.34" y="75.82" width="288.19" height="4.86"/>
      </g>
      <g>
        <rect class="cls-9" x="523.78" y="221.23" width="111.19" height="4.86"/>
        <rect class="cls-9" x="523.78" y="233.31" width="95.74" height="4.86"/>
        <rect class="cls-9" x="523.78" y="245.38" width="60.39" height="4.86"/>
      </g>
      <g>
        <rect class="cls-14" x="523.78" y="267.86" width="97.8" height="4.86"/>
        <rect class="cls-14" x="523.78" y="279.93" width="84.21" height="4.86"/>
      </g>
      <g>
        <rect class="cls-14" x="236.24" y="209.32" width="47.2" height="73.98"/>
        <rect class="cls-3" x="295.42" y="209.2" width="53.05" height="24.44"/>
        <rect class="cls-14" x="295.42" y="245.55" width="53.05" height="37.85"/>
      </g>
      <g>
        <path class="cls-9" d="m484.55,283.93h-98.23c-4.18,0-7.59-3.4-7.59-7.59v-49.34c0-4.18,3.4-7.59,7.59-7.59h98.23c4.18,0,7.59,3.4,7.59,7.59v49.34c0,4.18-3.4,7.59-7.59,7.59Zm-98.23-63.33c-3.53,0-6.4,2.87-6.4,6.4v49.34c0,3.53,2.87,6.4,6.4,6.4h98.23c3.53,0,6.4-2.87,6.4-6.4v-49.34c0-3.53-2.87-6.4-6.4-6.4h-98.23Z"/>
        <polygon class="cls-2" points="390.53 270.25 389.47 269.72 396.18 256.3 404.48 264.98 414.35 243.65 427.59 256.09 442.17 241.52 456.41 250.23 474.68 231.17 475.54 232 456.6 251.74 442.34 243.02 427.62 257.75 414.74 245.64 404.82 267.07 396.49 258.34 390.53 270.25"/>
        <g>
          <rect class="cls-9" x="440.47" y="267.51" width="11.28" height="5.94"/>
          <rect class="cls-2" x="459.18" y="269.88" width="19.6" height="1.19"/>
        </g>
      </g>
      <g>
        <path class="cls-8" d="m479.72,140.04c-3.98-14.84-15.23-26.71-29.7-31.56l-14.59,43.47,44.29-11.92Z"/>
        <path class="cls-7" d="m435.43,151.95l-20.3,41.12c6.12,3.03,13.01,4.74,20.3,4.74,25.33,0,45.86-20.53,45.86-45.86,0-4.12-.55-8.11-1.57-11.92l-44.29,11.92Z"/>
        <path class="cls-3" d="m450.02,108.48c-4.58-1.54-9.49-2.38-14.59-2.38-25.33,0-45.86,20.53-45.86,45.86,0,18.04,10.42,33.63,25.56,41.12l20.3-41.12,14.59-43.47Z"/>
      </g>
      <g>
        <rect class="cls-14" x="260.06" y="184.16" width="64.59" height="4.86"/>
        <g>
          <path class="cls-9" d="m349.06,173.52h-113.41v-65.57h113.41v65.57Zm-112.23-1.19h111.04v-63.19h-111.04v63.19Z"/>
          <g>
            <path class="cls-14" d="m340.75,122.27c-3.76-.76-7.49,1.7-9.87,4.72-1.13,1.43-2.06,3-2.98,4.58-1.02,1.76-2.02,3.52-3.25,5.13-2.33,3.06-5.96,5.62-9.75,5.04-6.15-.94-9.52-9.39-15.74-9.28-2.91.05-5.4,2.06-7.38,4.2-1.98,2.14-3.79,4.56-6.37,5.91-3.6,1.89-8.05,1.27-11.79-.33-3.74-1.61-7.01-4.1-10.56-6.09-5.95-3.32-12.71-5.08-19.52-5.25v32.07h97.61v-40.6c-.14-.04-.27-.08-.41-.11Z"/>
            <path class="cls-9" d="m273.63,142.24c3.74,1.61,8.18,2.22,11.79.33,2.58-1.35,4.39-3.78,6.37-5.91,1.98-2.14,4.47-4.15,7.38-4.2,6.22-.11,9.59,8.34,15.74,9.28,3.79.58,7.42-1.98,9.75-5.04,1.23-1.61,2.23-3.38,3.25-5.13-3.78.17-7.56.36-10.84-1.39-3.26-1.74-5.4-5.13-8.64-6.89-5.83-3.15-12.96-.15-18.78,3.05-3.47,1.91-7.35,3.96-11.19,3.02-4.35-1.07-6.9-5.5-10.53-8.14-6.94-5.06-17.36-2.6-23.29,3.62,0,0,0,0-.01.01-.71.75-1.08,1.7-1.08,2.68v3.37c6.8.18,13.57,1.93,19.52,5.25,3.55,1.98,6.83,4.48,10.56,6.09Z"/>
          </g>
        </g>
      </g>
      <g>
        <path class="cls-9" d="m635.53,199.77h-113.59v-91.91h113.59v91.91Zm-112.23-1.36h110.87v-89.19h-110.87v89.19Z"/>
        <g>
          <rect class="cls-9" x="540.73" y="146.15" width="11.88" height="39.98"/>
          <rect class="cls-14" x="540.73" y="125.96" width="11.88" height="20.19"/>
          <rect class="cls-14" x="562.11" y="125.96" width="11.88" height="29.99"/>
          <rect class="cls-9" x="562.11" y="155.95" width="11.88" height="30.18"/>
          <rect class="cls-9" x="583.49" y="139.18" width="11.88" height="46.96"/>
          <rect class="cls-14" x="583.49" y="125.96" width="11.88" height="13.21"/>
          <rect class="cls-9" x="604.86" y="156.69" width="11.88" height="29.44"/>
          <rect class="cls-14" x="604.86" y="125.96" width="11.88" height="30.73"/>
        </g>
      </g>
    </g>
  </g>
  <g>
    <g>
      <g>
        <polygon class="cls-13" points="205.92 476.13 183.69 452.99 183.73 435.92 156.73 436.72 158.96 476.13 205.92 476.13"/>
        <polygon class="cls-10" points="183.91 371.78 153.29 375.87 154.5 397.23 183.84 396.51 183.91 371.78"/>
        <polygon class="cls-15" points="183.84 396.51 154.5 397.23 156.73 436.72 183.73 435.92 183.84 396.51"/>
        <rect class="cls-1" x="171.51" y="454.35" width="12.79" height="2.72" transform="translate(-177.11 119.12) rotate(-25.2)"/>
      </g>
      <g>
        <polygon class="cls-10" points="248.56 364.75 219.07 363.62 215.2 386.18 243.45 390.31 248.56 364.75"/>
        <path class="cls-13" d="m255.14,453.22l-18.15-30.62,2.35-11.73c-8-1.83-20.36-4.66-27.31-6.21l-6.11,35.63,49.22,12.93Z"/>
        <path class="cls-15" d="m243.45,390.31l-28.25-4.13-3.17,18.47c6.95,1.55,19.31,4.37,27.31,6.21l4.11-20.55Z"/>
        <rect class="cls-1" x="225.22" y="423.16" width="12.09" height="2.72" transform="translate(-123.36 95.98) rotate(-18.61)"/>
      </g>
      <path class="cls-13" d="m268.29,368.16s-12.25,15.42-34.94,10.43c-22.67-4.98-18.59,8.17-31.3,10.89-12.7,2.72-48.08-19.5-59.88,1.36,0,0-7.02-79.01-3.82-129.01.87-13.5,2.48-24.89,5.19-32.04l54.29-.75,11.95-.16s.04.26.14.78c.2,1.08.61,3.27,1.29,6.4,4.44,20.59,20.01,81.66,57.09,132.11Z"/>
      <path class="cls-13" d="m211.2,236.05c-12.14,8.02-37.45,21.79-72.85,25.78.87-13.5,2.48-24.89,5.19-32.04l54.29-.75,12.09.61c.2,1.08.61,3.27,1.29,6.4Z"/>
    </g>
    <g>
      <g>
        <rect class="cls-1" x="104.86" y="241.7" width="46.27" height="61.92" transform="translate(425.72 226.97) rotate(106.42)"/>
        <path class="cls-9" d="m151.62,304.45l-60.7-17.89,13.47-45.69,60.7,17.89-13.47,45.69Zm-59.01-18.81l58.09,17.12,12.7-43.08-58.09-17.12-12.7,43.08Z"/>
      </g>
      <g>
        <rect class="cls-9" x="144.41" y="268.74" width="13.78" height="1.36" transform="translate(-149.9 338.38) rotate(-73.58)"/>
        <rect class="cls-9" x="123.81" y="275.63" width="33.17" height="1.36" transform="translate(-164.33 332.87) rotate(-73.58)"/>
        <rect class="cls-9" x="115.65" y="273.23" width="33.17" height="1.36" transform="translate(-167.88 323.33) rotate(-73.58)"/>
        <rect class="cls-9" x="107.5" y="270.82" width="33.17" height="1.36" transform="translate(-171.43 313.77) rotate(-73.58)"/>
        <rect class="cls-9" x="104.36" y="264.67" width="25.35" height="1.36" transform="translate(-170.58 302.59) rotate(-73.58)"/>
      </g>
    </g>
    <path class="cls-15" d="m244.11,148.58s1.68-16.17,3.19-15.9,1.34,4.22,1.34,4.22c0,0,3.53-9.02,5.17-9.01,1.64.01-.04,3.69-.04,3.69,0,0,1.82-3.69,3.18-3.4,1.36.28.24,3.41.24,3.41,0,0,1.42-3.02,2.8-2.49s.51,3.01.51,3.01c0,0,.75-1.96,2.04-.65,1.29,1.31-5.31,20.24-5.31,20.24l-9.3,2.65-3.84-5.78Z"/>
    <path class="cls-12" d="m257.29,151.76s-8.11,33.36-28.57,43.1c-4.79,2.3-10.26,3.29-16.45,2.26l-3.66-6.52-24.01-42.71,8.38-2.94s18.84,7.02,29.04,22.67c0,0,9.53-.9,22.22-19.95l13.04,4.08Z"/>
    <path class="cls-13" d="m228.72,194.86c-4.79,2.3-10.26,3.29-16.45,2.26l-3.66-6.52.94-15.94s13.88,7.88,19.18,20.2Z"/>
    <path class="cls-15" d="m144.22,259.22s-1.84,15.7-3.44,15.44c-1.61-.27-1.41-4.22-1.41-4.22,0,0-3.8,9.04-5.55,9.04-1.75,0,.05-3.69.05-3.69,0,0-1.96,3.7-3.41,3.42-1.45-.28-.24-3.41-.24-3.41,0,0-1.53,3.03-3,2.5s-.53-3.01-.53-3.01c0,0-.81,1.96-2.18.66-1.36-1.3,5.75-20.27,5.75-20.27l9.91-2.7,4.04,6.25Z"/>
    <path class="cls-12" d="m176.77,145.29c-40.26,4.88-52.11,60.68-47.52,113.08l14.97.91s2.5-51.26,23.14-75.76l17.24-35.61-7.83-2.61Z"/>
    <path class="cls-12" d="m184.59,147.9l27.9,18.83s7.71,36.07,7.26,68.05c0,0-53.99,19.96-80.75-.91l21.1-68.5,24.5-17.47Z"/>
    <g>
      <path class="cls-13" d="m200.61,115.29c2.59-9.02-6.49-19.56-23.84-10.6,0,0-17.24,2.95-14.18,32.89l18.15.68,19.87-22.97Z"/>
      <path class="cls-13" d="m180.4,104.07c2.37-9.53-7.98-11.05-9.7-5.21-.23.78-5.27-2-6.68,2.54-1.62,5.21,4,8.67,10.35,7.37l6.04-4.7Z"/>
      <polygon class="cls-15" points="192.98 127.03 192.98 144.96 185.16 155.95 176.77 145.3 177.22 126.69 192.98 127.03"/>
      <path class="cls-13" d="m192.98,133.16v11.5c-5.61-2.44-8.02-9.8-8.02-9.8l8.02-1.7Z"/>
      <path class="cls-15" d="m200.61,115.29s5.57,29.43-15.64,19.56l-6.97-8,4.34-16.16,11.15-2.72,7.12,7.32Z"/>
      <path class="cls-13" d="m200.61,115.29s-4.45-6.92-10-3.57c-5.56,3.35-5.27,15.08-11.06,12.14-5.78-2.95-2.44-12.02-2.44-12.02l8.51-6.46,9.53,1.08,5.47,8.85Z"/>
      <path class="cls-15" d="m181.56,122.92c1.27,2.2.74,4.88-1.19,5.99-1.93,1.11-4.52.23-5.78-1.96-1.27-2.2-.74-4.88,1.19-5.99,1.93-1.11,4.52-.23,5.78,1.96Z"/>
    </g>
    <circle class="cls-13" cx="185.27" cy="165.59" r="2.72"/>
    <path class="cls-13" d="m146.47,238.42l-1.34-.26c.02-.1,2-10.2,5.33-21.5,4.49-15.24,9.17-25.3,13.92-29.9l.95.98c-10.95,10.62-18.78,50.28-18.86,50.68Z"/>
    <path class="cls-13" d="m141.43,206.29c-2.5-1.88-8.35-1.68-8.41-1.68l-.05-1.36c.26,0,6.4-.21,9.28,1.95l-.82,1.09Z"/>
  </g>
  <g>
    <g>
      <polygon class="cls-13" points="731.94 434.62 731.48 460.47 725.58 476.13 757.57 476.13 755.75 433.93 731.94 434.62"/>
      <g>
        <polygon class="cls-13" points="684.87 437.34 684.87 458.77 659.69 476.13 710.39 476.13 707.32 434.96 684.87 437.34"/>
        <rect class="cls-1" x="687.31" y="456.89" width="2.72" height="9.55" transform="translate(-95.8 730.01) rotate(-52.72)"/>
      </g>
      <path class="cls-13" d="m727.4,227.07l-.14.52-4.52,17.82-9.85,38.83c-1.37,6.19-2.41,12.87-3.17,19.87-4.8,44.19,1.4,100.67,4.63,125.03.84,6.4-4.14,12.06-10.59,12.06h-17.92c-4.12,0-7.88-2.38-9.66-6.1-22.85-47.85-19.14-119.32-14.55-136.81,7.25-27.67,12.25-68.95,12.25-68.95l15.23-.65,38.3-1.62Z"/>
      <path class="cls-13" d="m761.71,428.7c-.15,6.15-5.17,11.06-11.32,11.06h-15.35c-5.68,0-10.48-4.21-11.21-9.84-2.93-22.32-10.06-78.56-14.1-125.82-2.11-24.8-3.36-47.12-2.71-60.78.23-5.19.75-9.12,1.61-11.47l18.65-4.26,18.99-4.33s4.71,5.02,9.04,31.77c4.5,27.9,8.57,79.47,6.42,173.68Z"/>
      <path class="cls-13" d="m707.78,341.87c-.84-17.43-.31-32.29,1.64-45.43.63-4.23,2.86-8.06,6.28-10.78l12.75-10.14.85,1.07-12.75,10.14c-3.15,2.51-5.2,6.02-5.78,9.91-1.93,13.05-2.46,27.83-1.62,45.17l-1.36.07Z"/>
      <path class="cls-13" d="m669.53,347.51l-.17-1.35c8.55-1.06,15.87-1.21,22.39-.45l-.16,1.35c-6.41-.74-13.63-.59-22.07.45Z"/>
      <path class="cls-13" d="m730.77,344.33l-.17-1.35c8.55-1.06,15.87-1.21,22.39-.45l-.16,1.35c-6.41-.74-13.63-.59-22.07.45Z"/>
      <path class="cls-13" d="m693.19,425.02c-11.64,0-20.26-2.07-20.39-2.11l.33-1.32c.2.05,20.01,4.8,40.03-.27l.33,1.32c-7.07,1.79-14.11,2.38-20.29,2.38Z"/>
      <path class="cls-13" d="m741.14,425.1c-1.84,0-3.58-.05-5.16-.14-7.52-.39-13.26-1.5-13.32-1.51l.26-1.34c.22.04,22.62,4.31,37.52-1.2l.47,1.28c-6.17,2.28-13.53,2.91-19.77,2.91Z"/>
      <path class="cls-13" d="m755.28,255.02c-8.67-4.63-20.63-7.65-32.54-9.62-5.35-.9-10.7-1.57-15.73-2.08-15.94-1.62-28.72-1.62-28.72-1.62l10.81-13.01,38.3-1.62-.14.52,18.99-4.33s4.71,5.02,9.04,31.77Z"/>
    </g>
    <g>
      <rect class="cls-10" x="688.16" y="124.64" width="15.75" height="26.28"/>
      <path class="cls-13" d="m695.53,135.57s-1.59,5.73-7.38,9.65v-11.47l7.38,1.82Z"/>
      <path class="cls-10" d="m680.04,111.23l-1.11,11.06s-5.15,6.91-1.94,6.91c3.46,0,2.9,1.38,2.9,1.38,0,0-1.94,14.38,15.62,4.98l3.73-21.57-19.22-2.77Z"/>
      <path class="cls-13" d="m680.04,111.23s4.77-.62,6.01,4.42c1.24,5.05,2.9,8.16,7.12,4.63l4.63-7.61-7.95-3.32-9.82,1.87Z"/>
      <path class="cls-13" d="m680.04,111.23c0-3.6,4.26-12.17,17.7-9.89,12.84,2.18,14.86,20.19,8.23,28.42,0,0-3.39,5.32-7.95-4.42l-7.81-10.51-1.66-3.32-8.5-.28Z"/>
      <path class="cls-10" d="m698.72,124.67c-1.27,2.2-3.85,3.08-5.77,1.98-1.92-1.11-2.44-3.79-1.17-5.99,1.27-2.2,3.85-3.08,5.77-1.98,1.92,1.11,2.44,3.79,1.17,5.99Z"/>
    </g>
    <g>
      <path class="cls-11" d="m728.53,145.18c30.17,9.75,53.99,50.58,26.09,51.26-27.9.68-44.91-25.18-44.91-25.18l18.83-26.09Z"/>
      <path class="cls-10" d="m595.04,176.32s-14.9-6.5-15.41-5.05c-.5,1.45,3.02,3.25,3.02,3.25,0,0-9.59-1.36-10.39.07-.8,1.43,3.23,1.78,3.23,1.78,0,0-4.11-.23-4.53,1.1-.42,1.32,2.85,1.89,2.85,1.89,0,0-3.33-.25-3.54,1.22-.21,1.46,2.37,1.93,2.37,1.93,0,0-2.08-.31-1.57,1.45.5,1.76,20.24,5.33,20.24,5.33l6.88-6.79-3.15-6.19Z"/>
      <path class="cls-4" d="m744.03,236.24l-67.36,7.35c-5.68.61-10.59-3.92-10.41-9.64l.84-27.79.39-12.81v-.31s-.48.59-1.46,1.5c0,.01-.01.01-.03.03-.64.59-1.48,1.31-2.53,2.1-8.94,6.75-32.79,18.35-72.19-7.36l3.74-12.97,42.53,1.74s19.07-15.41,36-25.98c11.06-6.91,23.87-10.74,36.91-10.4,5.89.15,12.22,1.09,18.06,3.48,14.36,5.93,21.48,58.9,23.82,80.72.56,5.16-3.17,9.79-8.33,10.34Z"/>
      <path class="cls-11" d="m632.87,190.59c-1.23-8.45,4.04-12.86,4.27-13.04l.86,1.05s-1.25,1.04-2.33,3c-1.44,2.62-1.93,5.58-1.46,8.79l-1.35.2Z"/>
      <path class="cls-11" d="m673.53,188.28s-.42,10.97-6.42,17.88l.39-12.81c2.25-1.82,4.82-3.96,6.03-5.08Z"/>
      <path class="cls-11" d="m653.59,202.89l-.27-1.33c9.85-1.97,23.12-18.47,23.25-18.64l1.06.85s-3.44,4.3-8.06,8.74c-6.25,6.02-11.63,9.51-15.99,10.38Z"/>
    </g>
  </g>
  <rect class="cls-13" x="19.57" y="475.1" width="850.62" height="2.04"/>
</svg>