<?xml version="1.0" encoding="utf-8"?>
<!-- Generator: Adobe Illustrator 24.3.0, SVG Export Plug-In . SVG Version: 6.00 Build 0)  -->
<svg version="1.1" id="Layer_1" xmlns="http://www.w3.org/2000/svg" xmlns:xlink="http://www.w3.org/1999/xlink" x="0px" y="0px"
	 viewBox="0 0 42 30" style="enable-background:new 0 0 42 30;" xml:space="preserve">
<style type="text/css">
	.st0{fill:#FFFFFF;}
</style>
<g>
	<path class="st0" d="M2.5,2.9v6.8c0,2.1,2.5,3.2,4,1.7l7.3-6.8c1.6-1.5,0.6-4.1-1.6-4.1H4.9C3.6,0.5,2.5,1.6,2.5,2.9z"/>
	<path class="st0" d="M37.1,0.5h-7.3c-2.2,0-3.2,2.6-1.6,4.1l7.3,6.8c1.5,1.4,4,0.3,4-1.7V2.9C39.5,1.6,38.4,0.5,37.1,0.5z"/>
	<path class="st0" d="M22.7,17l12.8,11.9c1.5,1.4,4,0.3,4-1.7v-6.8c0-0.7-0.3-1.3-0.8-1.7L22.7,3.7c-0.9-0.9-2.4-0.9-3.3,0L3.3,18.6
		c-0.5,0.4-0.8,1.1-0.8,1.7v6.8c0,2.1,2.5,3.2,4,1.7L19.3,17C20.3,16.1,21.7,16.1,22.7,17z"/>
</g>
</svg>
