<?xml version="1.0" encoding="utf-8"?>
<!-- Generator: Adobe Illustrator 24.3.0, SVG Export Plug-In . SVG Version: 6.00 Build 0)  -->
<svg version="1.1" id="Layer_1" xmlns="http://www.w3.org/2000/svg" xmlns:xlink="http://www.w3.org/1999/xlink" x="0px" y="0px"
	 viewBox="0 0 38.5 30" style="enable-background:new 0 0 38.5 30;" xml:space="preserve">
<style type="text/css">
	.st0{fill:#FFFFFF;}
</style>
<g>
	<path class="st0" d="M0.7,2.9v6.8c0,2.1,2.5,3.2,4,1.7L12,4.6c1.6-1.5,0.6-4.1-1.6-4.1H3.1C1.8,0.5,0.7,1.6,0.7,2.9z"/>
	<path class="st0" d="M35.3,0.5H28c-2.2,0-3.2,2.6-1.6,4.1l7.3,6.8c1.5,1.4,4,0.3,4-1.7V2.9C37.7,1.6,36.6,0.5,35.3,0.5z"/>
	<path class="st0" d="M20.9,17l12.8,11.9c1.5,1.4,4,0.3,4-1.7v-6.8c0-0.7-0.3-1.3-0.8-1.7l-16-15c-0.9-0.9-2.4-0.9-3.3,0L1.5,18.6
		C1,19,0.7,19.7,0.7,20.3v6.8c0,2.1,2.5,3.2,4,1.7L17.5,17C18.5,16.1,19.9,16.1,20.9,17z"/>
</g>
</svg>
