<?xml version="1.0" encoding="utf-8"?>
<!-- Generator: Adobe Illustrator 24.3.0, SVG Export Plug-In . SVG Version: 6.00 Build 0)  -->
<svg version="1.1" xmlns="http://www.w3.org/2000/svg" xmlns:xlink="http://www.w3.org/1999/xlink" x="0px" y="0px"
	 viewBox="0 0 4000 4000" style="enable-background:new 0 0 4000 4000;" xml:space="preserve">
<style type="text/css">
	.st0{fill:#22C55E;}
	.st1{fill:#53E082;}
	.st2{fill:#EF4444;}
	.st3{fill:#EA6A6A;}
	.st4{fill:#BBCEFF;}
	.st5{fill:#E5B593;}
	.st6{fill:#FFFFFF;}
	.st7{fill:#BC2020;}
	.st8{fill:#22C55E;stroke:#209E4A;stroke-width:6;stroke-miterlimit:10;}
	.st9{fill:#FFFFFF;stroke:#209E4A;stroke-width:6;stroke-miterlimit:10;}
	.st10{fill:#FF9797;}
	.st11{fill:none;stroke:#231F20;stroke-miterlimit:10;}
	.st12{fill:#209E4A;}
	.st13{fill:#F26681;}
	.st14{fill:#DDB6BA;}
	.st15{fill:#FDFFFB;}
</style>
<g id="BG">
</g>
<g id="Layer_8">
</g>
<g id="Layer_6">
</g>
<g id="Layer_4">
</g>
<g id="Layer_5">
</g>
<g id="Layer_7">
	<g>
		<path class="st0" d="M1227.9,335.4c0,0-598.63,418.25-135.28,1142.27C1092.62,1477.68,1680.66,1212.29,1227.9,335.4z"/>
		<g>
			<path class="st1" d="M1211.62,405.74c5.65-19.79,8.97-30.69,8.97-30.69C1217.73,382.05,1214.73,392.43,1211.62,405.74z"/>
			<path class="st1" d="M1266.27,555.28c-16.13,13.65-88.33,64.74-88.36,64.77c11.76-92.99,23.34-169.94,33.71-214.3
				c-11.92,41.75-34.21,123.16-57.65,225.75l0.02-0.08c0.26-1.15-44.32-73.49-45.94-76.24c1.89,3.54,25,172.76,25,172.76l0.05-0.22
				c-5.71,27.81-11.32,56.57-16.71,85.99l0.04-0.22l-71.67-118.39l64.99,155.98c-7.67,44.45-14.69,90.12-20.64,136.13l0-0.03
				l-73.88-133.73l67.35,188.52c-3.85,35.41-6.96,70.81-9.13,105.79c0-0.04,0.01-0.11,0.01-0.11l-50.43-80.88
				c0,0,47.15,161.31,47.28,155.49c0-0.11,0.01-0.29,0.01-0.44c-0.92,43.63-0.08,86.12,2.95,126.63l-0.06-0.63
				c0,0-66.13-109.94-65.08-103.98c1.05,5.97,68.28,138.98,68.28,138.98l0-0.01c3.66,33.39,8.99,65.18,16.23,94.87
				c0,0,7.84-94.79,20.03-229.02l156.87-193.04c0,0-142.18,110.75-149.58,113.75l-7.28,79.21c5.18-57.07,11.15-121.25,17.64-188.32
				c0.03-0.04,131.35-199.76,132.95-203.24c1.6-3.48-128.12,153.76-128.12,153.77c5.34-54.22,10.97-109.59,16.75-164.01
				l107.2-157.59c0,0-94.75,92.68-100.24,93.22c4.91-44.52,9.89-87.77,14.87-128.52C1173.76,653.83,1282.41,541.63,1266.27,555.28z
				 M1173.77,653.42c1.36-11.11,2.71-22.03,4.06-32.74L1173.77,653.42z M1130.35,1059.63c1.56-16.1,3.14-32.37,4.76-48.74
				L1130.35,1059.63z M1151.89,846.66c2.29-21.52,4.6-42.88,6.92-63.96L1151.89,846.66z"/>
			<path class="st1" d="M1108.04,555.17c0-0.01-0.01-0.03-0.01-0.04C1107.96,555.03,1107.98,555.07,1108.04,555.17z"/>
			<path class="st1" d="M1099.92,1392.03c0,0,100.15-120.84,105.12-126.14c4.97-5.3-92.56,80.91-101.82,88.35L1099.92,1392.03z"/>
		</g>
		<path class="st2" d="M320.79,498.16c0,0,729.54,32.52,726.11,892.11C1046.9,1390.27,408.19,1481.16,320.79,498.16z"/>
		<g>
			<path class="st3" d="M372.21,548.84c-15.37-13.68-24.01-21.11-24.01-21.11C354.37,532.11,362.46,539.27,372.21,548.84z"/>
			<path class="st3" d="M537.15,738.07c26.03,31.75,53.4,65.6,81.4,100.56c-4.92,2.48-134.58-25.02-134.58-25.02l174.94,75.65
				c34.03,42.85,68.45,86.6,102,129.52c-0.01,0-193.77-63.29-190.56-61.22c3.22,2.08,221.09,100.39,221.14,100.41
				c41.41,53.17,80.83,104.17,115.77,149.58l-48.58-62.98c-7.86,1.44-187.24-15.93-187.24-15.93l235.87,78.98
				c82.19,106.82,139.59,182.66,139.59,182.66c-9.78-28.95-22.32-58.65-37.11-88.81l0.01,0.01c0,0-14.47-148.34-16.79-153.94
				c-2.31-5.6,0.74,122.67,0.74,122.67l0.29,0.57c-19.15-35.84-41.19-72.17-65.34-108.51c0.09,0.13,0.19,0.28,0.25,0.37
				c3.23,4.85-43.37-156.62-43.37-156.62l0.74,95.31c0,0,0.04,0.06,0.06,0.09c-20.57-28.38-42.16-56.61-64.38-84.44l-44.11-195.27
				l9.25,152.5l0.02,0.03c-29.67-35.67-60.07-70.47-90.35-103.9L668.12,703.8l2.9,138.36l0.15,0.16
				c-20.31-21.97-40.45-43.24-60.17-63.67l0.16,0.16c0,0-71.13-155.27-71.43-159.28c0.1,3.2,1.2,88.16,2.04,88.99l0.05,0.06
				c-74.75-74.08-137.18-130.88-169.61-159.75c32.52,31.91,83.52,90.69,143.26,162.91c-0.04,0-88.38-4.48-109.31-7.36
				C385.23,701.51,537.08,738.05,537.15,738.07z M515.88,712.24c6.88,8.32,13.87,16.82,20.97,25.47L515.88,712.24z M760.98,1018.86
				c10.13,12.96,20.19,25.85,30.13,38.61L760.98,1018.86z M618.73,838.87c13.26,16.56,26.65,33.36,40.11,50.3L618.73,838.87z"/>
			<path class="st3" d="M539.73,619.54c0-0.01-0.01-0.03-0.01-0.04C539.72,619.38,539.72,619.42,539.73,619.54z"/>
			<path class="st3" d="M994.86,1321.86c0,0-149.3-48.4-156.34-50.21c-7.04-1.81,121.5,18.74,133.31,20.07L994.86,1321.86z"/>
		</g>
		<path class="st0" d="M182.15,2298.99c0,0,50.08-121.85,7.77-115.89c-42.31,5.97-23.55,101.08-14.8,119.16L182.15,2298.99z"/>
		<path class="st2" d="M189.49,2331.57c0,0-53.73-47.07-85.51-38.13s-26.04,41.07,5.18,48.68c31.22,7.62,88.88,6.11,88.88,6.11
			S198.76,2333.14,189.49,2331.57z"/>
		<path class="st0" d="M245.99,2433.13c0,0-44.53-33.18-74.46-39.14c-29.93-5.96-37.34,8.77-32.18,25.89
			c5.15,17.12,15.81,19.19,38.8,22.05c22.98,2.85,76.33,4.6,76.33,4.6L245.99,2433.13z"/>
		<path class="st2" d="M215.54,2364.74c0,0,17.66-92.49,59.56-84.3s-53.07,96.21-53.07,96.21L215.54,2364.74z"/>
		<path class="st2" d="M275.95,2464.63c0,0-0.1-61.43,20.69-84.28c20.79-22.85,46.12-9.98,40.06,14.7
			c-6.06,24.68-54.78,77.93-54.78,77.93L275.95,2464.63z"/>
		<path class="st2" d="M296.43,2503.83c0,0-71.14-18.65-90.1-4.54c-18.95,14.1-16.6,42.82,18.14,40.4
			c34.74-2.42,86.54-20.44,86.54-20.44S304.34,2505.74,296.43,2503.83z"/>
		<path class="st0" d="M354.31,2544.25c0,0,8.61-83.33,41.96-98.9c33.35-15.57,25.28,31.3,12.78,47.69
			c-12.51,16.4-52.57,62.29-52.57,62.29L354.31,2544.25z"/>
		<path class="st0" d="M385.7,2574.34c0,0-84.28-19.12-99.7,13.38c-15.41,32.49,50.5,25.72,75.35,18.33
			c24.85-7.39,49.4-16.77,49.4-16.77S397,2569.43,385.7,2574.34z"/>
		<path class="st2" d="M438.99,2596.02c0,0,17.7-113.1,41.3-98.41c23.61,14.69,19.49,41.85,1.55,65.8
			c-17.93,23.95-30.61,39.19-30.61,39.19l-12.87-1.6L438.99,2596.02z"/>
		<path class="st4" d="M461.07,2616.65c0,0-80.82,5.95-78.21,33.2c2.6,27.25,22.49,29.72,51.48,19.11
			c28.99-10.61,49.92-40.59,49.92-40.59L461.07,2616.65z"/>
		<g>
			<path class="st0" d="M530.52,2650.24l3.14-7.09c-1.64-0.73-164.48-73.21-224.06-136.29c-59.69-63.2-126.78-206.42-127.45-207.86
				l-7.03,3.27c0.68,1.45,68.29,145.8,128.84,209.91C364.62,2576.4,523.78,2647.25,530.52,2650.24z"/>
		</g>
		<path class="st0" d="M316.55,1765.64c0,0,73.64-179.19,11.42-170.42s-34.64,148.65-21.76,175.24L316.55,1765.64z"/>
		<path class="st2" d="M327.35,1813.55c0,0-79.02-69.23-125.75-56.08c-46.73,13.15-38.3,60.39,7.61,71.59s130.7,8.99,130.7,8.99
			S340.98,1815.86,327.35,1813.55z"/>
		<path class="st0" d="M410.44,1962.9c0,0-65.49-48.79-109.5-57.55c-44.01-8.76-54.9,12.9-47.33,38.08
			c7.58,25.18,23.25,28.23,57.05,32.42c33.8,4.2,112.25,6.77,112.25,6.77L410.44,1962.9z"/>
		<path class="st2" d="M365.65,1862.34c0,0,25.97-136.02,87.59-123.97c61.62,12.05-78.05,141.48-78.05,141.48L365.65,1862.34z"/>
		<path class="st2" d="M454.49,2009.23c0,0-0.14-90.34,30.43-123.94c30.57-33.6,67.82-14.68,58.91,21.61
			c-8.91,36.29-80.55,114.6-80.55,114.6L454.49,2009.23z"/>
		<path class="st0" d="M484.6,2066.87c0,0-104.62-27.42-132.49-6.68c-27.87,20.74-24.41,62.97,26.68,59.41
			s127.26-30.06,127.26-30.06S496.24,2069.68,484.6,2066.87z"/>
		<path class="st5" d="M569.73,2126.31c0,0,12.67-122.54,61.71-145.44s37.18,46.02,18.79,70.14c-18.39,24.11-77.3,91.6-77.3,91.6
			L569.73,2126.31z"/>
		<path class="st2" d="M615.89,2170.56c0,0-123.94-28.11-146.61,19.67c-22.67,47.78,74.27,37.82,110.81,26.96
			c36.55-10.86,72.65-24.67,72.65-24.67S632.5,2163.34,615.89,2170.56z"/>
		<path class="st4" d="M694.25,2202.44c0,0,26.02-166.31,60.74-144.72c34.72,21.6,28.66,61.54,2.28,96.77
			c-26.37,35.22-45.01,57.63-45.01,57.63l-18.92-2.35L694.25,2202.44z"/>
		<g>
			<path class="st5" d="M828.85,2282.17l4.61-10.42c-2.41-1.07-241.87-107.65-329.49-200.43
				c-87.77-92.94-186.44-303.56-187.42-305.67l-10.33,4.82c0.99,2.13,100.43,214.4,189.47,308.68
				C584.88,2173.59,818.93,2277.78,828.85,2282.17z"/>
		</g>
		<path class="st0" d="M3510.12,3303.71H600.62c-30.22,0-54.71-24.5-54.71-54.71V1198.33c0-30.22,24.5-54.71,54.71-54.71h2909.5
			c30.22,0,54.71,24.5,54.71,54.71v2050.66C3564.83,3279.21,3540.33,3303.71,3510.12,3303.71z"/>
		<path class="st6" d="M3442.02,3055.88H668.72c-27.15,0-49.15-22.01-49.15-49.15V1272.1c0-27.15,22.01-49.15,49.15-49.15h2773.31
			c27.15,0,49.15,22.01,49.15,49.15v1734.62C3491.18,3033.87,3469.17,3055.88,3442.02,3055.88z"/>
		<circle class="st7" cx="2055.37" cy="3175.2" r="93.25"/>
		<polygon class="st0" points="2469.67,3565.9 1641.06,3565.9 1739.19,3296.04 2371.55,3296.04 		"/>
		<path class="st2" d="M2632.1,3664.6H1478.64c-22.96,0-38.77-23.06-30.48-44.48l32.35-83.56c4.87-12.58,16.98-20.88,30.48-20.88
			h1088.75c13.5,0,25.6,8.3,30.48,20.88l32.35,83.56C2670.86,3641.54,2655.06,3664.6,2632.1,3664.6z"/>
		<g>
			<path class="st2" d="M1343.83,2025.27c-64.21,62.33-148.66,96.59-238.36,96.59c-72.89,0-142.3-22.61-200.2-64.53l61.59-61.6
				c40.01,25.74,87.6,40.68,138.62,40.68c68.96,0,131.65-27.3,177.84-71.67L1343.83,2025.27z"/>
			<path class="st0" d="M848.51,1779.46c0,81.62,38.25,154.47,97.77,201.57l-60.82,60.82c-7.61-6.4-14.99-13.16-22.11-20.28
				c-64.67-64.67-100.28-150.66-100.28-242.11c0-91.46,35.61-177.45,100.28-242.12c50.6-50.6,114.24-83.41,183.35-95.29v87.23
				C933.23,1555.93,848.51,1657.99,848.51,1779.46z"/>
			<path class="st7" d="M1447.86,1779.46c0,82.87-29.25,161.25-82.85,223.36l-60.74-60.74c36.33-44.33,58.15-100.97,58.15-162.62
				c0-141.69-115.27-256.96-256.95-256.96c-9.43,0-18.73,0.51-27.89,1.51v-85.84c9.23-0.75,18.53-1.12,27.89-1.12
				c91.45,0,177.45,35.61,242.11,100.28C1412.25,1602.02,1447.86,1688,1447.86,1779.46z"/>
		</g>
		<path class="st0" d="M3274.5,1495.04H1767.22c-13.14,0-23.79-10.65-23.79-23.79v-5.41c0-13.14,10.65-23.79,23.79-23.79H3274.5
			c13.14,0,23.79,10.65,23.79,23.79v5.41C3298.28,1484.39,3287.63,1495.04,3274.5,1495.04z"/>
		<path class="st0" d="M3274.5,1620.41H1767.22c-13.14,0-23.79-10.65-23.79-23.79v-5.41c0-13.14,10.65-23.79,23.79-23.79H3274.5
			c13.14,0,23.79,10.65,23.79,23.79v5.41C3298.28,1609.76,3287.63,1620.41,3274.5,1620.41z"/>
		<path class="st0" d="M3271.79,1745.77H1769.93c-14.63,0-26.5-11.86-26.5-26.5l0,0c0-14.63,11.86-26.5,26.5-26.5h1501.86
			c14.63,0,26.5,11.86,26.5,26.5l0,0C3298.28,1733.91,3286.42,1745.77,3271.79,1745.77z"/>
		<path class="st0" d="M3274.5,1871.13H1767.22c-13.14,0-23.79-10.65-23.79-23.79v-5.41c0-13.14,10.65-23.79,23.79-23.79H3274.5
			c13.14,0,23.79,10.65,23.79,23.79v5.41C3298.28,1860.48,3287.63,1871.13,3274.5,1871.13z"/>
		<path class="st0" d="M3271.79,1996.5H1769.93c-14.63,0-26.5-11.86-26.5-26.5l0,0c0-14.63,11.86-26.5,26.5-26.5h1501.86
			c14.63,0,26.5,11.86,26.5,26.5l0,0C3298.28,1984.63,3286.42,1996.5,3271.79,1996.5z"/>
		<path class="st0" d="M3271.79,2121.86H1769.93c-14.63,0-26.5-11.86-26.5-26.5l0,0c0-14.63,11.86-26.5,26.5-26.5h1501.86
			c14.63,0,26.5,11.86,26.5,26.5l0,0C3298.28,2110,3286.42,2121.86,3271.79,2121.86z"/>
		<path class="st0" d="M1007.37,2693.73H813.04c-17.88,0-32.38-14.5-32.38-32.38v-194.34c0-17.88,14.5-32.38,32.38-32.38h194.34
			c17.88,0,32.38,14.5,32.38,32.38v194.34C1039.75,2679.23,1025.26,2693.73,1007.37,2693.73z"/>
		<path class="st0" d="M1612.38,2473.38h-465.37c-10.7,0-19.37-8.67-19.37-19.37l0,0c0-10.7,8.67-19.37,19.37-19.37h465.37
			c10.7,0,19.37,8.67,19.37,19.37l0,0C1631.76,2464.7,1623.08,2473.38,1612.38,2473.38z"/>
		<path class="st0" d="M1614.36,2546.83h-469.33c-9.61,0-17.4-7.79-17.4-17.4v-3.96c0-9.61,7.79-17.4,17.4-17.4h469.33
			c9.61,0,17.4,7.79,17.4,17.4v3.96C1631.76,2539.04,1623.97,2546.83,1614.36,2546.83z"/>
		<path class="st0" d="M1614.36,2620.28h-469.33c-9.61,0-17.4-7.79-17.4-17.4v-3.96c0-9.61,7.79-17.4,17.4-17.4h469.33
			c9.61,0,17.4,7.79,17.4,17.4v3.96C1631.76,2612.49,1623.97,2620.28,1614.36,2620.28z"/>
		<path class="st0" d="M1612.38,2693.73h-465.37c-10.7,0-19.37-8.67-19.37-19.37l0,0c0-10.7,8.67-19.37,19.37-19.37h465.37
			c10.7,0,19.37,8.67,19.37,19.37l0,0C1631.76,2685.05,1623.08,2693.73,1612.38,2693.73z"/>
		<path class="st2" d="M1858.28,2861.87h-68.14c-25.79,0-46.7-20.91-46.7-46.7v-497.91c0-25.79,20.91-46.7,46.7-46.7h68.14
			c25.79,0,46.7,20.91,46.7,46.7v497.91C1904.98,2840.96,1884.07,2861.87,1858.28,2861.87z"/>
		<path class="st0" d="M2096.46,2861.87h-88.37c-20.21,0-36.59-16.38-36.59-36.59v-289.77c0-20.21,16.38-36.59,36.59-36.59h88.37
			c20.21,0,36.59,16.38,36.59,36.59v289.77C2133.05,2845.49,2116.67,2861.87,2096.46,2861.87z"/>
		<path class="st2" d="M2322.02,2861.87h-75.43c-23.78,0-43.06-19.28-43.06-43.06v-416.5c0-23.78,19.28-43.06,43.06-43.06h75.43
			c23.78,0,43.06,19.28,43.06,43.06v416.5C2365.08,2842.59,2345.8,2861.87,2322.02,2861.87z"/>
		<path class="st0" d="M2558.32,2861.87h-68.14c-25.79,0-46.7-20.91-46.7-46.7v-497.91c0-25.79,20.91-46.7,46.7-46.7h68.14
			c25.79,0,46.7,20.91,46.7,46.7v497.91C2605.03,2840.96,2584.12,2861.87,2558.32,2861.87z"/>
		<path class="st2" d="M2794,2861.87h-75.43c-23.78,0-43.06-19.28-43.06-43.06v-416.5c0-23.78,19.28-43.06,43.06-43.06H2794
			c23.78,0,43.06,19.28,43.06,43.06v416.5C2837.05,2842.59,2817.78,2861.87,2794,2861.87z"/>
		<path class="st0" d="M3026.56,2861.87h-82.15c-21.92,0-39.7-17.77-39.7-39.7v-347.85c0-21.92,17.77-39.7,39.7-39.7h82.15
			c21.92,0,39.7,17.77,39.7,39.7v347.85C3066.26,2844.1,3048.48,2861.87,3026.56,2861.87z"/>
		<path class="st2" d="M3261.68,2861.87h-88.35c-20.21,0-36.6-16.39-36.6-36.6v-289.96c0-20.21,16.39-36.6,36.6-36.6h88.35
			c20.21,0,36.6,16.39,36.6,36.6v289.96C3298.28,2845.48,3281.9,2861.87,3261.68,2861.87z"/>
		<g>
			<path class="st6" d="M3825.55,992.61H2712.87c-45.63,0-82.62-36.99-82.62-82.62V526.67c0-45.63,36.99-82.62,82.62-82.62h1112.68
				c45.63,0,82.62,36.99,82.62,82.62v383.32C3908.17,955.62,3871.18,992.61,3825.55,992.61z"/>
			<path class="st0" d="M3816.15,1001.67H2722.27c-55.74,0-101.08-45.34-101.08-101.08V536.07c0-55.74,45.34-101.08,101.08-101.08
				h1093.88c55.74,0,101.08,45.34,101.08,101.08v364.52C3917.23,956.33,3871.88,1001.67,3816.15,1001.67z M2722.27,453.11
				c-45.74,0-82.96,37.21-82.96,82.96v364.52c0,45.74,37.22,82.96,82.96,82.96h1093.88c45.74,0,82.96-37.21,82.96-82.96V536.07
				c0-45.74-37.22-82.96-82.96-82.96H2722.27z"/>
		</g>
		<path class="st8" d="M3066.1,718.33c0,34.53-9.85,66.76-26.89,94.02c-31.39,50.22-87.18,83.64-150.78,83.64
			c-63.6,0-119.39-33.42-150.77-83.65c-17.04-27.26-26.89-59.49-26.89-94.01c0-98.13,79.54-177.67,177.66-177.67
			C2986.56,540.66,3066.1,620.21,3066.1,718.33z"/>
		
			<ellipse transform="matrix(0.9239 -0.3827 0.3827 0.9239 -26.2856 1154.3185)" class="st6" cx="2888.43" cy="643.23" rx="61.85" ry="61.85"/>
		<path class="st9" d="M3039.21,812.36c-31.39,50.22-87.18,83.64-150.78,83.64c-63.6,0-119.39-33.42-150.77-83.65
			c35.6-43.81,89.92-71.81,150.77-71.81C2949.29,740.54,3003.61,768.54,3039.21,812.36z"/>
		<path class="st0" d="M3760.11,607H3166.5c-11.24,0-20.36-9.11-20.36-20.36l0,0c0-11.24,9.11-20.36,20.36-20.36h593.61
			c11.24,0,20.36,9.11,20.36,20.36l0,0C3780.47,597.88,3771.35,607,3760.11,607z"/>
		<path class="st0" d="M3760.11,689.21H3166.5c-11.24,0-20.36-9.11-20.36-20.36l0,0c0-11.24,9.11-20.36,20.36-20.36h593.61
			c11.24,0,20.36,9.11,20.36,20.36l0,0C3780.47,680.1,3771.35,689.21,3760.11,689.21z"/>
		<path class="st0" d="M3696.55,761.68h-533.12c-9.55,0-17.29-7.74-17.29-17.29v-6.13c0-9.55,7.74-17.29,17.29-17.29h533.12
			c9.55,0,17.29,7.74,17.29,17.29v6.13C3713.84,753.94,3706.1,761.68,3696.55,761.68z"/>
		<path class="st0" d="M3696.55,843.89h-533.12c-9.55,0-17.29-7.74-17.29-17.29v-6.13c0-9.55,7.74-17.29,17.29-17.29h533.12
			c9.55,0,17.29,7.74,17.29,17.29v6.13C3713.84,836.15,3706.1,843.89,3696.55,843.89z"/>
		<g>
			<path class="st6" d="M1499.77,3347.37H163.11c-33.17,0-60.05-26.89-60.05-60.05v-679.89c0-33.17,26.89-60.05,60.05-60.05h1336.66
				c33.17,0,60.05,26.89,60.05,60.05v679.89C1559.83,3320.48,1532.94,3347.37,1499.77,3347.37z"/>
			<path class="st7" d="M1492.94,3362.55h-1323c-45.25,0-82.07-36.82-82.07-82.07v-666.23c0-45.25,36.82-82.07,82.07-82.07h1323
				c45.25,0,82.07,36.82,82.07,82.07v666.23C1575.01,3325.74,1538.2,3362.55,1492.94,3362.55z M169.94,2562.56
				c-28.51,0-51.7,23.19-51.7,51.7v666.23c0,28.51,23.19,51.7,51.7,51.7h1323c28.51,0,51.7-23.19,51.7-51.7v-666.23
				c0-28.51-23.19-51.7-51.7-51.7H169.94z"/>
		</g>
		<path class="st0" d="M1384.36,2771.97H782.09c-14.41,0-26.09-11.68-26.09-26.09l0,0c0-14.41,11.68-26.09,26.09-26.09h602.27
			c14.41,0,26.09,11.68,26.09,26.09l0,0C1410.45,2760.29,1398.77,2771.97,1384.36,2771.97z"/>
		<path class="st0" d="M1387.03,2864.92h-607.6c-12.94,0-23.43-10.49-23.43-23.43v-5.33c0-12.94,10.49-23.43,23.43-23.43h607.6
			c12.94,0,23.43,10.49,23.43,23.43v5.33C1410.45,2854.44,1399.96,2864.92,1387.03,2864.92z"/>
		<path class="st0" d="M1387.03,2957.88h-607.6c-12.94,0-23.43-10.49-23.43-23.43v-5.33c0-12.94,10.49-23.43,23.43-23.43h607.6
			c12.94,0,23.43,10.49,23.43,23.43v5.33C1410.45,2947.39,1399.96,2957.88,1387.03,2957.88z"/>
		<path class="st0" d="M1387.03,3050.83h-607.6c-12.94,0-23.43-10.49-23.43-23.43v-5.33c0-12.94,10.49-23.43,23.43-23.43h607.6
			c12.94,0,23.43,10.49,23.43,23.43v5.33C1410.45,3040.34,1399.96,3050.83,1387.03,3050.83z"/>
		<path class="st0" d="M1387.03,3143.78h-607.6c-12.94,0-23.43-10.49-23.43-23.43v-5.33c0-12.94,10.49-23.43,23.43-23.43h607.6
			c12.94,0,23.43,10.49,23.43,23.43v5.33C1410.45,3133.29,1399.96,3143.78,1387.03,3143.78z"/>
		<g>
			<path class="st7" d="M611.46,3113.75c-48.21,46.8-111.61,72.52-178.95,72.52c-54.72,0-106.83-16.97-150.3-48.45l46.24-46.25
				c30.04,19.32,65.77,30.54,104.07,30.54c51.77,0,98.84-20.5,133.51-53.8L611.46,3113.75z"/>
			<path class="st2" d="M239.6,2929.21c0,61.28,28.72,115.97,73.4,151.33l-45.66,45.66c-5.71-4.81-11.25-9.88-16.6-15.23
				c-48.55-48.55-75.29-113.11-75.29-181.76c0-68.67,26.73-133.22,75.29-181.77c37.99-37.98,85.77-62.62,137.65-71.54v65.49
				C303.2,2761.39,239.6,2838.01,239.6,2929.21z"/>
			<path class="st0" d="M689.56,2929.21c0,62.21-21.96,121.06-62.2,167.69l-45.6-45.6c27.28-33.28,43.66-75.8,43.66-122.09
				c0-106.38-86.54-192.92-192.91-192.92c-7.08,0-14.06,0.39-20.94,1.14v-64.44c6.93-0.56,13.91-0.84,20.94-0.84
				c68.66,0,133.22,26.73,181.76,75.29C662.83,2795.99,689.56,2860.54,689.56,2929.21z"/>
		</g>
		<path class="st7" d="M3559.74,2348.27c0.3,5.51,0.91,8.77,1.88,10.83c2.75,5.83,8.39,2.17,18.07,13.1
			c13.11,14.82,13.68,11.97,28.5,16.54c14.82,4.55,8.55,10.83,17.67,39.33c9.12,28.5,24.51,30.21,24.51,30.21s-1.14,11.4,2.85,30.21
			c0.27,1.28,0.63,2.6,1.07,3.97c2.54,7.87,7.81,17.01,14.67,26.02c9.41,12.33,21.83,24.42,34.41,32.71
			c23.37,15.39,15.39,66.69,17.1,66.69c0.88,0,7.36-5.6,14.68-13.91c6.9-7.82,14.54-18.05,18.95-28.27
			c9.12-21.09,7.98-43.89-10.83-73.53c-18.81-29.64-9.12-51.87-22.23-98.61c-13.11-46.74-46.74-44.46-46.74-44.46
			s-9.69-33.64-47.88-53.58C3588.25,2285.57,3558.61,2327.18,3559.74,2348.27z"/>
		<path class="st10" d="M3555.44,2412.24c0,4.81,3.09,5.32,3.09,5.32s4.51,49.14,16.92,51.68c12.41,2.53,27.62-4.31,27.62-4.31
			l9.62,34.71c0,0,26.69,39.69,56.28,18.83c-6.87-9-12.13-18.14-14.67-26.02c-0.45-1.37-0.8-2.69-1.07-3.97
			c-3.99-18.8-2.85-30.21-2.85-30.21s-15.39-1.7-24.51-30.21c-9.12-28.5-2.85-34.77-17.67-39.33c-14.82-4.56-15.39-1.71-28.5-16.54
			c-9.68-10.94-15.32-7.28-18.07-13.1C3561.63,2359.1,3555.44,2407.42,3555.44,2412.24z"/>
		<path class="st10" d="M3365.95,2576.84c1.77,1.33,6.98,6.44,13.23,13.48c1.79,2.02,3.67,4.19,5.57,6.47
			c8.55,10.26,35.91,66.69,51.3,92.6c15.39,25.92,55.86,78.96,62.13,83.52c1.86,1.35,3.62,2.11,5.55,2.23
			c4.12,0.25,9.01-2.38,17.29-8.2c0.89-0.62,1.83-1.29,2.81-2c14.14-10.18,55.77-158.96,56.42-161.28l0.01-0.03
			c-20.9-31.92-49.03-23.56-49.03-23.56s-25.08,74.48-27.35,80.94c-2.28,6.46-9.88,26.98-20.14,28.12
			c-10.25,1.14-64.59-97.28-70.67-112.1c-0.36-0.88-0.66-1.74-0.89-2.59c-3.76-13.54,7.34-23.63,7.34-23.63s2.66-4.17-9.88-1.9
			c-12.54,2.28-10.26,24.7-20.9,18.24c-10.64-6.46-18.25-30.78-20.52-35.34c-1.13-2.26-2.54-5.37-4-7.28v-0.01
			c-1.49-1.93-3.01-2.64-4.35,0.01C3357.21,2529.79,3363.67,2575.13,3365.95,2576.84z"/>
		<path class="st0" d="M3520.23,2874.57c0,0,56.99,55.48,205.95,5.32c0,0,6.84-12.16-5.32-27.36s-19-49.4-9.12-85.12
			c9.88-35.72,27.82-109.52,23.41-163.44c-7.32,8.31-13.8,13.91-14.68,13.91c-1.71,0,6.27-51.3-17.1-66.69
			c-12.58-8.29-25-20.38-34.41-32.71c-29.59,20.86-56.28-18.83-56.28-18.83s-40.79,1.66-60.54,24.89
			c-3.45,4.05-6.33,8.38-8.73,12.76c-1,1.82-1.92,3.66-2.77,5.49c-5.71,12.37-7.97,24.46-8.86,31.37c-0.01,0.09-0.02,0.18-0.03,0.26
			c-0.45,3.53-0.52,5.65-0.52,5.65s28.12-8.36,49.03,23.56c0,0-42.18,151.05-56.43,161.31c-0.98,0.71-1.92,1.38-2.81,2
			c-1.28,29.65-2.2,57.01-2.34,76.82C3518.57,2860.4,3519,2871.7,3520.23,2874.57z"/>
		<path class="st10" d="M3465.81,2546.52c7.84,7.91,30.61,2.15,38.46,5.04c7.85,2.87,4.7,11.51,14.13,18.71
			c3.88,2.97,8.86,3.99,13.36,4.15c0.01-0.08,0.02-0.17,0.03-0.26c0.89-6.91,3.15-19.01,8.86-31.37c0.85-1.83,1.76-3.67,2.77-5.49
			C3518.35,2537.98,3459.61,2540.26,3465.81,2546.52z"/>
		<path class="st7" d="M3342.01,2470.82l22.21,53.71v0.01c1.46,1.91,2.87,5.02,4,7.28c2.28,4.56,9.88,28.88,20.52,35.34
			c10.63,6.46,8.36-15.96,20.9-18.24c12.54-2.28,9.88,1.9,9.88,1.9s-11.1,10.09-7.34,23.63l33.56-18.12l-47.31-107.16
			L3342.01,2470.82z"/>
		<path class="st2" d="M3523.8,3106.36c1.61,23.56,2.89,38.76,2.89,38.76c3.96,5.48,8.48,10.17,13.43,14.15
			c30.14,24.25,76.85,22.62,117.93,14.06c16.12-3.36,31.37-7.78,44.42-12.13c24.57-8.19,41.32-16.09,41.32-16.09
			s-9.06-27.93-13.05-49.59c-3.99-21.66,1.14-94.05,10.83-129.95c9.69-35.91-15.39-85.69-15.39-85.69
			c-87.79,29.56-143.64,22.43-174.7,11.59c-0.09-0.03-0.19-0.06-0.28-0.1c-17.03-5.98-26.54-13.06-29.74-15.72
			c-0.13-0.1-0.25-0.2-0.35-0.3c-0.15-0.13-0.28-0.25-0.39-0.34c-0.33-0.29-0.5-0.45-0.5-0.45
			C3513.11,2928.94,3519.61,3045.51,3523.8,3106.36z"/>
		<path class="st10" d="M3562.59,3623.92c9.12-5.7,50.16-30.79,50.16-30.79s-4.2-50.9-3.74-77.88v-0.01
			c0.05-2.83,0.15-5.39,0.31-7.61c1.55-21.16,20.4-85.82,33.26-131.7c1.34-4.78,2.61-9.35,3.79-13.65
			c12.54-45.6,11.4-85.5,5.7-119.7c-5.66-33.99,5.82-68.82,5.97-69.25c-3.21,0.67-6.46,1.29-9.73,1.87
			c-38.55,6.79-80.43,6.42-108.21-15.93c-0.02,0.39-0.89,15.29-0.33,42.85c0.57,27.93,15.39,85.5,18.24,123.69
			c2.85,38.19,5.7,206.34,7.25,217.74c1.55,11.4-7.81,32.49-23.2,46.73c-15.39,14.25-69.54,25.65-69.54,25.65
			C3470.82,3637.6,3553.48,3629.62,3562.59,3623.92z"/>
		<path class="st7" d="M3446.32,3662.7c0,0,121.41-0.6,141.93-0.03c20.52,0.57,21.66-6.84,21.66-6.84l2.85-62.7
			c0,0-41.04,25.09-50.16,30.79c-9.12,5.7-91.77,13.68-90.06-7.98C3412.68,3618.21,3446.32,3662.7,3446.32,3662.7z"/>
		<path class="st10" d="M3642.59,3375.94c0,0,67.64,152.79,72.19,160.77c4.22,7.38,5.51,31.83,7.02,46.28c0,0.02,0,0.03,0,0.03
			c0.12,1.17,0.25,2.26,0.37,3.28c1.69,13.69,0,38.19,0,38.19s21.11-35.91,26.24-42.74c5.13-6.85,14.25-51.3,14.25-51.3
			s-2.14,0.39-0.28-1.06c-2.49-9.23-20.55-76.48-30.31-118.41c-0.01-0.01-0.01-0.04-0.01-0.05c-1.99-8.58-3.64-16.1-4.73-21.83
			c-6.84-35.91-44.46-88.92-45.59-104.87c-1.14-15.96,20.75-122.99,20.75-122.99c-2.04,0.68-4.14,1.36-6.28,2.04
			c-11.56,3.67-24.54,7.26-38.14,10.09c-0.15,0.43-11.63,35.27-5.97,69.25c5.7,34.2,6.84,74.1-5.7,119.7
			c-0.52,1.88-1.05,3.82-1.6,5.8L3642.59,3375.94z"/>
		<path class="st11" d="M3762.66,3530.44c0,0-0.1-0.36-0.28-1.06C3760.52,3530.82,3762.66,3530.44,3762.66,3530.44z"/>
		<path class="st7" d="M3740.25,3662.7c0,0-3.42-34.23,14.44-46.01c17.86-11.78,24.7-45.59,28.5-54.34
			c3.8-8.74,16.72-24.32,16.72-24.32s-24.71-15.96-33.06-11.4c-2.37,1.29-3.73,2.16-4.46,2.74c-1.86,1.45,0.28,1.06,0.28,1.06
			s-9.12,44.46-14.25,51.3c-5.13,6.84-26.24,42.74-26.24,42.74C3723.53,3628.09,3705.29,3668.81,3740.25,3662.7z"/>
		<path class="st7" d="M3740.25,3662.7c1.91,2.69,7.6,2.25,15.95,0c8.36-2.25,19.76-30.81,26.6-53.99
			c6.84-23.18,24.7-18.62,32.68-44.84c7.98-26.22-15.58-25.84-15.58-25.84s-12.93,15.58-16.72,24.32
			c-3.8,8.74-10.64,42.56-28.5,54.34C3736.82,3628.47,3740.25,3662.7,3740.25,3662.7z"/>
		<path class="st12" d="M3518.69,2843.76l2.3,0.41c0,0,32.49-1.71,45.59-18.81c13.11-17.1,3.42-36.48,7.98-76.95
			c4.55-40.47,15.39-63.28,21.09-84.93c5.7-21.66-15.39-59.85-15.39-59.85s-42.18,151.05-56.43,161.31c-0.98,0.71-1.92,1.38-2.81,2
			C3519.75,2796.59,3518.82,2823.95,3518.69,2843.76z"/>
		<path class="st5" d="M3379.18,2590.31C3379.18,2590.31,3379.18,2590.31,3379.18,2590.31c1.79,2.02,3.67,4.2,5.57,6.48
			c8.55,10.26,35.91,66.69,51.3,92.6c15.39,25.92,55.86,78.96,62.13,83.52c1.86,1.35,3.62,2.11,5.55,2.23
			c4.12,0.25,9.01-2.38,17.29-8.2c0.89-0.62,1.83-1.29,2.81-2c14.14-10.18,55.77-158.96,56.42-161.28l-43.7,126.13
			c0,0-12.73,35.15-32.18,38.38c-19.45,3.23-104.62-152-110.51-162.64C3387.99,2594.89,3379.18,2590.31,3379.18,2590.31z"/>
		<path class="st13" d="M3523.8,3106.36c0.71-0.45,49.57-31.51,41.48-53.57c-8.14-22.24-12.95-69.54,0-96.33
			c12.95-26.79-13.8-64.98-13.8-64.98c-0.09-0.03-0.19-0.06-0.28-0.1c-16.87-5.74-26.51-12.99-29.74-15.72
			c-0.13-0.1-0.25-0.2-0.35-0.3c-0.15-0.13-0.28-0.24-0.39-0.34c-0.33-0.29-0.5-0.45-0.5-0.45
			C3513.11,2928.94,3519.61,3045.51,3523.8,3106.36z"/>
		<path class="st14" d="M3609.02,3515.24c0.05-2.83,0.15-5.39,0.31-7.61c1.55-21.16,20.4-85.82,33.26-131.7
			c1.34-4.78,2.61-9.35,3.79-13.65c12.54-45.6,11.4-85.5,5.7-119.7c-5.66-33.99,5.82-68.82,5.97-69.25l-9.73,1.86c0,0,0,0,0,0.01
			c-0.14,0.68-7.23,35.61-5.74,69.47c1.51,34.2,17.49,47.12,0,104.88C3625.1,3407.31,3605.11,3494.71,3609.02,3515.24z"/>
		<path class="st14" d="M3642.59,3375.94c0,0,67.64,152.79,72.19,160.77c4.22,7.38,5.51,31.83,7.02,46.28
			c-0.02-0.98-0.61-24.74-3.19-39.63c-2.63-15.2-73.82-175.27-73.82-175.27L3642.59,3375.94z"/>
		<path class="st14" d="M3678.3,3288.76c3.99,17.67,41.58,72.88,53.75,122.15c-1.99-8.58-3.64-16.1-4.73-21.83
			c-6.84-35.91-44.46-88.92-45.59-104.87c-1.14-15.96,20.75-122.99,20.75-122.99l-6.28,2.04
			C3696.19,3163.25,3674.31,3271.09,3678.3,3288.76z"/>
		<path class="st12" d="M2028.67,802.01c0,0,28.69,6.52,42.42,21.04c13.72,14.52,72.36,141.15,72.36,141.15l-4.76,3.12l-22.69,12.47
			l-16.8,3.38l-51.82-70.13C2047.39,913.05,2002.48,830.71,2028.67,802.01z"/>
		<path class="st7" d="M1970.04,733.39c-0.92,3.35-3.02,4.02-5.66,3.25c-2.77-0.81-6.12-3.19-9.32-5.74c-6.23-5,2.49-26.2,0-32.45
			c-2.49-6.23-11.23,1.25-29.32,4.36c-18.09,3.12-13.1-13.1-34.3-13.72c-21.21-0.62-21.84,27.45-21.84,27.45
			c-11.23-11.23-21.83-52.4-3.12-69.87s41.17-6.24,59.78,9.36c18.59,15.6,24.45,0,34.43-1.87c9.98-1.87,16.21,13.72,21.21,27.45
			C1986.87,695.34,1971.9,726.53,1970.04,733.39z"/>
		<path class="st10" d="M1964.36,736.64c0,0-2.46,21.07-2.46,23.58c0,1.14-0.9,9.11-1.89,17.49c-1.18,10.01-2.48,20.55-2.48,20.55
			c-41.17,54.28-67.36,2.5-67.36,2.5l-3.13-8.32v-20.79c-4.15-4.17-19.23-53.34-17.47-55.11c0,0,0.64-28.07,21.84-27.45
			c21.21,0.62,16.21,16.83,34.3,13.72c18.09-3.11,26.83-10.59,29.32-4.36c2.49,6.24-6.23,27.45,0,32.45
			C1958.24,733.46,1961.58,735.84,1964.36,736.64z"/>
		<path class="st10" d="M2133.47,1022.22c-8.1,11.86-23.08,11.24-29.32,11.86c-0.33,0.04-0.97-0.11-1.89-0.42
			c-16.79-5.38-126.77-62.13-129.73-65.09c-3.12-3.11-14.98-0.62-14.98-0.62l-13.72-11.23c0,0-11.85-26.2,3.12-35.56
			c14.98-9.36,18.09,3.74,21.22,1.87c3.12-1.87,2.49-1.87,6.85-6.23c4.37-4.37,8.11,6.23,14.35,19.34
			c6.23,13.1,79.85,46.78,88.58,48.66c4.19,0.89,13.11-0.22,21.26-1.61c8.84-1.53,16.8-3.38,16.8-3.38l22.69-12.47l-0.85,7.61
			C2137.84,974.94,2141.58,1010.37,2133.47,1022.22z"/>
		<path class="st15" d="M2106.03,1096.46c0,0-91.88,11.91-163.22,14.76l-33.28-113.74l-80.97,1.56l2.71-36.93l12.13-165.09
			l43.66-21.51v16.94l3.13,8.32c0,0,26.19,51.77,67.36-2.5c0,0,1.29-10.54,2.48-20.55l68.64,24.3c0,0-9.36,13.72-6.87,34.3
			c2.49,20.58,23.08,69.88,25.58,76.73c2.49,6.87,51.82,70.13,51.82,70.13c-8.15,1.39-17.07,2.5-21.26,1.61
			c-8.73-1.88-82.35-35.56-88.58-48.66c-6.24-13.11-9.98-23.71-14.35-19.34c-4.36,4.36-3.74,4.36-6.85,6.23
			c-3.13,1.87-6.24-11.23-21.22-1.87c-14.97,9.36-3.12,35.56-3.12,35.56l13.72,11.23c0,0,11.86-2.49,14.98,0.62
			c2.96,2.96,112.94,59.71,129.73,65.09L2106.03,1096.46z"/>
		<path class="st12" d="M1843.4,797.02l-12.13,165.09c-4.67,2.92-9.25,4.39-13.63,4.81c-16.6,1.61-30.5-11.81-36.65-18.97
			c-2.19-2.55-3.4-4.3-3.4-4.3s29-116.37,35.55-126.67C1819.69,806.69,1843.4,797.02,1843.4,797.02z"/>
		<path class="st10" d="M1817.64,966.92l-0.02,0.13l-15.8,32.5l-37.85-2.08l17.02-49.53
			C1787.13,955.11,1801.03,968.54,1817.64,966.92z"/>
		<path class="st7" d="M1947.89,1128.59h-183.92l-9.75-31.67c18.96,2.14,19.31-15.86,14.73-33.89c-4.57-18.04-28.05-9.38-28.05-9.38
			l-16.65-54.09l39.72-2.08l37.85,2.08l26.74-0.51l80.97-1.56l33.28,113.74L1947.89,1128.59z"/>
		<path class="st10" d="M1754.22,1096.92c-18.95-2.13-13.32-43.27-13.32-43.27s23.48-8.66,28.05,9.38
			C1773.53,1081.06,1773.18,1099.06,1754.22,1096.92z"/>
		<path class="st2" d="M2106.03,1096.46c0,0-1.25,78.6-41.8,92.94c-40.55,14.35-82.34,9.99-87.34,14.98c-4.98,5-29,260.76-29,260.76
			h-35.87c0,0-16.08-256.25-17.13-313.77c-0.11-6.57-0.04-10.54,0.28-11.25c3.12-6.85,9.36-11.53,9.36-11.53h43.36l-5.08-17.37
			C2014.15,1108.37,2106.03,1096.46,2106.03,1096.46z"/>
		<path class="st2" d="M1904.53,1128.59c0,0-6.24,4.68-9.36,11.53c-0.32,0.71-0.39,4.68-0.28,11.25c0,0-77.7,18.7-82.06,24.31
			c-4.37,5.62-50.54,273.86-50.54,273.86l-29.32-2.49c0,0,1.88-304.42,4.37-308.8c2.49-4.36,23.99-18.18,23.99-18.18l2.63,8.51
			H1904.53z"/>
		<path class="st7" d="M1732.97,1447.05l-1.87,10.4c0,0-51.57,32.85-54.06,46.58c-2.5,13.72,0,14.97,0,14.97l85.67-35.97
			l-0.42-33.48L1732.97,1447.05z"/>
		<polygon class="st7" points="1912.02,1465.14 1912.02,1477.61 1904.53,1518.99 1904.53,1525.64 1956.31,1525.64 1956.31,1515.66 
			1946.95,1476.36 1947.89,1465.14 		"/>
	</g>
</g>
</svg>
