<?xml version="1.0" encoding="utf-8"?>
<!-- Generator: Adobe Illustrator 24.3.0, SVG Export Plug-In . SVG Version: 6.00 Build 0)  -->
<svg version="1.1" id="Layer_1" xmlns="http://www.w3.org/2000/svg" xmlns:xlink="http://www.w3.org/1999/xlink" x="0px" y="0px"
	 viewBox="0 0 710 661" style="enable-background:new 0 0 710 661;" xml:space="preserve">
<style type="text/css">
	.st0{fill:none;stroke:#A7CEFC;stroke-width:3;stroke-dasharray:15,15;}
	.st1{fill:#FF5758;}
	.st2{fill:#37A3FF;}
	.st3{fill:#FFBF60;}
	.st4{fill:#00CA75;}
	.st5{fill:#C4C4C4;filter:url(#Adobe_OpacityMaskFilter);}
	.st6{mask:url(#mask0_107_52346_1_);}
	.st7{fill:#C4C4C4;filter:url(#Adobe_OpacityMaskFilter_1_);}
	.st8{mask:url(#mask1_107_52346_1_);}
	.st9{fill:#FFDC4D;}
	.st10{fill:#FFFFFF;}
	.st11{clip-path:url(#SVGID_2_);}
	.st12{fill:#5986EF;}
</style>
<circle class="st0" cx="365.5" cy="330.5" r="329.5"/>
<circle class="st0" cx="365.5" cy="330.5" r="192.5"/>
<circle class="st1" cx="35" cy="331" r="35"/>
<circle class="st2" cx="559" cy="331" r="35"/>
<circle class="st3" cx="366" cy="524" r="35"/>
<circle class="st2" cx="172" cy="331" r="35"/>
<circle class="st2" cx="172" cy="603" r="35"/>
<circle class="st2" cx="599" cy="106" r="35"/>
<circle class="st4" cx="675" cy="436" r="35"/>
<defs>
	<filter id="Adobe_OpacityMaskFilter" filterUnits="userSpaceOnUse">
		<feColorMatrix  type="matrix" values="1 0 0 0 0  0 1 0 0 0  0 0 1 0 0  0 0 0 1 0"/>
	</filter>
</defs>
<mask maskUnits="userSpaceOnUse" id="mask0_107_52346_1_">
	<circle class="st5" cx="675" cy="436" r="35"/>
</mask>
<g class="st6">
</g>
<circle class="st4" cx="367" cy="137" r="35"/>
<defs>
	<filter id="Adobe_OpacityMaskFilter_1_" filterUnits="userSpaceOnUse">
		<feColorMatrix  type="matrix" values="1 0 0 0 0  0 1 0 0 0  0 0 1 0 0  0 0 0 1 0"/>
	</filter>
</defs>
<mask maskUnits="userSpaceOnUse" id="mask1_107_52346_1_">
	<circle class="st7" cx="367" cy="137" r="35"/>
</mask>
<g class="st8">
</g>
<circle class="st9" cx="175" cy="58" r="35"/>
<image style="overflow:visible;opacity:0.25;" width="130" height="130" xlink:href="7859D81C.png"  transform="matrix(1 0 0 1 301 273)">
</image>
<g>
	<path class="st10" d="M326,281h80c5.5,0,10,4.5,10,10v80c0,5.5-4.5,10-10,10h-80c-5.5,0-10-4.5-10-10v-80
		C316,285.5,320.5,281,326,281z"/>
</g>
<g>
	<defs>
		<rect id="SVGID_1_" x="338" y="309" width="57" height="44"/>
	</defs>
	<clipPath id="SVGID_2_">
		<use xlink:href="#SVGID_1_"  style="overflow:visible;"/>
	</clipPath>
	<g class="st11">
		<path class="st12" d="M338,312.6v10.2c0,3.1,3.9,4.8,6.2,2.6l11.3-10.2c2.5-2.2,0.9-6.2-2.5-6.2h-11.3
			C339.7,309,338,310.6,338,312.6z"/>
		<path class="st12" d="M391.3,309H380c-3.3,0-5,4-2.5,6.2l11.3,10.2c2.4,2.1,6.2,0.5,6.2-2.6v-10.2C395,310.6,393.3,309,391.3,309z
			"/>
		<path class="st12" d="M369,334l19.7,18c2.4,2.1,6.2,0.5,6.2-2.6v-10.3c0-1-0.4-1.9-1.2-2.6L369,313.8c-1.4-1.3-3.6-1.3-5.1,0
			l-24.8,22.6c-0.8,0.7-1.2,1.6-1.2,2.6v10.3c0,3.1,3.9,4.8,6.2,2.6l19.7-18C365.4,332.7,367.6,332.7,369,334z"/>
	</g>
</g>
</svg>
