<?xml version="1.0" encoding="utf-8"?>
<!-- Generator: Adobe Illustrator 24.3.0, SVG Export Plug-In . SVG Version: 6.00 Build 0)  -->
<svg version="1.1" id="layer" xmlns="http://www.w3.org/2000/svg" xmlns:xlink="http://www.w3.org/1999/xlink" x="0px" y="0px"
	 viewBox="0 0 84.9 101.2" style="enable-background:new 0 0 84.9 101.2;" xml:space="preserve">
<style type="text/css">
	.st0{fill:#212529;}
</style>
<g>
	<path class="st0" d="M69.8,53.7c0.1,15.1,13.3,20.2,13.4,20.2c-0.1,0.4-2.1,7.2-6.9,14.2c-4.2,6.1-8.5,12.2-15.3,12.3
		c-6.7,0.1-8.8-4-16.5-4s-10,3.8-16.4,4.1c-6.6,0.2-11.6-6.6-15.8-12.7C3.7,75.4-2.9,52.7,6,37.4c4.4-7.6,12.2-12.4,20.7-12.5
		c6.5-0.1,12.6,4.3,16.5,4.3s11.4-5.4,19.1-4.6c3.3,0.1,12.4,1.3,18.3,9.9C80.1,35,69.7,41.1,69.8,53.7 M57.2,16.6
		c3.5-4.2,5.8-10.1,5.2-16c-5,0.2-11.1,3.4-14.7,7.6c-3.2,3.7-6.1,9.7-5.3,15.5C48,24.1,53.7,20.8,57.2,16.6"/>
</g>
</svg>
