<?xml version="1.0" encoding="utf-8"?>
<!-- Generator: Adobe Illustrator 24.3.0, SVG Export Plug-In . SVG Version: 6.00 Build 0)  -->
<svg version="1.1" id="Layer_1" xmlns="http://www.w3.org/2000/svg" xmlns:xlink="http://www.w3.org/1999/xlink" x="0px" y="0px"
	 viewBox="0 0 673 837" style="enable-background:new 0 0 673 837;" xml:space="preserve">
<style type="text/css">
	.st0{fill:#195FA5;}
</style>
<path class="st0" d="M581.7,316.9c1.6,6,1.5,13.7-0.7,24.4c-5.9,28.6-36.9,64.7-69.7,102.7c-18,21-36.6,42.6-51.1,63.2
	c-27.6,31.8-40.5,76.7-53.1,120.1c-9.1,31.7-17.8,61.7-31.7,86.8l0,0.1c-10.9,19-23.5,29.9-38.4,33.3c-29,6.6-62.7-16.5-101.6-43.3
	l-3.7-2.6c-29-19.8-67.2-44.3-123.9-79.3l-4.7-3c-49.3-31.7-110.7-71.1-157.6-131c-102.9-117.5-83-249.8-37.1-302.1
	c54.9-56.5,125.2-71.7,268.8-58.2c149.7,14.3,285.1,98.5,336.3,134.1c17.9,15.4,32.4,24.1,43,30.5C570,300.7,578.8,306,581.7,316.9z
	 M370.5,711.8c13.6-24.6,22.1-54.3,31.2-85.7c12.7-43.9,25.7-89.4,54-121.9c14.5-20.7,33.2-42.4,51.3-63.4
	c32.3-37.6,62.8-73,68.5-100.3c5.2-26.8-1.7-30.9-22.1-43.2c-10.8-6.5-25.6-15.4-43.6-30.9c-50.7-35.1-185-118.8-333.4-132.9
	C35,120.2-34.1,134.9-87.4,189.9C-131.9,240.7-151,369.8-50,485C-3.6,544.3,57.4,583.5,106.3,615l4.7,3c56.7,35,95,59.5,124,79.4
	l3.7,2.6c37.8,26.1,70.5,48.5,97.1,42.5C349.1,739.3,360.4,729.3,370.5,711.8z"/>
<path class="st0" d="M545.8,335.2c2.2,8.3,1.8,17.8,0.1,31.1l0,0.3c-5.9,26.4-30.3,52.5-56,80.1c-17.6,18.9-35.8,38.4-50.4,59.9
	c-24.6,31.5-40.8,67.1-56.5,101.4c-10.5,23.1-20.4,45-32.5,64.9l-0.3,0.4c-36.8,43.9-62.9,26.5-110.2-5.1
	c-5.1-3.4-10.6-7.1-16.3-10.8c-10.1-7.7-21.3-15.8-33.1-24.4C137.8,594.9,65.7,542.5-3.6,459.8c-77.1-103-67.6-201.1-24-252.7
	c45.9-52.3,117-55.8,240.5-44c125.9,15.5,221.9,79.7,273.5,114.1l5.8,3.8C527.2,307.6,541.5,319.2,545.8,335.2z M540.4,365.7
	c4.5-36.4-0.1-41.2-51.6-80.2l-5.6-3.7c-51.2-34.2-146.5-97.9-270.9-113.2c-121.5-11.7-191.3-8.4-235.5,42
	c-42.2,49.9-51.2,145.4,24.2,246c68.8,82,140.6,134.2,193,172.3c11.8,8.6,23,16.7,33.1,24.3c5.6,3.7,11,7.3,16.2,10.7
	c47.4,31.6,69.1,46.1,102.5,6.4c11.9-19.7,21.7-41.3,32.1-64.2c15.8-34.7,32.1-70.6,57-102.4c14.7-21.8,33.1-41.5,50.8-60.5
	C510.9,416.2,534.7,390.6,540.4,365.7z"/>
<path class="st0" d="M516,350.8c2.8,10.6,1.5,21.4-1.9,35.4c-7.4,23.8-29.6,47.3-53,72.2c-14,14.7-28.3,30-40.9,46.5
	c-20.3,23.7-36.1,49.6-51.4,74.6c-12.6,20.5-24.4,39.9-37.7,56.2l-0.2,0.2c-36.1,35.6-62.6,15.9-110.8-19.8l-0.6-0.4l-8.2-6.8
	c-46.8-38.6-111-91.5-168.8-172.1c-63.6-96.3-45.7-173.3-11.1-210c36.9-39.2,98.1-48.4,211.2-31.8c79.2,12.9,156.6,47.9,230.2,103.9
	C499.4,321.2,512,335.7,516,350.8z M326.7,632.4c12.9-16,24.7-35.2,37.1-55.5c15.4-25.2,31.4-51.3,51.9-75.2
	c12.6-16.6,27.2-32,41.2-46.8c23-24.4,44.8-47.4,51.7-69.9c7.9-31.9,3.9-45.6-39.6-81.6c-72.8-55.4-149.4-90-227.6-102.8
	c-110.9-16.3-170.6-7.6-206.1,30.1c-35.9,38.1-46.3,115.7,11.7,203.3c57.4,79.9,121.2,132.5,167.8,171l8.6,7
	C272,647.8,294.2,664.3,326.7,632.4z"/>
<path class="st0" d="M488.1,362.3c3.2,11.8,1.9,24-3.1,38.6l0,0.1c-8.4,22.2-29.4,43.9-51.7,66.9c-10.3,10.6-21,21.7-30.8,33.2
	c-14.8,15.8-27.8,32.4-40.5,48.5c-15.5,19.7-30.2,38.4-45.5,52.2c-33.4,25.8-59.2,8.1-97.8-24.1c-37.4-33.8-92-86.8-135-158.2
	C48,349.8,46,291.1,77.8,253.9c34.3-40.2,102.9-50.8,188.3-29.3c99,20,168.6,74.8,187.6,91.1C473.2,333.2,484.2,347.5,488.1,362.3z
	 M479.7,399.3c9.3-27.3,7.2-46.1-29.9-79.6c-18.7-16.1-87.4-70.2-185.1-89.9c-83.2-21-149.7-11-182.5,27.4
	c-30.3,35.5-28,92.1,6.6,159.6c42.5,70.7,96.7,123.3,133.8,156.8c39.7,33.1,61.6,46.3,90.4,24.1c14.8-13.3,29.3-31.8,44.7-51.3
	c12.7-16.2,25.8-32.9,40.7-48.8c9.9-11.5,20.6-22.6,31-33.3C451.1,441.7,471.7,420.4,479.7,399.3z"/>
<path class="st0" d="M462.4,371.5c3.4,12.5,1.9,25.2-3.8,39.6l-0.2,0.4c-36.2,58.8-132.7,142.6-151.7,158.9l-0.5,0.3
	c-29,16.4-52.2,3.1-84.8-27.4c-29.5-29-70.7-76.2-100.3-136.6c-25.4-56.1-24.1-103.5,3.5-133.6c30.7-33.4,88.8-41.3,159.5-21.7
	c67.3,15.9,122.2,51.3,151.1,79.1C449.9,345.1,458.8,358.2,462.4,371.5z M453.4,409c10.9-27.5,4.9-47.8-22.3-74.6
	c-28.3-27.3-82.2-62-148.6-77.7c-67.6-18.8-125-11.3-153.7,19.9c-26.1,28.4-27,73.8-2.5,127.8c29.2,59.6,70.1,106.3,99.2,135
	c31.2,29.1,51.9,41.3,77.8,26.8C357.7,519.6,425.6,453.9,453.4,409z"/>
<path class="st0" d="M438.6,380.2c3.6,13.4,2,26.2-4.6,37.5c-26.2,44.7-91.6,101.4-133.9,124.3c-10,4.6-20.9,4.8-32.4,0.7
	c-35.5-12.5-77.7-66.4-112.9-144.3c-17-44.7-13.3-82.4,10.4-106.3c26.8-27.1,74.9-32.8,131.9-15.8c72.3,22.6,124.4,59,139.3,97.2
	C437.3,375.7,438,378,438.6,380.2z M154.5,379.3c1.5,5.5,3.3,11.2,5.5,17c34.5,76.4,75.5,129.3,109.7,141.3
	c10.1,3.6,19.5,3.4,27.9-0.4c41.4-22.5,105.8-78.2,131.5-122.2c6.9-11.6,7.6-25.3,2-39.5c-14.3-36.7-65.1-71.9-135.8-94
	c-54-16.2-101.1-10.8-126,14.3C150.2,315,145.1,344.2,154.5,379.3z"/>
<path class="st0" d="M415.2,385.1c3.3,12.4,2.1,24.5-3.8,35.2c-20.7,38.2-74.3,82.8-114.7,95.4l-0.1,0
	c-37.5,10.3-84.4-41.2-111.3-122.3c-10.3-34.9-5-64.2,15-82.7c22.9-21.2,61.4-25.3,105.7-11.3c54,17.5,93.9,46.8,106.7,78.4
	C413.8,380.3,414.6,382.7,415.2,385.1z M295.2,510.6c39.1-12.2,91.1-55.5,111.3-92.6c6.2-11.3,6.5-24.4,1.1-37.9
	c-12.3-30.2-50.9-58.4-103.4-75.4c-42.3-13.3-78.7-9.6-100,10.1c-18.3,17-23.2,44.4-13.4,77.1C216.3,468.7,261.2,519.8,295.2,510.6z
	"/>
<path class="st0" d="M392.9,389.2c2.9,10.9,2,21.5-2.7,31.2c-16.5,33.9-59.6,66.4-94.2,71c-33.3,3.9-69.7-39.9-82.9-99.7
	c-5.4-26.3,0.7-48.4,17-62.3c18.7-15.8,48.3-18.8,81.3-8.2c38.6,12.7,68.1,35.2,78.8,60.2C391.3,384,392.2,386.6,392.9,389.2z
	 M220.8,399.6c14,52.4,45.8,89.8,74.6,86.4c32.3-4.3,74.2-36.1,89.7-67.9c5.1-10.5,5.1-22.4-0.1-34.5c-10.2-23.6-38.4-45-75.6-57.2
	c-31-10.1-58.6-7.5-75.8,7.1c-14.7,12.5-20.1,32.7-15.1,57C219.3,393.5,220,396.6,220.8,399.6z"/>
<path class="st0" d="M371.4,392.7c2.3,8.7,1.8,17.4-1.5,25.4c-11.7,27.9-44.3,50.5-72.6,50.4c-28.1-0.3-53.9-33.8-58.7-76.2
	c-2-18.9,3.8-34.6,16.5-44.5c14.3-11.2,35.7-13.3,58.7-5.8c26.2,8.6,46.2,24.2,54.9,42.8C369.7,387.4,370.7,390,371.4,392.7z
	 M297.4,463.1c25.7,0.1,56.5-21.4,67.3-46.9c3.8-9.1,3.4-19.1-1.3-29.2c-7.9-17-27.2-32-51.6-40c-21.1-6.8-40.5-5-53.3,4.9
	c-11.1,8.6-16.2,22.7-14.3,39.6C248.5,430.8,272.5,462.9,297.4,463.1z"/>
<path class="st0" d="M350.6,395.9c1.6,6.1,1.6,12.4-0.6,18.4c-7,20.3-29.6,34.9-50.2,32.7c-20.6-2.3-37.6-25.7-37.9-52.1
	c-0.2-12.2,4.7-22.5,13.6-28.8c9.8-7,23.6-8.5,37.9-4C332.9,368.2,346.7,381.4,350.6,395.9z M344.7,412.7
	c6.1-17.5-8.8-37.9-33.1-45.6c-12.5-3.9-24.4-2.7-32.7,3.2c-7.4,5.3-11.4,13.9-11.3,24.4c0.3,23.9,15.1,44.9,33,46.9
	C318.7,443.6,338.5,430.7,344.7,412.7z"/>
<path class="st0" d="M330.2,399.4c0.9,3.3,0.9,6.7,0,10.1c-3.1,11.6-15.2,19.2-27.1,16.9c-11.8-2.2-20.4-14.7-19.3-27.6
	c0.5-6.2,3.5-11.5,8.5-14.8c5.2-3.5,12.2-4.3,19.1-2.4C321.1,384.4,328.1,391.4,330.2,399.4z M290.2,406.7
	c1.9,7.3,7.4,13.1,14.3,14.5c9,1.7,18.1-4,20.4-12.8c2.3-8.8-4.5-18.4-15.2-21.5c-5.3-1.5-10.3-1-14.2,1.6c-3.5,2.3-5.6,6.1-6,10.7
	C289.2,401.7,289.5,404.3,290.2,406.7z"/>
</svg>
